M48
; DRILL file {KiCad (6.0.1)} date Fri Feb 11 00:15:44 2022
; FORMAT={-:-/ absolute / metric / decimal}
; #@! TF.CreationDate,2022-02-11T00:15:44+08:00
; #@! TF.GenerationSoftware,Kicad,Pcbnew,(6.0.1)
; #@! TF.FileFunction,Plated,1,2,PTH
FMAT,2
METRIC
; #@! TA.AperFunction,Plated,PTH,ViaDrill
T1C0.400
; #@! TA.AperFunction,Plated,PTH,ComponentDrill
T2C0.400
; #@! TA.AperFunction,Plated,PTH,ComponentDrill
T3C1.000
; #@! TA.AperFunction,Plated,PTH,ComponentDrill
T4C2.200
%
G90
G05
T1
X1.778Y12.446
X3.429Y7.493
X5.461Y21.082
X6.477Y36.322
X10.972Y21.386
X11.938Y16.129
X12.827Y13.843
X12.89Y14.795
X16.51Y18.542
X17.526Y22.733
X19.685Y20.574
X20.828Y21.971
T2
X1.144Y35.306
X1.144Y2.794
X1.627Y36.473
X1.627Y34.139
X1.627Y3.961
X1.627Y1.627
X2.794Y36.956
X2.794Y33.656
X2.794Y4.444
X2.794Y1.144
X3.961Y36.473
X3.961Y34.139
X3.961Y3.961
X3.961Y1.627
X4.444Y35.306
X4.444Y2.794
X20.956Y35.306
X20.956Y2.794
X21.439Y36.473
X21.439Y34.139
X21.439Y3.961
X21.439Y1.627
X22.606Y36.956
X22.606Y33.656
X22.606Y4.444
X22.606Y1.144
X23.773Y36.473
X23.773Y34.139
X23.773Y3.961
X23.773Y1.627
X24.256Y35.306
X24.256Y2.794
T3
X2.032Y29.718
X2.032Y27.178
X2.032Y24.638
X23.241Y27.559
X23.368Y14.732
X23.368Y12.192
X23.368Y9.652
T4
X2.794Y35.306
X2.794Y2.794
X22.606Y35.306
X22.606Y2.794
T0
M30
