%TF.GenerationSoftware,KiCad,Pcbnew,(6.0.1)*%
%TF.CreationDate,2022-02-11T00:14:37+08:00*%
%TF.ProjectId,OpenEMG_SMD_ver2.1,4f70656e-454d-4475-9f53-4d445f766572,rev?*%
%TF.SameCoordinates,Original*%
%TF.FileFunction,Paste,Top*%
%TF.FilePolarity,Positive*%
%FSLAX46Y46*%
G04 Gerber Fmt 4.6, Leading zero omitted, Abs format (unit mm)*
G04 Created by KiCad (PCBNEW (6.0.1)) date 2022-02-11 00:14:37*
%MOMM*%
%LPD*%
G01*
G04 APERTURE LIST*
G04 Aperture macros list*
%AMRoundRect*
0 Rectangle with rounded corners*
0 $1 Rounding radius*
0 $2 $3 $4 $5 $6 $7 $8 $9 X,Y pos of 4 corners*
0 Add a 4 corners polygon primitive as box body*
4,1,4,$2,$3,$4,$5,$6,$7,$8,$9,$2,$3,0*
0 Add four circle primitives for the rounded corners*
1,1,$1+$1,$2,$3*
1,1,$1+$1,$4,$5*
1,1,$1+$1,$6,$7*
1,1,$1+$1,$8,$9*
0 Add four rect primitives between the rounded corners*
20,1,$1+$1,$2,$3,$4,$5,0*
20,1,$1+$1,$4,$5,$6,$7,0*
20,1,$1+$1,$6,$7,$8,$9,0*
20,1,$1+$1,$8,$9,$2,$3,0*%
G04 Aperture macros list end*
%ADD10RoundRect,0.250000X0.550000X-1.500000X0.550000X1.500000X-0.550000X1.500000X-0.550000X-1.500000X0*%
%ADD11RoundRect,0.250000X0.262500X0.450000X-0.262500X0.450000X-0.262500X-0.450000X0.262500X-0.450000X0*%
%ADD12RoundRect,0.250000X0.250000X0.475000X-0.250000X0.475000X-0.250000X-0.475000X0.250000X-0.475000X0*%
%ADD13RoundRect,0.250000X0.450000X-0.262500X0.450000X0.262500X-0.450000X0.262500X-0.450000X-0.262500X0*%
%ADD14R,2.500000X1.800000*%
%ADD15RoundRect,0.250000X-0.262500X-0.450000X0.262500X-0.450000X0.262500X0.450000X-0.262500X0.450000X0*%
%ADD16RoundRect,0.150000X-0.825000X-0.150000X0.825000X-0.150000X0.825000X0.150000X-0.825000X0.150000X0*%
%ADD17RoundRect,0.250000X-0.250000X-0.475000X0.250000X-0.475000X0.250000X0.475000X-0.250000X0.475000X0*%
%ADD18RoundRect,0.250000X-0.450000X0.262500X-0.450000X-0.262500X0.450000X-0.262500X0.450000X0.262500X0*%
%ADD19RoundRect,0.250000X0.475000X-0.250000X0.475000X0.250000X-0.475000X0.250000X-0.475000X-0.250000X0*%
G04 APERTURE END LIST*
D10*
%TO.C,C9*%
X130810000Y-58326000D03*
X130810000Y-52926000D03*
%TD*%
D11*
%TO.C,R4*%
X121689500Y-62738000D03*
X119864500Y-62738000D03*
%TD*%
D12*
%TO.C,C1*%
X138491000Y-70104000D03*
X136591000Y-70104000D03*
%TD*%
D13*
%TO.C,R2*%
X117856000Y-74318500D03*
X117856000Y-72493500D03*
%TD*%
D14*
%TO.C,D3*%
X120555000Y-57531000D03*
X124555000Y-57531000D03*
%TD*%
D15*
%TO.C,R12*%
X120057500Y-71628000D03*
X121882500Y-71628000D03*
%TD*%
D16*
%TO.C,U1*%
X124525000Y-71628000D03*
X124525000Y-72898000D03*
X124525000Y-74168000D03*
X124525000Y-75438000D03*
X124525000Y-76708000D03*
X124525000Y-77978000D03*
X124525000Y-79248000D03*
X129475000Y-79248000D03*
X129475000Y-77978000D03*
X129475000Y-76708000D03*
X129475000Y-75438000D03*
X129475000Y-74168000D03*
X129475000Y-72898000D03*
X129475000Y-71628000D03*
%TD*%
D15*
%TO.C,R23*%
X127103500Y-60452000D03*
X128928500Y-60452000D03*
%TD*%
%TO.C,R22*%
X120753500Y-54483000D03*
X122578500Y-54483000D03*
%TD*%
D11*
%TO.C,R10*%
X121882500Y-73660000D03*
X120057500Y-73660000D03*
%TD*%
%TO.C,R7*%
X121882500Y-77724000D03*
X120057500Y-77724000D03*
%TD*%
D17*
%TO.C,C8*%
X119827000Y-60452000D03*
X121727000Y-60452000D03*
%TD*%
D13*
%TO.C,R15*%
X117856000Y-77874500D03*
X117856000Y-76049500D03*
%TD*%
D17*
%TO.C,C6*%
X132100000Y-69850000D03*
X134000000Y-69850000D03*
%TD*%
D15*
%TO.C,R11*%
X120118500Y-69596000D03*
X121943500Y-69596000D03*
%TD*%
D16*
%TO.C,U2*%
X124525000Y-62357000D03*
X124525000Y-63627000D03*
X124525000Y-64897000D03*
X124525000Y-66167000D03*
X129475000Y-66167000D03*
X129475000Y-64897000D03*
X129475000Y-63627000D03*
X129475000Y-62357000D03*
%TD*%
D13*
%TO.C,R1*%
X119761000Y-66444500D03*
X119761000Y-64619500D03*
%TD*%
D15*
%TO.C,R17*%
X127865500Y-69088000D03*
X129690500Y-69088000D03*
%TD*%
D14*
%TO.C,D2*%
X131032000Y-82169000D03*
X127032000Y-82169000D03*
%TD*%
D18*
%TO.C,R6*%
X133858000Y-79859500D03*
X133858000Y-81684500D03*
%TD*%
D12*
%TO.C,C2*%
X138491000Y-67818000D03*
X136591000Y-67818000D03*
%TD*%
D17*
%TO.C,C7*%
X132100000Y-75946000D03*
X134000000Y-75946000D03*
%TD*%
D14*
%TO.C,D1*%
X131032000Y-85852000D03*
X127032000Y-85852000D03*
%TD*%
D11*
%TO.C,R18*%
X133754500Y-62230000D03*
X131929500Y-62230000D03*
%TD*%
D13*
%TO.C,R13*%
X121666000Y-81430500D03*
X121666000Y-79605500D03*
%TD*%
D15*
%TO.C,R20*%
X132137500Y-71882000D03*
X133962500Y-71882000D03*
%TD*%
D13*
%TO.C,R9*%
X124206000Y-84986500D03*
X124206000Y-83161500D03*
%TD*%
%TO.C,R8*%
X121666000Y-84986500D03*
X121666000Y-83161500D03*
%TD*%
D17*
%TO.C,C4*%
X120020000Y-75692000D03*
X121920000Y-75692000D03*
%TD*%
%TO.C,C5*%
X117668000Y-79756000D03*
X119568000Y-79756000D03*
%TD*%
D15*
%TO.C,R16*%
X131929500Y-64516000D03*
X133754500Y-64516000D03*
%TD*%
D13*
%TO.C,R3*%
X117856000Y-70866000D03*
X117856000Y-69041000D03*
%TD*%
D19*
%TO.C,C3*%
X121920000Y-66482000D03*
X121920000Y-64582000D03*
%TD*%
D15*
%TO.C,R19*%
X132137500Y-73914000D03*
X133962500Y-73914000D03*
%TD*%
%TO.C,R14*%
X124309500Y-69088000D03*
X126134500Y-69088000D03*
%TD*%
D11*
%TO.C,R5*%
X133962500Y-77978000D03*
X132137500Y-77978000D03*
%TD*%
%TO.C,R21*%
X125372500Y-60452000D03*
X123547500Y-60452000D03*
%TD*%
M02*
