%TF.GenerationSoftware,KiCad,Pcbnew,(6.0.1)*%
%TF.CreationDate,2022-02-11T13:32:31+08:00*%
%TF.ProjectId,OpenEMG_SMD_ver2.1,4f70656e-454d-4475-9f53-4d445f766572,rev?*%
%TF.SameCoordinates,PX6d01460PY54c81a0*%
%TF.FileFunction,Legend,Top*%
%TF.FilePolarity,Positive*%
%FSLAX46Y46*%
G04 Gerber Fmt 4.6, Leading zero omitted, Abs format (unit mm)*
G04 Created by KiCad (PCBNEW (6.0.1)) date 2022-02-11 13:32:31*
%MOMM*%
%LPD*%
G01*
G04 APERTURE LIST*
%ADD10C,0.150000*%
%ADD11C,0.200000*%
%ADD12C,0.125000*%
%ADD13C,0.120000*%
G04 APERTURE END LIST*
D10*
X21393142Y13703429D02*
X21393142Y14312953D01*
X21697904Y14008191D02*
X21088380Y14008191D01*
X20897904Y15074858D02*
X20897904Y14693905D01*
X21278857Y14655810D01*
X21240761Y14693905D01*
X21202666Y14770096D01*
X21202666Y14960572D01*
X21240761Y15036762D01*
X21278857Y15074858D01*
X21355047Y15112953D01*
X21545523Y15112953D01*
X21621714Y15074858D01*
X21659809Y15036762D01*
X21697904Y14960572D01*
X21697904Y14770096D01*
X21659809Y14693905D01*
X21621714Y14655810D01*
X20897904Y15341524D02*
X21697904Y15608191D01*
X20897904Y15874858D01*
D11*
X21443904Y25216143D02*
X20643904Y25216143D01*
X21215333Y25482810D01*
X20643904Y25749477D01*
X21443904Y25749477D01*
X20643904Y26130429D02*
X21291523Y26130429D01*
X21367714Y26168524D01*
X21405809Y26206620D01*
X21443904Y26282810D01*
X21443904Y26435191D01*
X21405809Y26511381D01*
X21367714Y26549477D01*
X21291523Y26587572D01*
X20643904Y26587572D01*
X21367714Y27425667D02*
X21405809Y27387572D01*
X21443904Y27273286D01*
X21443904Y27197096D01*
X21405809Y27082810D01*
X21329619Y27006620D01*
X21253428Y26968524D01*
X21101047Y26930429D01*
X20986761Y26930429D01*
X20834380Y26968524D01*
X20758190Y27006620D01*
X20682000Y27082810D01*
X20643904Y27197096D01*
X20643904Y27273286D01*
X20682000Y27387572D01*
X20720095Y27425667D01*
X21520095Y27578048D02*
X21520095Y28187572D01*
X21443904Y28492334D02*
X21405809Y28416143D01*
X21367714Y28378048D01*
X21291523Y28339953D01*
X21062952Y28339953D01*
X20986761Y28378048D01*
X20948666Y28416143D01*
X20910571Y28492334D01*
X20910571Y28606620D01*
X20948666Y28682810D01*
X20986761Y28720905D01*
X21062952Y28759000D01*
X21291523Y28759000D01*
X21367714Y28720905D01*
X21405809Y28682810D01*
X21443904Y28606620D01*
X21443904Y28492334D01*
X20910571Y29444715D02*
X21443904Y29444715D01*
X20910571Y29101858D02*
X21329619Y29101858D01*
X21405809Y29139953D01*
X21443904Y29216143D01*
X21443904Y29330429D01*
X21405809Y29406620D01*
X21367714Y29444715D01*
X20910571Y29711381D02*
X20910571Y30016143D01*
X20643904Y29825667D02*
X21329619Y29825667D01*
X21405809Y29863762D01*
X21443904Y29939953D01*
X21443904Y30016143D01*
D10*
X20936000Y11455477D02*
X20897904Y11379286D01*
X20897904Y11265000D01*
X20936000Y11150715D01*
X21012190Y11074524D01*
X21088380Y11036429D01*
X21240761Y10998334D01*
X21355047Y10998334D01*
X21507428Y11036429D01*
X21583619Y11074524D01*
X21659809Y11150715D01*
X21697904Y11265000D01*
X21697904Y11341191D01*
X21659809Y11455477D01*
X21621714Y11493572D01*
X21355047Y11493572D01*
X21355047Y11341191D01*
X21697904Y11836429D02*
X20897904Y11836429D01*
X21697904Y12293572D01*
X20897904Y12293572D01*
X21697904Y12674524D02*
X20897904Y12674524D01*
X20897904Y12865000D01*
X20936000Y12979286D01*
X21012190Y13055477D01*
X21088380Y13093572D01*
X21240761Y13131667D01*
X21355047Y13131667D01*
X21507428Y13093572D01*
X21583619Y13055477D01*
X21659809Y12979286D01*
X21697904Y12865000D01*
X21697904Y12674524D01*
X21393142Y8242429D02*
X21393142Y8851953D01*
X20897904Y9613858D02*
X20897904Y9232905D01*
X21278857Y9194810D01*
X21240761Y9232905D01*
X21202666Y9309096D01*
X21202666Y9499572D01*
X21240761Y9575762D01*
X21278857Y9613858D01*
X21355047Y9651953D01*
X21545523Y9651953D01*
X21621714Y9613858D01*
X21659809Y9575762D01*
X21697904Y9499572D01*
X21697904Y9309096D01*
X21659809Y9232905D01*
X21621714Y9194810D01*
X20897904Y9880524D02*
X21697904Y10147191D01*
X20897904Y10413858D01*
X3879857Y30873572D02*
X3879857Y30264048D01*
X3575095Y30568810D02*
X4184619Y30568810D01*
X4375095Y29502143D02*
X4375095Y29883096D01*
X3994142Y29921191D01*
X4032238Y29883096D01*
X4070333Y29806905D01*
X4070333Y29616429D01*
X4032238Y29540239D01*
X3994142Y29502143D01*
X3917952Y29464048D01*
X3727476Y29464048D01*
X3651285Y29502143D01*
X3613190Y29540239D01*
X3575095Y29616429D01*
X3575095Y29806905D01*
X3613190Y29883096D01*
X3651285Y29921191D01*
X4375095Y29235477D02*
X3575095Y28968810D01*
X4375095Y28702143D01*
X3879857Y25666572D02*
X3879857Y25057048D01*
X4375095Y24295143D02*
X4375095Y24676096D01*
X3994142Y24714191D01*
X4032238Y24676096D01*
X4070333Y24599905D01*
X4070333Y24409429D01*
X4032238Y24333239D01*
X3994142Y24295143D01*
X3917952Y24257048D01*
X3727476Y24257048D01*
X3651285Y24295143D01*
X3613190Y24333239D01*
X3575095Y24409429D01*
X3575095Y24599905D01*
X3613190Y24676096D01*
X3651285Y24714191D01*
X4375095Y24028477D02*
X3575095Y23761810D01*
X4375095Y23495143D01*
X4337000Y27787524D02*
X4375095Y27863715D01*
X4375095Y27978000D01*
X4337000Y28092286D01*
X4260809Y28168477D01*
X4184619Y28206572D01*
X4032238Y28244667D01*
X3917952Y28244667D01*
X3765571Y28206572D01*
X3689380Y28168477D01*
X3613190Y28092286D01*
X3575095Y27978000D01*
X3575095Y27901810D01*
X3613190Y27787524D01*
X3651285Y27749429D01*
X3917952Y27749429D01*
X3917952Y27901810D01*
X3575095Y27406572D02*
X4375095Y27406572D01*
X3575095Y26949429D01*
X4375095Y26949429D01*
X3575095Y26568477D02*
X4375095Y26568477D01*
X4375095Y26378000D01*
X4337000Y26263715D01*
X4260809Y26187524D01*
X4184619Y26149429D01*
X4032238Y26111334D01*
X3917952Y26111334D01*
X3765571Y26149429D01*
X3689380Y26187524D01*
X3613190Y26263715D01*
X3575095Y26378000D01*
X3575095Y26568477D01*
D12*
%TO.C,C9*%
X20752571Y31285667D02*
X20776380Y31261858D01*
X20800190Y31190429D01*
X20800190Y31142810D01*
X20776380Y31071381D01*
X20728761Y31023762D01*
X20681142Y30999953D01*
X20585904Y30976143D01*
X20514476Y30976143D01*
X20419238Y30999953D01*
X20371619Y31023762D01*
X20324000Y31071381D01*
X20300190Y31142810D01*
X20300190Y31190429D01*
X20324000Y31261858D01*
X20347809Y31285667D01*
X20800190Y31523762D02*
X20800190Y31619000D01*
X20776380Y31666620D01*
X20752571Y31690429D01*
X20681142Y31738048D01*
X20585904Y31761858D01*
X20395428Y31761858D01*
X20347809Y31738048D01*
X20324000Y31714239D01*
X20300190Y31666620D01*
X20300190Y31571381D01*
X20324000Y31523762D01*
X20347809Y31499953D01*
X20395428Y31476143D01*
X20514476Y31476143D01*
X20562095Y31499953D01*
X20585904Y31523762D01*
X20609714Y31571381D01*
X20609714Y31666620D01*
X20585904Y31714239D01*
X20562095Y31738048D01*
X20514476Y31761858D01*
%TO.C,R4*%
X5377666Y26951810D02*
X5211000Y27189905D01*
X5091952Y26951810D02*
X5091952Y27451810D01*
X5282428Y27451810D01*
X5330047Y27428000D01*
X5353857Y27404191D01*
X5377666Y27356572D01*
X5377666Y27285143D01*
X5353857Y27237524D01*
X5330047Y27213715D01*
X5282428Y27189905D01*
X5091952Y27189905D01*
X5806238Y27285143D02*
X5806238Y26951810D01*
X5687190Y27475620D02*
X5568142Y27118477D01*
X5877666Y27118477D01*
%TO.C,C1*%
X23157666Y17220429D02*
X23133857Y17196620D01*
X23062428Y17172810D01*
X23014809Y17172810D01*
X22943380Y17196620D01*
X22895761Y17244239D01*
X22871952Y17291858D01*
X22848142Y17387096D01*
X22848142Y17458524D01*
X22871952Y17553762D01*
X22895761Y17601381D01*
X22943380Y17649000D01*
X23014809Y17672810D01*
X23062428Y17672810D01*
X23133857Y17649000D01*
X23157666Y17625191D01*
X23633857Y17172810D02*
X23348142Y17172810D01*
X23491000Y17172810D02*
X23491000Y17672810D01*
X23443380Y17601381D01*
X23395761Y17553762D01*
X23348142Y17529953D01*
%TO.C,R2*%
X2512190Y15410667D02*
X2274095Y15244000D01*
X2512190Y15124953D02*
X2012190Y15124953D01*
X2012190Y15315429D01*
X2036000Y15363048D01*
X2059809Y15386858D01*
X2107428Y15410667D01*
X2178857Y15410667D01*
X2226476Y15386858D01*
X2250285Y15363048D01*
X2274095Y15315429D01*
X2274095Y15124953D01*
X2059809Y15601143D02*
X2036000Y15624953D01*
X2012190Y15672572D01*
X2012190Y15791620D01*
X2036000Y15839239D01*
X2059809Y15863048D01*
X2107428Y15886858D01*
X2155047Y15886858D01*
X2226476Y15863048D01*
X2512190Y15577334D01*
X2512190Y15886858D01*
%TO.C,D3*%
X3694952Y31904810D02*
X3694952Y32404810D01*
X3814000Y32404810D01*
X3885428Y32381000D01*
X3933047Y32333381D01*
X3956857Y32285762D01*
X3980666Y32190524D01*
X3980666Y32119096D01*
X3956857Y32023858D01*
X3933047Y31976239D01*
X3885428Y31928620D01*
X3814000Y31904810D01*
X3694952Y31904810D01*
X4147333Y32404810D02*
X4456857Y32404810D01*
X4290190Y32214334D01*
X4361619Y32214334D01*
X4409238Y32190524D01*
X4433047Y32166715D01*
X4456857Y32119096D01*
X4456857Y32000048D01*
X4433047Y31952429D01*
X4409238Y31928620D01*
X4361619Y31904810D01*
X4218761Y31904810D01*
X4171142Y31928620D01*
X4147333Y31952429D01*
%TO.C,R12*%
X5052190Y16950572D02*
X4814095Y16783905D01*
X5052190Y16664858D02*
X4552190Y16664858D01*
X4552190Y16855334D01*
X4576000Y16902953D01*
X4599809Y16926762D01*
X4647428Y16950572D01*
X4718857Y16950572D01*
X4766476Y16926762D01*
X4790285Y16902953D01*
X4814095Y16855334D01*
X4814095Y16664858D01*
X5052190Y17426762D02*
X5052190Y17141048D01*
X5052190Y17283905D02*
X4552190Y17283905D01*
X4623619Y17236286D01*
X4671238Y17188667D01*
X4695047Y17141048D01*
X4599809Y17617239D02*
X4576000Y17641048D01*
X4552190Y17688667D01*
X4552190Y17807715D01*
X4576000Y17855334D01*
X4599809Y17879143D01*
X4647428Y17902953D01*
X4695047Y17902953D01*
X4766476Y17879143D01*
X5052190Y17593429D01*
X5052190Y17902953D01*
%TO.C,U1*%
X12446047Y18688810D02*
X12446047Y18284048D01*
X12469857Y18236429D01*
X12493666Y18212620D01*
X12541285Y18188810D01*
X12636523Y18188810D01*
X12684142Y18212620D01*
X12707952Y18236429D01*
X12731761Y18284048D01*
X12731761Y18688810D01*
X13231761Y18188810D02*
X12946047Y18188810D01*
X13088904Y18188810D02*
X13088904Y18688810D01*
X13041285Y18617381D01*
X12993666Y18569762D01*
X12946047Y18545953D01*
%TO.C,R23*%
X13013571Y29364810D02*
X12846904Y29602905D01*
X12727857Y29364810D02*
X12727857Y29864810D01*
X12918333Y29864810D01*
X12965952Y29841000D01*
X12989761Y29817191D01*
X13013571Y29769572D01*
X13013571Y29698143D01*
X12989761Y29650524D01*
X12965952Y29626715D01*
X12918333Y29602905D01*
X12727857Y29602905D01*
X13204047Y29817191D02*
X13227857Y29841000D01*
X13275476Y29864810D01*
X13394523Y29864810D01*
X13442142Y29841000D01*
X13465952Y29817191D01*
X13489761Y29769572D01*
X13489761Y29721953D01*
X13465952Y29650524D01*
X13180238Y29364810D01*
X13489761Y29364810D01*
X13656428Y29864810D02*
X13965952Y29864810D01*
X13799285Y29674334D01*
X13870714Y29674334D01*
X13918333Y29650524D01*
X13942142Y29626715D01*
X13965952Y29579096D01*
X13965952Y29460048D01*
X13942142Y29412429D01*
X13918333Y29388620D01*
X13870714Y29364810D01*
X13727857Y29364810D01*
X13680238Y29388620D01*
X13656428Y29412429D01*
%TO.C,R22*%
X7298571Y35587810D02*
X7131904Y35825905D01*
X7012857Y35587810D02*
X7012857Y36087810D01*
X7203333Y36087810D01*
X7250952Y36064000D01*
X7274761Y36040191D01*
X7298571Y35992572D01*
X7298571Y35921143D01*
X7274761Y35873524D01*
X7250952Y35849715D01*
X7203333Y35825905D01*
X7012857Y35825905D01*
X7489047Y36040191D02*
X7512857Y36064000D01*
X7560476Y36087810D01*
X7679523Y36087810D01*
X7727142Y36064000D01*
X7750952Y36040191D01*
X7774761Y35992572D01*
X7774761Y35944953D01*
X7750952Y35873524D01*
X7465238Y35587810D01*
X7774761Y35587810D01*
X7965238Y36040191D02*
X7989047Y36064000D01*
X8036666Y36087810D01*
X8155714Y36087810D01*
X8203333Y36064000D01*
X8227142Y36040191D01*
X8250952Y35992572D01*
X8250952Y35944953D01*
X8227142Y35873524D01*
X7941428Y35587810D01*
X8250952Y35587810D01*
%TO.C,R10*%
X5052190Y14918572D02*
X4814095Y14751905D01*
X5052190Y14632858D02*
X4552190Y14632858D01*
X4552190Y14823334D01*
X4576000Y14870953D01*
X4599809Y14894762D01*
X4647428Y14918572D01*
X4718857Y14918572D01*
X4766476Y14894762D01*
X4790285Y14870953D01*
X4814095Y14823334D01*
X4814095Y14632858D01*
X5052190Y15394762D02*
X5052190Y15109048D01*
X5052190Y15251905D02*
X4552190Y15251905D01*
X4623619Y15204286D01*
X4671238Y15156667D01*
X4695047Y15109048D01*
X4552190Y15704286D02*
X4552190Y15751905D01*
X4576000Y15799524D01*
X4599809Y15823334D01*
X4647428Y15847143D01*
X4742666Y15870953D01*
X4861714Y15870953D01*
X4956952Y15847143D01*
X5004571Y15823334D01*
X5028380Y15799524D01*
X5052190Y15751905D01*
X5052190Y15704286D01*
X5028380Y15656667D01*
X5004571Y15632858D01*
X4956952Y15609048D01*
X4861714Y15585239D01*
X4742666Y15585239D01*
X4647428Y15609048D01*
X4599809Y15632858D01*
X4576000Y15656667D01*
X4552190Y15704286D01*
%TO.C,R7*%
X5052190Y11092667D02*
X4814095Y10926000D01*
X5052190Y10806953D02*
X4552190Y10806953D01*
X4552190Y10997429D01*
X4576000Y11045048D01*
X4599809Y11068858D01*
X4647428Y11092667D01*
X4718857Y11092667D01*
X4766476Y11068858D01*
X4790285Y11045048D01*
X4814095Y10997429D01*
X4814095Y10806953D01*
X4552190Y11259334D02*
X4552190Y11592667D01*
X5052190Y11378381D01*
%TO.C,C8*%
X5123666Y29539429D02*
X5099857Y29515620D01*
X5028428Y29491810D01*
X4980809Y29491810D01*
X4909380Y29515620D01*
X4861761Y29563239D01*
X4837952Y29610858D01*
X4814142Y29706096D01*
X4814142Y29777524D01*
X4837952Y29872762D01*
X4861761Y29920381D01*
X4909380Y29968000D01*
X4980809Y29991810D01*
X5028428Y29991810D01*
X5099857Y29968000D01*
X5123666Y29944191D01*
X5409380Y29777524D02*
X5361761Y29801334D01*
X5337952Y29825143D01*
X5314142Y29872762D01*
X5314142Y29896572D01*
X5337952Y29944191D01*
X5361761Y29968000D01*
X5409380Y29991810D01*
X5504619Y29991810D01*
X5552238Y29968000D01*
X5576047Y29944191D01*
X5599857Y29896572D01*
X5599857Y29872762D01*
X5576047Y29825143D01*
X5552238Y29801334D01*
X5504619Y29777524D01*
X5409380Y29777524D01*
X5361761Y29753715D01*
X5337952Y29729905D01*
X5314142Y29682286D01*
X5314142Y29587048D01*
X5337952Y29539429D01*
X5361761Y29515620D01*
X5409380Y29491810D01*
X5504619Y29491810D01*
X5552238Y29515620D01*
X5576047Y29539429D01*
X5599857Y29587048D01*
X5599857Y29682286D01*
X5576047Y29729905D01*
X5552238Y29753715D01*
X5504619Y29777524D01*
%TO.C,R15*%
X2512190Y11108572D02*
X2274095Y10941905D01*
X2512190Y10822858D02*
X2012190Y10822858D01*
X2012190Y11013334D01*
X2036000Y11060953D01*
X2059809Y11084762D01*
X2107428Y11108572D01*
X2178857Y11108572D01*
X2226476Y11084762D01*
X2250285Y11060953D01*
X2274095Y11013334D01*
X2274095Y10822858D01*
X2512190Y11584762D02*
X2512190Y11299048D01*
X2512190Y11441905D02*
X2012190Y11441905D01*
X2083619Y11394286D01*
X2131238Y11346667D01*
X2155047Y11299048D01*
X2012190Y12037143D02*
X2012190Y11799048D01*
X2250285Y11775239D01*
X2226476Y11799048D01*
X2202666Y11846667D01*
X2202666Y11965715D01*
X2226476Y12013334D01*
X2250285Y12037143D01*
X2297904Y12060953D01*
X2416952Y12060953D01*
X2464571Y12037143D01*
X2488380Y12013334D01*
X2512190Y11965715D01*
X2512190Y11846667D01*
X2488380Y11799048D01*
X2464571Y11775239D01*
%TO.C,C6*%
X16815571Y19474667D02*
X16839380Y19450858D01*
X16863190Y19379429D01*
X16863190Y19331810D01*
X16839380Y19260381D01*
X16791761Y19212762D01*
X16744142Y19188953D01*
X16648904Y19165143D01*
X16577476Y19165143D01*
X16482238Y19188953D01*
X16434619Y19212762D01*
X16387000Y19260381D01*
X16363190Y19331810D01*
X16363190Y19379429D01*
X16387000Y19450858D01*
X16410809Y19474667D01*
X16363190Y19903239D02*
X16363190Y19808000D01*
X16387000Y19760381D01*
X16410809Y19736572D01*
X16482238Y19688953D01*
X16577476Y19665143D01*
X16767952Y19665143D01*
X16815571Y19688953D01*
X16839380Y19712762D01*
X16863190Y19760381D01*
X16863190Y19855620D01*
X16839380Y19903239D01*
X16815571Y19927048D01*
X16767952Y19950858D01*
X16648904Y19950858D01*
X16601285Y19927048D01*
X16577476Y19903239D01*
X16553666Y19855620D01*
X16553666Y19760381D01*
X16577476Y19712762D01*
X16601285Y19688953D01*
X16648904Y19665143D01*
%TO.C,R11*%
X5052190Y18982572D02*
X4814095Y18815905D01*
X5052190Y18696858D02*
X4552190Y18696858D01*
X4552190Y18887334D01*
X4576000Y18934953D01*
X4599809Y18958762D01*
X4647428Y18982572D01*
X4718857Y18982572D01*
X4766476Y18958762D01*
X4790285Y18934953D01*
X4814095Y18887334D01*
X4814095Y18696858D01*
X5052190Y19458762D02*
X5052190Y19173048D01*
X5052190Y19315905D02*
X4552190Y19315905D01*
X4623619Y19268286D01*
X4671238Y19220667D01*
X4695047Y19173048D01*
X5052190Y19934953D02*
X5052190Y19649239D01*
X5052190Y19792096D02*
X4552190Y19792096D01*
X4623619Y19744477D01*
X4671238Y19696858D01*
X4695047Y19649239D01*
%TO.C,U2*%
X12319047Y21863810D02*
X12319047Y21459048D01*
X12342857Y21411429D01*
X12366666Y21387620D01*
X12414285Y21363810D01*
X12509523Y21363810D01*
X12557142Y21387620D01*
X12580952Y21411429D01*
X12604761Y21459048D01*
X12604761Y21863810D01*
X12819047Y21816191D02*
X12842857Y21840000D01*
X12890476Y21863810D01*
X13009523Y21863810D01*
X13057142Y21840000D01*
X13080952Y21816191D01*
X13104761Y21768572D01*
X13104761Y21720953D01*
X13080952Y21649524D01*
X12795238Y21363810D01*
X13104761Y21363810D01*
%TO.C,R1*%
X6449190Y21125667D02*
X6211095Y20959000D01*
X6449190Y20839953D02*
X5949190Y20839953D01*
X5949190Y21030429D01*
X5973000Y21078048D01*
X5996809Y21101858D01*
X6044428Y21125667D01*
X6115857Y21125667D01*
X6163476Y21101858D01*
X6187285Y21078048D01*
X6211095Y21030429D01*
X6211095Y20839953D01*
X6449190Y21601858D02*
X6449190Y21316143D01*
X6449190Y21459000D02*
X5949190Y21459000D01*
X6020619Y21411381D01*
X6068238Y21363762D01*
X6092047Y21316143D01*
%TO.C,R17*%
X14156571Y20982810D02*
X13989904Y21220905D01*
X13870857Y20982810D02*
X13870857Y21482810D01*
X14061333Y21482810D01*
X14108952Y21459000D01*
X14132761Y21435191D01*
X14156571Y21387572D01*
X14156571Y21316143D01*
X14132761Y21268524D01*
X14108952Y21244715D01*
X14061333Y21220905D01*
X13870857Y21220905D01*
X14632761Y20982810D02*
X14347047Y20982810D01*
X14489904Y20982810D02*
X14489904Y21482810D01*
X14442285Y21411381D01*
X14394666Y21363762D01*
X14347047Y21339953D01*
X14799428Y21482810D02*
X15132761Y21482810D01*
X14918476Y20982810D01*
%TO.C,D2*%
X18426952Y5615810D02*
X18426952Y6115810D01*
X18546000Y6115810D01*
X18617428Y6092000D01*
X18665047Y6044381D01*
X18688857Y5996762D01*
X18712666Y5901524D01*
X18712666Y5830096D01*
X18688857Y5734858D01*
X18665047Y5687239D01*
X18617428Y5639620D01*
X18546000Y5615810D01*
X18426952Y5615810D01*
X18903142Y6068191D02*
X18926952Y6092000D01*
X18974571Y6115810D01*
X19093619Y6115810D01*
X19141238Y6092000D01*
X19165047Y6068191D01*
X19188857Y6020572D01*
X19188857Y5972953D01*
X19165047Y5901524D01*
X18879333Y5615810D01*
X19188857Y5615810D01*
%TO.C,R6*%
X18260190Y8933667D02*
X18022095Y8767000D01*
X18260190Y8647953D02*
X17760190Y8647953D01*
X17760190Y8838429D01*
X17784000Y8886048D01*
X17807809Y8909858D01*
X17855428Y8933667D01*
X17926857Y8933667D01*
X17974476Y8909858D01*
X17998285Y8886048D01*
X18022095Y8838429D01*
X18022095Y8647953D01*
X17760190Y9362239D02*
X17760190Y9267000D01*
X17784000Y9219381D01*
X17807809Y9195572D01*
X17879238Y9147953D01*
X17974476Y9124143D01*
X18164952Y9124143D01*
X18212571Y9147953D01*
X18236380Y9171762D01*
X18260190Y9219381D01*
X18260190Y9314620D01*
X18236380Y9362239D01*
X18212571Y9386048D01*
X18164952Y9409858D01*
X18045904Y9409858D01*
X17998285Y9386048D01*
X17974476Y9362239D01*
X17950666Y9314620D01*
X17950666Y9219381D01*
X17974476Y9171762D01*
X17998285Y9147953D01*
X18045904Y9124143D01*
%TO.C,C2*%
X23157666Y22300429D02*
X23133857Y22276620D01*
X23062428Y22252810D01*
X23014809Y22252810D01*
X22943380Y22276620D01*
X22895761Y22324239D01*
X22871952Y22371858D01*
X22848142Y22467096D01*
X22848142Y22538524D01*
X22871952Y22633762D01*
X22895761Y22681381D01*
X22943380Y22729000D01*
X23014809Y22752810D01*
X23062428Y22752810D01*
X23133857Y22729000D01*
X23157666Y22705191D01*
X23348142Y22705191D02*
X23371952Y22729000D01*
X23419571Y22752810D01*
X23538619Y22752810D01*
X23586238Y22729000D01*
X23610047Y22705191D01*
X23633857Y22657572D01*
X23633857Y22609953D01*
X23610047Y22538524D01*
X23324333Y22252810D01*
X23633857Y22252810D01*
%TO.C,JP1*%
X10505333Y36468810D02*
X10505333Y36111667D01*
X10481523Y36040239D01*
X10433904Y35992620D01*
X10362476Y35968810D01*
X10314857Y35968810D01*
X10743428Y35968810D02*
X10743428Y36468810D01*
X10933904Y36468810D01*
X10981523Y36445000D01*
X11005333Y36421191D01*
X11029142Y36373572D01*
X11029142Y36302143D01*
X11005333Y36254524D01*
X10981523Y36230715D01*
X10933904Y36206905D01*
X10743428Y36206905D01*
X11505333Y35968810D02*
X11219619Y35968810D01*
X11362476Y35968810D02*
X11362476Y36468810D01*
X11314857Y36397381D01*
X11267238Y36349762D01*
X11219619Y36325953D01*
%TO.C,C7*%
X16942571Y12870667D02*
X16966380Y12846858D01*
X16990190Y12775429D01*
X16990190Y12727810D01*
X16966380Y12656381D01*
X16918761Y12608762D01*
X16871142Y12584953D01*
X16775904Y12561143D01*
X16704476Y12561143D01*
X16609238Y12584953D01*
X16561619Y12608762D01*
X16514000Y12656381D01*
X16490190Y12727810D01*
X16490190Y12775429D01*
X16514000Y12846858D01*
X16537809Y12870667D01*
X16490190Y13037334D02*
X16490190Y13370667D01*
X16990190Y13156381D01*
%TO.C,D1*%
X18426952Y2821810D02*
X18426952Y3321810D01*
X18546000Y3321810D01*
X18617428Y3298000D01*
X18665047Y3250381D01*
X18688857Y3202762D01*
X18712666Y3107524D01*
X18712666Y3036096D01*
X18688857Y2940858D01*
X18665047Y2893239D01*
X18617428Y2845620D01*
X18546000Y2821810D01*
X18426952Y2821810D01*
X19188857Y2821810D02*
X18903142Y2821810D01*
X19046000Y2821810D02*
X19046000Y3321810D01*
X18998380Y3250381D01*
X18950761Y3202762D01*
X18903142Y3178953D01*
%TO.C,R18*%
X18220571Y27713810D02*
X18053904Y27951905D01*
X17934857Y27713810D02*
X17934857Y28213810D01*
X18125333Y28213810D01*
X18172952Y28190000D01*
X18196761Y28166191D01*
X18220571Y28118572D01*
X18220571Y28047143D01*
X18196761Y27999524D01*
X18172952Y27975715D01*
X18125333Y27951905D01*
X17934857Y27951905D01*
X18696761Y27713810D02*
X18411047Y27713810D01*
X18553904Y27713810D02*
X18553904Y28213810D01*
X18506285Y28142381D01*
X18458666Y28094762D01*
X18411047Y28070953D01*
X18982476Y27999524D02*
X18934857Y28023334D01*
X18911047Y28047143D01*
X18887238Y28094762D01*
X18887238Y28118572D01*
X18911047Y28166191D01*
X18934857Y28190000D01*
X18982476Y28213810D01*
X19077714Y28213810D01*
X19125333Y28190000D01*
X19149142Y28166191D01*
X19172952Y28118572D01*
X19172952Y28094762D01*
X19149142Y28047143D01*
X19125333Y28023334D01*
X19077714Y27999524D01*
X18982476Y27999524D01*
X18934857Y27975715D01*
X18911047Y27951905D01*
X18887238Y27904286D01*
X18887238Y27809048D01*
X18911047Y27761429D01*
X18934857Y27737620D01*
X18982476Y27713810D01*
X19077714Y27713810D01*
X19125333Y27737620D01*
X19149142Y27761429D01*
X19172952Y27809048D01*
X19172952Y27904286D01*
X19149142Y27951905D01*
X19125333Y27975715D01*
X19077714Y27999524D01*
%TO.C,R13*%
X6322190Y7044572D02*
X6084095Y6877905D01*
X6322190Y6758858D02*
X5822190Y6758858D01*
X5822190Y6949334D01*
X5846000Y6996953D01*
X5869809Y7020762D01*
X5917428Y7044572D01*
X5988857Y7044572D01*
X6036476Y7020762D01*
X6060285Y6996953D01*
X6084095Y6949334D01*
X6084095Y6758858D01*
X6322190Y7520762D02*
X6322190Y7235048D01*
X6322190Y7377905D02*
X5822190Y7377905D01*
X5893619Y7330286D01*
X5941238Y7282667D01*
X5965047Y7235048D01*
X5822190Y7687429D02*
X5822190Y7996953D01*
X6012666Y7830286D01*
X6012666Y7901715D01*
X6036476Y7949334D01*
X6060285Y7973143D01*
X6107904Y7996953D01*
X6226952Y7996953D01*
X6274571Y7973143D01*
X6298380Y7949334D01*
X6322190Y7901715D01*
X6322190Y7758858D01*
X6298380Y7711239D01*
X6274571Y7687429D01*
%TO.C,R20*%
X16990190Y16696572D02*
X16752095Y16529905D01*
X16990190Y16410858D02*
X16490190Y16410858D01*
X16490190Y16601334D01*
X16514000Y16648953D01*
X16537809Y16672762D01*
X16585428Y16696572D01*
X16656857Y16696572D01*
X16704476Y16672762D01*
X16728285Y16648953D01*
X16752095Y16601334D01*
X16752095Y16410858D01*
X16537809Y16887048D02*
X16514000Y16910858D01*
X16490190Y16958477D01*
X16490190Y17077524D01*
X16514000Y17125143D01*
X16537809Y17148953D01*
X16585428Y17172762D01*
X16633047Y17172762D01*
X16704476Y17148953D01*
X16990190Y16863239D01*
X16990190Y17172762D01*
X16490190Y17482286D02*
X16490190Y17529905D01*
X16514000Y17577524D01*
X16537809Y17601334D01*
X16585428Y17625143D01*
X16680666Y17648953D01*
X16799714Y17648953D01*
X16894952Y17625143D01*
X16942571Y17601334D01*
X16966380Y17577524D01*
X16990190Y17529905D01*
X16990190Y17482286D01*
X16966380Y17434667D01*
X16942571Y17410858D01*
X16894952Y17387048D01*
X16799714Y17363239D01*
X16680666Y17363239D01*
X16585428Y17387048D01*
X16537809Y17410858D01*
X16514000Y17434667D01*
X16490190Y17482286D01*
%TO.C,R9*%
X8862190Y4742667D02*
X8624095Y4576000D01*
X8862190Y4456953D02*
X8362190Y4456953D01*
X8362190Y4647429D01*
X8386000Y4695048D01*
X8409809Y4718858D01*
X8457428Y4742667D01*
X8528857Y4742667D01*
X8576476Y4718858D01*
X8600285Y4695048D01*
X8624095Y4647429D01*
X8624095Y4456953D01*
X8862190Y4980762D02*
X8862190Y5076000D01*
X8838380Y5123620D01*
X8814571Y5147429D01*
X8743142Y5195048D01*
X8647904Y5218858D01*
X8457428Y5218858D01*
X8409809Y5195048D01*
X8386000Y5171239D01*
X8362190Y5123620D01*
X8362190Y5028381D01*
X8386000Y4980762D01*
X8409809Y4956953D01*
X8457428Y4933143D01*
X8576476Y4933143D01*
X8624095Y4956953D01*
X8647904Y4980762D01*
X8671714Y5028381D01*
X8671714Y5123620D01*
X8647904Y5171239D01*
X8624095Y5195048D01*
X8576476Y5218858D01*
%TO.C,R8*%
X6322190Y4742667D02*
X6084095Y4576000D01*
X6322190Y4456953D02*
X5822190Y4456953D01*
X5822190Y4647429D01*
X5846000Y4695048D01*
X5869809Y4718858D01*
X5917428Y4742667D01*
X5988857Y4742667D01*
X6036476Y4718858D01*
X6060285Y4695048D01*
X6084095Y4647429D01*
X6084095Y4456953D01*
X6036476Y5028381D02*
X6012666Y4980762D01*
X5988857Y4956953D01*
X5941238Y4933143D01*
X5917428Y4933143D01*
X5869809Y4956953D01*
X5846000Y4980762D01*
X5822190Y5028381D01*
X5822190Y5123620D01*
X5846000Y5171239D01*
X5869809Y5195048D01*
X5917428Y5218858D01*
X5941238Y5218858D01*
X5988857Y5195048D01*
X6012666Y5171239D01*
X6036476Y5123620D01*
X6036476Y5028381D01*
X6060285Y4980762D01*
X6084095Y4956953D01*
X6131714Y4933143D01*
X6226952Y4933143D01*
X6274571Y4956953D01*
X6298380Y4980762D01*
X6322190Y5028381D01*
X6322190Y5123620D01*
X6298380Y5171239D01*
X6274571Y5195048D01*
X6226952Y5218858D01*
X6131714Y5218858D01*
X6084095Y5195048D01*
X6060285Y5171239D01*
X6036476Y5123620D01*
%TO.C,C4*%
X5004571Y13124667D02*
X5028380Y13100858D01*
X5052190Y13029429D01*
X5052190Y12981810D01*
X5028380Y12910381D01*
X4980761Y12862762D01*
X4933142Y12838953D01*
X4837904Y12815143D01*
X4766476Y12815143D01*
X4671238Y12838953D01*
X4623619Y12862762D01*
X4576000Y12910381D01*
X4552190Y12981810D01*
X4552190Y13029429D01*
X4576000Y13100858D01*
X4599809Y13124667D01*
X4718857Y13553239D02*
X5052190Y13553239D01*
X4528380Y13434191D02*
X4885523Y13315143D01*
X4885523Y13624667D01*
%TO.C,C5*%
X2464571Y9060667D02*
X2488380Y9036858D01*
X2512190Y8965429D01*
X2512190Y8917810D01*
X2488380Y8846381D01*
X2440761Y8798762D01*
X2393142Y8774953D01*
X2297904Y8751143D01*
X2226476Y8751143D01*
X2131238Y8774953D01*
X2083619Y8798762D01*
X2036000Y8846381D01*
X2012190Y8917810D01*
X2012190Y8965429D01*
X2036000Y9036858D01*
X2059809Y9060667D01*
X2012190Y9513048D02*
X2012190Y9274953D01*
X2250285Y9251143D01*
X2226476Y9274953D01*
X2202666Y9322572D01*
X2202666Y9441620D01*
X2226476Y9489239D01*
X2250285Y9513048D01*
X2297904Y9536858D01*
X2416952Y9536858D01*
X2464571Y9513048D01*
X2488380Y9489239D01*
X2512190Y9441620D01*
X2512190Y9322572D01*
X2488380Y9274953D01*
X2464571Y9251143D01*
%TO.C,R16*%
X18220571Y25300810D02*
X18053904Y25538905D01*
X17934857Y25300810D02*
X17934857Y25800810D01*
X18125333Y25800810D01*
X18172952Y25777000D01*
X18196761Y25753191D01*
X18220571Y25705572D01*
X18220571Y25634143D01*
X18196761Y25586524D01*
X18172952Y25562715D01*
X18125333Y25538905D01*
X17934857Y25538905D01*
X18696761Y25300810D02*
X18411047Y25300810D01*
X18553904Y25300810D02*
X18553904Y25800810D01*
X18506285Y25729381D01*
X18458666Y25681762D01*
X18411047Y25657953D01*
X19125333Y25800810D02*
X19030095Y25800810D01*
X18982476Y25777000D01*
X18958666Y25753191D01*
X18911047Y25681762D01*
X18887238Y25586524D01*
X18887238Y25396048D01*
X18911047Y25348429D01*
X18934857Y25324620D01*
X18982476Y25300810D01*
X19077714Y25300810D01*
X19125333Y25324620D01*
X19149142Y25348429D01*
X19172952Y25396048D01*
X19172952Y25515096D01*
X19149142Y25562715D01*
X19125333Y25586524D01*
X19077714Y25610334D01*
X18982476Y25610334D01*
X18934857Y25586524D01*
X18911047Y25562715D01*
X18887238Y25515096D01*
%TO.C,R3*%
X2512190Y18863167D02*
X2274095Y18696500D01*
X2512190Y18577453D02*
X2012190Y18577453D01*
X2012190Y18767929D01*
X2036000Y18815548D01*
X2059809Y18839358D01*
X2107428Y18863167D01*
X2178857Y18863167D01*
X2226476Y18839358D01*
X2250285Y18815548D01*
X2274095Y18767929D01*
X2274095Y18577453D01*
X2012190Y19029834D02*
X2012190Y19339358D01*
X2202666Y19172691D01*
X2202666Y19244120D01*
X2226476Y19291739D01*
X2250285Y19315548D01*
X2297904Y19339358D01*
X2416952Y19339358D01*
X2464571Y19315548D01*
X2488380Y19291739D01*
X2512190Y19244120D01*
X2512190Y19101262D01*
X2488380Y19053643D01*
X2464571Y19029834D01*
%TO.C,C3*%
X7798571Y21125667D02*
X7822380Y21101858D01*
X7846190Y21030429D01*
X7846190Y20982810D01*
X7822380Y20911381D01*
X7774761Y20863762D01*
X7727142Y20839953D01*
X7631904Y20816143D01*
X7560476Y20816143D01*
X7465238Y20839953D01*
X7417619Y20863762D01*
X7370000Y20911381D01*
X7346190Y20982810D01*
X7346190Y21030429D01*
X7370000Y21101858D01*
X7393809Y21125667D01*
X7346190Y21292334D02*
X7346190Y21601858D01*
X7536666Y21435191D01*
X7536666Y21506620D01*
X7560476Y21554239D01*
X7584285Y21578048D01*
X7631904Y21601858D01*
X7750952Y21601858D01*
X7798571Y21578048D01*
X7822380Y21554239D01*
X7846190Y21506620D01*
X7846190Y21363762D01*
X7822380Y21316143D01*
X7798571Y21292334D01*
%TO.C,R19*%
X16990190Y14664572D02*
X16752095Y14497905D01*
X16990190Y14378858D02*
X16490190Y14378858D01*
X16490190Y14569334D01*
X16514000Y14616953D01*
X16537809Y14640762D01*
X16585428Y14664572D01*
X16656857Y14664572D01*
X16704476Y14640762D01*
X16728285Y14616953D01*
X16752095Y14569334D01*
X16752095Y14378858D01*
X16990190Y15140762D02*
X16990190Y14855048D01*
X16990190Y14997905D02*
X16490190Y14997905D01*
X16561619Y14950286D01*
X16609238Y14902667D01*
X16633047Y14855048D01*
X16990190Y15378858D02*
X16990190Y15474096D01*
X16966380Y15521715D01*
X16942571Y15545524D01*
X16871142Y15593143D01*
X16775904Y15616953D01*
X16585428Y15616953D01*
X16537809Y15593143D01*
X16514000Y15569334D01*
X16490190Y15521715D01*
X16490190Y15426477D01*
X16514000Y15378858D01*
X16537809Y15355048D01*
X16585428Y15331239D01*
X16704476Y15331239D01*
X16752095Y15355048D01*
X16775904Y15378858D01*
X16799714Y15426477D01*
X16799714Y15521715D01*
X16775904Y15569334D01*
X16752095Y15593143D01*
X16704476Y15616953D01*
%TO.C,R14*%
X9584571Y20982810D02*
X9417904Y21220905D01*
X9298857Y20982810D02*
X9298857Y21482810D01*
X9489333Y21482810D01*
X9536952Y21459000D01*
X9560761Y21435191D01*
X9584571Y21387572D01*
X9584571Y21316143D01*
X9560761Y21268524D01*
X9536952Y21244715D01*
X9489333Y21220905D01*
X9298857Y21220905D01*
X10060761Y20982810D02*
X9775047Y20982810D01*
X9917904Y20982810D02*
X9917904Y21482810D01*
X9870285Y21411381D01*
X9822666Y21363762D01*
X9775047Y21339953D01*
X10489333Y21316143D02*
X10489333Y20982810D01*
X10370285Y21506620D02*
X10251238Y21149477D01*
X10560761Y21149477D01*
%TO.C,R5*%
X16990190Y10838667D02*
X16752095Y10672000D01*
X16990190Y10552953D02*
X16490190Y10552953D01*
X16490190Y10743429D01*
X16514000Y10791048D01*
X16537809Y10814858D01*
X16585428Y10838667D01*
X16656857Y10838667D01*
X16704476Y10814858D01*
X16728285Y10791048D01*
X16752095Y10743429D01*
X16752095Y10552953D01*
X16490190Y11291048D02*
X16490190Y11052953D01*
X16728285Y11029143D01*
X16704476Y11052953D01*
X16680666Y11100572D01*
X16680666Y11219620D01*
X16704476Y11267239D01*
X16728285Y11291048D01*
X16775904Y11314858D01*
X16894952Y11314858D01*
X16942571Y11291048D01*
X16966380Y11267239D01*
X16990190Y11219620D01*
X16990190Y11100572D01*
X16966380Y11052953D01*
X16942571Y11029143D01*
%TO.C,R21*%
X8060571Y27078810D02*
X7893904Y27316905D01*
X7774857Y27078810D02*
X7774857Y27578810D01*
X7965333Y27578810D01*
X8012952Y27555000D01*
X8036761Y27531191D01*
X8060571Y27483572D01*
X8060571Y27412143D01*
X8036761Y27364524D01*
X8012952Y27340715D01*
X7965333Y27316905D01*
X7774857Y27316905D01*
X8251047Y27531191D02*
X8274857Y27555000D01*
X8322476Y27578810D01*
X8441523Y27578810D01*
X8489142Y27555000D01*
X8512952Y27531191D01*
X8536761Y27483572D01*
X8536761Y27435953D01*
X8512952Y27364524D01*
X8227238Y27078810D01*
X8536761Y27078810D01*
X9012952Y27078810D02*
X8727238Y27078810D01*
X8870095Y27078810D02*
X8870095Y27578810D01*
X8822476Y27507381D01*
X8774857Y27459762D01*
X8727238Y27435953D01*
D13*
%TO.C,C9*%
X13100000Y30928437D02*
X13100000Y36684000D01*
X18855563Y29864000D02*
X19920000Y30928437D01*
X13100000Y36684000D02*
X15450000Y36684000D01*
X18855563Y29864000D02*
X17570000Y29864000D01*
X14164437Y29864000D02*
X13100000Y30928437D01*
X19920000Y30928437D02*
X19920000Y36684000D01*
X18288000Y28836500D02*
X18288000Y29624000D01*
X17894250Y29230250D02*
X18681750Y29230250D01*
X14164437Y29864000D02*
X15450000Y29864000D01*
X19920000Y36684000D02*
X17570000Y36684000D01*
%TO.C,R4*%
X6704064Y25427000D02*
X6249936Y25427000D01*
X6704064Y26897000D02*
X6249936Y26897000D01*
%TO.C,J1*%
X3362000Y28448000D02*
X3362000Y23308000D01*
X702000Y28448000D02*
X3362000Y28448000D01*
X702000Y31048000D02*
X2032000Y31048000D01*
X702000Y29718000D02*
X702000Y31048000D01*
X702000Y23308000D02*
X3362000Y23308000D01*
X702000Y28448000D02*
X702000Y23308000D01*
%TO.C,C1*%
X23502252Y19531000D02*
X22979748Y19531000D01*
X23502252Y18061000D02*
X22979748Y18061000D01*
%TO.C,R2*%
X4291000Y15266936D02*
X4291000Y15721064D01*
X2821000Y15266936D02*
X2821000Y15721064D01*
%TO.C,D3*%
X6233200Y33020000D02*
X11633200Y33020000D01*
X6233200Y29720000D02*
X11633200Y29720000D01*
X11633200Y33020000D02*
X11633200Y29720000D01*
%TO.C,R12*%
X6442936Y18007000D02*
X6897064Y18007000D01*
X6442936Y16537000D02*
X6897064Y16537000D01*
%TO.C,U1*%
X12700000Y9027000D02*
X14650000Y9027000D01*
X12700000Y17897000D02*
X9250000Y17897000D01*
X12700000Y17897000D02*
X14650000Y17897000D01*
X12700000Y9027000D02*
X10750000Y9027000D01*
%TO.C,R23*%
X13488936Y29183000D02*
X13943064Y29183000D01*
X13488936Y27713000D02*
X13943064Y27713000D01*
%TO.C,R22*%
X7138936Y33682000D02*
X7593064Y33682000D01*
X7138936Y35152000D02*
X7593064Y35152000D01*
%TO.C,R10*%
X6897064Y15975000D02*
X6442936Y15975000D01*
X6897064Y14505000D02*
X6442936Y14505000D01*
%TO.C,J3*%
X21911000Y28889000D02*
X23241000Y28889000D01*
X21911000Y26289000D02*
X21911000Y26229000D01*
X21911000Y27559000D02*
X21911000Y28889000D01*
X21911000Y26229000D02*
X24571000Y26229000D01*
X24571000Y26289000D02*
X24571000Y26229000D01*
X21911000Y26289000D02*
X24571000Y26289000D01*
%TO.C,R7*%
X6897064Y10441000D02*
X6442936Y10441000D01*
X6897064Y11911000D02*
X6442936Y11911000D01*
%TO.C,C8*%
X6215748Y29183000D02*
X6738252Y29183000D01*
X6215748Y27713000D02*
X6738252Y27713000D01*
%TO.C,R15*%
X4291000Y11710936D02*
X4291000Y12165064D01*
X2821000Y11710936D02*
X2821000Y12165064D01*
%TO.C,C6*%
X18488748Y18315000D02*
X19011252Y18315000D01*
X18488748Y19785000D02*
X19011252Y19785000D01*
%TO.C,R11*%
X6503936Y18569000D02*
X6958064Y18569000D01*
X6503936Y20039000D02*
X6958064Y20039000D01*
%TO.C,U2*%
X12700000Y27198000D02*
X14650000Y27198000D01*
X12700000Y22078000D02*
X14650000Y22078000D01*
X12700000Y22078000D02*
X10750000Y22078000D01*
X12700000Y27198000D02*
X9250000Y27198000D01*
%TO.C,R1*%
X4726000Y23140936D02*
X4726000Y23595064D01*
X6196000Y23140936D02*
X6196000Y23595064D01*
%TO.C,R17*%
X14250936Y19077000D02*
X14705064Y19077000D01*
X14250936Y20547000D02*
X14705064Y20547000D01*
%TO.C,D2*%
X11353800Y5080000D02*
X11353800Y8380000D01*
X16753800Y5080000D02*
X11353800Y5080000D01*
X16753800Y8380000D02*
X11353800Y8380000D01*
%TO.C,R6*%
X18823000Y8355064D02*
X18823000Y7900936D01*
X20293000Y8355064D02*
X20293000Y7900936D01*
%TO.C,C2*%
X23502252Y20347000D02*
X22979748Y20347000D01*
X23502252Y21817000D02*
X22979748Y21817000D01*
%TO.C,JP1*%
X9522000Y33544000D02*
X9522000Y35544000D01*
X12322000Y33544000D02*
X9522000Y33544000D01*
X12322000Y35544000D02*
X12322000Y33544000D01*
X9522000Y35544000D02*
X12322000Y35544000D01*
%TO.C,C7*%
X18488748Y13689000D02*
X19011252Y13689000D01*
X18488748Y12219000D02*
X19011252Y12219000D01*
%TO.C,D1*%
X16753800Y4697000D02*
X11353800Y4697000D01*
X11353800Y1397000D02*
X11353800Y4697000D01*
X16753800Y1397000D02*
X11353800Y1397000D01*
%TO.C,R18*%
X18769064Y27405000D02*
X18314936Y27405000D01*
X18769064Y25935000D02*
X18314936Y25935000D01*
%TO.C,R13*%
X8101000Y8154936D02*
X8101000Y8609064D01*
X6631000Y8154936D02*
X6631000Y8609064D01*
%TO.C,J2*%
X22038000Y13462000D02*
X24698000Y13462000D01*
X22038000Y14732000D02*
X22038000Y16062000D01*
X22038000Y8322000D02*
X24698000Y8322000D01*
X22038000Y16062000D02*
X23368000Y16062000D01*
X24698000Y13462000D02*
X24698000Y8322000D01*
X22038000Y13462000D02*
X22038000Y8322000D01*
%TO.C,R20*%
X18522936Y16283000D02*
X18977064Y16283000D01*
X18522936Y17753000D02*
X18977064Y17753000D01*
%TO.C,R9*%
X10641000Y4598936D02*
X10641000Y5053064D01*
X9171000Y4598936D02*
X9171000Y5053064D01*
%TO.C,R8*%
X8101000Y4598936D02*
X8101000Y5053064D01*
X6631000Y4598936D02*
X6631000Y5053064D01*
%TO.C,C4*%
X6408748Y13943000D02*
X6931252Y13943000D01*
X6408748Y12473000D02*
X6931252Y12473000D01*
%TO.C,C5*%
X4056748Y8409000D02*
X4579252Y8409000D01*
X4056748Y9879000D02*
X4579252Y9879000D01*
%TO.C,R16*%
X18314936Y23649000D02*
X18769064Y23649000D01*
X18314936Y25119000D02*
X18769064Y25119000D01*
%TO.C,R3*%
X2821000Y18719436D02*
X2821000Y19173564D01*
X4291000Y18719436D02*
X4291000Y19173564D01*
%TO.C,C3*%
X8355000Y23106748D02*
X8355000Y23629252D01*
X6885000Y23106748D02*
X6885000Y23629252D01*
%TO.C,R19*%
X18522936Y14251000D02*
X18977064Y14251000D01*
X18522936Y15721000D02*
X18977064Y15721000D01*
%TO.C,R14*%
X10694936Y20547000D02*
X11149064Y20547000D01*
X10694936Y19077000D02*
X11149064Y19077000D01*
%TO.C,R5*%
X18977064Y11657000D02*
X18522936Y11657000D01*
X18977064Y10187000D02*
X18522936Y10187000D01*
%TO.C,R21*%
X10387064Y29183000D02*
X9932936Y29183000D01*
X10387064Y27713000D02*
X9932936Y27713000D01*
%TD*%
M02*
