%TF.GenerationSoftware,KiCad,Pcbnew,(6.0.1)*%
%TF.CreationDate,2022-02-11T00:14:37+08:00*%
%TF.ProjectId,OpenEMG_SMD_ver2.1,4f70656e-454d-4475-9f53-4d445f766572,rev?*%
%TF.SameCoordinates,Original*%
%TF.FileFunction,Copper,L1,Top*%
%TF.FilePolarity,Positive*%
%FSLAX46Y46*%
G04 Gerber Fmt 4.6, Leading zero omitted, Abs format (unit mm)*
G04 Created by KiCad (PCBNEW (6.0.1)) date 2022-02-11 00:14:37*
%MOMM*%
%LPD*%
G01*
G04 APERTURE LIST*
G04 Aperture macros list*
%AMRoundRect*
0 Rectangle with rounded corners*
0 $1 Rounding radius*
0 $2 $3 $4 $5 $6 $7 $8 $9 X,Y pos of 4 corners*
0 Add a 4 corners polygon primitive as box body*
4,1,4,$2,$3,$4,$5,$6,$7,$8,$9,$2,$3,0*
0 Add four circle primitives for the rounded corners*
1,1,$1+$1,$2,$3*
1,1,$1+$1,$4,$5*
1,1,$1+$1,$6,$7*
1,1,$1+$1,$8,$9*
0 Add four rect primitives between the rounded corners*
20,1,$1+$1,$2,$3,$4,$5,0*
20,1,$1+$1,$4,$5,$6,$7,0*
20,1,$1+$1,$6,$7,$8,$9,0*
20,1,$1+$1,$8,$9,$2,$3,0*%
G04 Aperture macros list end*
%TA.AperFunction,SMDPad,CuDef*%
%ADD10RoundRect,0.250000X0.550000X-1.500000X0.550000X1.500000X-0.550000X1.500000X-0.550000X-1.500000X0*%
%TD*%
%TA.AperFunction,SMDPad,CuDef*%
%ADD11RoundRect,0.250000X0.262500X0.450000X-0.262500X0.450000X-0.262500X-0.450000X0.262500X-0.450000X0*%
%TD*%
%TA.AperFunction,ComponentPad*%
%ADD12C,0.700000*%
%TD*%
%TA.AperFunction,ComponentPad*%
%ADD13C,4.400000*%
%TD*%
%TA.AperFunction,ComponentPad*%
%ADD14R,1.700000X1.700000*%
%TD*%
%TA.AperFunction,ComponentPad*%
%ADD15O,1.700000X1.700000*%
%TD*%
%TA.AperFunction,SMDPad,CuDef*%
%ADD16RoundRect,0.250000X0.250000X0.475000X-0.250000X0.475000X-0.250000X-0.475000X0.250000X-0.475000X0*%
%TD*%
%TA.AperFunction,SMDPad,CuDef*%
%ADD17RoundRect,0.250000X0.450000X-0.262500X0.450000X0.262500X-0.450000X0.262500X-0.450000X-0.262500X0*%
%TD*%
%TA.AperFunction,SMDPad,CuDef*%
%ADD18R,2.500000X1.800000*%
%TD*%
%TA.AperFunction,SMDPad,CuDef*%
%ADD19RoundRect,0.250000X-0.262500X-0.450000X0.262500X-0.450000X0.262500X0.450000X-0.262500X0.450000X0*%
%TD*%
%TA.AperFunction,SMDPad,CuDef*%
%ADD20RoundRect,0.150000X-0.825000X-0.150000X0.825000X-0.150000X0.825000X0.150000X-0.825000X0.150000X0*%
%TD*%
%TA.AperFunction,SMDPad,CuDef*%
%ADD21RoundRect,0.250000X-0.250000X-0.475000X0.250000X-0.475000X0.250000X0.475000X-0.250000X0.475000X0*%
%TD*%
%TA.AperFunction,SMDPad,CuDef*%
%ADD22RoundRect,0.250000X-0.450000X0.262500X-0.450000X-0.262500X0.450000X-0.262500X0.450000X0.262500X0*%
%TD*%
%TA.AperFunction,SMDPad,CuDef*%
%ADD23R,1.000000X1.500000*%
%TD*%
%TA.AperFunction,SMDPad,CuDef*%
%ADD24RoundRect,0.250000X0.475000X-0.250000X0.475000X0.250000X-0.475000X0.250000X-0.475000X-0.250000X0*%
%TD*%
%TA.AperFunction,ViaPad*%
%ADD25C,0.600000*%
%TD*%
%TA.AperFunction,Conductor*%
%ADD26C,0.300000*%
%TD*%
%TA.AperFunction,Conductor*%
%ADD27C,0.500000*%
%TD*%
%TA.AperFunction,Conductor*%
%ADD28C,0.200000*%
%TD*%
G04 APERTURE END LIST*
D10*
%TO.P,C9,1*%
%TO.N,Net-(C9-Pad1)*%
X130810000Y-58326000D03*
%TO.P,C9,2*%
%TO.N,GND*%
X130810000Y-52926000D03*
%TD*%
D11*
%TO.P,R4,1*%
%TO.N,Net-(C3-Pad2)*%
X121689500Y-62738000D03*
%TO.P,R4,2*%
%TO.N,Net-(R1-Pad2)*%
X119864500Y-62738000D03*
%TD*%
D12*
%TO.P,H6,1,1*%
%TO.N,GND*%
X115444000Y-86106000D03*
X118260726Y-84939274D03*
X117094000Y-84456000D03*
X117094000Y-87756000D03*
X118744000Y-86106000D03*
X115927274Y-87272726D03*
X115927274Y-84939274D03*
X118260726Y-87272726D03*
D13*
X117094000Y-86106000D03*
%TD*%
D14*
%TO.P,J1,1,Pin_1*%
%TO.N,VCC*%
X116332000Y-59182000D03*
D15*
%TO.P,J1,2,Pin_2*%
%TO.N,GND*%
X116332000Y-61722000D03*
%TO.P,J1,3,Pin_3*%
%TO.N,-VDC*%
X116332000Y-64262000D03*
%TD*%
D12*
%TO.P,H4,1,1*%
%TO.N,GND*%
X135256000Y-53594000D03*
X135739274Y-52427274D03*
X138556000Y-53594000D03*
X135739274Y-54760726D03*
D13*
X136906000Y-53594000D03*
D12*
X138072726Y-54760726D03*
X138072726Y-52427274D03*
X136906000Y-51944000D03*
X136906000Y-55244000D03*
%TD*%
D16*
%TO.P,C1,1*%
%TO.N,VCC*%
X138491000Y-70104000D03*
%TO.P,C1,2*%
%TO.N,-VDC*%
X136591000Y-70104000D03*
%TD*%
D17*
%TO.P,R2,1*%
%TO.N,Net-(H2-Pad1)*%
X117856000Y-74318500D03*
%TO.P,R2,2*%
%TO.N,Net-(R2-Pad2)*%
X117856000Y-72493500D03*
%TD*%
D18*
%TO.P,D3,1,K*%
%TO.N,Net-(C8-Pad2)*%
X120555000Y-57531000D03*
%TO.P,D3,2,A*%
%TO.N,Net-(D3-Pad2)*%
X124555000Y-57531000D03*
%TD*%
D19*
%TO.P,R12,1*%
%TO.N,Net-(R10-Pad1)*%
X120057500Y-71628000D03*
%TO.P,R12,2*%
%TO.N,Net-(R11-Pad2)*%
X121882500Y-71628000D03*
%TD*%
D20*
%TO.P,U1,1*%
%TO.N,Net-(R11-Pad2)*%
X124525000Y-71628000D03*
%TO.P,U1,2,-*%
%TO.N,Net-(R10-Pad1)*%
X124525000Y-72898000D03*
%TO.P,U1,3,+*%
%TO.N,Net-(C4-Pad2)*%
X124525000Y-74168000D03*
%TO.P,U1,4,V+*%
%TO.N,VCC*%
X124525000Y-75438000D03*
%TO.P,U1,5,+*%
%TO.N,GND*%
X124525000Y-76708000D03*
%TO.P,U1,6,-*%
%TO.N,Net-(R13-Pad1)*%
X124525000Y-77978000D03*
%TO.P,U1,7*%
%TO.N,Net-(C5-Pad2)*%
X124525000Y-79248000D03*
%TO.P,U1,8*%
%TO.N,Net-(D1-Pad1)*%
X129475000Y-79248000D03*
%TO.P,U1,9,-*%
%TO.N,Net-(D1-Pad2)*%
X129475000Y-77978000D03*
%TO.P,U1,10,+*%
%TO.N,GND*%
X129475000Y-76708000D03*
%TO.P,U1,11,V-*%
%TO.N,-VDC*%
X129475000Y-75438000D03*
%TO.P,U1,12,+*%
%TO.N,Net-(C7-Pad1)*%
X129475000Y-74168000D03*
%TO.P,U1,13,-*%
%TO.N,Net-(R19-Pad1)*%
X129475000Y-72898000D03*
%TO.P,U1,14*%
%TO.N,/AC_signal*%
X129475000Y-71628000D03*
%TD*%
D19*
%TO.P,R23,1*%
%TO.N,Net-(C9-Pad1)*%
X127103500Y-60452000D03*
%TO.P,R23,2*%
%TO.N,GND*%
X128928500Y-60452000D03*
%TD*%
%TO.P,R22,1*%
%TO.N,Net-(D3-Pad2)*%
X120753500Y-54483000D03*
%TO.P,R22,2*%
%TO.N,Net-(C9-Pad1)*%
X122578500Y-54483000D03*
%TD*%
D11*
%TO.P,R10,1*%
%TO.N,Net-(R10-Pad1)*%
X121882500Y-73660000D03*
%TO.P,R10,2*%
%TO.N,GND*%
X120057500Y-73660000D03*
%TD*%
D14*
%TO.P,J3,1,Pin_1*%
%TO.N,Net-(D3-Pad2)*%
X137541000Y-61341000D03*
%TD*%
D11*
%TO.P,R7,1*%
%TO.N,Net-(C4-Pad2)*%
X121882500Y-77724000D03*
%TO.P,R7,2*%
%TO.N,GND*%
X120057500Y-77724000D03*
%TD*%
D21*
%TO.P,C8,1*%
%TO.N,GND*%
X119827000Y-60452000D03*
%TO.P,C8,2*%
%TO.N,Net-(C8-Pad2)*%
X121727000Y-60452000D03*
%TD*%
D17*
%TO.P,R15,1*%
%TO.N,Net-(C5-Pad1)*%
X117856000Y-77874500D03*
%TO.P,R15,2*%
%TO.N,GND*%
X117856000Y-76049500D03*
%TD*%
D21*
%TO.P,C6,1*%
%TO.N,Net-(C6-Pad1)*%
X132100000Y-69850000D03*
%TO.P,C6,2*%
%TO.N,/AC_signal*%
X134000000Y-69850000D03*
%TD*%
D19*
%TO.P,R11,1*%
%TO.N,Net-(C3-Pad1)*%
X120118500Y-69596000D03*
%TO.P,R11,2*%
%TO.N,Net-(R11-Pad2)*%
X121943500Y-69596000D03*
%TD*%
D20*
%TO.P,U2,1*%
%TO.N,Net-(C3-Pad2)*%
X124525000Y-62357000D03*
%TO.P,U2,2,-*%
%TO.N,Net-(R1-Pad2)*%
X124525000Y-63627000D03*
%TO.P,U2,3,+*%
%TO.N,Net-(R2-Pad2)*%
X124525000Y-64897000D03*
%TO.P,U2,4,V-*%
%TO.N,-VDC*%
X124525000Y-66167000D03*
%TO.P,U2,5,+*%
%TO.N,Net-(C5-Pad1)*%
X129475000Y-66167000D03*
%TO.P,U2,6,-*%
%TO.N,Net-(R16-Pad1)*%
X129475000Y-64897000D03*
%TO.P,U2,7*%
%TO.N,Net-(R18-Pad2)*%
X129475000Y-63627000D03*
%TO.P,U2,8,V+*%
%TO.N,VCC*%
X129475000Y-62357000D03*
%TD*%
D17*
%TO.P,R1,1*%
%TO.N,Net-(H1-Pad1)*%
X119761000Y-66444500D03*
%TO.P,R1,2*%
%TO.N,Net-(R1-Pad2)*%
X119761000Y-64619500D03*
%TD*%
D19*
%TO.P,R17,1*%
%TO.N,Net-(C6-Pad1)*%
X127865500Y-69088000D03*
%TO.P,R17,2*%
%TO.N,Net-(C7-Pad1)*%
X129690500Y-69088000D03*
%TD*%
D18*
%TO.P,D2,1,K*%
%TO.N,Net-(D2-Pad1)*%
X131032000Y-82169000D03*
%TO.P,D2,2,A*%
%TO.N,Net-(D1-Pad1)*%
X127032000Y-82169000D03*
%TD*%
D22*
%TO.P,R6,1*%
%TO.N,Net-(D1-Pad2)*%
X133858000Y-79859500D03*
%TO.P,R6,2*%
%TO.N,Net-(D2-Pad1)*%
X133858000Y-81684500D03*
%TD*%
D16*
%TO.P,C2,1*%
%TO.N,VCC*%
X138491000Y-67818000D03*
%TO.P,C2,2*%
%TO.N,GND*%
X136591000Y-67818000D03*
%TD*%
D23*
%TO.P,JP1,1,A*%
%TO.N,Net-(C9-Pad1)*%
X125872000Y-54356000D03*
%TO.P,JP1,2,B*%
%TO.N,Net-(D3-Pad2)*%
X124572000Y-54356000D03*
%TD*%
D21*
%TO.P,C7,1*%
%TO.N,Net-(C7-Pad1)*%
X132100000Y-75946000D03*
%TO.P,C7,2*%
%TO.N,GND*%
X134000000Y-75946000D03*
%TD*%
D12*
%TO.P,H5,1,1*%
%TO.N,GND*%
X135739274Y-87272726D03*
X136906000Y-84456000D03*
D13*
X136906000Y-86106000D03*
D12*
X135739274Y-84939274D03*
X136906000Y-87756000D03*
X138072726Y-87272726D03*
X135256000Y-86106000D03*
X138072726Y-84939274D03*
X138556000Y-86106000D03*
%TD*%
D18*
%TO.P,D1,1,K*%
%TO.N,Net-(D1-Pad1)*%
X131032000Y-85852000D03*
%TO.P,D1,2,A*%
%TO.N,Net-(D1-Pad2)*%
X127032000Y-85852000D03*
%TD*%
D11*
%TO.P,R18,1*%
%TO.N,Net-(R16-Pad1)*%
X133754500Y-62230000D03*
%TO.P,R18,2*%
%TO.N,Net-(R18-Pad2)*%
X131929500Y-62230000D03*
%TD*%
D17*
%TO.P,R13,1*%
%TO.N,Net-(R13-Pad1)*%
X121666000Y-81430500D03*
%TO.P,R13,2*%
%TO.N,Net-(C5-Pad2)*%
X121666000Y-79605500D03*
%TD*%
D14*
%TO.P,J2,1,Pin_1*%
%TO.N,VCC*%
X137668000Y-74168000D03*
D15*
%TO.P,J2,2,Pin_2*%
%TO.N,GND*%
X137668000Y-76708000D03*
%TO.P,J2,3,Pin_3*%
%TO.N,-VDC*%
X137668000Y-79248000D03*
%TD*%
D19*
%TO.P,R20,1*%
%TO.N,Net-(R19-Pad1)*%
X132137500Y-71882000D03*
%TO.P,R20,2*%
%TO.N,/AC_signal*%
X133962500Y-71882000D03*
%TD*%
D17*
%TO.P,R9,1*%
%TO.N,Net-(D2-Pad1)*%
X124206000Y-84986500D03*
%TO.P,R9,2*%
%TO.N,Net-(R13-Pad1)*%
X124206000Y-83161500D03*
%TD*%
%TO.P,R8,1*%
%TO.N,/AC_signal*%
X121666000Y-84986500D03*
%TO.P,R8,2*%
%TO.N,Net-(R13-Pad1)*%
X121666000Y-83161500D03*
%TD*%
D21*
%TO.P,C4,1*%
%TO.N,Net-(C3-Pad1)*%
X120020000Y-75692000D03*
%TO.P,C4,2*%
%TO.N,Net-(C4-Pad2)*%
X121920000Y-75692000D03*
%TD*%
%TO.P,C5,1*%
%TO.N,Net-(C5-Pad1)*%
X117668000Y-79756000D03*
%TO.P,C5,2*%
%TO.N,Net-(C5-Pad2)*%
X119568000Y-79756000D03*
%TD*%
D19*
%TO.P,R16,1*%
%TO.N,Net-(R16-Pad1)*%
X131929500Y-64516000D03*
%TO.P,R16,2*%
%TO.N,GND*%
X133754500Y-64516000D03*
%TD*%
D17*
%TO.P,R3,1*%
%TO.N,Net-(R2-Pad2)*%
X117856000Y-70866000D03*
%TO.P,R3,2*%
%TO.N,GND*%
X117856000Y-69041000D03*
%TD*%
D12*
%TO.P,H3,1,1*%
%TO.N,GND*%
X115927274Y-52427274D03*
X117094000Y-51944000D03*
D13*
X117094000Y-53594000D03*
D12*
X118260726Y-54760726D03*
X115927274Y-54760726D03*
X118260726Y-52427274D03*
X118744000Y-53594000D03*
X115444000Y-53594000D03*
X117094000Y-55244000D03*
%TD*%
D24*
%TO.P,C3,1*%
%TO.N,Net-(C3-Pad1)*%
X121920000Y-66482000D03*
%TO.P,C3,2*%
%TO.N,Net-(C3-Pad2)*%
X121920000Y-64582000D03*
%TD*%
D19*
%TO.P,R19,1*%
%TO.N,Net-(R19-Pad1)*%
X132137500Y-73914000D03*
%TO.P,R19,2*%
%TO.N,GND*%
X133962500Y-73914000D03*
%TD*%
%TO.P,R14,1*%
%TO.N,Net-(R11-Pad2)*%
X124309500Y-69088000D03*
%TO.P,R14,2*%
%TO.N,Net-(C6-Pad1)*%
X126134500Y-69088000D03*
%TD*%
D11*
%TO.P,R5,1*%
%TO.N,/AC_signal*%
X133962500Y-77978000D03*
%TO.P,R5,2*%
%TO.N,Net-(D1-Pad2)*%
X132137500Y-77978000D03*
%TD*%
%TO.P,R21,1*%
%TO.N,Net-(R18-Pad2)*%
X125372500Y-60452000D03*
%TO.P,R21,2*%
%TO.N,Net-(C8-Pad2)*%
X123547500Y-60452000D03*
%TD*%
D25*
%TO.N,VCC*%
X135128000Y-66929000D03*
X126238000Y-72771000D03*
%TO.N,-VDC*%
X127190500Y-74104500D03*
X125272480Y-67513520D03*
%TO.N,GND*%
X127127000Y-75057000D03*
%TO.N,Net-(C5-Pad1)*%
X116078000Y-76454000D03*
X131826000Y-66167000D03*
%TO.N,/AC_signal*%
X130810000Y-70358000D03*
X133985000Y-68326000D03*
%TO.N,Net-(D3-Pad2)*%
X120777000Y-52578000D03*
%TO.N,Net-(H1-Pad1)*%
X119761000Y-67818000D03*
%TO.N,Net-(H2-Pad1)*%
X117729000Y-81407000D03*
%TD*%
D26*
%TO.N,VCC*%
X125984000Y-75438000D02*
X126238000Y-75184000D01*
X129475000Y-62357000D02*
X129063573Y-62357000D01*
X128555573Y-66929000D02*
X135128000Y-66929000D01*
X128150480Y-66523907D02*
X128555573Y-66929000D01*
X135907151Y-66929000D02*
X136161151Y-66675000D01*
X129063573Y-62357000D02*
X128150480Y-63270093D01*
X138491000Y-67818000D02*
X138491000Y-70104000D01*
X135128000Y-66929000D02*
X135907151Y-66929000D01*
X137348000Y-66675000D02*
X138491000Y-67818000D01*
X128150480Y-63270093D02*
X128150480Y-66523907D01*
X124525000Y-75438000D02*
X125984000Y-75438000D01*
X136161151Y-66675000D02*
X137348000Y-66675000D01*
X126238000Y-75184000D02*
X126238000Y-72771000D01*
%TO.N,-VDC*%
X127190500Y-74104500D02*
X127571500Y-74485500D01*
X134213960Y-67538960D02*
X127482960Y-67538960D01*
X135255000Y-69469000D02*
X135255000Y-68580000D01*
X125272480Y-66914480D02*
X124525000Y-66167000D01*
X136591000Y-70104000D02*
X135890000Y-70104000D01*
X127127000Y-72548573D02*
X127127000Y-74041000D01*
X135255000Y-68580000D02*
X134213960Y-67538960D01*
X127127000Y-74041000D02*
X127190500Y-74104500D01*
X126111000Y-66167000D02*
X124525000Y-66167000D01*
X125272480Y-70694053D02*
X127127000Y-72548573D01*
X125272480Y-66914480D02*
X125272480Y-67513520D01*
X135890000Y-70104000D02*
X135255000Y-69469000D01*
X127482960Y-67538960D02*
X126111000Y-66167000D01*
X125272480Y-67513520D02*
X125272480Y-70694053D01*
X128524000Y-75438000D02*
X129475000Y-75438000D01*
X127571500Y-74485500D02*
X128524000Y-75438000D01*
%TO.N,GND*%
X120057500Y-77724000D02*
X119566849Y-77724000D01*
D27*
X130810000Y-51562000D02*
X130683000Y-51435000D01*
X119253000Y-51435000D02*
X130683000Y-51435000D01*
D26*
X133962500Y-75908500D02*
X134000000Y-75946000D01*
X120869520Y-74472020D02*
X120869520Y-76911980D01*
X114928970Y-67303970D02*
X116666000Y-69041000D01*
X139340520Y-66950520D02*
X139340520Y-56028520D01*
X137668000Y-76708000D02*
X134762000Y-76708000D01*
D27*
X130810000Y-52926000D02*
X130810000Y-51562000D01*
D26*
X138989329Y-71178520D02*
X139340520Y-70827329D01*
X118517520Y-84682480D02*
X117348000Y-85852000D01*
X134706001Y-88305999D02*
X136906000Y-86106000D01*
X137668000Y-76708000D02*
X139319000Y-76708000D01*
X114928970Y-83940970D02*
X117094000Y-86106000D01*
X128928500Y-60452000D02*
X130429000Y-60452000D01*
X124525000Y-76708000D02*
X127127000Y-76708000D01*
X119566849Y-77724000D02*
X118517520Y-78773329D01*
X139340520Y-56028520D02*
X136906000Y-53594000D01*
D27*
X130683000Y-51435000D02*
X134747000Y-51435000D01*
D26*
X137641480Y-70827329D02*
X137992671Y-71178520D01*
X115132489Y-66317489D02*
X115132489Y-62921511D01*
X116332000Y-61722000D02*
X117602000Y-60452000D01*
X135001000Y-64516000D02*
X133754500Y-64516000D01*
X117348000Y-53848000D02*
X115132489Y-56063511D01*
X134762000Y-76708000D02*
X134000000Y-75946000D01*
X139340520Y-70827329D02*
X139340520Y-70379520D01*
X137992671Y-71178520D02*
X138989329Y-71178520D01*
X114928970Y-67303970D02*
X114928970Y-83940970D01*
X139319000Y-76708000D02*
X139340520Y-76686480D01*
D27*
X134747000Y-51435000D02*
X136906000Y-53594000D01*
D26*
X139340520Y-83671480D02*
X136906000Y-86106000D01*
X127127000Y-75057000D02*
X127127000Y-76708000D01*
X133731000Y-60452000D02*
X135001000Y-61722000D01*
X139340520Y-70379520D02*
X139340520Y-66950520D01*
X139340520Y-70379520D02*
X139340520Y-76686480D01*
X133962500Y-73914000D02*
X133962500Y-75908500D01*
X136591000Y-67818000D02*
X137641480Y-68868480D01*
X115132489Y-56063511D02*
X115132489Y-62921511D01*
X136697980Y-71178520D02*
X137992671Y-71178520D01*
X119293999Y-88305999D02*
X134706001Y-88305999D01*
X114928970Y-66521008D02*
X114928970Y-67303970D01*
D27*
X117094000Y-53594000D02*
X119253000Y-51435000D01*
D26*
X116666000Y-69041000D02*
X117856000Y-69041000D01*
X117094000Y-86106000D02*
X119293999Y-88305999D01*
X139340520Y-66950520D02*
X136906000Y-64516000D01*
X120869520Y-76911980D02*
X120057500Y-77724000D01*
X136906000Y-64516000D02*
X135001000Y-64516000D01*
X118383000Y-76049500D02*
X120057500Y-77724000D01*
X127127000Y-76708000D02*
X129475000Y-76708000D01*
X118517520Y-78773329D02*
X118517520Y-84682480D01*
X137641480Y-68868480D02*
X137641480Y-70827329D01*
X117602000Y-60452000D02*
X119827000Y-60452000D01*
X115132489Y-66317489D02*
X114928970Y-66521008D01*
X115132489Y-62921511D02*
X116332000Y-61722000D01*
X133962500Y-73914000D02*
X136697980Y-71178520D01*
X139340520Y-76686480D02*
X139340520Y-83671480D01*
X117856000Y-76049500D02*
X118383000Y-76049500D01*
X120057500Y-73660000D02*
X120869520Y-74472020D01*
X130429000Y-60452000D02*
X133731000Y-60452000D01*
X135001000Y-61722000D02*
X135001000Y-64516000D01*
%TO.N,Net-(C3-Pad1)*%
X119195480Y-70519020D02*
X120118500Y-69596000D01*
X121031000Y-68683500D02*
X121031000Y-67371000D01*
X121031000Y-67371000D02*
X121920000Y-66482000D01*
X119195480Y-74867480D02*
X119195480Y-70519020D01*
X120118500Y-69596000D02*
X120142000Y-69596000D01*
X120118500Y-69596000D02*
X121031000Y-68683500D01*
X120020000Y-75692000D02*
X119195480Y-74867480D01*
%TO.N,Net-(C3-Pad2)*%
X122070500Y-62357000D02*
X121689500Y-62738000D01*
X121689500Y-64351500D02*
X121920000Y-64582000D01*
X124525000Y-62357000D02*
X122070500Y-62357000D01*
X121689500Y-62738000D02*
X121689500Y-64351500D01*
%TO.N,Net-(C4-Pad2)*%
X121920000Y-75438000D02*
X121920000Y-75692000D01*
X121920000Y-77686500D02*
X121882500Y-77724000D01*
X121920000Y-75692000D02*
X121920000Y-77686500D01*
X123190000Y-74168000D02*
X121920000Y-75438000D01*
X124525000Y-74168000D02*
X123190000Y-74168000D01*
%TO.N,Net-(C5-Pad1)*%
X116078000Y-76454000D02*
X116078000Y-77597000D01*
X116078000Y-77597000D02*
X116355500Y-77874500D01*
X129475000Y-66167000D02*
X131826000Y-66167000D01*
X116355500Y-77874500D02*
X117856000Y-77874500D01*
X117668000Y-79756000D02*
X117668000Y-78062500D01*
X117668000Y-78062500D02*
X117856000Y-77874500D01*
%TO.N,Net-(C5-Pad2)*%
X121689500Y-79629000D02*
X121666000Y-79605500D01*
X122682000Y-79629000D02*
X121689500Y-79629000D01*
X119718500Y-79605500D02*
X119568000Y-79756000D01*
X121666000Y-79605500D02*
X119718500Y-79605500D01*
X123063000Y-79248000D02*
X122682000Y-79629000D01*
X124525000Y-79248000D02*
X123063000Y-79248000D01*
%TO.N,Net-(C6-Pad1)*%
X127865500Y-69088000D02*
X128915020Y-68038480D01*
X128915020Y-68038480D02*
X131411480Y-68038480D01*
X132100000Y-68727000D02*
X132100000Y-69850000D01*
X131411480Y-68038480D02*
X132100000Y-68727000D01*
X126134500Y-69088000D02*
X127865500Y-69088000D01*
D28*
%TO.N,/AC_signal*%
X130901862Y-71628000D02*
X131648862Y-70881000D01*
D26*
X133985000Y-68326000D02*
X133985000Y-69835000D01*
X134000000Y-71844500D02*
X133962500Y-71882000D01*
X121666000Y-85979000D02*
X123435520Y-87748520D01*
X134000000Y-70881000D02*
X134000000Y-71844500D01*
X123435520Y-87748520D02*
X132540908Y-87748520D01*
X133100480Y-77115980D02*
X133100480Y-72744020D01*
X121666000Y-84986500D02*
X121666000Y-85979000D01*
X134620000Y-77978000D02*
X133962500Y-77978000D01*
X134929572Y-82240428D02*
X135001000Y-82240428D01*
D28*
X131648862Y-70881000D02*
X134000000Y-70881000D01*
D26*
X133962500Y-77978000D02*
X133100480Y-77115980D01*
X133477000Y-83693000D02*
X134929572Y-82240428D01*
X135001000Y-78359000D02*
X134620000Y-77978000D01*
X132540908Y-87748520D02*
X133477000Y-86812428D01*
D28*
X129475000Y-71628000D02*
X130901862Y-71628000D01*
X130810000Y-70358000D02*
X131333000Y-70881000D01*
D26*
X133985000Y-69835000D02*
X134000000Y-69850000D01*
X133100480Y-72744020D02*
X133962500Y-71882000D01*
X135001000Y-82240428D02*
X135001000Y-78359000D01*
X134000000Y-69850000D02*
X134000000Y-70881000D01*
X133477000Y-86812428D02*
X133477000Y-83693000D01*
D28*
X131333000Y-70881000D02*
X131648862Y-70881000D01*
D26*
%TO.N,Net-(C7-Pad1)*%
X131064000Y-74910000D02*
X132100000Y-75946000D01*
X128524000Y-74168000D02*
X129475000Y-74168000D01*
X129475000Y-74168000D02*
X130937000Y-74168000D01*
X130937000Y-74168000D02*
X131064000Y-74295000D01*
X128150480Y-73794480D02*
X128524000Y-74168000D01*
X128150480Y-70628020D02*
X128150480Y-73794480D01*
X131064000Y-74295000D02*
X131064000Y-74910000D01*
X129690500Y-69088000D02*
X128150480Y-70628020D01*
%TO.N,Net-(C8-Pad2)*%
X121727000Y-60452000D02*
X123547500Y-60452000D01*
X120555000Y-57531000D02*
X120555000Y-59280000D01*
X120555000Y-59280000D02*
X121727000Y-60452000D01*
%TO.N,Net-(C9-Pad1)*%
X123805011Y-53256489D02*
X125822489Y-53256489D01*
X125872000Y-54356000D02*
X125872000Y-55514000D01*
X125872000Y-53306000D02*
X125872000Y-54356000D01*
X125872000Y-55514000D02*
X127103500Y-56745500D01*
X127103500Y-56745500D02*
X128684000Y-58326000D01*
X125822489Y-53256489D02*
X125872000Y-53306000D01*
X128684000Y-58326000D02*
X130810000Y-58326000D01*
X127103500Y-56745500D02*
X127103500Y-60452000D01*
X122578500Y-54483000D02*
X123805011Y-53256489D01*
%TO.N,Net-(D1-Pad1)*%
X127032000Y-79978000D02*
X127032000Y-82169000D01*
X127032000Y-83090000D02*
X128016000Y-84074000D01*
X129475000Y-79248000D02*
X127762000Y-79248000D01*
X131032000Y-85312000D02*
X131032000Y-85852000D01*
X128016000Y-84074000D02*
X129794000Y-84074000D01*
X129794000Y-84074000D02*
X131032000Y-85312000D01*
X127032000Y-82169000D02*
X127032000Y-83090000D01*
X127762000Y-79248000D02*
X127032000Y-79978000D01*
%TO.N,Net-(D1-Pad2)*%
X126564480Y-79739093D02*
X126564480Y-79754947D01*
X129475000Y-77978000D02*
X128325573Y-77978000D01*
X125349000Y-80970427D02*
X125349000Y-84169000D01*
X128325573Y-77978000D02*
X126564480Y-79739093D01*
X129475000Y-77978000D02*
X132137500Y-77978000D01*
X133072500Y-79859500D02*
X133858000Y-79859500D01*
X132137500Y-77978000D02*
X132137500Y-78924500D01*
X132137500Y-78924500D02*
X133072500Y-79859500D01*
X125349000Y-84169000D02*
X127032000Y-85852000D01*
X126564480Y-79754947D02*
X125349000Y-80970427D01*
%TO.N,Net-(D2-Pad1)*%
X133834500Y-81661000D02*
X133858000Y-81684500D01*
X132969000Y-86614000D02*
X132334000Y-87249000D01*
X125579978Y-87249000D02*
X124206000Y-85875022D01*
X133858000Y-81684500D02*
X133858000Y-82423000D01*
X132969000Y-83312000D02*
X132969000Y-86614000D01*
X131540000Y-81661000D02*
X133834500Y-81661000D01*
X124206000Y-85875022D02*
X124206000Y-84986500D01*
X132334000Y-87249000D02*
X125579978Y-87249000D01*
X133858000Y-82423000D02*
X132969000Y-83312000D01*
X131032000Y-82169000D02*
X131540000Y-81661000D01*
%TO.N,Net-(D3-Pad2)*%
X123395480Y-55532520D02*
X124572000Y-54356000D01*
X120753500Y-52601500D02*
X120777000Y-52578000D01*
X121803020Y-55532520D02*
X123395480Y-55532520D01*
X120753500Y-54483000D02*
X120753500Y-52601500D01*
X124555000Y-56692040D02*
X124555000Y-57531000D01*
X120753500Y-54483000D02*
X121803020Y-55532520D01*
X123395480Y-55532520D02*
X124555000Y-56692040D01*
%TO.N,Net-(H1-Pad1)*%
X119761000Y-66444500D02*
X119761000Y-67818000D01*
%TO.N,Net-(R1-Pad2)*%
X122994520Y-64083671D02*
X122994520Y-65080329D01*
X119864500Y-62738000D02*
X119864500Y-64516000D01*
X124525000Y-63627000D02*
X123451191Y-63627000D01*
X119864500Y-64516000D02*
X119761000Y-64619500D01*
X120573020Y-65431520D02*
X119761000Y-64619500D01*
X123451191Y-63627000D02*
X122994520Y-64083671D01*
X122994520Y-65080329D02*
X122643329Y-65431520D01*
X122643329Y-65431520D02*
X120573020Y-65431520D01*
%TO.N,Net-(H2-Pad1)*%
X115428489Y-79106489D02*
X115428489Y-74944511D01*
X117832500Y-74295000D02*
X117856000Y-74318500D01*
X117729000Y-81407000D02*
X115428489Y-79106489D01*
X115428489Y-74944511D02*
X116078000Y-74295000D01*
X116078000Y-74295000D02*
X117832500Y-74295000D01*
%TO.N,Net-(R2-Pad2)*%
X126317072Y-64690928D02*
X126111000Y-64897000D01*
X124525000Y-64897000D02*
X126111000Y-64897000D01*
X118711480Y-62330671D02*
X118711480Y-66955329D01*
X119447151Y-61595000D02*
X118711480Y-62330671D01*
X118905520Y-69816480D02*
X117856000Y-70866000D01*
X118711480Y-66955329D02*
X118905520Y-67149369D01*
X117856000Y-72493500D02*
X117856000Y-70866000D01*
X126317072Y-62103000D02*
X126317072Y-64690928D01*
X126317072Y-62103000D02*
X125809072Y-61595000D01*
X125809072Y-61595000D02*
X119447151Y-61595000D01*
X118905520Y-67149369D02*
X118905520Y-69816480D01*
%TO.N,Net-(R13-Pad1)*%
X125849520Y-78891093D02*
X125849520Y-79763480D01*
X124936427Y-77978000D02*
X125849520Y-78891093D01*
X121666000Y-83161500D02*
X124206000Y-83161500D01*
X125849520Y-79763480D02*
X125476000Y-80137000D01*
X122959500Y-80137000D02*
X121666000Y-81430500D01*
X125476000Y-80137000D02*
X122959500Y-80137000D01*
X124525000Y-77978000D02*
X124936427Y-77978000D01*
X121666000Y-81430500D02*
X121666000Y-83161500D01*
%TO.N,Net-(R10-Pad1)*%
X121882500Y-73443500D02*
X122428000Y-72898000D01*
X120057500Y-71628000D02*
X120057500Y-71835000D01*
X120057500Y-71835000D02*
X121882500Y-73660000D01*
X122428000Y-72898000D02*
X124525000Y-72898000D01*
X121882500Y-73660000D02*
X121882500Y-73443500D01*
%TO.N,Net-(R11-Pad2)*%
X121943500Y-71567000D02*
X121882500Y-71628000D01*
X121943500Y-69318500D02*
X122174000Y-69088000D01*
X121943500Y-69596000D02*
X121943500Y-69318500D01*
X124525000Y-71628000D02*
X121882500Y-71628000D01*
X122174000Y-69088000D02*
X124309500Y-69088000D01*
X121943500Y-69596000D02*
X121943500Y-71567000D01*
%TO.N,Net-(R16-Pad1)*%
X129475000Y-64897000D02*
X131548500Y-64897000D01*
X131548500Y-64897000D02*
X131929500Y-64516000D01*
X133754500Y-62230000D02*
X133754500Y-62714500D01*
X131929500Y-64031500D02*
X131929500Y-64516000D01*
X133754500Y-62714500D02*
X132969000Y-63500000D01*
X132969000Y-63500000D02*
X132461000Y-63500000D01*
X132461000Y-63500000D02*
X131929500Y-64031500D01*
%TO.N,Net-(R18-Pad2)*%
X126422020Y-61501520D02*
X131201020Y-61501520D01*
X131201020Y-61501520D02*
X131929500Y-62230000D01*
X130532500Y-63627000D02*
X131929500Y-62230000D01*
X129475000Y-63627000D02*
X130532500Y-63627000D01*
X125372500Y-60452000D02*
X126422020Y-61501520D01*
%TO.N,Net-(R19-Pad1)*%
X131121500Y-72898000D02*
X132137500Y-73914000D01*
X129475000Y-72898000D02*
X131121500Y-72898000D01*
X132137500Y-73914000D02*
X132137500Y-71882000D01*
%TD*%
%TA.AperFunction,Conductor*%
%TO.N,GND*%
G36*
X115016512Y-79626226D02*
G01*
X115023095Y-79632355D01*
X116898683Y-81507943D01*
X116932598Y-81570403D01*
X116933163Y-81576160D01*
X116990418Y-81748273D01*
X116994065Y-81754295D01*
X116994066Y-81754297D01*
X117054684Y-81854389D01*
X117084380Y-81903424D01*
X117210382Y-82033902D01*
X117362159Y-82133222D01*
X117368763Y-82135678D01*
X117368765Y-82135679D01*
X117525558Y-82193990D01*
X117525560Y-82193990D01*
X117532168Y-82196448D01*
X117615995Y-82207633D01*
X117704980Y-82219507D01*
X117704984Y-82219507D01*
X117711961Y-82220438D01*
X117718972Y-82219800D01*
X117718976Y-82219800D01*
X117861459Y-82206832D01*
X117892600Y-82203998D01*
X117899302Y-82201820D01*
X117899304Y-82201820D01*
X118058409Y-82150124D01*
X118058412Y-82150123D01*
X118065108Y-82147947D01*
X118220912Y-82055069D01*
X118352266Y-81929982D01*
X118452643Y-81778902D01*
X118517055Y-81609338D01*
X118542299Y-81429717D01*
X118542616Y-81407000D01*
X118522397Y-81226745D01*
X118514981Y-81205449D01*
X118465064Y-81062106D01*
X118465062Y-81062103D01*
X118462745Y-81055448D01*
X118401864Y-80958018D01*
X118382729Y-80889650D01*
X118403594Y-80821789D01*
X118419544Y-80802235D01*
X118517305Y-80704303D01*
X118519906Y-80700084D01*
X118577030Y-80659583D01*
X118647953Y-80656351D01*
X118709365Y-80691976D01*
X118715922Y-80699530D01*
X118719522Y-80705348D01*
X118844697Y-80830305D01*
X118850927Y-80834145D01*
X118850928Y-80834146D01*
X118989023Y-80919269D01*
X118995262Y-80923115D01*
X119027558Y-80933827D01*
X119156611Y-80976632D01*
X119156613Y-80976632D01*
X119163139Y-80978797D01*
X119169975Y-80979497D01*
X119169978Y-80979498D01*
X119213031Y-80983909D01*
X119267600Y-80989500D01*
X119868400Y-80989500D01*
X119871646Y-80989163D01*
X119871650Y-80989163D01*
X119967308Y-80979238D01*
X119967312Y-80979237D01*
X119974166Y-80978526D01*
X119980702Y-80976345D01*
X119980704Y-80976345D01*
X120112806Y-80932272D01*
X120141946Y-80922550D01*
X120292348Y-80829478D01*
X120293540Y-80831405D01*
X120349158Y-80808893D01*
X120418922Y-80822064D01*
X120470490Y-80870862D01*
X120487490Y-80939794D01*
X120481205Y-80973939D01*
X120468203Y-81013139D01*
X120457500Y-81117600D01*
X120457500Y-81743400D01*
X120457837Y-81746646D01*
X120457837Y-81746650D01*
X120461793Y-81784773D01*
X120468474Y-81849166D01*
X120470655Y-81855702D01*
X120470655Y-81855704D01*
X120514728Y-81987806D01*
X120524450Y-82016946D01*
X120617522Y-82167348D01*
X120644211Y-82193990D01*
X120657109Y-82206866D01*
X120691188Y-82269148D01*
X120686185Y-82339968D01*
X120657264Y-82385057D01*
X120621866Y-82420516D01*
X120621862Y-82420521D01*
X120616695Y-82425697D01*
X120612856Y-82431925D01*
X120612854Y-82431928D01*
X120534378Y-82559240D01*
X120523885Y-82576262D01*
X120521581Y-82583209D01*
X120474794Y-82724269D01*
X120468203Y-82744139D01*
X120467503Y-82750975D01*
X120467502Y-82750978D01*
X120466978Y-82756093D01*
X120457500Y-82848600D01*
X120457500Y-83474400D01*
X120468474Y-83580166D01*
X120470655Y-83586702D01*
X120470655Y-83586704D01*
X120492079Y-83650920D01*
X120524450Y-83747946D01*
X120617522Y-83898348D01*
X120622704Y-83903521D01*
X120704109Y-83984784D01*
X120738188Y-84047066D01*
X120733185Y-84117886D01*
X120704264Y-84162975D01*
X120638948Y-84228405D01*
X120616695Y-84250697D01*
X120523885Y-84401262D01*
X120468203Y-84569139D01*
X120457500Y-84673600D01*
X120457500Y-85299400D01*
X120468474Y-85405166D01*
X120524450Y-85572946D01*
X120617522Y-85723348D01*
X120742697Y-85848305D01*
X120748927Y-85852145D01*
X120748928Y-85852146D01*
X120885845Y-85936543D01*
X120893262Y-85941115D01*
X120923665Y-85951199D01*
X120982024Y-85991630D01*
X121009261Y-86057194D01*
X121009935Y-86066832D01*
X121010438Y-86082831D01*
X121012650Y-86090444D01*
X121012650Y-86090445D01*
X121016419Y-86103416D01*
X121020430Y-86122782D01*
X121023118Y-86144064D01*
X121026034Y-86151429D01*
X121026035Y-86151433D01*
X121040126Y-86187021D01*
X121043965Y-86198231D01*
X121056855Y-86242600D01*
X121067775Y-86261065D01*
X121076466Y-86278805D01*
X121084365Y-86298756D01*
X121111516Y-86336126D01*
X121118033Y-86346048D01*
X121137507Y-86378977D01*
X121137510Y-86378981D01*
X121141547Y-86385807D01*
X121156711Y-86400971D01*
X121169551Y-86416004D01*
X121182159Y-86433357D01*
X121217752Y-86462802D01*
X121226532Y-86470792D01*
X122911865Y-88156125D01*
X122919855Y-88164905D01*
X122924104Y-88171600D01*
X122929883Y-88177027D01*
X122934936Y-88183135D01*
X122933028Y-88184713D01*
X122962787Y-88235373D01*
X122959943Y-88306313D01*
X122919197Y-88364453D01*
X122853487Y-88391336D01*
X122840566Y-88392000D01*
X116889328Y-88392000D01*
X116869943Y-88390500D01*
X116855142Y-88388195D01*
X116855139Y-88388195D01*
X116846270Y-88386814D01*
X116830001Y-88388941D01*
X116805433Y-88389734D01*
X116583015Y-88375156D01*
X116566674Y-88373005D01*
X116322176Y-88324371D01*
X116306257Y-88320105D01*
X116070210Y-88239978D01*
X116054983Y-88233671D01*
X115831408Y-88123416D01*
X115817135Y-88115175D01*
X115609867Y-87976684D01*
X115596790Y-87966651D01*
X115409368Y-87802286D01*
X115397714Y-87790632D01*
X115233349Y-87603210D01*
X115223316Y-87590133D01*
X115084825Y-87382865D01*
X115076584Y-87368592D01*
X114966329Y-87145017D01*
X114960022Y-87129790D01*
X114879895Y-86893743D01*
X114875629Y-86877824D01*
X114826995Y-86633327D01*
X114824844Y-86616986D01*
X114810736Y-86401732D01*
X114811761Y-86378696D01*
X114811804Y-86375146D01*
X114813186Y-86366270D01*
X114809064Y-86334748D01*
X114808000Y-86318411D01*
X114808000Y-79721450D01*
X114828002Y-79653329D01*
X114881658Y-79606836D01*
X114951932Y-79596732D01*
X115016512Y-79626226D01*
G37*
%TD.AperFunction*%
%TA.AperFunction,Conductor*%
G36*
X135216522Y-70361782D02*
G01*
X135366345Y-70511605D01*
X135374335Y-70520385D01*
X135378584Y-70527080D01*
X135384362Y-70532506D01*
X135384363Y-70532507D01*
X135430257Y-70575604D01*
X135433099Y-70578359D01*
X135453667Y-70598927D01*
X135457170Y-70601644D01*
X135466195Y-70609352D01*
X135499867Y-70640972D01*
X135506818Y-70644793D01*
X135506819Y-70644794D01*
X135518658Y-70651303D01*
X135535183Y-70662157D01*
X135550937Y-70674377D01*
X135592504Y-70731934D01*
X135593425Y-70735182D01*
X135593474Y-70735166D01*
X135649450Y-70902946D01*
X135742522Y-71053348D01*
X135867697Y-71178305D01*
X135873927Y-71182145D01*
X135873928Y-71182146D01*
X136011090Y-71266694D01*
X136018262Y-71271115D01*
X136078829Y-71291204D01*
X136179611Y-71324632D01*
X136179613Y-71324632D01*
X136186139Y-71326797D01*
X136192975Y-71327497D01*
X136192978Y-71327498D01*
X136236031Y-71331909D01*
X136290600Y-71337500D01*
X136891400Y-71337500D01*
X136894646Y-71337163D01*
X136894650Y-71337163D01*
X136990308Y-71327238D01*
X136990312Y-71327237D01*
X136997166Y-71326526D01*
X137003702Y-71324345D01*
X137003704Y-71324345D01*
X137149108Y-71275834D01*
X137164946Y-71270550D01*
X137315348Y-71177478D01*
X137440305Y-71052303D01*
X137442906Y-71048084D01*
X137500030Y-71007583D01*
X137570953Y-71004351D01*
X137632365Y-71039976D01*
X137638922Y-71047530D01*
X137642522Y-71053348D01*
X137767697Y-71178305D01*
X137773927Y-71182145D01*
X137773928Y-71182146D01*
X137911090Y-71266694D01*
X137918262Y-71271115D01*
X137978829Y-71291204D01*
X138079611Y-71324632D01*
X138079613Y-71324632D01*
X138086139Y-71326797D01*
X138092975Y-71327497D01*
X138092978Y-71327498D01*
X138136031Y-71331909D01*
X138190600Y-71337500D01*
X138791400Y-71337500D01*
X138794646Y-71337163D01*
X138794650Y-71337163D01*
X138890308Y-71327238D01*
X138890312Y-71327237D01*
X138897166Y-71326526D01*
X138903702Y-71324345D01*
X138903704Y-71324345D01*
X139026124Y-71283502D01*
X139097073Y-71280918D01*
X139158157Y-71317101D01*
X139189982Y-71380565D01*
X139192000Y-71403026D01*
X139192000Y-72991139D01*
X139171998Y-73059260D01*
X139118342Y-73105753D01*
X139048068Y-73115857D01*
X138983488Y-73086363D01*
X138965174Y-73066704D01*
X138887078Y-72962500D01*
X138881261Y-72954739D01*
X138764705Y-72867385D01*
X138628316Y-72816255D01*
X138566134Y-72809500D01*
X136769866Y-72809500D01*
X136707684Y-72816255D01*
X136571295Y-72867385D01*
X136454739Y-72954739D01*
X136367385Y-73071295D01*
X136316255Y-73207684D01*
X136309500Y-73269866D01*
X136309500Y-75066134D01*
X136316255Y-75128316D01*
X136367385Y-75264705D01*
X136454739Y-75381261D01*
X136571295Y-75468615D01*
X136707684Y-75519745D01*
X136769866Y-75526500D01*
X138566134Y-75526500D01*
X138628316Y-75519745D01*
X138764705Y-75468615D01*
X138881261Y-75381261D01*
X138965175Y-75269296D01*
X139022033Y-75226781D01*
X139092852Y-75221755D01*
X139155145Y-75255815D01*
X139189135Y-75318146D01*
X139192000Y-75344861D01*
X139192000Y-78740106D01*
X139171998Y-78808227D01*
X139118342Y-78854720D01*
X139048068Y-78864824D01*
X138983488Y-78835330D01*
X138950451Y-78790349D01*
X138913872Y-78706223D01*
X138869354Y-78603840D01*
X138800848Y-78497946D01*
X138750822Y-78420617D01*
X138750820Y-78420614D01*
X138748014Y-78416277D01*
X138597670Y-78251051D01*
X138593619Y-78247852D01*
X138593615Y-78247848D01*
X138426414Y-78115800D01*
X138426410Y-78115798D01*
X138422359Y-78112598D01*
X138378849Y-78088579D01*
X138357775Y-78076946D01*
X138226789Y-78004638D01*
X138221920Y-78002914D01*
X138221916Y-78002912D01*
X138021087Y-77931795D01*
X138021083Y-77931794D01*
X138016212Y-77930069D01*
X138011119Y-77929162D01*
X138011116Y-77929161D01*
X137801373Y-77891800D01*
X137801367Y-77891799D01*
X137796284Y-77890894D01*
X137722452Y-77889992D01*
X137578081Y-77888228D01*
X137578079Y-77888228D01*
X137572911Y-77888165D01*
X137352091Y-77921955D01*
X137139756Y-77991357D01*
X137109443Y-78007137D01*
X136952995Y-78088579D01*
X136941607Y-78094507D01*
X136937474Y-78097610D01*
X136937471Y-78097612D01*
X136798711Y-78201796D01*
X136762965Y-78228635D01*
X136608629Y-78390138D01*
X136605715Y-78394410D01*
X136605714Y-78394411D01*
X136525582Y-78511880D01*
X136482743Y-78574680D01*
X136447108Y-78651450D01*
X136397176Y-78759020D01*
X136388688Y-78777305D01*
X136328989Y-78992570D01*
X136305251Y-79214695D01*
X136305548Y-79219848D01*
X136305548Y-79219851D01*
X136314716Y-79378857D01*
X136318110Y-79437715D01*
X136319247Y-79442761D01*
X136319248Y-79442767D01*
X136324700Y-79466958D01*
X136367222Y-79655639D01*
X136451266Y-79862616D01*
X136567987Y-80053088D01*
X136714250Y-80221938D01*
X136886126Y-80364632D01*
X137079000Y-80477338D01*
X137287692Y-80557030D01*
X137292760Y-80558061D01*
X137292763Y-80558062D01*
X137400017Y-80579883D01*
X137506597Y-80601567D01*
X137511772Y-80601757D01*
X137511774Y-80601757D01*
X137724673Y-80609564D01*
X137724677Y-80609564D01*
X137729837Y-80609753D01*
X137734957Y-80609097D01*
X137734959Y-80609097D01*
X137946288Y-80582025D01*
X137946289Y-80582025D01*
X137951416Y-80581368D01*
X137956366Y-80579883D01*
X138160429Y-80518661D01*
X138160434Y-80518659D01*
X138165384Y-80517174D01*
X138365994Y-80418896D01*
X138547860Y-80289173D01*
X138586408Y-80250760D01*
X138702435Y-80135137D01*
X138706096Y-80131489D01*
X138760120Y-80056307D01*
X138833435Y-79954277D01*
X138836453Y-79950077D01*
X138839751Y-79943405D01*
X138933136Y-79754453D01*
X138933137Y-79754451D01*
X138935430Y-79749811D01*
X138945442Y-79716858D01*
X138984383Y-79657494D01*
X139049237Y-79628607D01*
X139119413Y-79639369D01*
X139172631Y-79686362D01*
X139192000Y-79753487D01*
X139192000Y-86310672D01*
X139190500Y-86330056D01*
X139186814Y-86353730D01*
X139188941Y-86369999D01*
X139189734Y-86394567D01*
X139175156Y-86616985D01*
X139173005Y-86633326D01*
X139124371Y-86877824D01*
X139120105Y-86893743D01*
X139039978Y-87129790D01*
X139033671Y-87145017D01*
X138923416Y-87368592D01*
X138915175Y-87382865D01*
X138776684Y-87590133D01*
X138766651Y-87603210D01*
X138602286Y-87790632D01*
X138590632Y-87802286D01*
X138403210Y-87966651D01*
X138390133Y-87976684D01*
X138182865Y-88115175D01*
X138168592Y-88123416D01*
X137945017Y-88233671D01*
X137929790Y-88239978D01*
X137693743Y-88320105D01*
X137677824Y-88324371D01*
X137433327Y-88373005D01*
X137416986Y-88375156D01*
X137201732Y-88389264D01*
X137178696Y-88388239D01*
X137175146Y-88388196D01*
X137166270Y-88386814D01*
X137137762Y-88390542D01*
X137134749Y-88390936D01*
X137118411Y-88392000D01*
X133132878Y-88392000D01*
X133064757Y-88371998D01*
X133018264Y-88318342D01*
X133008160Y-88248068D01*
X133037654Y-88183488D01*
X133043783Y-88176905D01*
X133884605Y-87336083D01*
X133893385Y-87328093D01*
X133893387Y-87328091D01*
X133900080Y-87323844D01*
X133919489Y-87303176D01*
X133948604Y-87272171D01*
X133951359Y-87269329D01*
X133971927Y-87248761D01*
X133974647Y-87245254D01*
X133982353Y-87236232D01*
X134008544Y-87208341D01*
X134013972Y-87202561D01*
X134017794Y-87195609D01*
X134024303Y-87183770D01*
X134035157Y-87167246D01*
X134043445Y-87156560D01*
X134048304Y-87150296D01*
X134057178Y-87129790D01*
X134066654Y-87107893D01*
X134071876Y-87097233D01*
X134090305Y-87063712D01*
X134090306Y-87063710D01*
X134094124Y-87056765D01*
X134099459Y-87035987D01*
X134105858Y-87017297D01*
X134114380Y-86997604D01*
X134121606Y-86951980D01*
X134124013Y-86940357D01*
X134133528Y-86903296D01*
X134135500Y-86895616D01*
X134135500Y-86874169D01*
X134137051Y-86854459D01*
X134139166Y-86841105D01*
X134140406Y-86833276D01*
X134136059Y-86787287D01*
X134135500Y-86775432D01*
X134135500Y-84017950D01*
X134155502Y-83949829D01*
X134172405Y-83928855D01*
X135227645Y-82873615D01*
X135269447Y-82847997D01*
X135268892Y-82846817D01*
X135276066Y-82843441D01*
X135283604Y-82840992D01*
X135290295Y-82836746D01*
X135290303Y-82836742D01*
X135291232Y-82836152D01*
X135312355Y-82825389D01*
X135320756Y-82822063D01*
X135368116Y-82787654D01*
X135374663Y-82783205D01*
X135380773Y-82779327D01*
X135424080Y-82751844D01*
X135430268Y-82745255D01*
X135448051Y-82729577D01*
X135455357Y-82724269D01*
X135460412Y-82718159D01*
X135492665Y-82679173D01*
X135497896Y-82673239D01*
X135532547Y-82636338D01*
X135537972Y-82630561D01*
X135541788Y-82623619D01*
X135541792Y-82623614D01*
X135542325Y-82622644D01*
X135555652Y-82603033D01*
X135556356Y-82602182D01*
X135561409Y-82596074D01*
X135586331Y-82543113D01*
X135589924Y-82536061D01*
X135614304Y-82491714D01*
X135614305Y-82491713D01*
X135618124Y-82484765D01*
X135620370Y-82476018D01*
X135628403Y-82453706D01*
X135628873Y-82452708D01*
X135628874Y-82452705D01*
X135632249Y-82445533D01*
X135643219Y-82388024D01*
X135644945Y-82380303D01*
X135657528Y-82331295D01*
X135659500Y-82323616D01*
X135659500Y-82314583D01*
X135661732Y-82290974D01*
X135661939Y-82289890D01*
X135661939Y-82289888D01*
X135663424Y-82282104D01*
X135659749Y-82223692D01*
X135659500Y-82215781D01*
X135659500Y-78441056D01*
X135660059Y-78429200D01*
X135660059Y-78429197D01*
X135661788Y-78421463D01*
X135659562Y-78350631D01*
X135659500Y-78346673D01*
X135659500Y-78317568D01*
X135658944Y-78313168D01*
X135658012Y-78301330D01*
X135656811Y-78263094D01*
X135656562Y-78255169D01*
X135650580Y-78234579D01*
X135646570Y-78215216D01*
X135644875Y-78201796D01*
X135644875Y-78201795D01*
X135643882Y-78193936D01*
X135640966Y-78186571D01*
X135640965Y-78186567D01*
X135626874Y-78150979D01*
X135623035Y-78139769D01*
X135610145Y-78095400D01*
X135599229Y-78076943D01*
X135590534Y-78059193D01*
X135582635Y-78039244D01*
X135555477Y-78001864D01*
X135548960Y-77991943D01*
X135525452Y-77952193D01*
X135510291Y-77937032D01*
X135497449Y-77921997D01*
X135484841Y-77904643D01*
X135449248Y-77875198D01*
X135440467Y-77867208D01*
X135143651Y-77570391D01*
X135135663Y-77561612D01*
X135131416Y-77554920D01*
X135079741Y-77506394D01*
X135076900Y-77503640D01*
X135056333Y-77483073D01*
X135052826Y-77480353D01*
X135043804Y-77472647D01*
X135010133Y-77441028D01*
X135012378Y-77438637D01*
X134978232Y-77394342D01*
X134973084Y-77377210D01*
X134972526Y-77371834D01*
X134916550Y-77204054D01*
X134823478Y-77053652D01*
X134698303Y-76928695D01*
X134676472Y-76915238D01*
X134553968Y-76839725D01*
X134553966Y-76839724D01*
X134547738Y-76835885D01*
X134441649Y-76800697D01*
X134386389Y-76782368D01*
X134386387Y-76782368D01*
X134379861Y-76780203D01*
X134373025Y-76779503D01*
X134373022Y-76779502D01*
X134329969Y-76775091D01*
X134275400Y-76769500D01*
X133884980Y-76769500D01*
X133816859Y-76749498D01*
X133770366Y-76695842D01*
X133758980Y-76643500D01*
X133758980Y-73216500D01*
X133778982Y-73148379D01*
X133832638Y-73101886D01*
X133884980Y-73090500D01*
X134275400Y-73090500D01*
X134278646Y-73090163D01*
X134278650Y-73090163D01*
X134374308Y-73080238D01*
X134374312Y-73080237D01*
X134381166Y-73079526D01*
X134387702Y-73077345D01*
X134387704Y-73077345D01*
X134541998Y-73025868D01*
X134548946Y-73023550D01*
X134699348Y-72930478D01*
X134711102Y-72918704D01*
X134819134Y-72810483D01*
X134824305Y-72805303D01*
X134917115Y-72654738D01*
X134972797Y-72486861D01*
X134983500Y-72382400D01*
X134983500Y-71381600D01*
X134983163Y-71378350D01*
X134973238Y-71282692D01*
X134973237Y-71282688D01*
X134972526Y-71275834D01*
X134969671Y-71267275D01*
X134918868Y-71115002D01*
X134916550Y-71108054D01*
X134824946Y-70960024D01*
X134806108Y-70891572D01*
X134827269Y-70823802D01*
X134842911Y-70804709D01*
X134844131Y-70803487D01*
X134844135Y-70803482D01*
X134849305Y-70798303D01*
X134888214Y-70735182D01*
X134938275Y-70653968D01*
X134938276Y-70653966D01*
X134942115Y-70647738D01*
X134969134Y-70566279D01*
X134995632Y-70486389D01*
X134995632Y-70486387D01*
X134997797Y-70479861D01*
X134998498Y-70473022D01*
X135002083Y-70438033D01*
X135028925Y-70372306D01*
X135087041Y-70331525D01*
X135157978Y-70328637D01*
X135216522Y-70361782D01*
G37*
%TD.AperFunction*%
%TA.AperFunction,Conductor*%
G36*
X116742415Y-74973502D02*
G01*
X116781438Y-75013197D01*
X116807522Y-75055348D01*
X116932697Y-75180305D01*
X116938927Y-75184145D01*
X116938928Y-75184146D01*
X117073647Y-75267188D01*
X117083262Y-75273115D01*
X117163005Y-75299564D01*
X117244611Y-75326632D01*
X117244613Y-75326632D01*
X117251139Y-75328797D01*
X117257975Y-75329497D01*
X117257978Y-75329498D01*
X117301031Y-75333909D01*
X117355600Y-75339500D01*
X118356400Y-75339500D01*
X118359646Y-75339163D01*
X118359650Y-75339163D01*
X118455308Y-75329238D01*
X118455312Y-75329237D01*
X118462166Y-75328526D01*
X118468702Y-75326345D01*
X118468704Y-75326345D01*
X118581435Y-75288735D01*
X118652385Y-75286151D01*
X118710713Y-75320562D01*
X118711639Y-75321837D01*
X118717747Y-75326890D01*
X118717748Y-75326891D01*
X118747232Y-75351282D01*
X118756012Y-75359272D01*
X118974595Y-75577855D01*
X119008621Y-75640167D01*
X119011500Y-75666950D01*
X119011500Y-76217400D01*
X119011837Y-76220646D01*
X119011837Y-76220650D01*
X119016656Y-76267091D01*
X119022474Y-76323166D01*
X119078450Y-76490946D01*
X119171522Y-76641348D01*
X119296697Y-76766305D01*
X119302927Y-76770145D01*
X119302928Y-76770146D01*
X119440090Y-76854694D01*
X119447262Y-76859115D01*
X119469995Y-76866655D01*
X119608611Y-76912632D01*
X119608613Y-76912632D01*
X119615139Y-76914797D01*
X119621975Y-76915497D01*
X119621978Y-76915498D01*
X119664798Y-76919885D01*
X119719600Y-76925500D01*
X120320400Y-76925500D01*
X120323646Y-76925163D01*
X120323650Y-76925163D01*
X120419308Y-76915238D01*
X120419312Y-76915237D01*
X120426166Y-76914526D01*
X120432702Y-76912345D01*
X120432704Y-76912345D01*
X120579103Y-76863502D01*
X120593946Y-76858550D01*
X120744348Y-76765478D01*
X120760026Y-76749772D01*
X120822310Y-76715694D01*
X120893130Y-76720697D01*
X120950002Y-76763195D01*
X120974870Y-76829694D01*
X120956460Y-76904906D01*
X120927885Y-76951262D01*
X120872203Y-77119139D01*
X120861500Y-77223600D01*
X120861500Y-78224400D01*
X120861837Y-78227646D01*
X120861837Y-78227650D01*
X120871167Y-78317568D01*
X120872474Y-78330166D01*
X120874655Y-78336702D01*
X120874655Y-78336704D01*
X120923893Y-78484286D01*
X120928450Y-78497946D01*
X120929497Y-78499638D01*
X120939947Y-78567645D01*
X120911080Y-78632508D01*
X120881367Y-78658064D01*
X120741652Y-78744522D01*
X120736479Y-78749704D01*
X120629694Y-78856675D01*
X120567411Y-78890754D01*
X120496591Y-78885751D01*
X120439719Y-78843254D01*
X120433377Y-78833961D01*
X120416478Y-78806652D01*
X120291303Y-78681695D01*
X120284585Y-78677554D01*
X120146968Y-78592725D01*
X120146966Y-78592724D01*
X120140738Y-78588885D01*
X120060995Y-78562436D01*
X119979389Y-78535368D01*
X119979387Y-78535368D01*
X119972861Y-78533203D01*
X119966025Y-78532503D01*
X119966022Y-78532502D01*
X119922969Y-78528091D01*
X119868400Y-78522500D01*
X119267600Y-78522500D01*
X119264354Y-78522837D01*
X119264350Y-78522837D01*
X119161834Y-78533474D01*
X119161533Y-78530569D01*
X119103643Y-78526313D01*
X119046893Y-78483653D01*
X119022214Y-78417083D01*
X119028318Y-78368678D01*
X119041525Y-78328861D01*
X119053797Y-78291861D01*
X119056745Y-78263094D01*
X119064172Y-78190598D01*
X119064500Y-78187400D01*
X119064500Y-77561600D01*
X119058633Y-77505054D01*
X119054238Y-77462692D01*
X119054237Y-77462688D01*
X119053526Y-77455834D01*
X119048587Y-77441028D01*
X118999868Y-77295002D01*
X118997550Y-77288054D01*
X118904478Y-77137652D01*
X118779303Y-77012695D01*
X118667574Y-76943824D01*
X118634968Y-76923725D01*
X118634966Y-76923724D01*
X118628738Y-76919885D01*
X118468254Y-76866655D01*
X118467389Y-76866368D01*
X118467387Y-76866368D01*
X118460861Y-76864203D01*
X118454025Y-76863503D01*
X118454022Y-76863502D01*
X118405688Y-76858550D01*
X118356400Y-76853500D01*
X117355600Y-76853500D01*
X117352354Y-76853837D01*
X117352350Y-76853837D01*
X117256692Y-76863762D01*
X117256688Y-76863763D01*
X117249834Y-76864474D01*
X117243298Y-76866655D01*
X117243296Y-76866655D01*
X117111194Y-76910728D01*
X117082054Y-76920450D01*
X117068730Y-76928695D01*
X116984027Y-76981111D01*
X116915575Y-76999949D01*
X116847805Y-76978788D01*
X116802234Y-76924347D01*
X116793330Y-76853911D01*
X116802431Y-76826201D01*
X116801643Y-76825902D01*
X116863555Y-76662920D01*
X116863556Y-76662918D01*
X116866055Y-76656338D01*
X116888424Y-76497176D01*
X116890748Y-76480639D01*
X116890748Y-76480636D01*
X116891299Y-76476717D01*
X116891616Y-76454000D01*
X116871397Y-76273745D01*
X116860261Y-76241767D01*
X116814064Y-76109106D01*
X116814062Y-76109103D01*
X116811745Y-76102448D01*
X116806348Y-76093811D01*
X116719359Y-75954598D01*
X116715626Y-75948624D01*
X116706757Y-75939693D01*
X116592778Y-75824915D01*
X116592774Y-75824912D01*
X116587815Y-75819918D01*
X116434666Y-75722727D01*
X116341747Y-75689640D01*
X116270425Y-75664243D01*
X116270420Y-75664242D01*
X116263790Y-75661881D01*
X116221725Y-75656865D01*
X116198069Y-75654044D01*
X116132796Y-75626116D01*
X116092984Y-75567333D01*
X116086989Y-75528930D01*
X116086989Y-75269462D01*
X116106991Y-75201341D01*
X116123893Y-75180367D01*
X116313854Y-74990405D01*
X116376166Y-74956380D01*
X116402950Y-74953500D01*
X116674294Y-74953500D01*
X116742415Y-74973502D01*
G37*
%TD.AperFunction*%
%TA.AperFunction,Conductor*%
G36*
X127105012Y-74950727D02*
G01*
X127111595Y-74956855D01*
X128000345Y-75845604D01*
X128008335Y-75854385D01*
X128012584Y-75861080D01*
X128018362Y-75866506D01*
X128018363Y-75866507D01*
X128064273Y-75909619D01*
X128067115Y-75912374D01*
X128079551Y-75924810D01*
X128098910Y-75949766D01*
X128125547Y-75994807D01*
X128243193Y-76112453D01*
X128250017Y-76116489D01*
X128250020Y-76116491D01*
X128357589Y-76180107D01*
X128386399Y-76197145D01*
X128394010Y-76199356D01*
X128394012Y-76199357D01*
X128444876Y-76214134D01*
X128546169Y-76243562D01*
X128552574Y-76244066D01*
X128552579Y-76244067D01*
X128581042Y-76246307D01*
X128581050Y-76246307D01*
X128583498Y-76246500D01*
X130366502Y-76246500D01*
X130368950Y-76246307D01*
X130368958Y-76246307D01*
X130397421Y-76244067D01*
X130397426Y-76244066D01*
X130403831Y-76243562D01*
X130505124Y-76214134D01*
X130555988Y-76199357D01*
X130555990Y-76199356D01*
X130563601Y-76197145D01*
X130592411Y-76180107D01*
X130699980Y-76116491D01*
X130699983Y-76116489D01*
X130706807Y-76112453D01*
X130824453Y-75994807D01*
X130857048Y-75939692D01*
X130908940Y-75891241D01*
X130978790Y-75878536D01*
X131044421Y-75905612D01*
X131084995Y-75963872D01*
X131091500Y-76003833D01*
X131091500Y-76471400D01*
X131091837Y-76474646D01*
X131091837Y-76474650D01*
X131093403Y-76489738D01*
X131102474Y-76577166D01*
X131158450Y-76744946D01*
X131251522Y-76895348D01*
X131256700Y-76900517D01*
X131256704Y-76900522D01*
X131256744Y-76900561D01*
X131256762Y-76900595D01*
X131261251Y-76906258D01*
X131260282Y-76907026D01*
X131290822Y-76962844D01*
X131285819Y-77033664D01*
X131274985Y-77055849D01*
X131202012Y-77174233D01*
X131182885Y-77205262D01*
X131173629Y-77233169D01*
X131133197Y-77291528D01*
X131067633Y-77318764D01*
X131054036Y-77319500D01*
X130768251Y-77319500D01*
X130704112Y-77301953D01*
X130620095Y-77252266D01*
X130563601Y-77218855D01*
X130555990Y-77216644D01*
X130555988Y-77216643D01*
X130491211Y-77197824D01*
X130403831Y-77172438D01*
X130397426Y-77171934D01*
X130397421Y-77171933D01*
X130368958Y-77169693D01*
X130368950Y-77169693D01*
X130366502Y-77169500D01*
X128583498Y-77169500D01*
X128581050Y-77169693D01*
X128581042Y-77169693D01*
X128552579Y-77171933D01*
X128552574Y-77171934D01*
X128546169Y-77172438D01*
X128458789Y-77197824D01*
X128394012Y-77216643D01*
X128394010Y-77216644D01*
X128386399Y-77218855D01*
X128379572Y-77222892D01*
X128379573Y-77222892D01*
X128250021Y-77299509D01*
X128243193Y-77303547D01*
X128238972Y-77307768D01*
X128178404Y-77332857D01*
X128176304Y-77333122D01*
X128160509Y-77335118D01*
X128153141Y-77338035D01*
X128153138Y-77338036D01*
X128117555Y-77352125D01*
X128106320Y-77355971D01*
X128069589Y-77366642D01*
X128069586Y-77366643D01*
X128061973Y-77368855D01*
X128043508Y-77379775D01*
X128025768Y-77388466D01*
X128005817Y-77396365D01*
X127972430Y-77420622D01*
X127968447Y-77423516D01*
X127958525Y-77430033D01*
X127925596Y-77449507D01*
X127925592Y-77449510D01*
X127918766Y-77453547D01*
X127903602Y-77468711D01*
X127888569Y-77481551D01*
X127871216Y-77494159D01*
X127861094Y-77506395D01*
X127841771Y-77529752D01*
X127833781Y-77538532D01*
X126673737Y-78698576D01*
X126611425Y-78732602D01*
X126540610Y-78727537D01*
X126483774Y-78684990D01*
X126463645Y-78644634D01*
X126460877Y-78635106D01*
X126460876Y-78635104D01*
X126458665Y-78627493D01*
X126447745Y-78609028D01*
X126439054Y-78591288D01*
X126431155Y-78571337D01*
X126404002Y-78533964D01*
X126397487Y-78524045D01*
X126378013Y-78491116D01*
X126378010Y-78491112D01*
X126373973Y-78484286D01*
X126358809Y-78469122D01*
X126345968Y-78454088D01*
X126338021Y-78443150D01*
X126333361Y-78436736D01*
X126297767Y-78407290D01*
X126288988Y-78399301D01*
X126045405Y-78155718D01*
X126011379Y-78093406D01*
X126008500Y-78066623D01*
X126008500Y-77761498D01*
X126005562Y-77724169D01*
X125959145Y-77564399D01*
X125932204Y-77518844D01*
X125878491Y-77428020D01*
X125878489Y-77428017D01*
X125874453Y-77421193D01*
X125756807Y-77303547D01*
X125749983Y-77299511D01*
X125749980Y-77299509D01*
X125620427Y-77222892D01*
X125620428Y-77222892D01*
X125613601Y-77218855D01*
X125605990Y-77216644D01*
X125605988Y-77216643D01*
X125541211Y-77197824D01*
X125453831Y-77172438D01*
X125447426Y-77171934D01*
X125447421Y-77171933D01*
X125418958Y-77169693D01*
X125418950Y-77169693D01*
X125416502Y-77169500D01*
X123633498Y-77169500D01*
X123631050Y-77169693D01*
X123631042Y-77169693D01*
X123602579Y-77171933D01*
X123602574Y-77171934D01*
X123596169Y-77172438D01*
X123508789Y-77197824D01*
X123444012Y-77216643D01*
X123444010Y-77216644D01*
X123436399Y-77218855D01*
X123429572Y-77222892D01*
X123429573Y-77222892D01*
X123300020Y-77299509D01*
X123300017Y-77299511D01*
X123293193Y-77303547D01*
X123175547Y-77421193D01*
X123137952Y-77484763D01*
X123086061Y-77533214D01*
X123016210Y-77545919D01*
X122950579Y-77518844D01*
X122910005Y-77460583D01*
X122903500Y-77420622D01*
X122903500Y-77223600D01*
X122902778Y-77216643D01*
X122893238Y-77124692D01*
X122893237Y-77124688D01*
X122892526Y-77117834D01*
X122836550Y-76950054D01*
X122744946Y-76802024D01*
X122726108Y-76733572D01*
X122747269Y-76665802D01*
X122762911Y-76646709D01*
X122764131Y-76645487D01*
X122764135Y-76645482D01*
X122769305Y-76640303D01*
X122804193Y-76583704D01*
X122858275Y-76495968D01*
X122858276Y-76495966D01*
X122862115Y-76489738D01*
X122917797Y-76321861D01*
X122928500Y-76217400D01*
X122928500Y-76037651D01*
X122948502Y-75969530D01*
X123002158Y-75923037D01*
X123072432Y-75912933D01*
X123137012Y-75942427D01*
X123162951Y-75973509D01*
X123175547Y-75994807D01*
X123293193Y-76112453D01*
X123300017Y-76116489D01*
X123300020Y-76116491D01*
X123407589Y-76180107D01*
X123436399Y-76197145D01*
X123444010Y-76199356D01*
X123444012Y-76199357D01*
X123494876Y-76214134D01*
X123596169Y-76243562D01*
X123602574Y-76244066D01*
X123602579Y-76244067D01*
X123631042Y-76246307D01*
X123631050Y-76246307D01*
X123633498Y-76246500D01*
X125416502Y-76246500D01*
X125418950Y-76246307D01*
X125418958Y-76246307D01*
X125447421Y-76244067D01*
X125447426Y-76244066D01*
X125453831Y-76243562D01*
X125555124Y-76214134D01*
X125605988Y-76199357D01*
X125605990Y-76199356D01*
X125613601Y-76197145D01*
X125754111Y-76114047D01*
X125818251Y-76096500D01*
X125901944Y-76096500D01*
X125913800Y-76097059D01*
X125913803Y-76097059D01*
X125921537Y-76098788D01*
X125992369Y-76096562D01*
X125996327Y-76096500D01*
X126025432Y-76096500D01*
X126029832Y-76095944D01*
X126041664Y-76095012D01*
X126087831Y-76093562D01*
X126108421Y-76087580D01*
X126127782Y-76083570D01*
X126134770Y-76082688D01*
X126141204Y-76081875D01*
X126141205Y-76081875D01*
X126149064Y-76080882D01*
X126156429Y-76077966D01*
X126156433Y-76077965D01*
X126192021Y-76063874D01*
X126203231Y-76060035D01*
X126247600Y-76047145D01*
X126266065Y-76036225D01*
X126283805Y-76027534D01*
X126303756Y-76019635D01*
X126341129Y-75992482D01*
X126351048Y-75985967D01*
X126383977Y-75966493D01*
X126383981Y-75966490D01*
X126390807Y-75962453D01*
X126405971Y-75947289D01*
X126421005Y-75934448D01*
X126431944Y-75926500D01*
X126438357Y-75921841D01*
X126467808Y-75886241D01*
X126475798Y-75877462D01*
X126645601Y-75707659D01*
X126654379Y-75699671D01*
X126654389Y-75699662D01*
X126661080Y-75695416D01*
X126709620Y-75643726D01*
X126712374Y-75640885D01*
X126732926Y-75620333D01*
X126735638Y-75616837D01*
X126743349Y-75607808D01*
X126769544Y-75579913D01*
X126774972Y-75574133D01*
X126785301Y-75555345D01*
X126796158Y-75538816D01*
X126804444Y-75528134D01*
X126809304Y-75521869D01*
X126827659Y-75479455D01*
X126832873Y-75468812D01*
X126832982Y-75468615D01*
X126855124Y-75428337D01*
X126857095Y-75420660D01*
X126857097Y-75420655D01*
X126860455Y-75407574D01*
X126866861Y-75388862D01*
X126867822Y-75386642D01*
X126875380Y-75369177D01*
X126882608Y-75323541D01*
X126885012Y-75311930D01*
X126896500Y-75267188D01*
X126896500Y-75245742D01*
X126898051Y-75226032D01*
X126900166Y-75212678D01*
X126901406Y-75204849D01*
X126897059Y-75158860D01*
X126896500Y-75147005D01*
X126896500Y-75045951D01*
X126916502Y-74977830D01*
X126970158Y-74931337D01*
X127040432Y-74921233D01*
X127105012Y-74950727D01*
G37*
%TD.AperFunction*%
%TA.AperFunction,Conductor*%
G36*
X120143671Y-72856502D02*
G01*
X120164645Y-72873405D01*
X120824595Y-73533355D01*
X120858621Y-73595667D01*
X120861500Y-73622450D01*
X120861500Y-74160400D01*
X120872474Y-74266166D01*
X120928450Y-74433946D01*
X120940037Y-74452670D01*
X120956420Y-74479145D01*
X120975257Y-74547597D01*
X120954095Y-74615366D01*
X120899654Y-74660937D01*
X120829218Y-74669840D01*
X120760257Y-74634620D01*
X120743303Y-74617695D01*
X120737072Y-74613854D01*
X120598968Y-74528725D01*
X120598966Y-74528724D01*
X120592738Y-74524885D01*
X120476097Y-74486197D01*
X120431389Y-74471368D01*
X120431387Y-74471368D01*
X120424861Y-74469203D01*
X120418025Y-74468503D01*
X120418022Y-74468502D01*
X120374969Y-74464091D01*
X120320400Y-74458500D01*
X119979980Y-74458500D01*
X119911859Y-74438498D01*
X119865366Y-74384842D01*
X119853980Y-74332500D01*
X119853980Y-72962500D01*
X119873982Y-72894379D01*
X119927638Y-72847886D01*
X119979980Y-72836500D01*
X120075550Y-72836500D01*
X120143671Y-72856502D01*
G37*
%TD.AperFunction*%
%TA.AperFunction,Conductor*%
G36*
X137130057Y-51309500D02*
G01*
X137144858Y-51311805D01*
X137144861Y-51311805D01*
X137153730Y-51313186D01*
X137169999Y-51311059D01*
X137194567Y-51310266D01*
X137416985Y-51324844D01*
X137433326Y-51326995D01*
X137677824Y-51375629D01*
X137693743Y-51379895D01*
X137929790Y-51460022D01*
X137945017Y-51466329D01*
X138168592Y-51576584D01*
X138182865Y-51584825D01*
X138390133Y-51723316D01*
X138403206Y-51733346D01*
X138439572Y-51765238D01*
X138590632Y-51897714D01*
X138602286Y-51909368D01*
X138742888Y-52069693D01*
X138766651Y-52096790D01*
X138776684Y-52109867D01*
X138915175Y-52317135D01*
X138923416Y-52331408D01*
X139033671Y-52554983D01*
X139039978Y-52570210D01*
X139120105Y-52806257D01*
X139124371Y-52822176D01*
X139173005Y-53066673D01*
X139175156Y-53083014D01*
X139189264Y-53298268D01*
X139188239Y-53321304D01*
X139188196Y-53324854D01*
X139186814Y-53333730D01*
X139189274Y-53352539D01*
X139190936Y-53365251D01*
X139192000Y-53381589D01*
X139192000Y-66518885D01*
X139171998Y-66587006D01*
X139118342Y-66633499D01*
X139048068Y-66643603D01*
X139026333Y-66638478D01*
X138902389Y-66597368D01*
X138902387Y-66597368D01*
X138895861Y-66595203D01*
X138889025Y-66594503D01*
X138889022Y-66594502D01*
X138845969Y-66590091D01*
X138791400Y-66584500D01*
X138240950Y-66584500D01*
X138172829Y-66564498D01*
X138151855Y-66547595D01*
X137871655Y-66267395D01*
X137863665Y-66258615D01*
X137863663Y-66258613D01*
X137859416Y-66251920D01*
X137848906Y-66242050D01*
X137807743Y-66203396D01*
X137804901Y-66200641D01*
X137784333Y-66180073D01*
X137780826Y-66177353D01*
X137771804Y-66169647D01*
X137768985Y-66167000D01*
X137738133Y-66138028D01*
X137731181Y-66134206D01*
X137719342Y-66127697D01*
X137702818Y-66116843D01*
X137692132Y-66108555D01*
X137685868Y-66103696D01*
X137678596Y-66100549D01*
X137678594Y-66100548D01*
X137643465Y-66085346D01*
X137632805Y-66080124D01*
X137599284Y-66061695D01*
X137599282Y-66061694D01*
X137592337Y-66057876D01*
X137571559Y-66052541D01*
X137552869Y-66046142D01*
X137533176Y-66037620D01*
X137487552Y-66030394D01*
X137475929Y-66027987D01*
X137441661Y-66019189D01*
X137431188Y-66016500D01*
X137409741Y-66016500D01*
X137390031Y-66014949D01*
X137376677Y-66012834D01*
X137368848Y-66011594D01*
X137322859Y-66015941D01*
X137311004Y-66016500D01*
X136243207Y-66016500D01*
X136231351Y-66015941D01*
X136231348Y-66015941D01*
X136223614Y-66014212D01*
X136168597Y-66015941D01*
X136152782Y-66016438D01*
X136148824Y-66016500D01*
X136119719Y-66016500D01*
X136115319Y-66017056D01*
X136103487Y-66017988D01*
X136057320Y-66019438D01*
X136036730Y-66025420D01*
X136017369Y-66029430D01*
X136010381Y-66030312D01*
X136003947Y-66031125D01*
X136003946Y-66031125D01*
X135996087Y-66032118D01*
X135988722Y-66035034D01*
X135988718Y-66035035D01*
X135953130Y-66049126D01*
X135941920Y-66052965D01*
X135897551Y-66065855D01*
X135879094Y-66076771D01*
X135861344Y-66085466D01*
X135841395Y-66093365D01*
X135834984Y-66098023D01*
X135834982Y-66098024D01*
X135804015Y-66120523D01*
X135794097Y-66127038D01*
X135754344Y-66150548D01*
X135739183Y-66165709D01*
X135724151Y-66178548D01*
X135706794Y-66191159D01*
X135697780Y-66202055D01*
X135697566Y-66202314D01*
X135638731Y-66242050D01*
X135567753Y-66243671D01*
X135532969Y-66228381D01*
X135484666Y-66197727D01*
X135453140Y-66186501D01*
X135320425Y-66139243D01*
X135320420Y-66139242D01*
X135313790Y-66136881D01*
X135306802Y-66136048D01*
X135306799Y-66136047D01*
X135176609Y-66120523D01*
X135133680Y-66115404D01*
X135126677Y-66116140D01*
X135126676Y-66116140D01*
X134960288Y-66133628D01*
X134960286Y-66133629D01*
X134953288Y-66134364D01*
X134889271Y-66156157D01*
X134788249Y-66190547D01*
X134788246Y-66190548D01*
X134781579Y-66192818D01*
X134775581Y-66196508D01*
X134775579Y-66196509D01*
X134685676Y-66251818D01*
X134619654Y-66270500D01*
X132763883Y-66270500D01*
X132695762Y-66250498D01*
X132649269Y-66196842D01*
X132638668Y-66158545D01*
X132620182Y-65993744D01*
X132619397Y-65986745D01*
X132559745Y-65815448D01*
X132543439Y-65789352D01*
X132524304Y-65720988D01*
X132545169Y-65653126D01*
X132583991Y-65615442D01*
X132585459Y-65614534D01*
X132666348Y-65564478D01*
X132791305Y-65439303D01*
X132824469Y-65385501D01*
X132880275Y-65294968D01*
X132880276Y-65294966D01*
X132884115Y-65288738D01*
X132931628Y-65145489D01*
X132937632Y-65127389D01*
X132937632Y-65127387D01*
X132939797Y-65120861D01*
X132950500Y-65016400D01*
X132950500Y-64281509D01*
X132970502Y-64213388D01*
X133024158Y-64166895D01*
X133057404Y-64159117D01*
X133057077Y-64157051D01*
X133064907Y-64155811D01*
X133072831Y-64155562D01*
X133093421Y-64149580D01*
X133112782Y-64145570D01*
X133119770Y-64144688D01*
X133126204Y-64143875D01*
X133126205Y-64143875D01*
X133134064Y-64142882D01*
X133141429Y-64139966D01*
X133141433Y-64139965D01*
X133177021Y-64125874D01*
X133188231Y-64122035D01*
X133232600Y-64109145D01*
X133251065Y-64098225D01*
X133268805Y-64089534D01*
X133288756Y-64081635D01*
X133326129Y-64054482D01*
X133336048Y-64047967D01*
X133368977Y-64028493D01*
X133368981Y-64028490D01*
X133375807Y-64024453D01*
X133390971Y-64009289D01*
X133406005Y-63996448D01*
X133416943Y-63988501D01*
X133423357Y-63983841D01*
X133452803Y-63948247D01*
X133460792Y-63939468D01*
X133924855Y-63475405D01*
X133987167Y-63441379D01*
X134013950Y-63438500D01*
X134067400Y-63438500D01*
X134070646Y-63438163D01*
X134070650Y-63438163D01*
X134166308Y-63428238D01*
X134166312Y-63428237D01*
X134173166Y-63427526D01*
X134179702Y-63425345D01*
X134179704Y-63425345D01*
X134333998Y-63373868D01*
X134340946Y-63371550D01*
X134491348Y-63278478D01*
X134616305Y-63153303D01*
X134633922Y-63124723D01*
X134705275Y-63008968D01*
X134705276Y-63008966D01*
X134709115Y-63002738D01*
X134742214Y-62902948D01*
X134762632Y-62841389D01*
X134762632Y-62841387D01*
X134764797Y-62834861D01*
X134767309Y-62810350D01*
X134773038Y-62754428D01*
X134775500Y-62730400D01*
X134775500Y-62239134D01*
X136182500Y-62239134D01*
X136189255Y-62301316D01*
X136240385Y-62437705D01*
X136327739Y-62554261D01*
X136444295Y-62641615D01*
X136580684Y-62692745D01*
X136642866Y-62699500D01*
X138439134Y-62699500D01*
X138501316Y-62692745D01*
X138637705Y-62641615D01*
X138754261Y-62554261D01*
X138841615Y-62437705D01*
X138892745Y-62301316D01*
X138899500Y-62239134D01*
X138899500Y-60442866D01*
X138892745Y-60380684D01*
X138841615Y-60244295D01*
X138754261Y-60127739D01*
X138637705Y-60040385D01*
X138501316Y-59989255D01*
X138439134Y-59982500D01*
X136642866Y-59982500D01*
X136580684Y-59989255D01*
X136444295Y-60040385D01*
X136327739Y-60127739D01*
X136240385Y-60244295D01*
X136189255Y-60380684D01*
X136182500Y-60442866D01*
X136182500Y-62239134D01*
X134775500Y-62239134D01*
X134775500Y-61729600D01*
X134764526Y-61623834D01*
X134708550Y-61456054D01*
X134615478Y-61305652D01*
X134490303Y-61180695D01*
X134484072Y-61176854D01*
X134345968Y-61091725D01*
X134345966Y-61091724D01*
X134339738Y-61087885D01*
X134259995Y-61061436D01*
X134178389Y-61034368D01*
X134178387Y-61034368D01*
X134171861Y-61032203D01*
X134165025Y-61031503D01*
X134165022Y-61031502D01*
X134121969Y-61027091D01*
X134067400Y-61021500D01*
X133441600Y-61021500D01*
X133438354Y-61021837D01*
X133438350Y-61021837D01*
X133342692Y-61031762D01*
X133342688Y-61031763D01*
X133335834Y-61032474D01*
X133329298Y-61034655D01*
X133329296Y-61034655D01*
X133197194Y-61078728D01*
X133168054Y-61088450D01*
X133017652Y-61181522D01*
X133012479Y-61186704D01*
X132931216Y-61268109D01*
X132868934Y-61302188D01*
X132798114Y-61297185D01*
X132753025Y-61268264D01*
X132670483Y-61185866D01*
X132665303Y-61180695D01*
X132659072Y-61176854D01*
X132520968Y-61091725D01*
X132520966Y-61091724D01*
X132514738Y-61087885D01*
X132434995Y-61061436D01*
X132353389Y-61034368D01*
X132353387Y-61034368D01*
X132346861Y-61032203D01*
X132340025Y-61031503D01*
X132340022Y-61031502D01*
X132296969Y-61027091D01*
X132242400Y-61021500D01*
X131701688Y-61021500D01*
X131633567Y-61001498D01*
X131615436Y-60987351D01*
X131596933Y-60969976D01*
X131591153Y-60964548D01*
X131584201Y-60960726D01*
X131572362Y-60954217D01*
X131555838Y-60943363D01*
X131545152Y-60935075D01*
X131538888Y-60930216D01*
X131531616Y-60927069D01*
X131531614Y-60927068D01*
X131496485Y-60911866D01*
X131485825Y-60906644D01*
X131452304Y-60888215D01*
X131452302Y-60888214D01*
X131445357Y-60884396D01*
X131424579Y-60879061D01*
X131405889Y-60872662D01*
X131386196Y-60864140D01*
X131340572Y-60856914D01*
X131328949Y-60854507D01*
X131300948Y-60847318D01*
X131284208Y-60843020D01*
X131262761Y-60843020D01*
X131243051Y-60841469D01*
X131229697Y-60839354D01*
X131221868Y-60838114D01*
X131175879Y-60842461D01*
X131164024Y-60843020D01*
X128250500Y-60843020D01*
X128182379Y-60823018D01*
X128135886Y-60769362D01*
X128124500Y-60717020D01*
X128124500Y-59951600D01*
X128117035Y-59879650D01*
X128114238Y-59852692D01*
X128114237Y-59852688D01*
X128113526Y-59845834D01*
X128057550Y-59678054D01*
X127964478Y-59527652D01*
X127930309Y-59493542D01*
X127879943Y-59443264D01*
X127839303Y-59402695D01*
X127821884Y-59391958D01*
X127774391Y-59339187D01*
X127762000Y-59284698D01*
X127762000Y-58639450D01*
X127782002Y-58571329D01*
X127835658Y-58524836D01*
X127905932Y-58514732D01*
X127970512Y-58544226D01*
X127977095Y-58550355D01*
X128160345Y-58733605D01*
X128168335Y-58742385D01*
X128172584Y-58749080D01*
X128178362Y-58754506D01*
X128178363Y-58754507D01*
X128224257Y-58797604D01*
X128227099Y-58800359D01*
X128247667Y-58820927D01*
X128251170Y-58823644D01*
X128260195Y-58831352D01*
X128293867Y-58862972D01*
X128300818Y-58866793D01*
X128300819Y-58866794D01*
X128312658Y-58873303D01*
X128329182Y-58884157D01*
X128339271Y-58891982D01*
X128346132Y-58897304D01*
X128353404Y-58900451D01*
X128353406Y-58900452D01*
X128388535Y-58915654D01*
X128399195Y-58920876D01*
X128422336Y-58933598D01*
X128439663Y-58943124D01*
X128460441Y-58948459D01*
X128479131Y-58954858D01*
X128498824Y-58963380D01*
X128542596Y-58970313D01*
X128544448Y-58970606D01*
X128556071Y-58973013D01*
X128584072Y-58980202D01*
X128600812Y-58984500D01*
X128622259Y-58984500D01*
X128641969Y-58986051D01*
X128663152Y-58989406D01*
X128709141Y-58985059D01*
X128720996Y-58984500D01*
X129375500Y-58984500D01*
X129443621Y-59004502D01*
X129490114Y-59058158D01*
X129501500Y-59110500D01*
X129501500Y-59876400D01*
X129501837Y-59879646D01*
X129501837Y-59879650D01*
X129509303Y-59951600D01*
X129512474Y-59982166D01*
X129514655Y-59988702D01*
X129514655Y-59988704D01*
X129530846Y-60037233D01*
X129568450Y-60149946D01*
X129661522Y-60300348D01*
X129786697Y-60425305D01*
X129792927Y-60429145D01*
X129792928Y-60429146D01*
X129930090Y-60513694D01*
X129937262Y-60518115D01*
X129986957Y-60534598D01*
X130098611Y-60571632D01*
X130098613Y-60571632D01*
X130105139Y-60573797D01*
X130111975Y-60574497D01*
X130111978Y-60574498D01*
X130155031Y-60578909D01*
X130209600Y-60584500D01*
X131410400Y-60584500D01*
X131413646Y-60584163D01*
X131413650Y-60584163D01*
X131509308Y-60574238D01*
X131509312Y-60574237D01*
X131516166Y-60573526D01*
X131522702Y-60571345D01*
X131522704Y-60571345D01*
X131654806Y-60527272D01*
X131683946Y-60517550D01*
X131834348Y-60424478D01*
X131858143Y-60400642D01*
X131954134Y-60304483D01*
X131959305Y-60299303D01*
X131997642Y-60237109D01*
X132048275Y-60154968D01*
X132048276Y-60154966D01*
X132052115Y-60148738D01*
X132078564Y-60068995D01*
X132105632Y-59987389D01*
X132105632Y-59987387D01*
X132107797Y-59980861D01*
X132110461Y-59954866D01*
X132118172Y-59879598D01*
X132118500Y-59876400D01*
X132118500Y-56775600D01*
X132107526Y-56669834D01*
X132051550Y-56502054D01*
X131958478Y-56351652D01*
X131833303Y-56226695D01*
X131807877Y-56211022D01*
X131688968Y-56137725D01*
X131688966Y-56137724D01*
X131682738Y-56133885D01*
X131572642Y-56097368D01*
X131521389Y-56080368D01*
X131521387Y-56080368D01*
X131514861Y-56078203D01*
X131508025Y-56077503D01*
X131508022Y-56077502D01*
X131464969Y-56073091D01*
X131410400Y-56067500D01*
X130209600Y-56067500D01*
X130206354Y-56067837D01*
X130206350Y-56067837D01*
X130110692Y-56077762D01*
X130110688Y-56077763D01*
X130103834Y-56078474D01*
X130097298Y-56080655D01*
X130097296Y-56080655D01*
X130027851Y-56103824D01*
X129936054Y-56134450D01*
X129785652Y-56227522D01*
X129660695Y-56352697D01*
X129656855Y-56358927D01*
X129656854Y-56358928D01*
X129641218Y-56384295D01*
X129567885Y-56503262D01*
X129512203Y-56671139D01*
X129501500Y-56775600D01*
X129501500Y-57541500D01*
X129481498Y-57609621D01*
X129427842Y-57656114D01*
X129375500Y-57667500D01*
X129008950Y-57667500D01*
X128940829Y-57647498D01*
X128919855Y-57630595D01*
X127612789Y-56323529D01*
X127599948Y-56308495D01*
X127592001Y-56297557D01*
X127587341Y-56291143D01*
X127551747Y-56261697D01*
X127542968Y-56253708D01*
X126822471Y-55533211D01*
X126788445Y-55470899D01*
X126793510Y-55400084D01*
X126810739Y-55368552D01*
X126817233Y-55359887D01*
X126817235Y-55359884D01*
X126822615Y-55352705D01*
X126873745Y-55216316D01*
X126880500Y-55154134D01*
X126880500Y-53557866D01*
X126873745Y-53495684D01*
X126822615Y-53359295D01*
X126735261Y-53242739D01*
X126618705Y-53155385D01*
X126610296Y-53152233D01*
X126610295Y-53152232D01*
X126560314Y-53133495D01*
X126503549Y-53090854D01*
X126486783Y-53057168D01*
X126486505Y-53057288D01*
X126484258Y-53052096D01*
X126483546Y-53050666D01*
X126481145Y-53042400D01*
X126470225Y-53023935D01*
X126461534Y-53006195D01*
X126453635Y-52986244D01*
X126426482Y-52948871D01*
X126419967Y-52938952D01*
X126400493Y-52906023D01*
X126400490Y-52906019D01*
X126396453Y-52899193D01*
X126381289Y-52884029D01*
X126368448Y-52868995D01*
X126360501Y-52858057D01*
X126355841Y-52851643D01*
X126337723Y-52836655D01*
X126331806Y-52831438D01*
X126282231Y-52784884D01*
X126279390Y-52782130D01*
X126258822Y-52761562D01*
X126255315Y-52758842D01*
X126246293Y-52751136D01*
X126212622Y-52719517D01*
X126205670Y-52715695D01*
X126193831Y-52709186D01*
X126177307Y-52698332D01*
X126166621Y-52690044D01*
X126160357Y-52685185D01*
X126153085Y-52682038D01*
X126153083Y-52682037D01*
X126117954Y-52666835D01*
X126107294Y-52661613D01*
X126073773Y-52643184D01*
X126073771Y-52643183D01*
X126066826Y-52639365D01*
X126046048Y-52634030D01*
X126027358Y-52627631D01*
X126007665Y-52619109D01*
X125962041Y-52611883D01*
X125950418Y-52609476D01*
X125916150Y-52600678D01*
X125905677Y-52597989D01*
X125884230Y-52597989D01*
X125864520Y-52596438D01*
X125851166Y-52594323D01*
X125843337Y-52593083D01*
X125797348Y-52597430D01*
X125785493Y-52597989D01*
X123887067Y-52597989D01*
X123875211Y-52597430D01*
X123875208Y-52597430D01*
X123867474Y-52595701D01*
X123812457Y-52597430D01*
X123796642Y-52597927D01*
X123792684Y-52597989D01*
X123763579Y-52597989D01*
X123759179Y-52598545D01*
X123747347Y-52599477D01*
X123701180Y-52600927D01*
X123680590Y-52606909D01*
X123661229Y-52610919D01*
X123654241Y-52611801D01*
X123647807Y-52612614D01*
X123647806Y-52612614D01*
X123639947Y-52613607D01*
X123632582Y-52616523D01*
X123632578Y-52616524D01*
X123596993Y-52630613D01*
X123585763Y-52634458D01*
X123541410Y-52647344D01*
X123534586Y-52651380D01*
X123522954Y-52658259D01*
X123505198Y-52666958D01*
X123485255Y-52674854D01*
X123471036Y-52685185D01*
X123447879Y-52702009D01*
X123437960Y-52708524D01*
X123405034Y-52727997D01*
X123405030Y-52728000D01*
X123398204Y-52732037D01*
X123383043Y-52747198D01*
X123368011Y-52760037D01*
X123350654Y-52772648D01*
X123345601Y-52778756D01*
X123321205Y-52808246D01*
X123313215Y-52817026D01*
X122892646Y-53237595D01*
X122830334Y-53271621D01*
X122803551Y-53274500D01*
X122265600Y-53274500D01*
X122262354Y-53274837D01*
X122262350Y-53274837D01*
X122166692Y-53284762D01*
X122166688Y-53284763D01*
X122159834Y-53285474D01*
X122153298Y-53287655D01*
X122153296Y-53287655D01*
X122069242Y-53315698D01*
X121992054Y-53341450D01*
X121841652Y-53434522D01*
X121836479Y-53439704D01*
X121755216Y-53521109D01*
X121692934Y-53555188D01*
X121622114Y-53550185D01*
X121577025Y-53521264D01*
X121494483Y-53438866D01*
X121489303Y-53433695D01*
X121471884Y-53422958D01*
X121424391Y-53370187D01*
X121412000Y-53315698D01*
X121412000Y-53121362D01*
X121433052Y-53051635D01*
X121439188Y-53042400D01*
X121500643Y-52949902D01*
X121543658Y-52836666D01*
X121562555Y-52786920D01*
X121562556Y-52786918D01*
X121565055Y-52780338D01*
X121566136Y-52772648D01*
X121589748Y-52604639D01*
X121589748Y-52604636D01*
X121590299Y-52600717D01*
X121590616Y-52578000D01*
X121570397Y-52397745D01*
X121568080Y-52391091D01*
X121513064Y-52233106D01*
X121513062Y-52233103D01*
X121510745Y-52226448D01*
X121430836Y-52098565D01*
X121418359Y-52078598D01*
X121414626Y-52072624D01*
X121400941Y-52058843D01*
X121291778Y-51948915D01*
X121291774Y-51948912D01*
X121286815Y-51943918D01*
X121275697Y-51936862D01*
X121214009Y-51897714D01*
X121133666Y-51846727D01*
X121104463Y-51836328D01*
X120969425Y-51788243D01*
X120969420Y-51788242D01*
X120962790Y-51785881D01*
X120955802Y-51785048D01*
X120955799Y-51785047D01*
X120832698Y-51770368D01*
X120782680Y-51764404D01*
X120775677Y-51765140D01*
X120775676Y-51765140D01*
X120609288Y-51782628D01*
X120609286Y-51782629D01*
X120602288Y-51783364D01*
X120430579Y-51841818D01*
X120424575Y-51845512D01*
X120282095Y-51933166D01*
X120282092Y-51933168D01*
X120276088Y-51936862D01*
X120271053Y-51941793D01*
X120271050Y-51941795D01*
X120151525Y-52058843D01*
X120146493Y-52063771D01*
X120048235Y-52216238D01*
X120045826Y-52222858D01*
X120045824Y-52222861D01*
X120006316Y-52331408D01*
X119986197Y-52386685D01*
X119963463Y-52566640D01*
X119981163Y-52747160D01*
X120038418Y-52919273D01*
X120042065Y-52925295D01*
X120042066Y-52925297D01*
X120076776Y-52982610D01*
X120095000Y-53047881D01*
X120095000Y-53315835D01*
X120074998Y-53383956D01*
X120035305Y-53422978D01*
X120022877Y-53430669D01*
X120022872Y-53430673D01*
X120016652Y-53434522D01*
X119891695Y-53559697D01*
X119798885Y-53710262D01*
X119743203Y-53878139D01*
X119732500Y-53982600D01*
X119732500Y-54983400D01*
X119743474Y-55089166D01*
X119799450Y-55256946D01*
X119892522Y-55407348D01*
X120017697Y-55532305D01*
X120023927Y-55536145D01*
X120023928Y-55536146D01*
X120140083Y-55607745D01*
X120168262Y-55625115D01*
X120212030Y-55639632D01*
X120329611Y-55678632D01*
X120329613Y-55678632D01*
X120336139Y-55680797D01*
X120342975Y-55681497D01*
X120342978Y-55681498D01*
X120386031Y-55685909D01*
X120440600Y-55691500D01*
X120978551Y-55691500D01*
X121046672Y-55711502D01*
X121067646Y-55728405D01*
X121246646Y-55907405D01*
X121280672Y-55969717D01*
X121275607Y-56040532D01*
X121233060Y-56097368D01*
X121166540Y-56122179D01*
X121157551Y-56122500D01*
X119256866Y-56122500D01*
X119194684Y-56129255D01*
X119058295Y-56180385D01*
X118941739Y-56267739D01*
X118854385Y-56384295D01*
X118803255Y-56520684D01*
X118796500Y-56582866D01*
X118796500Y-58479134D01*
X118803255Y-58541316D01*
X118854385Y-58677705D01*
X118941739Y-58794261D01*
X119058295Y-58881615D01*
X119194684Y-58932745D01*
X119256866Y-58939500D01*
X119770500Y-58939500D01*
X119838621Y-58959502D01*
X119885114Y-59013158D01*
X119896500Y-59065500D01*
X119896500Y-59197944D01*
X119895941Y-59209800D01*
X119894212Y-59217537D01*
X119894461Y-59225459D01*
X119896438Y-59288369D01*
X119896500Y-59292327D01*
X119896500Y-59321432D01*
X119897056Y-59325832D01*
X119897988Y-59337664D01*
X119899438Y-59383831D01*
X119904040Y-59399669D01*
X119905419Y-59404416D01*
X119909430Y-59423782D01*
X119912118Y-59445064D01*
X119915034Y-59452429D01*
X119915035Y-59452433D01*
X119929126Y-59488021D01*
X119932965Y-59499231D01*
X119945855Y-59543600D01*
X119956775Y-59562065D01*
X119965466Y-59579805D01*
X119973365Y-59599756D01*
X119981480Y-59610925D01*
X120000516Y-59637126D01*
X120007033Y-59647048D01*
X120026507Y-59679977D01*
X120026510Y-59679981D01*
X120030547Y-59686807D01*
X120045711Y-59701971D01*
X120058551Y-59717004D01*
X120071159Y-59734357D01*
X120104232Y-59761717D01*
X120106747Y-59763798D01*
X120115527Y-59771787D01*
X120681595Y-60337854D01*
X120715620Y-60400167D01*
X120718500Y-60426950D01*
X120718500Y-60810500D01*
X120698498Y-60878621D01*
X120644842Y-60925114D01*
X120592500Y-60936500D01*
X119529210Y-60936500D01*
X119517354Y-60935941D01*
X119509614Y-60934211D01*
X119501688Y-60934460D01*
X119501687Y-60934460D01*
X119438762Y-60936438D01*
X119434804Y-60936500D01*
X119405719Y-60936500D01*
X119401788Y-60936997D01*
X119401781Y-60936997D01*
X119401330Y-60937054D01*
X119389494Y-60937986D01*
X119343320Y-60939438D01*
X119322730Y-60945420D01*
X119303369Y-60949430D01*
X119296381Y-60950312D01*
X119289947Y-60951125D01*
X119289946Y-60951125D01*
X119282087Y-60952118D01*
X119274722Y-60955034D01*
X119274718Y-60955035D01*
X119239130Y-60969126D01*
X119227920Y-60972965D01*
X119183551Y-60985855D01*
X119165086Y-60996775D01*
X119147346Y-61005466D01*
X119127395Y-61013365D01*
X119102074Y-61031762D01*
X119090025Y-61040516D01*
X119080103Y-61047033D01*
X119047174Y-61066507D01*
X119047170Y-61066510D01*
X119040344Y-61070547D01*
X119025180Y-61085711D01*
X119010147Y-61098551D01*
X118992794Y-61111159D01*
X118963349Y-61146752D01*
X118955359Y-61155532D01*
X118303875Y-61807016D01*
X118295095Y-61815006D01*
X118295093Y-61815008D01*
X118288400Y-61819255D01*
X118282974Y-61825033D01*
X118282973Y-61825034D01*
X118239876Y-61870928D01*
X118237121Y-61873770D01*
X118216553Y-61894338D01*
X118213836Y-61897841D01*
X118206128Y-61906866D01*
X118174508Y-61940538D01*
X118170687Y-61947489D01*
X118170686Y-61947490D01*
X118164177Y-61959329D01*
X118153323Y-61975853D01*
X118145498Y-61985942D01*
X118140176Y-61992803D01*
X118137029Y-62000075D01*
X118137028Y-62000077D01*
X118121826Y-62035206D01*
X118116604Y-62045866D01*
X118094356Y-62086334D01*
X118089021Y-62107112D01*
X118082622Y-62125802D01*
X118074100Y-62145495D01*
X118069996Y-62171406D01*
X118066874Y-62191119D01*
X118064467Y-62202742D01*
X118052980Y-62247483D01*
X118052980Y-62268930D01*
X118051429Y-62288640D01*
X118048074Y-62309823D01*
X118048820Y-62317714D01*
X118052421Y-62355809D01*
X118052980Y-62367667D01*
X118052980Y-66873273D01*
X118052421Y-66885129D01*
X118050692Y-66892866D01*
X118050941Y-66900788D01*
X118052918Y-66963698D01*
X118052980Y-66967656D01*
X118052980Y-66996761D01*
X118053536Y-67001161D01*
X118054468Y-67012993D01*
X118055918Y-67059160D01*
X118058130Y-67066773D01*
X118058130Y-67066774D01*
X118061899Y-67079745D01*
X118065910Y-67099111D01*
X118068598Y-67120393D01*
X118071514Y-67127758D01*
X118071515Y-67127762D01*
X118085606Y-67163350D01*
X118089445Y-67174560D01*
X118102335Y-67218929D01*
X118113255Y-67237394D01*
X118121946Y-67255134D01*
X118129845Y-67275085D01*
X118151852Y-67305375D01*
X118156996Y-67312455D01*
X118163513Y-67322377D01*
X118182987Y-67355306D01*
X118182990Y-67355310D01*
X118187027Y-67362136D01*
X118202191Y-67377300D01*
X118215027Y-67392328D01*
X118222956Y-67403240D01*
X118246814Y-67470105D01*
X118247020Y-67477301D01*
X118247020Y-69491531D01*
X118227018Y-69559652D01*
X118210115Y-69580626D01*
X117982646Y-69808095D01*
X117920334Y-69842121D01*
X117893551Y-69845000D01*
X117355600Y-69845000D01*
X117352354Y-69845337D01*
X117352350Y-69845337D01*
X117256692Y-69855262D01*
X117256688Y-69855263D01*
X117249834Y-69855974D01*
X117243298Y-69858155D01*
X117243296Y-69858155D01*
X117111194Y-69902228D01*
X117082054Y-69911950D01*
X116931652Y-70005022D01*
X116806695Y-70130197D01*
X116802855Y-70136427D01*
X116802854Y-70136428D01*
X116745453Y-70229550D01*
X116713885Y-70280762D01*
X116692034Y-70346640D01*
X116662039Y-70437075D01*
X116658203Y-70448639D01*
X116657503Y-70455475D01*
X116657502Y-70455478D01*
X116653091Y-70498531D01*
X116647500Y-70553100D01*
X116647500Y-71178900D01*
X116647837Y-71182146D01*
X116647837Y-71182150D01*
X116657558Y-71275834D01*
X116658474Y-71284666D01*
X116660655Y-71291202D01*
X116660655Y-71291204D01*
X116690814Y-71381600D01*
X116714450Y-71452446D01*
X116807522Y-71602848D01*
X116808451Y-71603775D01*
X116834162Y-71667293D01*
X116820992Y-71737057D01*
X116809656Y-71754731D01*
X116806695Y-71757697D01*
X116713885Y-71908262D01*
X116658203Y-72076139D01*
X116647500Y-72180600D01*
X116647500Y-72806400D01*
X116647837Y-72809646D01*
X116647837Y-72809650D01*
X116653828Y-72867385D01*
X116658474Y-72912166D01*
X116660655Y-72918702D01*
X116660655Y-72918704D01*
X116694348Y-73019694D01*
X116714450Y-73079946D01*
X116807522Y-73230348D01*
X116812704Y-73235521D01*
X116894109Y-73316784D01*
X116928188Y-73379066D01*
X116923185Y-73449886D01*
X116894264Y-73494975D01*
X116806695Y-73582697D01*
X116803016Y-73588665D01*
X116745205Y-73629654D01*
X116704238Y-73636500D01*
X116160056Y-73636500D01*
X116148200Y-73635941D01*
X116148197Y-73635941D01*
X116140463Y-73634212D01*
X116085446Y-73635941D01*
X116069631Y-73636438D01*
X116065673Y-73636500D01*
X116036568Y-73636500D01*
X116032168Y-73637056D01*
X116020336Y-73637988D01*
X115974169Y-73639438D01*
X115953579Y-73645420D01*
X115934218Y-73649430D01*
X115927230Y-73650312D01*
X115920796Y-73651125D01*
X115920795Y-73651125D01*
X115912936Y-73652118D01*
X115905571Y-73655034D01*
X115905567Y-73655035D01*
X115869979Y-73669126D01*
X115858769Y-73672965D01*
X115814400Y-73685855D01*
X115795943Y-73696771D01*
X115778193Y-73705466D01*
X115758244Y-73713365D01*
X115751833Y-73718023D01*
X115751831Y-73718024D01*
X115720864Y-73740523D01*
X115710946Y-73747038D01*
X115671193Y-73770548D01*
X115656032Y-73785709D01*
X115641000Y-73798548D01*
X115623643Y-73811159D01*
X115595917Y-73844675D01*
X115594198Y-73846752D01*
X115586208Y-73855533D01*
X115023095Y-74418645D01*
X114960783Y-74452670D01*
X114889967Y-74447605D01*
X114833132Y-74405058D01*
X114808321Y-74338538D01*
X114808000Y-74329549D01*
X114808000Y-64765118D01*
X114828002Y-64696997D01*
X114881658Y-64650504D01*
X114951932Y-64640400D01*
X115016512Y-64669894D01*
X115050743Y-64717714D01*
X115115266Y-64876616D01*
X115117965Y-64881020D01*
X115229035Y-65062270D01*
X115231987Y-65067088D01*
X115378250Y-65235938D01*
X115550126Y-65378632D01*
X115743000Y-65491338D01*
X115747825Y-65493180D01*
X115747826Y-65493181D01*
X115783556Y-65506825D01*
X115951692Y-65571030D01*
X115956760Y-65572061D01*
X115956763Y-65572062D01*
X116064017Y-65593883D01*
X116170597Y-65615567D01*
X116175772Y-65615757D01*
X116175774Y-65615757D01*
X116388673Y-65623564D01*
X116388677Y-65623564D01*
X116393837Y-65623753D01*
X116398957Y-65623097D01*
X116398959Y-65623097D01*
X116610288Y-65596025D01*
X116610289Y-65596025D01*
X116615416Y-65595368D01*
X116620366Y-65593883D01*
X116824429Y-65532661D01*
X116824434Y-65532659D01*
X116829384Y-65531174D01*
X117029994Y-65432896D01*
X117211860Y-65303173D01*
X117370096Y-65145489D01*
X117421388Y-65074109D01*
X117497435Y-64968277D01*
X117500453Y-64964077D01*
X117511260Y-64942212D01*
X117597136Y-64768453D01*
X117597137Y-64768451D01*
X117599430Y-64763811D01*
X117664370Y-64550069D01*
X117693529Y-64328590D01*
X117693611Y-64325240D01*
X117695074Y-64265365D01*
X117695074Y-64265361D01*
X117695156Y-64262000D01*
X117676852Y-64039361D01*
X117622431Y-63822702D01*
X117533354Y-63617840D01*
X117441209Y-63475405D01*
X117414822Y-63434617D01*
X117414820Y-63434614D01*
X117412014Y-63430277D01*
X117261670Y-63265051D01*
X117257619Y-63261852D01*
X117257615Y-63261848D01*
X117090414Y-63129800D01*
X117090410Y-63129798D01*
X117086359Y-63126598D01*
X116890789Y-63018638D01*
X116885920Y-63016914D01*
X116885916Y-63016912D01*
X116685087Y-62945795D01*
X116685083Y-62945794D01*
X116680212Y-62944069D01*
X116675119Y-62943162D01*
X116675116Y-62943161D01*
X116465373Y-62905800D01*
X116465367Y-62905799D01*
X116460284Y-62904894D01*
X116386452Y-62903992D01*
X116242081Y-62902228D01*
X116242079Y-62902228D01*
X116236911Y-62902165D01*
X116016091Y-62935955D01*
X115803756Y-63005357D01*
X115605607Y-63108507D01*
X115601474Y-63111610D01*
X115601471Y-63111612D01*
X115446374Y-63228062D01*
X115426965Y-63242635D01*
X115272629Y-63404138D01*
X115269715Y-63408410D01*
X115269714Y-63408411D01*
X115257404Y-63426457D01*
X115146743Y-63588680D01*
X115052688Y-63791305D01*
X115051880Y-63794220D01*
X115009959Y-63850744D01*
X114943551Y-63875852D01*
X114874110Y-63861072D01*
X114823684Y-63811095D01*
X114808000Y-63750215D01*
X114808000Y-60358861D01*
X114828002Y-60290740D01*
X114881658Y-60244247D01*
X114951932Y-60234143D01*
X115016512Y-60263637D01*
X115034825Y-60283295D01*
X115118739Y-60395261D01*
X115235295Y-60482615D01*
X115371684Y-60533745D01*
X115433866Y-60540500D01*
X117230134Y-60540500D01*
X117292316Y-60533745D01*
X117428705Y-60482615D01*
X117545261Y-60395261D01*
X117632615Y-60278705D01*
X117683745Y-60142316D01*
X117690500Y-60080134D01*
X117690500Y-58283866D01*
X117683745Y-58221684D01*
X117632615Y-58085295D01*
X117545261Y-57968739D01*
X117428705Y-57881385D01*
X117292316Y-57830255D01*
X117230134Y-57823500D01*
X115433866Y-57823500D01*
X115371684Y-57830255D01*
X115235295Y-57881385D01*
X115118739Y-57968739D01*
X115113358Y-57975919D01*
X115034826Y-58080704D01*
X114977967Y-58123219D01*
X114907148Y-58128245D01*
X114844855Y-58094185D01*
X114810865Y-58031854D01*
X114808000Y-58005139D01*
X114808000Y-53389328D01*
X114809500Y-53369943D01*
X114811805Y-53355142D01*
X114811805Y-53355139D01*
X114813186Y-53346270D01*
X114811059Y-53330001D01*
X114810266Y-53305433D01*
X114824844Y-53083015D01*
X114826995Y-53066674D01*
X114875629Y-52822176D01*
X114879895Y-52806257D01*
X114960022Y-52570210D01*
X114966329Y-52554983D01*
X115076584Y-52331408D01*
X115084825Y-52317135D01*
X115223316Y-52109867D01*
X115233349Y-52096790D01*
X115257113Y-52069693D01*
X115397714Y-51909368D01*
X115409368Y-51897714D01*
X115560428Y-51765238D01*
X115596794Y-51733346D01*
X115609867Y-51723316D01*
X115817135Y-51584825D01*
X115831408Y-51576584D01*
X116054983Y-51466329D01*
X116070210Y-51460022D01*
X116306257Y-51379895D01*
X116322176Y-51375629D01*
X116566673Y-51326995D01*
X116583014Y-51324844D01*
X116798268Y-51310736D01*
X116821304Y-51311761D01*
X116824854Y-51311804D01*
X116833730Y-51313186D01*
X116865252Y-51309064D01*
X116881589Y-51308000D01*
X137110672Y-51308000D01*
X137130057Y-51309500D01*
G37*
%TD.AperFunction*%
%TA.AperFunction,Conductor*%
G36*
X137091171Y-67353502D02*
G01*
X137112145Y-67370405D01*
X137445595Y-67703855D01*
X137479621Y-67766167D01*
X137482500Y-67792950D01*
X137482500Y-68343400D01*
X137482837Y-68346646D01*
X137482837Y-68346650D01*
X137491434Y-68429500D01*
X137493474Y-68449166D01*
X137495655Y-68455702D01*
X137495655Y-68455704D01*
X137533667Y-68569640D01*
X137549450Y-68616946D01*
X137642522Y-68767348D01*
X137647704Y-68772521D01*
X137747109Y-68871753D01*
X137781188Y-68934036D01*
X137776185Y-69004856D01*
X137747264Y-69049944D01*
X137641695Y-69155697D01*
X137639094Y-69159916D01*
X137581970Y-69200417D01*
X137511047Y-69203649D01*
X137449635Y-69168024D01*
X137443078Y-69160470D01*
X137439478Y-69154652D01*
X137314303Y-69029695D01*
X137268613Y-69001531D01*
X137169968Y-68940725D01*
X137169966Y-68940724D01*
X137163738Y-68936885D01*
X137069190Y-68905525D01*
X137002389Y-68883368D01*
X137002387Y-68883368D01*
X136995861Y-68881203D01*
X136989025Y-68880503D01*
X136989022Y-68880502D01*
X136945969Y-68876091D01*
X136891400Y-68870500D01*
X136290600Y-68870500D01*
X136287354Y-68870837D01*
X136287350Y-68870837D01*
X136191692Y-68880762D01*
X136191688Y-68880763D01*
X136184834Y-68881474D01*
X136178292Y-68883657D01*
X136178290Y-68883657D01*
X136079377Y-68916657D01*
X136008427Y-68919242D01*
X135947343Y-68883059D01*
X135915518Y-68819595D01*
X135913500Y-68797134D01*
X135913500Y-68662059D01*
X135914059Y-68650203D01*
X135915789Y-68642463D01*
X135913562Y-68571611D01*
X135913500Y-68567653D01*
X135913500Y-68538568D01*
X135912946Y-68534179D01*
X135912013Y-68522337D01*
X135911908Y-68518979D01*
X135910562Y-68476169D01*
X135904580Y-68455579D01*
X135900570Y-68436216D01*
X135898875Y-68422796D01*
X135898875Y-68422795D01*
X135897882Y-68414936D01*
X135894966Y-68407571D01*
X135894965Y-68407567D01*
X135880874Y-68371979D01*
X135877035Y-68360769D01*
X135864145Y-68316400D01*
X135853225Y-68297935D01*
X135844534Y-68280195D01*
X135836635Y-68260244D01*
X135809482Y-68222871D01*
X135802967Y-68212952D01*
X135783493Y-68180023D01*
X135783490Y-68180019D01*
X135779453Y-68173193D01*
X135764289Y-68158029D01*
X135751448Y-68142995D01*
X135743501Y-68132057D01*
X135738841Y-68125643D01*
X135703247Y-68096197D01*
X135694468Y-68088208D01*
X135460832Y-67854572D01*
X135426806Y-67792260D01*
X135431871Y-67721445D01*
X135474418Y-67664609D01*
X135485404Y-67657252D01*
X135572603Y-67605271D01*
X135637120Y-67587500D01*
X135825095Y-67587500D01*
X135836951Y-67588059D01*
X135836954Y-67588059D01*
X135844688Y-67589788D01*
X135915520Y-67587562D01*
X135919478Y-67587500D01*
X135948583Y-67587500D01*
X135952983Y-67586944D01*
X135964815Y-67586012D01*
X136010982Y-67584562D01*
X136031572Y-67578580D01*
X136050933Y-67574570D01*
X136057921Y-67573688D01*
X136064355Y-67572875D01*
X136064356Y-67572875D01*
X136072215Y-67571882D01*
X136079580Y-67568966D01*
X136079584Y-67568965D01*
X136115172Y-67554874D01*
X136126382Y-67551035D01*
X136170751Y-67538145D01*
X136189216Y-67527225D01*
X136206956Y-67518534D01*
X136226907Y-67510635D01*
X136264280Y-67483482D01*
X136274199Y-67476967D01*
X136307128Y-67457493D01*
X136307132Y-67457490D01*
X136313958Y-67453453D01*
X136329122Y-67438289D01*
X136344156Y-67425448D01*
X136346768Y-67423550D01*
X136361508Y-67412841D01*
X136366558Y-67406737D01*
X136366564Y-67406731D01*
X136389353Y-67379184D01*
X136448187Y-67339446D01*
X136486437Y-67333500D01*
X137023050Y-67333500D01*
X137091171Y-67353502D01*
G37*
%TD.AperFunction*%
%TD*%
M02*
