%TF.GenerationSoftware,KiCad,Pcbnew,(6.0.1)*%
%TF.CreationDate,2022-02-11T13:32:31+08:00*%
%TF.ProjectId,OpenEMG_SMD_ver2.1,4f70656e-454d-4475-9f53-4d445f766572,rev?*%
%TF.SameCoordinates,PX6d01460PY54c81a0*%
%TF.FileFunction,Copper,L1,Top*%
%TF.FilePolarity,Positive*%
%FSLAX46Y46*%
G04 Gerber Fmt 4.6, Leading zero omitted, Abs format (unit mm)*
G04 Created by KiCad (PCBNEW (6.0.1)) date 2022-02-11 13:32:31*
%MOMM*%
%LPD*%
G01*
G04 APERTURE LIST*
G04 Aperture macros list*
%AMRoundRect*
0 Rectangle with rounded corners*
0 $1 Rounding radius*
0 $2 $3 $4 $5 $6 $7 $8 $9 X,Y pos of 4 corners*
0 Add a 4 corners polygon primitive as box body*
4,1,4,$2,$3,$4,$5,$6,$7,$8,$9,$2,$3,0*
0 Add four circle primitives for the rounded corners*
1,1,$1+$1,$2,$3*
1,1,$1+$1,$4,$5*
1,1,$1+$1,$6,$7*
1,1,$1+$1,$8,$9*
0 Add four rect primitives between the rounded corners*
20,1,$1+$1,$2,$3,$4,$5,0*
20,1,$1+$1,$4,$5,$6,$7,0*
20,1,$1+$1,$6,$7,$8,$9,0*
20,1,$1+$1,$8,$9,$2,$3,0*%
G04 Aperture macros list end*
%TA.AperFunction,SMDPad,CuDef*%
%ADD10RoundRect,0.250000X0.550000X-1.500000X0.550000X1.500000X-0.550000X1.500000X-0.550000X-1.500000X0*%
%TD*%
%TA.AperFunction,SMDPad,CuDef*%
%ADD11RoundRect,0.250000X0.262500X0.450000X-0.262500X0.450000X-0.262500X-0.450000X0.262500X-0.450000X0*%
%TD*%
%TA.AperFunction,ComponentPad*%
%ADD12C,0.700000*%
%TD*%
%TA.AperFunction,ComponentPad*%
%ADD13C,4.400000*%
%TD*%
%TA.AperFunction,ComponentPad*%
%ADD14R,1.700000X1.700000*%
%TD*%
%TA.AperFunction,ComponentPad*%
%ADD15O,1.700000X1.700000*%
%TD*%
%TA.AperFunction,SMDPad,CuDef*%
%ADD16RoundRect,0.250000X0.250000X0.475000X-0.250000X0.475000X-0.250000X-0.475000X0.250000X-0.475000X0*%
%TD*%
%TA.AperFunction,SMDPad,CuDef*%
%ADD17RoundRect,0.250000X0.450000X-0.262500X0.450000X0.262500X-0.450000X0.262500X-0.450000X-0.262500X0*%
%TD*%
%TA.AperFunction,SMDPad,CuDef*%
%ADD18R,2.500000X1.800000*%
%TD*%
%TA.AperFunction,SMDPad,CuDef*%
%ADD19RoundRect,0.250000X-0.262500X-0.450000X0.262500X-0.450000X0.262500X0.450000X-0.262500X0.450000X0*%
%TD*%
%TA.AperFunction,SMDPad,CuDef*%
%ADD20RoundRect,0.150000X-0.825000X-0.150000X0.825000X-0.150000X0.825000X0.150000X-0.825000X0.150000X0*%
%TD*%
%TA.AperFunction,SMDPad,CuDef*%
%ADD21RoundRect,0.250000X-0.250000X-0.475000X0.250000X-0.475000X0.250000X0.475000X-0.250000X0.475000X0*%
%TD*%
%TA.AperFunction,SMDPad,CuDef*%
%ADD22RoundRect,0.250000X-0.450000X0.262500X-0.450000X-0.262500X0.450000X-0.262500X0.450000X0.262500X0*%
%TD*%
%TA.AperFunction,SMDPad,CuDef*%
%ADD23R,1.000000X1.500000*%
%TD*%
%TA.AperFunction,SMDPad,CuDef*%
%ADD24RoundRect,0.250000X0.475000X-0.250000X0.475000X0.250000X-0.475000X0.250000X-0.475000X-0.250000X0*%
%TD*%
%TA.AperFunction,ViaPad*%
%ADD25C,0.600000*%
%TD*%
%TA.AperFunction,Conductor*%
%ADD26C,0.300000*%
%TD*%
%TA.AperFunction,Conductor*%
%ADD27C,0.500000*%
%TD*%
%TA.AperFunction,Conductor*%
%ADD28C,0.200000*%
%TD*%
G04 APERTURE END LIST*
D10*
%TO.P,C9,1*%
%TO.N,Net-(C9-Pad1)*%
X16510000Y30574000D03*
%TO.P,C9,2*%
%TO.N,GND*%
X16510000Y35974000D03*
%TD*%
D11*
%TO.P,R4,1*%
%TO.N,Net-(C3-Pad2)*%
X7389500Y26162000D03*
%TO.P,R4,2*%
%TO.N,Net-(R1-Pad2)*%
X5564500Y26162000D03*
%TD*%
D12*
%TO.P,H6,1,1*%
%TO.N,GND*%
X1144000Y2794000D03*
X3960726Y3960726D03*
X2794000Y4444000D03*
X2794000Y1144000D03*
X4444000Y2794000D03*
X1627274Y1627274D03*
X1627274Y3960726D03*
X3960726Y1627274D03*
D13*
X2794000Y2794000D03*
%TD*%
D14*
%TO.P,J1,1,Pin_1*%
%TO.N,VCC*%
X2032000Y29718000D03*
D15*
%TO.P,J1,2,Pin_2*%
%TO.N,GND*%
X2032000Y27178000D03*
%TO.P,J1,3,Pin_3*%
%TO.N,-VDC*%
X2032000Y24638000D03*
%TD*%
D12*
%TO.P,H4,1,1*%
%TO.N,GND*%
X20956000Y35306000D03*
X21439274Y36472726D03*
X24256000Y35306000D03*
X21439274Y34139274D03*
D13*
X22606000Y35306000D03*
D12*
X23772726Y34139274D03*
X23772726Y36472726D03*
X22606000Y36956000D03*
X22606000Y33656000D03*
%TD*%
D16*
%TO.P,C1,1*%
%TO.N,VCC*%
X24191000Y18796000D03*
%TO.P,C1,2*%
%TO.N,-VDC*%
X22291000Y18796000D03*
%TD*%
D17*
%TO.P,R2,1*%
%TO.N,Net-(H2-Pad1)*%
X3556000Y14581500D03*
%TO.P,R2,2*%
%TO.N,Net-(R2-Pad2)*%
X3556000Y16406500D03*
%TD*%
D18*
%TO.P,D3,1,K*%
%TO.N,Net-(C8-Pad2)*%
X6255000Y31369000D03*
%TO.P,D3,2,A*%
%TO.N,Net-(D3-Pad2)*%
X10255000Y31369000D03*
%TD*%
D19*
%TO.P,R12,1*%
%TO.N,Net-(R10-Pad1)*%
X5757500Y17272000D03*
%TO.P,R12,2*%
%TO.N,Net-(R11-Pad2)*%
X7582500Y17272000D03*
%TD*%
D20*
%TO.P,U1,1*%
%TO.N,Net-(R11-Pad2)*%
X10225000Y17272000D03*
%TO.P,U1,2,-*%
%TO.N,Net-(R10-Pad1)*%
X10225000Y16002000D03*
%TO.P,U1,3,+*%
%TO.N,Net-(C4-Pad2)*%
X10225000Y14732000D03*
%TO.P,U1,4,V+*%
%TO.N,VCC*%
X10225000Y13462000D03*
%TO.P,U1,5,+*%
%TO.N,GND*%
X10225000Y12192000D03*
%TO.P,U1,6,-*%
%TO.N,Net-(R13-Pad1)*%
X10225000Y10922000D03*
%TO.P,U1,7*%
%TO.N,Net-(C5-Pad2)*%
X10225000Y9652000D03*
%TO.P,U1,8*%
%TO.N,Net-(D1-Pad1)*%
X15175000Y9652000D03*
%TO.P,U1,9,-*%
%TO.N,Net-(D1-Pad2)*%
X15175000Y10922000D03*
%TO.P,U1,10,+*%
%TO.N,GND*%
X15175000Y12192000D03*
%TO.P,U1,11,V-*%
%TO.N,-VDC*%
X15175000Y13462000D03*
%TO.P,U1,12,+*%
%TO.N,Net-(C7-Pad1)*%
X15175000Y14732000D03*
%TO.P,U1,13,-*%
%TO.N,Net-(R19-Pad1)*%
X15175000Y16002000D03*
%TO.P,U1,14*%
%TO.N,/AC_signal*%
X15175000Y17272000D03*
%TD*%
D19*
%TO.P,R23,1*%
%TO.N,Net-(C9-Pad1)*%
X12803500Y28448000D03*
%TO.P,R23,2*%
%TO.N,GND*%
X14628500Y28448000D03*
%TD*%
%TO.P,R22,1*%
%TO.N,Net-(D3-Pad2)*%
X6453500Y34417000D03*
%TO.P,R22,2*%
%TO.N,Net-(C9-Pad1)*%
X8278500Y34417000D03*
%TD*%
D11*
%TO.P,R10,1*%
%TO.N,Net-(R10-Pad1)*%
X7582500Y15240000D03*
%TO.P,R10,2*%
%TO.N,GND*%
X5757500Y15240000D03*
%TD*%
D14*
%TO.P,J3,1,Pin_1*%
%TO.N,Net-(D3-Pad2)*%
X23241000Y27559000D03*
%TD*%
D11*
%TO.P,R7,1*%
%TO.N,Net-(C4-Pad2)*%
X7582500Y11176000D03*
%TO.P,R7,2*%
%TO.N,GND*%
X5757500Y11176000D03*
%TD*%
D21*
%TO.P,C8,1*%
%TO.N,GND*%
X5527000Y28448000D03*
%TO.P,C8,2*%
%TO.N,Net-(C8-Pad2)*%
X7427000Y28448000D03*
%TD*%
D17*
%TO.P,R15,1*%
%TO.N,Net-(C5-Pad1)*%
X3556000Y11025500D03*
%TO.P,R15,2*%
%TO.N,GND*%
X3556000Y12850500D03*
%TD*%
D21*
%TO.P,C6,1*%
%TO.N,Net-(C6-Pad1)*%
X17800000Y19050000D03*
%TO.P,C6,2*%
%TO.N,/AC_signal*%
X19700000Y19050000D03*
%TD*%
D19*
%TO.P,R11,1*%
%TO.N,Net-(C3-Pad1)*%
X5818500Y19304000D03*
%TO.P,R11,2*%
%TO.N,Net-(R11-Pad2)*%
X7643500Y19304000D03*
%TD*%
D20*
%TO.P,U2,1*%
%TO.N,Net-(C3-Pad2)*%
X10225000Y26543000D03*
%TO.P,U2,2,-*%
%TO.N,Net-(R1-Pad2)*%
X10225000Y25273000D03*
%TO.P,U2,3,+*%
%TO.N,Net-(R2-Pad2)*%
X10225000Y24003000D03*
%TO.P,U2,4,V-*%
%TO.N,-VDC*%
X10225000Y22733000D03*
%TO.P,U2,5,+*%
%TO.N,Net-(C5-Pad1)*%
X15175000Y22733000D03*
%TO.P,U2,6,-*%
%TO.N,Net-(R16-Pad1)*%
X15175000Y24003000D03*
%TO.P,U2,7*%
%TO.N,Net-(R18-Pad2)*%
X15175000Y25273000D03*
%TO.P,U2,8,V+*%
%TO.N,VCC*%
X15175000Y26543000D03*
%TD*%
D17*
%TO.P,R1,1*%
%TO.N,Net-(H1-Pad1)*%
X5461000Y22455500D03*
%TO.P,R1,2*%
%TO.N,Net-(R1-Pad2)*%
X5461000Y24280500D03*
%TD*%
D19*
%TO.P,R17,1*%
%TO.N,Net-(C6-Pad1)*%
X13565500Y19812000D03*
%TO.P,R17,2*%
%TO.N,Net-(C7-Pad1)*%
X15390500Y19812000D03*
%TD*%
D18*
%TO.P,D2,1,K*%
%TO.N,Net-(D2-Pad1)*%
X16732000Y6731000D03*
%TO.P,D2,2,A*%
%TO.N,Net-(D1-Pad1)*%
X12732000Y6731000D03*
%TD*%
D22*
%TO.P,R6,1*%
%TO.N,Net-(D1-Pad2)*%
X19558000Y9040500D03*
%TO.P,R6,2*%
%TO.N,Net-(D2-Pad1)*%
X19558000Y7215500D03*
%TD*%
D16*
%TO.P,C2,1*%
%TO.N,VCC*%
X24191000Y21082000D03*
%TO.P,C2,2*%
%TO.N,GND*%
X22291000Y21082000D03*
%TD*%
D23*
%TO.P,JP1,1,A*%
%TO.N,Net-(C9-Pad1)*%
X11572000Y34544000D03*
%TO.P,JP1,2,B*%
%TO.N,Net-(D3-Pad2)*%
X10272000Y34544000D03*
%TD*%
D21*
%TO.P,C7,1*%
%TO.N,Net-(C7-Pad1)*%
X17800000Y12954000D03*
%TO.P,C7,2*%
%TO.N,GND*%
X19700000Y12954000D03*
%TD*%
D12*
%TO.P,H5,1,1*%
%TO.N,GND*%
X21439274Y1627274D03*
X22606000Y4444000D03*
D13*
X22606000Y2794000D03*
D12*
X21439274Y3960726D03*
X22606000Y1144000D03*
X23772726Y1627274D03*
X20956000Y2794000D03*
X23772726Y3960726D03*
X24256000Y2794000D03*
%TD*%
D18*
%TO.P,D1,1,K*%
%TO.N,Net-(D1-Pad1)*%
X16732000Y3048000D03*
%TO.P,D1,2,A*%
%TO.N,Net-(D1-Pad2)*%
X12732000Y3048000D03*
%TD*%
D11*
%TO.P,R18,1*%
%TO.N,Net-(R16-Pad1)*%
X19454500Y26670000D03*
%TO.P,R18,2*%
%TO.N,Net-(R18-Pad2)*%
X17629500Y26670000D03*
%TD*%
D17*
%TO.P,R13,1*%
%TO.N,Net-(R13-Pad1)*%
X7366000Y7469500D03*
%TO.P,R13,2*%
%TO.N,Net-(C5-Pad2)*%
X7366000Y9294500D03*
%TD*%
D14*
%TO.P,J2,1,Pin_1*%
%TO.N,VCC*%
X23368000Y14732000D03*
D15*
%TO.P,J2,2,Pin_2*%
%TO.N,GND*%
X23368000Y12192000D03*
%TO.P,J2,3,Pin_3*%
%TO.N,-VDC*%
X23368000Y9652000D03*
%TD*%
D19*
%TO.P,R20,1*%
%TO.N,Net-(R19-Pad1)*%
X17837500Y17018000D03*
%TO.P,R20,2*%
%TO.N,/AC_signal*%
X19662500Y17018000D03*
%TD*%
D17*
%TO.P,R9,1*%
%TO.N,Net-(D2-Pad1)*%
X9906000Y3913500D03*
%TO.P,R9,2*%
%TO.N,Net-(R13-Pad1)*%
X9906000Y5738500D03*
%TD*%
%TO.P,R8,1*%
%TO.N,/AC_signal*%
X7366000Y3913500D03*
%TO.P,R8,2*%
%TO.N,Net-(R13-Pad1)*%
X7366000Y5738500D03*
%TD*%
D21*
%TO.P,C4,1*%
%TO.N,Net-(C3-Pad1)*%
X5720000Y13208000D03*
%TO.P,C4,2*%
%TO.N,Net-(C4-Pad2)*%
X7620000Y13208000D03*
%TD*%
%TO.P,C5,1*%
%TO.N,Net-(C5-Pad1)*%
X3368000Y9144000D03*
%TO.P,C5,2*%
%TO.N,Net-(C5-Pad2)*%
X5268000Y9144000D03*
%TD*%
D19*
%TO.P,R16,1*%
%TO.N,Net-(R16-Pad1)*%
X17629500Y24384000D03*
%TO.P,R16,2*%
%TO.N,GND*%
X19454500Y24384000D03*
%TD*%
D17*
%TO.P,R3,1*%
%TO.N,Net-(R2-Pad2)*%
X3556000Y18034000D03*
%TO.P,R3,2*%
%TO.N,GND*%
X3556000Y19859000D03*
%TD*%
D12*
%TO.P,H3,1,1*%
%TO.N,GND*%
X1627274Y36472726D03*
X2794000Y36956000D03*
D13*
X2794000Y35306000D03*
D12*
X3960726Y34139274D03*
X1627274Y34139274D03*
X3960726Y36472726D03*
X4444000Y35306000D03*
X1144000Y35306000D03*
X2794000Y33656000D03*
%TD*%
D24*
%TO.P,C3,1*%
%TO.N,Net-(C3-Pad1)*%
X7620000Y22418000D03*
%TO.P,C3,2*%
%TO.N,Net-(C3-Pad2)*%
X7620000Y24318000D03*
%TD*%
D19*
%TO.P,R19,1*%
%TO.N,Net-(R19-Pad1)*%
X17837500Y14986000D03*
%TO.P,R19,2*%
%TO.N,GND*%
X19662500Y14986000D03*
%TD*%
%TO.P,R14,1*%
%TO.N,Net-(R11-Pad2)*%
X10009500Y19812000D03*
%TO.P,R14,2*%
%TO.N,Net-(C6-Pad1)*%
X11834500Y19812000D03*
%TD*%
D11*
%TO.P,R5,1*%
%TO.N,/AC_signal*%
X19662500Y10922000D03*
%TO.P,R5,2*%
%TO.N,Net-(D1-Pad2)*%
X17837500Y10922000D03*
%TD*%
%TO.P,R21,1*%
%TO.N,Net-(R18-Pad2)*%
X11072500Y28448000D03*
%TO.P,R21,2*%
%TO.N,Net-(C8-Pad2)*%
X9247500Y28448000D03*
%TD*%
D25*
%TO.N,VCC*%
X20828000Y21971000D03*
X11938000Y16129000D03*
%TO.N,-VDC*%
X12890500Y14795500D03*
X10972480Y21386480D03*
%TO.N,GND*%
X12827000Y13843000D03*
%TO.N,Net-(C5-Pad1)*%
X1778000Y12446000D03*
X17526000Y22733000D03*
%TO.N,/AC_signal*%
X16510000Y18542000D03*
X19685000Y20574000D03*
%TO.N,Net-(D3-Pad2)*%
X6477000Y36322000D03*
%TO.N,Net-(H1-Pad1)*%
X5461000Y21082000D03*
%TO.N,Net-(H2-Pad1)*%
X3429000Y7493000D03*
%TD*%
D26*
%TO.N,VCC*%
X11684000Y13462000D02*
X11938000Y13716000D01*
X15175000Y26543000D02*
X14763573Y26543000D01*
X14255573Y21971000D02*
X20828000Y21971000D01*
X13850480Y22376093D02*
X14255573Y21971000D01*
X21607151Y21971000D02*
X21861151Y22225000D01*
X14763573Y26543000D02*
X13850480Y25629907D01*
X24191000Y21082000D02*
X24191000Y18796000D01*
X20828000Y21971000D02*
X21607151Y21971000D01*
X23048000Y22225000D02*
X24191000Y21082000D01*
X13850480Y25629907D02*
X13850480Y22376093D01*
X10225000Y13462000D02*
X11684000Y13462000D01*
X21861151Y22225000D02*
X23048000Y22225000D01*
X11938000Y13716000D02*
X11938000Y16129000D01*
%TO.N,-VDC*%
X12890500Y14795500D02*
X13271500Y14414500D01*
X19913960Y21361040D02*
X13182960Y21361040D01*
X20955000Y19431000D02*
X20955000Y20320000D01*
X10972480Y21985520D02*
X10225000Y22733000D01*
X22291000Y18796000D02*
X21590000Y18796000D01*
X12827000Y16351427D02*
X12827000Y14859000D01*
X20955000Y20320000D02*
X19913960Y21361040D01*
X12827000Y14859000D02*
X12890500Y14795500D01*
X11811000Y22733000D02*
X10225000Y22733000D01*
X10972480Y18205947D02*
X12827000Y16351427D01*
X10972480Y21985520D02*
X10972480Y21386480D01*
X21590000Y18796000D02*
X20955000Y19431000D01*
X13182960Y21361040D02*
X11811000Y22733000D01*
X10972480Y21386480D02*
X10972480Y18205947D01*
X14224000Y13462000D02*
X15175000Y13462000D01*
X13271500Y14414500D02*
X14224000Y13462000D01*
%TO.N,GND*%
X5757500Y11176000D02*
X5266849Y11176000D01*
D27*
X16510000Y37338000D02*
X16383000Y37465000D01*
X4953000Y37465000D02*
X16383000Y37465000D01*
D26*
X19662500Y12991500D02*
X19700000Y12954000D01*
X6569520Y14427980D02*
X6569520Y11988020D01*
X628970Y21596030D02*
X2366000Y19859000D01*
X25040520Y21949480D02*
X25040520Y32871480D01*
X23368000Y12192000D02*
X20462000Y12192000D01*
D27*
X16510000Y35974000D02*
X16510000Y37338000D01*
D26*
X24689329Y17721480D02*
X25040520Y18072671D01*
X4217520Y4217520D02*
X3048000Y3048000D01*
X20406001Y594001D02*
X22606000Y2794000D01*
X23368000Y12192000D02*
X25019000Y12192000D01*
X628970Y4959030D02*
X2794000Y2794000D01*
X14628500Y28448000D02*
X16129000Y28448000D01*
X10225000Y12192000D02*
X12827000Y12192000D01*
X5266849Y11176000D02*
X4217520Y10126671D01*
X25040520Y32871480D02*
X22606000Y35306000D01*
D27*
X16383000Y37465000D02*
X20447000Y37465000D01*
D26*
X23341480Y18072671D02*
X23692671Y17721480D01*
X832489Y22582511D02*
X832489Y25978489D01*
X2032000Y27178000D02*
X3302000Y28448000D01*
X20701000Y24384000D02*
X19454500Y24384000D01*
X3048000Y35052000D02*
X832489Y32836489D01*
X20462000Y12192000D02*
X19700000Y12954000D01*
X25040520Y18072671D02*
X25040520Y18520480D01*
X23692671Y17721480D02*
X24689329Y17721480D01*
X628970Y21596030D02*
X628970Y4959030D01*
X25019000Y12192000D02*
X25040520Y12213520D01*
D27*
X20447000Y37465000D02*
X22606000Y35306000D01*
D26*
X25040520Y5228520D02*
X22606000Y2794000D01*
X12827000Y13843000D02*
X12827000Y12192000D01*
X19431000Y28448000D02*
X20701000Y27178000D01*
X25040520Y18520480D02*
X25040520Y21949480D01*
X25040520Y18520480D02*
X25040520Y12213520D01*
X19662500Y14986000D02*
X19662500Y12991500D01*
X22291000Y21082000D02*
X23341480Y20031520D01*
X832489Y32836489D02*
X832489Y25978489D01*
X22397980Y17721480D02*
X23692671Y17721480D01*
X4993999Y594001D02*
X20406001Y594001D01*
X628970Y22378992D02*
X628970Y21596030D01*
D27*
X2794000Y35306000D02*
X4953000Y37465000D01*
D26*
X2366000Y19859000D02*
X3556000Y19859000D01*
X2794000Y2794000D02*
X4993999Y594001D01*
X25040520Y21949480D02*
X22606000Y24384000D01*
X6569520Y11988020D02*
X5757500Y11176000D01*
X22606000Y24384000D02*
X20701000Y24384000D01*
X4083000Y12850500D02*
X5757500Y11176000D01*
X12827000Y12192000D02*
X15175000Y12192000D01*
X4217520Y10126671D02*
X4217520Y4217520D01*
X23341480Y20031520D02*
X23341480Y18072671D01*
X3302000Y28448000D02*
X5527000Y28448000D01*
X832489Y22582511D02*
X628970Y22378992D01*
X832489Y25978489D02*
X2032000Y27178000D01*
X19662500Y14986000D02*
X22397980Y17721480D01*
X25040520Y12213520D02*
X25040520Y5228520D01*
X3556000Y12850500D02*
X4083000Y12850500D01*
X5757500Y15240000D02*
X6569520Y14427980D01*
X16129000Y28448000D02*
X19431000Y28448000D01*
X20701000Y27178000D02*
X20701000Y24384000D01*
%TO.N,Net-(C3-Pad1)*%
X4895480Y18380980D02*
X5818500Y19304000D01*
X6731000Y20216500D02*
X6731000Y21529000D01*
X6731000Y21529000D02*
X7620000Y22418000D01*
X4895480Y14032520D02*
X4895480Y18380980D01*
X5818500Y19304000D02*
X5842000Y19304000D01*
X5818500Y19304000D02*
X6731000Y20216500D01*
X5720000Y13208000D02*
X4895480Y14032520D01*
%TO.N,Net-(C3-Pad2)*%
X7770500Y26543000D02*
X7389500Y26162000D01*
X7389500Y24548500D02*
X7620000Y24318000D01*
X10225000Y26543000D02*
X7770500Y26543000D01*
X7389500Y26162000D02*
X7389500Y24548500D01*
%TO.N,Net-(C4-Pad2)*%
X7620000Y13462000D02*
X7620000Y13208000D01*
X7620000Y11213500D02*
X7582500Y11176000D01*
X7620000Y13208000D02*
X7620000Y11213500D01*
X8890000Y14732000D02*
X7620000Y13462000D01*
X10225000Y14732000D02*
X8890000Y14732000D01*
%TO.N,Net-(C5-Pad1)*%
X1778000Y12446000D02*
X1778000Y11303000D01*
X1778000Y11303000D02*
X2055500Y11025500D01*
X15175000Y22733000D02*
X17526000Y22733000D01*
X2055500Y11025500D02*
X3556000Y11025500D01*
X3368000Y9144000D02*
X3368000Y10837500D01*
X3368000Y10837500D02*
X3556000Y11025500D01*
%TO.N,Net-(C5-Pad2)*%
X7389500Y9271000D02*
X7366000Y9294500D01*
X8382000Y9271000D02*
X7389500Y9271000D01*
X5418500Y9294500D02*
X5268000Y9144000D01*
X7366000Y9294500D02*
X5418500Y9294500D01*
X8763000Y9652000D02*
X8382000Y9271000D01*
X10225000Y9652000D02*
X8763000Y9652000D01*
%TO.N,Net-(C6-Pad1)*%
X13565500Y19812000D02*
X14615020Y20861520D01*
X14615020Y20861520D02*
X17111480Y20861520D01*
X17800000Y20173000D02*
X17800000Y19050000D01*
X17111480Y20861520D02*
X17800000Y20173000D01*
X11834500Y19812000D02*
X13565500Y19812000D01*
D28*
%TO.N,/AC_signal*%
X16601862Y17272000D02*
X17348862Y18019000D01*
D26*
X19685000Y20574000D02*
X19685000Y19065000D01*
X19700000Y17055500D02*
X19662500Y17018000D01*
X7366000Y2921000D02*
X9135520Y1151480D01*
X19700000Y18019000D02*
X19700000Y17055500D01*
X9135520Y1151480D02*
X18240908Y1151480D01*
X18800480Y11784020D02*
X18800480Y16155980D01*
X7366000Y3913500D02*
X7366000Y2921000D01*
X20320000Y10922000D02*
X19662500Y10922000D01*
X20629572Y6659572D02*
X20701000Y6659572D01*
D28*
X17348862Y18019000D02*
X19700000Y18019000D01*
D26*
X19662500Y10922000D02*
X18800480Y11784020D01*
X19177000Y5207000D02*
X20629572Y6659572D01*
X20701000Y10541000D02*
X20320000Y10922000D01*
X18240908Y1151480D02*
X19177000Y2087572D01*
D28*
X15175000Y17272000D02*
X16601862Y17272000D01*
X16510000Y18542000D02*
X17033000Y18019000D01*
D26*
X19685000Y19065000D02*
X19700000Y19050000D01*
X18800480Y16155980D02*
X19662500Y17018000D01*
X20701000Y6659572D02*
X20701000Y10541000D01*
X19700000Y19050000D02*
X19700000Y18019000D01*
X19177000Y2087572D02*
X19177000Y5207000D01*
D28*
X17033000Y18019000D02*
X17348862Y18019000D01*
D26*
%TO.N,Net-(C7-Pad1)*%
X16764000Y13990000D02*
X17800000Y12954000D01*
X14224000Y14732000D02*
X15175000Y14732000D01*
X15175000Y14732000D02*
X16637000Y14732000D01*
X16637000Y14732000D02*
X16764000Y14605000D01*
X13850480Y15105520D02*
X14224000Y14732000D01*
X13850480Y18271980D02*
X13850480Y15105520D01*
X16764000Y14605000D02*
X16764000Y13990000D01*
X15390500Y19812000D02*
X13850480Y18271980D01*
%TO.N,Net-(C8-Pad2)*%
X7427000Y28448000D02*
X9247500Y28448000D01*
X6255000Y31369000D02*
X6255000Y29620000D01*
X6255000Y29620000D02*
X7427000Y28448000D01*
%TO.N,Net-(C9-Pad1)*%
X9505011Y35643511D02*
X11522489Y35643511D01*
X11572000Y34544000D02*
X11572000Y33386000D01*
X11572000Y35594000D02*
X11572000Y34544000D01*
X11572000Y33386000D02*
X12803500Y32154500D01*
X12803500Y32154500D02*
X14384000Y30574000D01*
X11522489Y35643511D02*
X11572000Y35594000D01*
X14384000Y30574000D02*
X16510000Y30574000D01*
X12803500Y32154500D02*
X12803500Y28448000D01*
X8278500Y34417000D02*
X9505011Y35643511D01*
%TO.N,Net-(D1-Pad1)*%
X12732000Y8922000D02*
X12732000Y6731000D01*
X12732000Y5810000D02*
X13716000Y4826000D01*
X15175000Y9652000D02*
X13462000Y9652000D01*
X16732000Y3588000D02*
X16732000Y3048000D01*
X13716000Y4826000D02*
X15494000Y4826000D01*
X15494000Y4826000D02*
X16732000Y3588000D01*
X12732000Y6731000D02*
X12732000Y5810000D01*
X13462000Y9652000D02*
X12732000Y8922000D01*
%TO.N,Net-(D1-Pad2)*%
X12264480Y9160907D02*
X12264480Y9145053D01*
X15175000Y10922000D02*
X14025573Y10922000D01*
X11049000Y7929573D02*
X11049000Y4731000D01*
X14025573Y10922000D02*
X12264480Y9160907D01*
X15175000Y10922000D02*
X17837500Y10922000D01*
X18772500Y9040500D02*
X19558000Y9040500D01*
X17837500Y10922000D02*
X17837500Y9975500D01*
X17837500Y9975500D02*
X18772500Y9040500D01*
X11049000Y4731000D02*
X12732000Y3048000D01*
X12264480Y9145053D02*
X11049000Y7929573D01*
%TO.N,Net-(D2-Pad1)*%
X19534500Y7239000D02*
X19558000Y7215500D01*
X18669000Y2286000D02*
X18034000Y1651000D01*
X11279978Y1651000D02*
X9906000Y3024978D01*
X19558000Y7215500D02*
X19558000Y6477000D01*
X18669000Y5588000D02*
X18669000Y2286000D01*
X17240000Y7239000D02*
X19534500Y7239000D01*
X9906000Y3024978D02*
X9906000Y3913500D01*
X18034000Y1651000D02*
X11279978Y1651000D01*
X19558000Y6477000D02*
X18669000Y5588000D01*
X16732000Y6731000D02*
X17240000Y7239000D01*
%TO.N,Net-(D3-Pad2)*%
X9095480Y33367480D02*
X10272000Y34544000D01*
X6453500Y36298500D02*
X6477000Y36322000D01*
X7503020Y33367480D02*
X9095480Y33367480D01*
X6453500Y34417000D02*
X6453500Y36298500D01*
X10255000Y32207960D02*
X10255000Y31369000D01*
X6453500Y34417000D02*
X7503020Y33367480D01*
X9095480Y33367480D02*
X10255000Y32207960D01*
%TO.N,Net-(H1-Pad1)*%
X5461000Y22455500D02*
X5461000Y21082000D01*
%TO.N,Net-(R1-Pad2)*%
X8694520Y24816329D02*
X8694520Y23819671D01*
X5564500Y26162000D02*
X5564500Y24384000D01*
X10225000Y25273000D02*
X9151191Y25273000D01*
X5564500Y24384000D02*
X5461000Y24280500D01*
X6273020Y23468480D02*
X5461000Y24280500D01*
X9151191Y25273000D02*
X8694520Y24816329D01*
X8694520Y23819671D02*
X8343329Y23468480D01*
X8343329Y23468480D02*
X6273020Y23468480D01*
%TO.N,Net-(H2-Pad1)*%
X1128489Y9793511D02*
X1128489Y13955489D01*
X3532500Y14605000D02*
X3556000Y14581500D01*
X3429000Y7493000D02*
X1128489Y9793511D01*
X1128489Y13955489D02*
X1778000Y14605000D01*
X1778000Y14605000D02*
X3532500Y14605000D01*
%TO.N,Net-(R2-Pad2)*%
X12017072Y24209072D02*
X11811000Y24003000D01*
X10225000Y24003000D02*
X11811000Y24003000D01*
X4411480Y26569329D02*
X4411480Y21944671D01*
X5147151Y27305000D02*
X4411480Y26569329D01*
X4605520Y19083520D02*
X3556000Y18034000D01*
X4411480Y21944671D02*
X4605520Y21750631D01*
X3556000Y16406500D02*
X3556000Y18034000D01*
X12017072Y26797000D02*
X12017072Y24209072D01*
X12017072Y26797000D02*
X11509072Y27305000D01*
X11509072Y27305000D02*
X5147151Y27305000D01*
X4605520Y21750631D02*
X4605520Y19083520D01*
%TO.N,Net-(R13-Pad1)*%
X11549520Y10008907D02*
X11549520Y9136520D01*
X10636427Y10922000D02*
X11549520Y10008907D01*
X7366000Y5738500D02*
X9906000Y5738500D01*
X11549520Y9136520D02*
X11176000Y8763000D01*
X8659500Y8763000D02*
X7366000Y7469500D01*
X11176000Y8763000D02*
X8659500Y8763000D01*
X10225000Y10922000D02*
X10636427Y10922000D01*
X7366000Y7469500D02*
X7366000Y5738500D01*
%TO.N,Net-(R10-Pad1)*%
X7582500Y15456500D02*
X8128000Y16002000D01*
X5757500Y17272000D02*
X5757500Y17065000D01*
X5757500Y17065000D02*
X7582500Y15240000D01*
X8128000Y16002000D02*
X10225000Y16002000D01*
X7582500Y15240000D02*
X7582500Y15456500D01*
%TO.N,Net-(R11-Pad2)*%
X7643500Y17333000D02*
X7582500Y17272000D01*
X7643500Y19581500D02*
X7874000Y19812000D01*
X7643500Y19304000D02*
X7643500Y19581500D01*
X10225000Y17272000D02*
X7582500Y17272000D01*
X7874000Y19812000D02*
X10009500Y19812000D01*
X7643500Y19304000D02*
X7643500Y17333000D01*
%TO.N,Net-(R16-Pad1)*%
X15175000Y24003000D02*
X17248500Y24003000D01*
X17248500Y24003000D02*
X17629500Y24384000D01*
X19454500Y26670000D02*
X19454500Y26185500D01*
X17629500Y24868500D02*
X17629500Y24384000D01*
X19454500Y26185500D02*
X18669000Y25400000D01*
X18669000Y25400000D02*
X18161000Y25400000D01*
X18161000Y25400000D02*
X17629500Y24868500D01*
%TO.N,Net-(R18-Pad2)*%
X12122020Y27398480D02*
X16901020Y27398480D01*
X16901020Y27398480D02*
X17629500Y26670000D01*
X16232500Y25273000D02*
X17629500Y26670000D01*
X15175000Y25273000D02*
X16232500Y25273000D01*
X11072500Y28448000D02*
X12122020Y27398480D01*
%TO.N,Net-(R19-Pad1)*%
X16821500Y16002000D02*
X17837500Y14986000D01*
X15175000Y16002000D02*
X16821500Y16002000D01*
X17837500Y14986000D02*
X17837500Y17018000D01*
%TD*%
%TA.AperFunction,Conductor*%
%TO.N,GND*%
G36*
X716512Y9273774D02*
G01*
X723095Y9267645D01*
X2598683Y7392057D01*
X2632598Y7329597D01*
X2633163Y7323840D01*
X2690418Y7151727D01*
X2694065Y7145705D01*
X2694066Y7145703D01*
X2754684Y7045611D01*
X2784380Y6996576D01*
X2910382Y6866098D01*
X3062159Y6766778D01*
X3068763Y6764322D01*
X3068765Y6764321D01*
X3225558Y6706010D01*
X3225560Y6706010D01*
X3232168Y6703552D01*
X3315995Y6692367D01*
X3404980Y6680493D01*
X3404984Y6680493D01*
X3411961Y6679562D01*
X3418972Y6680200D01*
X3418976Y6680200D01*
X3561459Y6693168D01*
X3592600Y6696002D01*
X3599302Y6698180D01*
X3599304Y6698180D01*
X3758409Y6749876D01*
X3758412Y6749877D01*
X3765108Y6752053D01*
X3920912Y6844931D01*
X4052266Y6970018D01*
X4152643Y7121098D01*
X4217055Y7290662D01*
X4242299Y7470283D01*
X4242616Y7493000D01*
X4222397Y7673255D01*
X4214981Y7694551D01*
X4165064Y7837894D01*
X4165062Y7837897D01*
X4162745Y7844552D01*
X4101864Y7941982D01*
X4082729Y8010350D01*
X4103594Y8078211D01*
X4119544Y8097765D01*
X4217305Y8195697D01*
X4219906Y8199916D01*
X4277030Y8240417D01*
X4347953Y8243649D01*
X4409365Y8208024D01*
X4415922Y8200470D01*
X4419522Y8194652D01*
X4544697Y8069695D01*
X4550927Y8065855D01*
X4550928Y8065854D01*
X4689023Y7980731D01*
X4695262Y7976885D01*
X4727558Y7966173D01*
X4856611Y7923368D01*
X4856613Y7923368D01*
X4863139Y7921203D01*
X4869975Y7920503D01*
X4869978Y7920502D01*
X4913031Y7916091D01*
X4967600Y7910500D01*
X5568400Y7910500D01*
X5571646Y7910837D01*
X5571650Y7910837D01*
X5667308Y7920762D01*
X5667312Y7920763D01*
X5674166Y7921474D01*
X5680702Y7923655D01*
X5680704Y7923655D01*
X5812806Y7967728D01*
X5841946Y7977450D01*
X5992348Y8070522D01*
X5993540Y8068595D01*
X6049158Y8091107D01*
X6118922Y8077936D01*
X6170490Y8029138D01*
X6187490Y7960206D01*
X6181205Y7926061D01*
X6168203Y7886861D01*
X6157500Y7782400D01*
X6157500Y7156600D01*
X6157837Y7153354D01*
X6157837Y7153350D01*
X6161793Y7115227D01*
X6168474Y7050834D01*
X6170655Y7044298D01*
X6170655Y7044296D01*
X6214728Y6912194D01*
X6224450Y6883054D01*
X6317522Y6732652D01*
X6344211Y6706010D01*
X6357109Y6693134D01*
X6391188Y6630852D01*
X6386185Y6560032D01*
X6357264Y6514943D01*
X6321866Y6479484D01*
X6321862Y6479479D01*
X6316695Y6474303D01*
X6312856Y6468075D01*
X6312854Y6468072D01*
X6234378Y6340760D01*
X6223885Y6323738D01*
X6221581Y6316791D01*
X6174794Y6175731D01*
X6168203Y6155861D01*
X6167503Y6149025D01*
X6167502Y6149022D01*
X6166978Y6143907D01*
X6157500Y6051400D01*
X6157500Y5425600D01*
X6168474Y5319834D01*
X6170655Y5313298D01*
X6170655Y5313296D01*
X6192079Y5249080D01*
X6224450Y5152054D01*
X6317522Y5001652D01*
X6322704Y4996479D01*
X6404109Y4915216D01*
X6438188Y4852934D01*
X6433185Y4782114D01*
X6404264Y4737025D01*
X6338948Y4671595D01*
X6316695Y4649303D01*
X6223885Y4498738D01*
X6168203Y4330861D01*
X6157500Y4226400D01*
X6157500Y3600600D01*
X6168474Y3494834D01*
X6224450Y3327054D01*
X6317522Y3176652D01*
X6442697Y3051695D01*
X6448927Y3047855D01*
X6448928Y3047854D01*
X6585845Y2963457D01*
X6593262Y2958885D01*
X6623665Y2948801D01*
X6682024Y2908370D01*
X6709261Y2842806D01*
X6709935Y2833168D01*
X6710438Y2817169D01*
X6712650Y2809556D01*
X6712650Y2809555D01*
X6716419Y2796584D01*
X6720430Y2777218D01*
X6723118Y2755936D01*
X6726034Y2748571D01*
X6726035Y2748567D01*
X6740126Y2712979D01*
X6743965Y2701769D01*
X6756855Y2657400D01*
X6767775Y2638935D01*
X6776466Y2621195D01*
X6784365Y2601244D01*
X6811516Y2563874D01*
X6818033Y2553952D01*
X6837507Y2521023D01*
X6837510Y2521019D01*
X6841547Y2514193D01*
X6856711Y2499029D01*
X6869551Y2483996D01*
X6882159Y2466643D01*
X6917752Y2437198D01*
X6926532Y2429208D01*
X8611865Y743875D01*
X8619855Y735095D01*
X8624104Y728400D01*
X8629883Y722973D01*
X8634936Y716865D01*
X8633028Y715287D01*
X8662787Y664627D01*
X8659943Y593687D01*
X8619197Y535547D01*
X8553487Y508664D01*
X8540566Y508000D01*
X2589328Y508000D01*
X2569943Y509500D01*
X2555142Y511805D01*
X2555139Y511805D01*
X2546270Y513186D01*
X2530001Y511059D01*
X2505433Y510266D01*
X2283015Y524844D01*
X2266674Y526995D01*
X2022176Y575629D01*
X2006257Y579895D01*
X1770210Y660022D01*
X1754983Y666329D01*
X1531408Y776584D01*
X1517135Y784825D01*
X1309867Y923316D01*
X1296790Y933349D01*
X1109368Y1097714D01*
X1097714Y1109368D01*
X933349Y1296790D01*
X923316Y1309867D01*
X784825Y1517135D01*
X776584Y1531408D01*
X666329Y1754983D01*
X660022Y1770210D01*
X579895Y2006257D01*
X575629Y2022176D01*
X526995Y2266673D01*
X524844Y2283014D01*
X510736Y2498268D01*
X511761Y2521304D01*
X511804Y2524854D01*
X513186Y2533730D01*
X509064Y2565252D01*
X508000Y2581589D01*
X508000Y9178550D01*
X528002Y9246671D01*
X581658Y9293164D01*
X651932Y9303268D01*
X716512Y9273774D01*
G37*
%TD.AperFunction*%
%TA.AperFunction,Conductor*%
G36*
X20916522Y18538218D02*
G01*
X21066345Y18388395D01*
X21074335Y18379615D01*
X21078584Y18372920D01*
X21084362Y18367494D01*
X21084363Y18367493D01*
X21130257Y18324396D01*
X21133099Y18321641D01*
X21153667Y18301073D01*
X21157170Y18298356D01*
X21166195Y18290648D01*
X21199867Y18259028D01*
X21206818Y18255207D01*
X21206819Y18255206D01*
X21218658Y18248697D01*
X21235183Y18237843D01*
X21250937Y18225623D01*
X21292504Y18168066D01*
X21293425Y18164818D01*
X21293474Y18164834D01*
X21349450Y17997054D01*
X21442522Y17846652D01*
X21567697Y17721695D01*
X21573927Y17717855D01*
X21573928Y17717854D01*
X21711090Y17633306D01*
X21718262Y17628885D01*
X21778829Y17608796D01*
X21879611Y17575368D01*
X21879613Y17575368D01*
X21886139Y17573203D01*
X21892975Y17572503D01*
X21892978Y17572502D01*
X21936031Y17568091D01*
X21990600Y17562500D01*
X22591400Y17562500D01*
X22594646Y17562837D01*
X22594650Y17562837D01*
X22690308Y17572762D01*
X22690312Y17572763D01*
X22697166Y17573474D01*
X22703702Y17575655D01*
X22703704Y17575655D01*
X22849108Y17624166D01*
X22864946Y17629450D01*
X23015348Y17722522D01*
X23140305Y17847697D01*
X23142906Y17851916D01*
X23200030Y17892417D01*
X23270953Y17895649D01*
X23332365Y17860024D01*
X23338922Y17852470D01*
X23342522Y17846652D01*
X23467697Y17721695D01*
X23473927Y17717855D01*
X23473928Y17717854D01*
X23611090Y17633306D01*
X23618262Y17628885D01*
X23678829Y17608796D01*
X23779611Y17575368D01*
X23779613Y17575368D01*
X23786139Y17573203D01*
X23792975Y17572503D01*
X23792978Y17572502D01*
X23836031Y17568091D01*
X23890600Y17562500D01*
X24491400Y17562500D01*
X24494646Y17562837D01*
X24494650Y17562837D01*
X24590308Y17572762D01*
X24590312Y17572763D01*
X24597166Y17573474D01*
X24603702Y17575655D01*
X24603704Y17575655D01*
X24726124Y17616498D01*
X24797073Y17619082D01*
X24858157Y17582899D01*
X24889982Y17519435D01*
X24892000Y17496974D01*
X24892000Y15908861D01*
X24871998Y15840740D01*
X24818342Y15794247D01*
X24748068Y15784143D01*
X24683488Y15813637D01*
X24665174Y15833296D01*
X24587078Y15937500D01*
X24581261Y15945261D01*
X24464705Y16032615D01*
X24328316Y16083745D01*
X24266134Y16090500D01*
X22469866Y16090500D01*
X22407684Y16083745D01*
X22271295Y16032615D01*
X22154739Y15945261D01*
X22067385Y15828705D01*
X22016255Y15692316D01*
X22009500Y15630134D01*
X22009500Y13833866D01*
X22016255Y13771684D01*
X22067385Y13635295D01*
X22154739Y13518739D01*
X22271295Y13431385D01*
X22407684Y13380255D01*
X22469866Y13373500D01*
X24266134Y13373500D01*
X24328316Y13380255D01*
X24464705Y13431385D01*
X24581261Y13518739D01*
X24665175Y13630704D01*
X24722033Y13673219D01*
X24792852Y13678245D01*
X24855145Y13644185D01*
X24889135Y13581854D01*
X24892000Y13555139D01*
X24892000Y10159894D01*
X24871998Y10091773D01*
X24818342Y10045280D01*
X24748068Y10035176D01*
X24683488Y10064670D01*
X24650451Y10109651D01*
X24613872Y10193777D01*
X24569354Y10296160D01*
X24500848Y10402054D01*
X24450822Y10479383D01*
X24450820Y10479386D01*
X24448014Y10483723D01*
X24297670Y10648949D01*
X24293619Y10652148D01*
X24293615Y10652152D01*
X24126414Y10784200D01*
X24126410Y10784202D01*
X24122359Y10787402D01*
X24078849Y10811421D01*
X24057775Y10823054D01*
X23926789Y10895362D01*
X23921920Y10897086D01*
X23921916Y10897088D01*
X23721087Y10968205D01*
X23721083Y10968206D01*
X23716212Y10969931D01*
X23711119Y10970838D01*
X23711116Y10970839D01*
X23501373Y11008200D01*
X23501367Y11008201D01*
X23496284Y11009106D01*
X23422452Y11010008D01*
X23278081Y11011772D01*
X23278079Y11011772D01*
X23272911Y11011835D01*
X23052091Y10978045D01*
X22839756Y10908643D01*
X22809443Y10892863D01*
X22652995Y10811421D01*
X22641607Y10805493D01*
X22637474Y10802390D01*
X22637471Y10802388D01*
X22498711Y10698204D01*
X22462965Y10671365D01*
X22308629Y10509862D01*
X22305715Y10505590D01*
X22305714Y10505589D01*
X22225582Y10388120D01*
X22182743Y10325320D01*
X22147108Y10248550D01*
X22097176Y10140980D01*
X22088688Y10122695D01*
X22028989Y9907430D01*
X22005251Y9685305D01*
X22005548Y9680152D01*
X22005548Y9680149D01*
X22014716Y9521143D01*
X22018110Y9462285D01*
X22019247Y9457239D01*
X22019248Y9457233D01*
X22024700Y9433042D01*
X22067222Y9244361D01*
X22151266Y9037384D01*
X22267987Y8846912D01*
X22414250Y8678062D01*
X22586126Y8535368D01*
X22779000Y8422662D01*
X22987692Y8342970D01*
X22992760Y8341939D01*
X22992763Y8341938D01*
X23100017Y8320117D01*
X23206597Y8298433D01*
X23211772Y8298243D01*
X23211774Y8298243D01*
X23424673Y8290436D01*
X23424677Y8290436D01*
X23429837Y8290247D01*
X23434957Y8290903D01*
X23434959Y8290903D01*
X23646288Y8317975D01*
X23646289Y8317975D01*
X23651416Y8318632D01*
X23656366Y8320117D01*
X23860429Y8381339D01*
X23860434Y8381341D01*
X23865384Y8382826D01*
X24065994Y8481104D01*
X24247860Y8610827D01*
X24286408Y8649240D01*
X24402435Y8764863D01*
X24406096Y8768511D01*
X24460120Y8843693D01*
X24533435Y8945723D01*
X24536453Y8949923D01*
X24539751Y8956595D01*
X24633136Y9145547D01*
X24633137Y9145549D01*
X24635430Y9150189D01*
X24645442Y9183142D01*
X24684383Y9242506D01*
X24749237Y9271393D01*
X24819413Y9260631D01*
X24872631Y9213638D01*
X24892000Y9146513D01*
X24892000Y2589328D01*
X24890500Y2569944D01*
X24886814Y2546270D01*
X24888941Y2530001D01*
X24889734Y2505433D01*
X24875156Y2283015D01*
X24873005Y2266674D01*
X24824371Y2022176D01*
X24820105Y2006257D01*
X24739978Y1770210D01*
X24733671Y1754983D01*
X24623416Y1531408D01*
X24615175Y1517135D01*
X24476684Y1309867D01*
X24466651Y1296790D01*
X24302286Y1109368D01*
X24290632Y1097714D01*
X24103210Y933349D01*
X24090133Y923316D01*
X23882865Y784825D01*
X23868592Y776584D01*
X23645017Y666329D01*
X23629790Y660022D01*
X23393743Y579895D01*
X23377824Y575629D01*
X23133327Y526995D01*
X23116986Y524844D01*
X22901732Y510736D01*
X22878696Y511761D01*
X22875146Y511804D01*
X22866270Y513186D01*
X22837762Y509458D01*
X22834749Y509064D01*
X22818411Y508000D01*
X18832878Y508000D01*
X18764757Y528002D01*
X18718264Y581658D01*
X18708160Y651932D01*
X18737654Y716512D01*
X18743783Y723095D01*
X19584605Y1563917D01*
X19593385Y1571907D01*
X19593387Y1571909D01*
X19600080Y1576156D01*
X19619489Y1596824D01*
X19648604Y1627829D01*
X19651359Y1630671D01*
X19671927Y1651239D01*
X19674647Y1654746D01*
X19682353Y1663768D01*
X19708544Y1691659D01*
X19713972Y1697439D01*
X19717794Y1704391D01*
X19724303Y1716230D01*
X19735157Y1732754D01*
X19743445Y1743440D01*
X19748304Y1749704D01*
X19757178Y1770210D01*
X19766654Y1792107D01*
X19771876Y1802767D01*
X19790305Y1836288D01*
X19790306Y1836290D01*
X19794124Y1843235D01*
X19799459Y1864013D01*
X19805858Y1882703D01*
X19814380Y1902396D01*
X19821606Y1948020D01*
X19824013Y1959643D01*
X19833528Y1996704D01*
X19835500Y2004384D01*
X19835500Y2025831D01*
X19837051Y2045541D01*
X19839166Y2058895D01*
X19840406Y2066724D01*
X19836059Y2112713D01*
X19835500Y2124568D01*
X19835500Y4882050D01*
X19855502Y4950171D01*
X19872405Y4971145D01*
X20927645Y6026385D01*
X20969447Y6052003D01*
X20968892Y6053183D01*
X20976066Y6056559D01*
X20983604Y6059008D01*
X20990295Y6063254D01*
X20990303Y6063258D01*
X20991232Y6063848D01*
X21012355Y6074611D01*
X21020756Y6077937D01*
X21068116Y6112346D01*
X21074663Y6116795D01*
X21080773Y6120673D01*
X21124080Y6148156D01*
X21130268Y6154745D01*
X21148051Y6170423D01*
X21155357Y6175731D01*
X21160412Y6181841D01*
X21192665Y6220827D01*
X21197896Y6226761D01*
X21232547Y6263662D01*
X21237972Y6269439D01*
X21241788Y6276381D01*
X21241792Y6276386D01*
X21242325Y6277356D01*
X21255652Y6296967D01*
X21256356Y6297818D01*
X21261409Y6303926D01*
X21286331Y6356887D01*
X21289924Y6363939D01*
X21314304Y6408286D01*
X21314305Y6408287D01*
X21318124Y6415235D01*
X21320370Y6423982D01*
X21328403Y6446294D01*
X21328873Y6447292D01*
X21328874Y6447295D01*
X21332249Y6454467D01*
X21343219Y6511976D01*
X21344945Y6519697D01*
X21357528Y6568705D01*
X21359500Y6576384D01*
X21359500Y6585417D01*
X21361732Y6609026D01*
X21361939Y6610110D01*
X21361939Y6610112D01*
X21363424Y6617896D01*
X21359749Y6676308D01*
X21359500Y6684219D01*
X21359500Y10458944D01*
X21360059Y10470800D01*
X21360059Y10470803D01*
X21361788Y10478537D01*
X21359562Y10549369D01*
X21359500Y10553327D01*
X21359500Y10582432D01*
X21358944Y10586832D01*
X21358012Y10598670D01*
X21356811Y10636906D01*
X21356562Y10644831D01*
X21350580Y10665421D01*
X21346570Y10684784D01*
X21344875Y10698204D01*
X21344875Y10698205D01*
X21343882Y10706064D01*
X21340966Y10713429D01*
X21340965Y10713433D01*
X21326874Y10749021D01*
X21323035Y10760231D01*
X21310145Y10804600D01*
X21299229Y10823057D01*
X21290534Y10840807D01*
X21282635Y10860756D01*
X21255477Y10898136D01*
X21248960Y10908057D01*
X21225452Y10947807D01*
X21210291Y10962968D01*
X21197449Y10978003D01*
X21184841Y10995357D01*
X21149248Y11024802D01*
X21140467Y11032792D01*
X20843651Y11329609D01*
X20835663Y11338388D01*
X20831416Y11345080D01*
X20779741Y11393606D01*
X20776900Y11396360D01*
X20756333Y11416927D01*
X20752826Y11419647D01*
X20743804Y11427353D01*
X20710133Y11458972D01*
X20712378Y11461363D01*
X20678232Y11505658D01*
X20673084Y11522790D01*
X20672526Y11528166D01*
X20616550Y11695946D01*
X20523478Y11846348D01*
X20398303Y11971305D01*
X20376472Y11984762D01*
X20253968Y12060275D01*
X20253966Y12060276D01*
X20247738Y12064115D01*
X20141649Y12099303D01*
X20086389Y12117632D01*
X20086387Y12117632D01*
X20079861Y12119797D01*
X20073025Y12120497D01*
X20073022Y12120498D01*
X20029969Y12124909D01*
X19975400Y12130500D01*
X19584980Y12130500D01*
X19516859Y12150502D01*
X19470366Y12204158D01*
X19458980Y12256500D01*
X19458980Y15683500D01*
X19478982Y15751621D01*
X19532638Y15798114D01*
X19584980Y15809500D01*
X19975400Y15809500D01*
X19978646Y15809837D01*
X19978650Y15809837D01*
X20074308Y15819762D01*
X20074312Y15819763D01*
X20081166Y15820474D01*
X20087702Y15822655D01*
X20087704Y15822655D01*
X20241998Y15874132D01*
X20248946Y15876450D01*
X20399348Y15969522D01*
X20411102Y15981296D01*
X20519134Y16089517D01*
X20524305Y16094697D01*
X20617115Y16245262D01*
X20672797Y16413139D01*
X20683500Y16517600D01*
X20683500Y17518400D01*
X20683163Y17521650D01*
X20673238Y17617308D01*
X20673237Y17617312D01*
X20672526Y17624166D01*
X20669671Y17632725D01*
X20618868Y17784998D01*
X20616550Y17791946D01*
X20524946Y17939976D01*
X20506108Y18008428D01*
X20527269Y18076198D01*
X20542911Y18095291D01*
X20544131Y18096513D01*
X20544135Y18096518D01*
X20549305Y18101697D01*
X20588214Y18164818D01*
X20638275Y18246032D01*
X20638276Y18246034D01*
X20642115Y18252262D01*
X20669134Y18333721D01*
X20695632Y18413611D01*
X20695632Y18413613D01*
X20697797Y18420139D01*
X20698498Y18426978D01*
X20702083Y18461967D01*
X20728925Y18527694D01*
X20787041Y18568475D01*
X20857978Y18571363D01*
X20916522Y18538218D01*
G37*
%TD.AperFunction*%
%TA.AperFunction,Conductor*%
G36*
X2442415Y13926498D02*
G01*
X2481438Y13886803D01*
X2507522Y13844652D01*
X2632697Y13719695D01*
X2638927Y13715855D01*
X2638928Y13715854D01*
X2773647Y13632812D01*
X2783262Y13626885D01*
X2863005Y13600436D01*
X2944611Y13573368D01*
X2944613Y13573368D01*
X2951139Y13571203D01*
X2957975Y13570503D01*
X2957978Y13570502D01*
X3001031Y13566091D01*
X3055600Y13560500D01*
X4056400Y13560500D01*
X4059646Y13560837D01*
X4059650Y13560837D01*
X4155308Y13570762D01*
X4155312Y13570763D01*
X4162166Y13571474D01*
X4168702Y13573655D01*
X4168704Y13573655D01*
X4281435Y13611265D01*
X4352385Y13613849D01*
X4410713Y13579438D01*
X4411639Y13578163D01*
X4417747Y13573110D01*
X4417748Y13573109D01*
X4447232Y13548718D01*
X4456012Y13540728D01*
X4674595Y13322145D01*
X4708621Y13259833D01*
X4711500Y13233050D01*
X4711500Y12682600D01*
X4711837Y12679354D01*
X4711837Y12679350D01*
X4716656Y12632909D01*
X4722474Y12576834D01*
X4778450Y12409054D01*
X4871522Y12258652D01*
X4996697Y12133695D01*
X5002927Y12129855D01*
X5002928Y12129854D01*
X5140090Y12045306D01*
X5147262Y12040885D01*
X5169995Y12033345D01*
X5308611Y11987368D01*
X5308613Y11987368D01*
X5315139Y11985203D01*
X5321975Y11984503D01*
X5321978Y11984502D01*
X5364798Y11980115D01*
X5419600Y11974500D01*
X6020400Y11974500D01*
X6023646Y11974837D01*
X6023650Y11974837D01*
X6119308Y11984762D01*
X6119312Y11984763D01*
X6126166Y11985474D01*
X6132702Y11987655D01*
X6132704Y11987655D01*
X6279103Y12036498D01*
X6293946Y12041450D01*
X6444348Y12134522D01*
X6460026Y12150228D01*
X6522310Y12184306D01*
X6593130Y12179303D01*
X6650002Y12136805D01*
X6674870Y12070306D01*
X6656460Y11995094D01*
X6627885Y11948738D01*
X6572203Y11780861D01*
X6561500Y11676400D01*
X6561500Y10675600D01*
X6561837Y10672354D01*
X6561837Y10672350D01*
X6571167Y10582432D01*
X6572474Y10569834D01*
X6574655Y10563298D01*
X6574655Y10563296D01*
X6623893Y10415714D01*
X6628450Y10402054D01*
X6629497Y10400362D01*
X6639947Y10332355D01*
X6611080Y10267492D01*
X6581367Y10241936D01*
X6441652Y10155478D01*
X6436479Y10150296D01*
X6329694Y10043325D01*
X6267411Y10009246D01*
X6196591Y10014249D01*
X6139719Y10056746D01*
X6133377Y10066039D01*
X6116478Y10093348D01*
X5991303Y10218305D01*
X5984585Y10222446D01*
X5846968Y10307275D01*
X5846966Y10307276D01*
X5840738Y10311115D01*
X5760995Y10337564D01*
X5679389Y10364632D01*
X5679387Y10364632D01*
X5672861Y10366797D01*
X5666025Y10367497D01*
X5666022Y10367498D01*
X5622969Y10371909D01*
X5568400Y10377500D01*
X4967600Y10377500D01*
X4964354Y10377163D01*
X4964350Y10377163D01*
X4861834Y10366526D01*
X4861533Y10369431D01*
X4803643Y10373687D01*
X4746893Y10416347D01*
X4722214Y10482917D01*
X4728318Y10531322D01*
X4741525Y10571139D01*
X4753797Y10608139D01*
X4756745Y10636906D01*
X4764172Y10709402D01*
X4764500Y10712600D01*
X4764500Y11338400D01*
X4758633Y11394946D01*
X4754238Y11437308D01*
X4754237Y11437312D01*
X4753526Y11444166D01*
X4748587Y11458972D01*
X4699868Y11604998D01*
X4697550Y11611946D01*
X4604478Y11762348D01*
X4479303Y11887305D01*
X4367574Y11956176D01*
X4334968Y11976275D01*
X4334966Y11976276D01*
X4328738Y11980115D01*
X4168254Y12033345D01*
X4167389Y12033632D01*
X4167387Y12033632D01*
X4160861Y12035797D01*
X4154025Y12036497D01*
X4154022Y12036498D01*
X4105688Y12041450D01*
X4056400Y12046500D01*
X3055600Y12046500D01*
X3052354Y12046163D01*
X3052350Y12046163D01*
X2956692Y12036238D01*
X2956688Y12036237D01*
X2949834Y12035526D01*
X2943298Y12033345D01*
X2943296Y12033345D01*
X2811194Y11989272D01*
X2782054Y11979550D01*
X2768730Y11971305D01*
X2684027Y11918889D01*
X2615575Y11900051D01*
X2547805Y11921212D01*
X2502234Y11975653D01*
X2493330Y12046089D01*
X2502431Y12073799D01*
X2501643Y12074098D01*
X2563555Y12237080D01*
X2563556Y12237082D01*
X2566055Y12243662D01*
X2588424Y12402824D01*
X2590748Y12419361D01*
X2590748Y12419364D01*
X2591299Y12423283D01*
X2591616Y12446000D01*
X2571397Y12626255D01*
X2560261Y12658233D01*
X2514064Y12790894D01*
X2514062Y12790897D01*
X2511745Y12797552D01*
X2506348Y12806189D01*
X2419359Y12945402D01*
X2415626Y12951376D01*
X2406757Y12960307D01*
X2292778Y13075085D01*
X2292774Y13075088D01*
X2287815Y13080082D01*
X2134666Y13177273D01*
X2041747Y13210360D01*
X1970425Y13235757D01*
X1970420Y13235758D01*
X1963790Y13238119D01*
X1921725Y13243135D01*
X1898069Y13245956D01*
X1832796Y13273884D01*
X1792984Y13332667D01*
X1786989Y13371070D01*
X1786989Y13630538D01*
X1806991Y13698659D01*
X1823893Y13719633D01*
X2013854Y13909595D01*
X2076166Y13943620D01*
X2102950Y13946500D01*
X2374294Y13946500D01*
X2442415Y13926498D01*
G37*
%TD.AperFunction*%
%TA.AperFunction,Conductor*%
G36*
X12805012Y13949273D02*
G01*
X12811595Y13943145D01*
X13700345Y13054396D01*
X13708335Y13045615D01*
X13712584Y13038920D01*
X13718362Y13033494D01*
X13718363Y13033493D01*
X13764273Y12990381D01*
X13767115Y12987626D01*
X13779551Y12975190D01*
X13798910Y12950234D01*
X13825547Y12905193D01*
X13943193Y12787547D01*
X13950017Y12783511D01*
X13950020Y12783509D01*
X14057589Y12719893D01*
X14086399Y12702855D01*
X14094010Y12700644D01*
X14094012Y12700643D01*
X14144876Y12685866D01*
X14246169Y12656438D01*
X14252574Y12655934D01*
X14252579Y12655933D01*
X14281042Y12653693D01*
X14281050Y12653693D01*
X14283498Y12653500D01*
X16066502Y12653500D01*
X16068950Y12653693D01*
X16068958Y12653693D01*
X16097421Y12655933D01*
X16097426Y12655934D01*
X16103831Y12656438D01*
X16205124Y12685866D01*
X16255988Y12700643D01*
X16255990Y12700644D01*
X16263601Y12702855D01*
X16292411Y12719893D01*
X16399980Y12783509D01*
X16399983Y12783511D01*
X16406807Y12787547D01*
X16524453Y12905193D01*
X16557048Y12960308D01*
X16608940Y13008759D01*
X16678790Y13021464D01*
X16744421Y12994388D01*
X16784995Y12936128D01*
X16791500Y12896167D01*
X16791500Y12428600D01*
X16791837Y12425354D01*
X16791837Y12425350D01*
X16793403Y12410262D01*
X16802474Y12322834D01*
X16858450Y12155054D01*
X16951522Y12004652D01*
X16956700Y11999483D01*
X16956704Y11999478D01*
X16956744Y11999439D01*
X16956762Y11999405D01*
X16961251Y11993742D01*
X16960282Y11992974D01*
X16990822Y11937156D01*
X16985819Y11866336D01*
X16974985Y11844151D01*
X16902012Y11725767D01*
X16882885Y11694738D01*
X16873629Y11666831D01*
X16833197Y11608472D01*
X16767633Y11581236D01*
X16754036Y11580500D01*
X16468251Y11580500D01*
X16404112Y11598047D01*
X16320095Y11647734D01*
X16263601Y11681145D01*
X16255990Y11683356D01*
X16255988Y11683357D01*
X16191211Y11702176D01*
X16103831Y11727562D01*
X16097426Y11728066D01*
X16097421Y11728067D01*
X16068958Y11730307D01*
X16068950Y11730307D01*
X16066502Y11730500D01*
X14283498Y11730500D01*
X14281050Y11730307D01*
X14281042Y11730307D01*
X14252579Y11728067D01*
X14252574Y11728066D01*
X14246169Y11727562D01*
X14158789Y11702176D01*
X14094012Y11683357D01*
X14094010Y11683356D01*
X14086399Y11681145D01*
X14079572Y11677108D01*
X14079573Y11677108D01*
X13950021Y11600491D01*
X13943193Y11596453D01*
X13938972Y11592232D01*
X13878404Y11567143D01*
X13876304Y11566878D01*
X13860509Y11564882D01*
X13853141Y11561965D01*
X13853138Y11561964D01*
X13817555Y11547875D01*
X13806320Y11544029D01*
X13769589Y11533358D01*
X13769586Y11533357D01*
X13761973Y11531145D01*
X13743508Y11520225D01*
X13725768Y11511534D01*
X13705817Y11503635D01*
X13672430Y11479378D01*
X13668447Y11476484D01*
X13658525Y11469967D01*
X13625596Y11450493D01*
X13625592Y11450490D01*
X13618766Y11446453D01*
X13603602Y11431289D01*
X13588569Y11418449D01*
X13571216Y11405841D01*
X13561094Y11393605D01*
X13541771Y11370248D01*
X13533781Y11361468D01*
X12373737Y10201424D01*
X12311425Y10167398D01*
X12240610Y10172463D01*
X12183774Y10215010D01*
X12163645Y10255366D01*
X12160877Y10264894D01*
X12160876Y10264896D01*
X12158665Y10272507D01*
X12147745Y10290972D01*
X12139054Y10308712D01*
X12131155Y10328663D01*
X12104002Y10366036D01*
X12097487Y10375955D01*
X12078013Y10408884D01*
X12078010Y10408888D01*
X12073973Y10415714D01*
X12058809Y10430878D01*
X12045968Y10445912D01*
X12038021Y10456850D01*
X12033361Y10463264D01*
X11997767Y10492710D01*
X11988988Y10500699D01*
X11745405Y10744282D01*
X11711379Y10806594D01*
X11708500Y10833377D01*
X11708500Y11138502D01*
X11705562Y11175831D01*
X11659145Y11335601D01*
X11632204Y11381156D01*
X11578491Y11471980D01*
X11578489Y11471983D01*
X11574453Y11478807D01*
X11456807Y11596453D01*
X11449983Y11600489D01*
X11449980Y11600491D01*
X11320427Y11677108D01*
X11320428Y11677108D01*
X11313601Y11681145D01*
X11305990Y11683356D01*
X11305988Y11683357D01*
X11241211Y11702176D01*
X11153831Y11727562D01*
X11147426Y11728066D01*
X11147421Y11728067D01*
X11118958Y11730307D01*
X11118950Y11730307D01*
X11116502Y11730500D01*
X9333498Y11730500D01*
X9331050Y11730307D01*
X9331042Y11730307D01*
X9302579Y11728067D01*
X9302574Y11728066D01*
X9296169Y11727562D01*
X9208789Y11702176D01*
X9144012Y11683357D01*
X9144010Y11683356D01*
X9136399Y11681145D01*
X9129572Y11677108D01*
X9129573Y11677108D01*
X9000020Y11600491D01*
X9000017Y11600489D01*
X8993193Y11596453D01*
X8875547Y11478807D01*
X8837952Y11415237D01*
X8786061Y11366786D01*
X8716210Y11354081D01*
X8650579Y11381156D01*
X8610005Y11439417D01*
X8603500Y11479378D01*
X8603500Y11676400D01*
X8602778Y11683357D01*
X8593238Y11775308D01*
X8593237Y11775312D01*
X8592526Y11782166D01*
X8536550Y11949946D01*
X8444946Y12097976D01*
X8426108Y12166428D01*
X8447269Y12234198D01*
X8462911Y12253291D01*
X8464131Y12254513D01*
X8464135Y12254518D01*
X8469305Y12259697D01*
X8504193Y12316296D01*
X8558275Y12404032D01*
X8558276Y12404034D01*
X8562115Y12410262D01*
X8617797Y12578139D01*
X8628500Y12682600D01*
X8628500Y12862349D01*
X8648502Y12930470D01*
X8702158Y12976963D01*
X8772432Y12987067D01*
X8837012Y12957573D01*
X8862951Y12926491D01*
X8875547Y12905193D01*
X8993193Y12787547D01*
X9000017Y12783511D01*
X9000020Y12783509D01*
X9107589Y12719893D01*
X9136399Y12702855D01*
X9144010Y12700644D01*
X9144012Y12700643D01*
X9194876Y12685866D01*
X9296169Y12656438D01*
X9302574Y12655934D01*
X9302579Y12655933D01*
X9331042Y12653693D01*
X9331050Y12653693D01*
X9333498Y12653500D01*
X11116502Y12653500D01*
X11118950Y12653693D01*
X11118958Y12653693D01*
X11147421Y12655933D01*
X11147426Y12655934D01*
X11153831Y12656438D01*
X11255124Y12685866D01*
X11305988Y12700643D01*
X11305990Y12700644D01*
X11313601Y12702855D01*
X11454111Y12785953D01*
X11518251Y12803500D01*
X11601944Y12803500D01*
X11613800Y12802941D01*
X11613803Y12802941D01*
X11621537Y12801212D01*
X11692369Y12803438D01*
X11696327Y12803500D01*
X11725432Y12803500D01*
X11729832Y12804056D01*
X11741664Y12804988D01*
X11787831Y12806438D01*
X11808421Y12812420D01*
X11827782Y12816430D01*
X11834770Y12817312D01*
X11841204Y12818125D01*
X11841205Y12818125D01*
X11849064Y12819118D01*
X11856429Y12822034D01*
X11856433Y12822035D01*
X11892021Y12836126D01*
X11903231Y12839965D01*
X11947600Y12852855D01*
X11966065Y12863775D01*
X11983805Y12872466D01*
X12003756Y12880365D01*
X12041129Y12907518D01*
X12051048Y12914033D01*
X12083977Y12933507D01*
X12083981Y12933510D01*
X12090807Y12937547D01*
X12105971Y12952711D01*
X12121005Y12965552D01*
X12131944Y12973500D01*
X12138357Y12978159D01*
X12167808Y13013759D01*
X12175798Y13022538D01*
X12345601Y13192341D01*
X12354379Y13200329D01*
X12354389Y13200338D01*
X12361080Y13204584D01*
X12409620Y13256274D01*
X12412374Y13259115D01*
X12432926Y13279667D01*
X12435638Y13283163D01*
X12443349Y13292192D01*
X12469544Y13320087D01*
X12474972Y13325867D01*
X12485301Y13344655D01*
X12496158Y13361184D01*
X12504444Y13371866D01*
X12509304Y13378131D01*
X12527659Y13420545D01*
X12532873Y13431188D01*
X12532982Y13431385D01*
X12555124Y13471663D01*
X12557095Y13479340D01*
X12557097Y13479345D01*
X12560455Y13492426D01*
X12566861Y13511138D01*
X12567822Y13513358D01*
X12575380Y13530823D01*
X12582608Y13576459D01*
X12585012Y13588070D01*
X12596500Y13632812D01*
X12596500Y13654258D01*
X12598051Y13673968D01*
X12600166Y13687322D01*
X12601406Y13695151D01*
X12597059Y13741140D01*
X12596500Y13752995D01*
X12596500Y13854049D01*
X12616502Y13922170D01*
X12670158Y13968663D01*
X12740432Y13978767D01*
X12805012Y13949273D01*
G37*
%TD.AperFunction*%
%TA.AperFunction,Conductor*%
G36*
X5843671Y16043498D02*
G01*
X5864645Y16026595D01*
X6524595Y15366645D01*
X6558621Y15304333D01*
X6561500Y15277550D01*
X6561500Y14739600D01*
X6572474Y14633834D01*
X6628450Y14466054D01*
X6640037Y14447330D01*
X6656420Y14420855D01*
X6675257Y14352403D01*
X6654095Y14284634D01*
X6599654Y14239063D01*
X6529218Y14230160D01*
X6460257Y14265380D01*
X6443303Y14282305D01*
X6437072Y14286146D01*
X6298968Y14371275D01*
X6298966Y14371276D01*
X6292738Y14375115D01*
X6176097Y14413803D01*
X6131389Y14428632D01*
X6131387Y14428632D01*
X6124861Y14430797D01*
X6118025Y14431497D01*
X6118022Y14431498D01*
X6074969Y14435909D01*
X6020400Y14441500D01*
X5679980Y14441500D01*
X5611859Y14461502D01*
X5565366Y14515158D01*
X5553980Y14567500D01*
X5553980Y15937500D01*
X5573982Y16005621D01*
X5627638Y16052114D01*
X5679980Y16063500D01*
X5775550Y16063500D01*
X5843671Y16043498D01*
G37*
%TD.AperFunction*%
%TA.AperFunction,Conductor*%
G36*
X22830057Y37590500D02*
G01*
X22844858Y37588195D01*
X22844861Y37588195D01*
X22853730Y37586814D01*
X22869999Y37588941D01*
X22894567Y37589734D01*
X23116985Y37575156D01*
X23133326Y37573005D01*
X23377824Y37524371D01*
X23393743Y37520105D01*
X23629790Y37439978D01*
X23645017Y37433671D01*
X23868592Y37323416D01*
X23882865Y37315175D01*
X24090133Y37176684D01*
X24103206Y37166654D01*
X24139572Y37134762D01*
X24290632Y37002286D01*
X24302286Y36990632D01*
X24442888Y36830307D01*
X24466651Y36803210D01*
X24476684Y36790133D01*
X24615175Y36582865D01*
X24623416Y36568592D01*
X24733671Y36345017D01*
X24739978Y36329790D01*
X24820105Y36093743D01*
X24824371Y36077824D01*
X24873005Y35833327D01*
X24875156Y35816986D01*
X24889264Y35601732D01*
X24888239Y35578696D01*
X24888196Y35575146D01*
X24886814Y35566270D01*
X24889274Y35547461D01*
X24890936Y35534749D01*
X24892000Y35518411D01*
X24892000Y22381115D01*
X24871998Y22312994D01*
X24818342Y22266501D01*
X24748068Y22256397D01*
X24726333Y22261522D01*
X24602389Y22302632D01*
X24602387Y22302632D01*
X24595861Y22304797D01*
X24589025Y22305497D01*
X24589022Y22305498D01*
X24545969Y22309909D01*
X24491400Y22315500D01*
X23940950Y22315500D01*
X23872829Y22335502D01*
X23851855Y22352405D01*
X23571655Y22632605D01*
X23563665Y22641385D01*
X23563663Y22641387D01*
X23559416Y22648080D01*
X23548906Y22657950D01*
X23507743Y22696604D01*
X23504901Y22699359D01*
X23484333Y22719927D01*
X23480826Y22722647D01*
X23471804Y22730353D01*
X23468985Y22733000D01*
X23438133Y22761972D01*
X23431181Y22765794D01*
X23419342Y22772303D01*
X23402818Y22783157D01*
X23392132Y22791445D01*
X23385868Y22796304D01*
X23378596Y22799451D01*
X23378594Y22799452D01*
X23343465Y22814654D01*
X23332805Y22819876D01*
X23299284Y22838305D01*
X23299282Y22838306D01*
X23292337Y22842124D01*
X23271559Y22847459D01*
X23252869Y22853858D01*
X23233176Y22862380D01*
X23187552Y22869606D01*
X23175929Y22872013D01*
X23141661Y22880811D01*
X23131188Y22883500D01*
X23109741Y22883500D01*
X23090031Y22885051D01*
X23076677Y22887166D01*
X23068848Y22888406D01*
X23022859Y22884059D01*
X23011004Y22883500D01*
X21943207Y22883500D01*
X21931351Y22884059D01*
X21931348Y22884059D01*
X21923614Y22885788D01*
X21868597Y22884059D01*
X21852782Y22883562D01*
X21848824Y22883500D01*
X21819719Y22883500D01*
X21815319Y22882944D01*
X21803487Y22882012D01*
X21757320Y22880562D01*
X21736730Y22874580D01*
X21717369Y22870570D01*
X21710381Y22869688D01*
X21703947Y22868875D01*
X21703946Y22868875D01*
X21696087Y22867882D01*
X21688722Y22864966D01*
X21688718Y22864965D01*
X21653130Y22850874D01*
X21641920Y22847035D01*
X21597551Y22834145D01*
X21579094Y22823229D01*
X21561344Y22814534D01*
X21541395Y22806635D01*
X21534984Y22801977D01*
X21534982Y22801976D01*
X21504015Y22779477D01*
X21494097Y22772962D01*
X21454344Y22749452D01*
X21439183Y22734291D01*
X21424151Y22721452D01*
X21406794Y22708841D01*
X21397780Y22697945D01*
X21397566Y22697686D01*
X21338731Y22657950D01*
X21267753Y22656329D01*
X21232969Y22671619D01*
X21184666Y22702273D01*
X21153140Y22713499D01*
X21020425Y22760757D01*
X21020420Y22760758D01*
X21013790Y22763119D01*
X21006802Y22763952D01*
X21006799Y22763953D01*
X20876609Y22779477D01*
X20833680Y22784596D01*
X20826677Y22783860D01*
X20826676Y22783860D01*
X20660288Y22766372D01*
X20660286Y22766371D01*
X20653288Y22765636D01*
X20589271Y22743843D01*
X20488249Y22709453D01*
X20488246Y22709452D01*
X20481579Y22707182D01*
X20475581Y22703492D01*
X20475579Y22703491D01*
X20385676Y22648182D01*
X20319654Y22629500D01*
X18463883Y22629500D01*
X18395762Y22649502D01*
X18349269Y22703158D01*
X18338668Y22741455D01*
X18320182Y22906256D01*
X18319397Y22913255D01*
X18259745Y23084552D01*
X18243439Y23110648D01*
X18224304Y23179012D01*
X18245169Y23246874D01*
X18283991Y23284558D01*
X18285459Y23285466D01*
X18366348Y23335522D01*
X18491305Y23460697D01*
X18524469Y23514499D01*
X18580275Y23605032D01*
X18580276Y23605034D01*
X18584115Y23611262D01*
X18631628Y23754511D01*
X18637632Y23772611D01*
X18637632Y23772613D01*
X18639797Y23779139D01*
X18650500Y23883600D01*
X18650500Y24618491D01*
X18670502Y24686612D01*
X18724158Y24733105D01*
X18757404Y24740883D01*
X18757077Y24742949D01*
X18764907Y24744189D01*
X18772831Y24744438D01*
X18793421Y24750420D01*
X18812782Y24754430D01*
X18819770Y24755312D01*
X18826204Y24756125D01*
X18826205Y24756125D01*
X18834064Y24757118D01*
X18841429Y24760034D01*
X18841433Y24760035D01*
X18877021Y24774126D01*
X18888231Y24777965D01*
X18932600Y24790855D01*
X18951065Y24801775D01*
X18968805Y24810466D01*
X18988756Y24818365D01*
X19026129Y24845518D01*
X19036048Y24852033D01*
X19068977Y24871507D01*
X19068981Y24871510D01*
X19075807Y24875547D01*
X19090971Y24890711D01*
X19106005Y24903552D01*
X19116943Y24911499D01*
X19123357Y24916159D01*
X19152803Y24951753D01*
X19160792Y24960532D01*
X19624855Y25424595D01*
X19687167Y25458621D01*
X19713950Y25461500D01*
X19767400Y25461500D01*
X19770646Y25461837D01*
X19770650Y25461837D01*
X19866308Y25471762D01*
X19866312Y25471763D01*
X19873166Y25472474D01*
X19879702Y25474655D01*
X19879704Y25474655D01*
X20033998Y25526132D01*
X20040946Y25528450D01*
X20191348Y25621522D01*
X20316305Y25746697D01*
X20333922Y25775277D01*
X20405275Y25891032D01*
X20405276Y25891034D01*
X20409115Y25897262D01*
X20442214Y25997052D01*
X20462632Y26058611D01*
X20462632Y26058613D01*
X20464797Y26065139D01*
X20467309Y26089650D01*
X20473038Y26145572D01*
X20475500Y26169600D01*
X20475500Y26660866D01*
X21882500Y26660866D01*
X21889255Y26598684D01*
X21940385Y26462295D01*
X22027739Y26345739D01*
X22144295Y26258385D01*
X22280684Y26207255D01*
X22342866Y26200500D01*
X24139134Y26200500D01*
X24201316Y26207255D01*
X24337705Y26258385D01*
X24454261Y26345739D01*
X24541615Y26462295D01*
X24592745Y26598684D01*
X24599500Y26660866D01*
X24599500Y28457134D01*
X24592745Y28519316D01*
X24541615Y28655705D01*
X24454261Y28772261D01*
X24337705Y28859615D01*
X24201316Y28910745D01*
X24139134Y28917500D01*
X22342866Y28917500D01*
X22280684Y28910745D01*
X22144295Y28859615D01*
X22027739Y28772261D01*
X21940385Y28655705D01*
X21889255Y28519316D01*
X21882500Y28457134D01*
X21882500Y26660866D01*
X20475500Y26660866D01*
X20475500Y27170400D01*
X20464526Y27276166D01*
X20408550Y27443946D01*
X20315478Y27594348D01*
X20190303Y27719305D01*
X20184072Y27723146D01*
X20045968Y27808275D01*
X20045966Y27808276D01*
X20039738Y27812115D01*
X19959995Y27838564D01*
X19878389Y27865632D01*
X19878387Y27865632D01*
X19871861Y27867797D01*
X19865025Y27868497D01*
X19865022Y27868498D01*
X19821969Y27872909D01*
X19767400Y27878500D01*
X19141600Y27878500D01*
X19138354Y27878163D01*
X19138350Y27878163D01*
X19042692Y27868238D01*
X19042688Y27868237D01*
X19035834Y27867526D01*
X19029298Y27865345D01*
X19029296Y27865345D01*
X18897194Y27821272D01*
X18868054Y27811550D01*
X18717652Y27718478D01*
X18712479Y27713296D01*
X18631216Y27631891D01*
X18568934Y27597812D01*
X18498114Y27602815D01*
X18453025Y27631736D01*
X18370483Y27714134D01*
X18365303Y27719305D01*
X18359072Y27723146D01*
X18220968Y27808275D01*
X18220966Y27808276D01*
X18214738Y27812115D01*
X18134995Y27838564D01*
X18053389Y27865632D01*
X18053387Y27865632D01*
X18046861Y27867797D01*
X18040025Y27868497D01*
X18040022Y27868498D01*
X17996969Y27872909D01*
X17942400Y27878500D01*
X17401688Y27878500D01*
X17333567Y27898502D01*
X17315436Y27912649D01*
X17296933Y27930024D01*
X17291153Y27935452D01*
X17284201Y27939274D01*
X17272362Y27945783D01*
X17255838Y27956637D01*
X17245152Y27964925D01*
X17238888Y27969784D01*
X17231616Y27972931D01*
X17231614Y27972932D01*
X17196485Y27988134D01*
X17185825Y27993356D01*
X17152304Y28011785D01*
X17152302Y28011786D01*
X17145357Y28015604D01*
X17124579Y28020939D01*
X17105889Y28027338D01*
X17086196Y28035860D01*
X17040572Y28043086D01*
X17028949Y28045493D01*
X17000948Y28052682D01*
X16984208Y28056980D01*
X16962761Y28056980D01*
X16943051Y28058531D01*
X16929697Y28060646D01*
X16921868Y28061886D01*
X16875879Y28057539D01*
X16864024Y28056980D01*
X13950500Y28056980D01*
X13882379Y28076982D01*
X13835886Y28130638D01*
X13824500Y28182980D01*
X13824500Y28948400D01*
X13817035Y29020350D01*
X13814238Y29047308D01*
X13814237Y29047312D01*
X13813526Y29054166D01*
X13757550Y29221946D01*
X13664478Y29372348D01*
X13630309Y29406458D01*
X13579943Y29456736D01*
X13539303Y29497305D01*
X13521884Y29508042D01*
X13474391Y29560813D01*
X13462000Y29615302D01*
X13462000Y30260550D01*
X13482002Y30328671D01*
X13535658Y30375164D01*
X13605932Y30385268D01*
X13670512Y30355774D01*
X13677095Y30349645D01*
X13860345Y30166395D01*
X13868335Y30157615D01*
X13872584Y30150920D01*
X13878362Y30145494D01*
X13878363Y30145493D01*
X13924257Y30102396D01*
X13927099Y30099641D01*
X13947667Y30079073D01*
X13951170Y30076356D01*
X13960195Y30068648D01*
X13993867Y30037028D01*
X14000818Y30033207D01*
X14000819Y30033206D01*
X14012658Y30026697D01*
X14029182Y30015843D01*
X14039271Y30008018D01*
X14046132Y30002696D01*
X14053404Y29999549D01*
X14053406Y29999548D01*
X14088535Y29984346D01*
X14099195Y29979124D01*
X14122336Y29966402D01*
X14139663Y29956876D01*
X14160441Y29951541D01*
X14179131Y29945142D01*
X14198824Y29936620D01*
X14242596Y29929687D01*
X14244448Y29929394D01*
X14256071Y29926987D01*
X14284072Y29919798D01*
X14300812Y29915500D01*
X14322259Y29915500D01*
X14341969Y29913949D01*
X14363152Y29910594D01*
X14409141Y29914941D01*
X14420996Y29915500D01*
X15075500Y29915500D01*
X15143621Y29895498D01*
X15190114Y29841842D01*
X15201500Y29789500D01*
X15201500Y29023600D01*
X15201837Y29020354D01*
X15201837Y29020350D01*
X15209303Y28948400D01*
X15212474Y28917834D01*
X15214655Y28911298D01*
X15214655Y28911296D01*
X15230846Y28862767D01*
X15268450Y28750054D01*
X15361522Y28599652D01*
X15486697Y28474695D01*
X15492927Y28470855D01*
X15492928Y28470854D01*
X15630090Y28386306D01*
X15637262Y28381885D01*
X15686957Y28365402D01*
X15798611Y28328368D01*
X15798613Y28328368D01*
X15805139Y28326203D01*
X15811975Y28325503D01*
X15811978Y28325502D01*
X15855031Y28321091D01*
X15909600Y28315500D01*
X17110400Y28315500D01*
X17113646Y28315837D01*
X17113650Y28315837D01*
X17209308Y28325762D01*
X17209312Y28325763D01*
X17216166Y28326474D01*
X17222702Y28328655D01*
X17222704Y28328655D01*
X17354806Y28372728D01*
X17383946Y28382450D01*
X17534348Y28475522D01*
X17558143Y28499358D01*
X17654134Y28595517D01*
X17659305Y28600697D01*
X17697642Y28662891D01*
X17748275Y28745032D01*
X17748276Y28745034D01*
X17752115Y28751262D01*
X17778564Y28831005D01*
X17805632Y28912611D01*
X17805632Y28912613D01*
X17807797Y28919139D01*
X17810461Y28945134D01*
X17818172Y29020402D01*
X17818500Y29023600D01*
X17818500Y32124400D01*
X17807526Y32230166D01*
X17751550Y32397946D01*
X17658478Y32548348D01*
X17533303Y32673305D01*
X17507877Y32688978D01*
X17388968Y32762275D01*
X17388966Y32762276D01*
X17382738Y32766115D01*
X17272642Y32802632D01*
X17221389Y32819632D01*
X17221387Y32819632D01*
X17214861Y32821797D01*
X17208025Y32822497D01*
X17208022Y32822498D01*
X17164969Y32826909D01*
X17110400Y32832500D01*
X15909600Y32832500D01*
X15906354Y32832163D01*
X15906350Y32832163D01*
X15810692Y32822238D01*
X15810688Y32822237D01*
X15803834Y32821526D01*
X15797298Y32819345D01*
X15797296Y32819345D01*
X15727851Y32796176D01*
X15636054Y32765550D01*
X15485652Y32672478D01*
X15360695Y32547303D01*
X15356855Y32541073D01*
X15356854Y32541072D01*
X15341218Y32515705D01*
X15267885Y32396738D01*
X15212203Y32228861D01*
X15201500Y32124400D01*
X15201500Y31358500D01*
X15181498Y31290379D01*
X15127842Y31243886D01*
X15075500Y31232500D01*
X14708950Y31232500D01*
X14640829Y31252502D01*
X14619855Y31269405D01*
X13312789Y32576471D01*
X13299948Y32591505D01*
X13292001Y32602443D01*
X13287341Y32608857D01*
X13251747Y32638303D01*
X13242968Y32646292D01*
X12522471Y33366789D01*
X12488445Y33429101D01*
X12493510Y33499916D01*
X12510739Y33531448D01*
X12517233Y33540113D01*
X12517235Y33540116D01*
X12522615Y33547295D01*
X12573745Y33683684D01*
X12580500Y33745866D01*
X12580500Y35342134D01*
X12573745Y35404316D01*
X12522615Y35540705D01*
X12435261Y35657261D01*
X12318705Y35744615D01*
X12310296Y35747767D01*
X12310295Y35747768D01*
X12260314Y35766505D01*
X12203549Y35809146D01*
X12186783Y35842832D01*
X12186505Y35842712D01*
X12184258Y35847904D01*
X12183546Y35849334D01*
X12181145Y35857600D01*
X12170225Y35876065D01*
X12161534Y35893805D01*
X12153635Y35913756D01*
X12126482Y35951129D01*
X12119967Y35961048D01*
X12100493Y35993977D01*
X12100490Y35993981D01*
X12096453Y36000807D01*
X12081289Y36015971D01*
X12068448Y36031005D01*
X12060501Y36041943D01*
X12055841Y36048357D01*
X12037723Y36063345D01*
X12031806Y36068562D01*
X11982231Y36115116D01*
X11979390Y36117870D01*
X11958822Y36138438D01*
X11955315Y36141158D01*
X11946293Y36148864D01*
X11912622Y36180483D01*
X11905670Y36184305D01*
X11893831Y36190814D01*
X11877307Y36201668D01*
X11866621Y36209956D01*
X11860357Y36214815D01*
X11853085Y36217962D01*
X11853083Y36217963D01*
X11817954Y36233165D01*
X11807294Y36238387D01*
X11773773Y36256816D01*
X11773771Y36256817D01*
X11766826Y36260635D01*
X11746048Y36265970D01*
X11727358Y36272369D01*
X11707665Y36280891D01*
X11662041Y36288117D01*
X11650418Y36290524D01*
X11616150Y36299322D01*
X11605677Y36302011D01*
X11584230Y36302011D01*
X11564520Y36303562D01*
X11551166Y36305677D01*
X11543337Y36306917D01*
X11497348Y36302570D01*
X11485493Y36302011D01*
X9587067Y36302011D01*
X9575211Y36302570D01*
X9575208Y36302570D01*
X9567474Y36304299D01*
X9512457Y36302570D01*
X9496642Y36302073D01*
X9492684Y36302011D01*
X9463579Y36302011D01*
X9459179Y36301455D01*
X9447347Y36300523D01*
X9401180Y36299073D01*
X9380590Y36293091D01*
X9361229Y36289081D01*
X9354241Y36288199D01*
X9347807Y36287386D01*
X9347806Y36287386D01*
X9339947Y36286393D01*
X9332582Y36283477D01*
X9332578Y36283476D01*
X9296993Y36269387D01*
X9285763Y36265542D01*
X9241410Y36252656D01*
X9234586Y36248620D01*
X9222954Y36241741D01*
X9205198Y36233042D01*
X9185255Y36225146D01*
X9171036Y36214815D01*
X9147879Y36197991D01*
X9137960Y36191476D01*
X9105034Y36172003D01*
X9105030Y36172000D01*
X9098204Y36167963D01*
X9083043Y36152802D01*
X9068011Y36139963D01*
X9050654Y36127352D01*
X9045601Y36121244D01*
X9021205Y36091754D01*
X9013215Y36082974D01*
X8592646Y35662405D01*
X8530334Y35628379D01*
X8503551Y35625500D01*
X7965600Y35625500D01*
X7962354Y35625163D01*
X7962350Y35625163D01*
X7866692Y35615238D01*
X7866688Y35615237D01*
X7859834Y35614526D01*
X7853298Y35612345D01*
X7853296Y35612345D01*
X7769242Y35584302D01*
X7692054Y35558550D01*
X7541652Y35465478D01*
X7536479Y35460296D01*
X7455216Y35378891D01*
X7392934Y35344812D01*
X7322114Y35349815D01*
X7277025Y35378736D01*
X7194483Y35461134D01*
X7189303Y35466305D01*
X7171884Y35477042D01*
X7124391Y35529813D01*
X7112000Y35584302D01*
X7112000Y35778638D01*
X7133052Y35848365D01*
X7139188Y35857600D01*
X7200643Y35950098D01*
X7243658Y36063334D01*
X7262555Y36113080D01*
X7262556Y36113082D01*
X7265055Y36119662D01*
X7266136Y36127352D01*
X7289748Y36295361D01*
X7289748Y36295364D01*
X7290299Y36299283D01*
X7290616Y36322000D01*
X7270397Y36502255D01*
X7268080Y36508909D01*
X7213064Y36666894D01*
X7213062Y36666897D01*
X7210745Y36673552D01*
X7130836Y36801435D01*
X7118359Y36821402D01*
X7114626Y36827376D01*
X7100941Y36841157D01*
X6991778Y36951085D01*
X6991774Y36951088D01*
X6986815Y36956082D01*
X6975697Y36963138D01*
X6914009Y37002286D01*
X6833666Y37053273D01*
X6804463Y37063672D01*
X6669425Y37111757D01*
X6669420Y37111758D01*
X6662790Y37114119D01*
X6655802Y37114952D01*
X6655799Y37114953D01*
X6532698Y37129632D01*
X6482680Y37135596D01*
X6475677Y37134860D01*
X6475676Y37134860D01*
X6309288Y37117372D01*
X6309286Y37117371D01*
X6302288Y37116636D01*
X6130579Y37058182D01*
X6124575Y37054488D01*
X5982095Y36966834D01*
X5982092Y36966832D01*
X5976088Y36963138D01*
X5971053Y36958207D01*
X5971050Y36958205D01*
X5851525Y36841157D01*
X5846493Y36836229D01*
X5748235Y36683762D01*
X5745826Y36677142D01*
X5745824Y36677139D01*
X5706316Y36568592D01*
X5686197Y36513315D01*
X5663463Y36333360D01*
X5681163Y36152840D01*
X5738418Y35980727D01*
X5742065Y35974705D01*
X5742066Y35974703D01*
X5776776Y35917390D01*
X5795000Y35852119D01*
X5795000Y35584165D01*
X5774998Y35516044D01*
X5735305Y35477022D01*
X5722877Y35469331D01*
X5722872Y35469327D01*
X5716652Y35465478D01*
X5591695Y35340303D01*
X5498885Y35189738D01*
X5443203Y35021861D01*
X5432500Y34917400D01*
X5432500Y33916600D01*
X5443474Y33810834D01*
X5499450Y33643054D01*
X5592522Y33492652D01*
X5717697Y33367695D01*
X5723927Y33363855D01*
X5723928Y33363854D01*
X5840083Y33292255D01*
X5868262Y33274885D01*
X5912030Y33260368D01*
X6029611Y33221368D01*
X6029613Y33221368D01*
X6036139Y33219203D01*
X6042975Y33218503D01*
X6042978Y33218502D01*
X6086031Y33214091D01*
X6140600Y33208500D01*
X6678551Y33208500D01*
X6746672Y33188498D01*
X6767646Y33171595D01*
X6946646Y32992595D01*
X6980672Y32930283D01*
X6975607Y32859468D01*
X6933060Y32802632D01*
X6866540Y32777821D01*
X6857551Y32777500D01*
X4956866Y32777500D01*
X4894684Y32770745D01*
X4758295Y32719615D01*
X4641739Y32632261D01*
X4554385Y32515705D01*
X4503255Y32379316D01*
X4496500Y32317134D01*
X4496500Y30420866D01*
X4503255Y30358684D01*
X4554385Y30222295D01*
X4641739Y30105739D01*
X4758295Y30018385D01*
X4894684Y29967255D01*
X4956866Y29960500D01*
X5470500Y29960500D01*
X5538621Y29940498D01*
X5585114Y29886842D01*
X5596500Y29834500D01*
X5596500Y29702056D01*
X5595941Y29690200D01*
X5594212Y29682463D01*
X5594461Y29674541D01*
X5596438Y29611631D01*
X5596500Y29607673D01*
X5596500Y29578568D01*
X5597056Y29574168D01*
X5597988Y29562336D01*
X5599438Y29516169D01*
X5604040Y29500331D01*
X5605419Y29495584D01*
X5609430Y29476218D01*
X5612118Y29454936D01*
X5615034Y29447571D01*
X5615035Y29447567D01*
X5629126Y29411979D01*
X5632965Y29400769D01*
X5645855Y29356400D01*
X5656775Y29337935D01*
X5665466Y29320195D01*
X5673365Y29300244D01*
X5681480Y29289075D01*
X5700516Y29262874D01*
X5707033Y29252952D01*
X5726507Y29220023D01*
X5726510Y29220019D01*
X5730547Y29213193D01*
X5745711Y29198029D01*
X5758551Y29182996D01*
X5771159Y29165643D01*
X5804232Y29138283D01*
X5806747Y29136202D01*
X5815527Y29128213D01*
X6381595Y28562146D01*
X6415620Y28499833D01*
X6418500Y28473050D01*
X6418500Y28089500D01*
X6398498Y28021379D01*
X6344842Y27974886D01*
X6292500Y27963500D01*
X5229210Y27963500D01*
X5217354Y27964059D01*
X5209614Y27965789D01*
X5201688Y27965540D01*
X5201687Y27965540D01*
X5138762Y27963562D01*
X5134804Y27963500D01*
X5105719Y27963500D01*
X5101788Y27963003D01*
X5101781Y27963003D01*
X5101330Y27962946D01*
X5089494Y27962014D01*
X5043320Y27960562D01*
X5022730Y27954580D01*
X5003369Y27950570D01*
X4996381Y27949688D01*
X4989947Y27948875D01*
X4989946Y27948875D01*
X4982087Y27947882D01*
X4974722Y27944966D01*
X4974718Y27944965D01*
X4939130Y27930874D01*
X4927920Y27927035D01*
X4883551Y27914145D01*
X4865086Y27903225D01*
X4847346Y27894534D01*
X4827395Y27886635D01*
X4802074Y27868238D01*
X4790025Y27859484D01*
X4780103Y27852967D01*
X4747174Y27833493D01*
X4747170Y27833490D01*
X4740344Y27829453D01*
X4725180Y27814289D01*
X4710147Y27801449D01*
X4692794Y27788841D01*
X4663349Y27753248D01*
X4655359Y27744468D01*
X4003875Y27092984D01*
X3995095Y27084994D01*
X3995093Y27084992D01*
X3988400Y27080745D01*
X3982974Y27074967D01*
X3982973Y27074966D01*
X3939876Y27029072D01*
X3937121Y27026230D01*
X3916553Y27005662D01*
X3913836Y27002159D01*
X3906128Y26993134D01*
X3874508Y26959462D01*
X3870687Y26952511D01*
X3870686Y26952510D01*
X3864177Y26940671D01*
X3853323Y26924147D01*
X3845498Y26914058D01*
X3840176Y26907197D01*
X3837029Y26899925D01*
X3837028Y26899923D01*
X3821826Y26864794D01*
X3816604Y26854134D01*
X3794356Y26813666D01*
X3789021Y26792888D01*
X3782622Y26774198D01*
X3774100Y26754505D01*
X3769996Y26728594D01*
X3766874Y26708881D01*
X3764467Y26697258D01*
X3752980Y26652517D01*
X3752980Y26631070D01*
X3751429Y26611360D01*
X3748074Y26590177D01*
X3748820Y26582286D01*
X3752421Y26544191D01*
X3752980Y26532333D01*
X3752980Y22026727D01*
X3752421Y22014871D01*
X3750692Y22007134D01*
X3750941Y21999212D01*
X3752918Y21936302D01*
X3752980Y21932344D01*
X3752980Y21903239D01*
X3753536Y21898839D01*
X3754468Y21887007D01*
X3755918Y21840840D01*
X3758130Y21833227D01*
X3758130Y21833226D01*
X3761899Y21820255D01*
X3765910Y21800889D01*
X3768598Y21779607D01*
X3771514Y21772242D01*
X3771515Y21772238D01*
X3785606Y21736650D01*
X3789445Y21725440D01*
X3802335Y21681071D01*
X3813255Y21662606D01*
X3821946Y21644866D01*
X3829845Y21624915D01*
X3851852Y21594625D01*
X3856996Y21587545D01*
X3863513Y21577623D01*
X3882987Y21544694D01*
X3882990Y21544690D01*
X3887027Y21537864D01*
X3902191Y21522700D01*
X3915027Y21507672D01*
X3922956Y21496760D01*
X3946814Y21429895D01*
X3947020Y21422699D01*
X3947020Y19408469D01*
X3927018Y19340348D01*
X3910115Y19319374D01*
X3682646Y19091905D01*
X3620334Y19057879D01*
X3593551Y19055000D01*
X3055600Y19055000D01*
X3052354Y19054663D01*
X3052350Y19054663D01*
X2956692Y19044738D01*
X2956688Y19044737D01*
X2949834Y19044026D01*
X2943298Y19041845D01*
X2943296Y19041845D01*
X2811194Y18997772D01*
X2782054Y18988050D01*
X2631652Y18894978D01*
X2506695Y18769803D01*
X2502855Y18763573D01*
X2502854Y18763572D01*
X2445453Y18670450D01*
X2413885Y18619238D01*
X2392034Y18553360D01*
X2362039Y18462925D01*
X2358203Y18451361D01*
X2357503Y18444525D01*
X2357502Y18444522D01*
X2353091Y18401469D01*
X2347500Y18346900D01*
X2347500Y17721100D01*
X2347837Y17717854D01*
X2347837Y17717850D01*
X2357558Y17624166D01*
X2358474Y17615334D01*
X2360655Y17608798D01*
X2360655Y17608796D01*
X2390814Y17518400D01*
X2414450Y17447554D01*
X2507522Y17297152D01*
X2508451Y17296225D01*
X2534162Y17232707D01*
X2520992Y17162943D01*
X2509656Y17145269D01*
X2506695Y17142303D01*
X2413885Y16991738D01*
X2358203Y16823861D01*
X2347500Y16719400D01*
X2347500Y16093600D01*
X2347837Y16090354D01*
X2347837Y16090350D01*
X2353828Y16032615D01*
X2358474Y15987834D01*
X2360655Y15981298D01*
X2360655Y15981296D01*
X2394348Y15880306D01*
X2414450Y15820054D01*
X2507522Y15669652D01*
X2512704Y15664479D01*
X2594109Y15583216D01*
X2628188Y15520934D01*
X2623185Y15450114D01*
X2594264Y15405025D01*
X2506695Y15317303D01*
X2503016Y15311335D01*
X2445205Y15270346D01*
X2404238Y15263500D01*
X1860056Y15263500D01*
X1848200Y15264059D01*
X1848197Y15264059D01*
X1840463Y15265788D01*
X1785446Y15264059D01*
X1769631Y15263562D01*
X1765673Y15263500D01*
X1736568Y15263500D01*
X1732168Y15262944D01*
X1720336Y15262012D01*
X1674169Y15260562D01*
X1653579Y15254580D01*
X1634218Y15250570D01*
X1627230Y15249688D01*
X1620796Y15248875D01*
X1620795Y15248875D01*
X1612936Y15247882D01*
X1605571Y15244966D01*
X1605567Y15244965D01*
X1569979Y15230874D01*
X1558769Y15227035D01*
X1514400Y15214145D01*
X1495943Y15203229D01*
X1478193Y15194534D01*
X1458244Y15186635D01*
X1451833Y15181977D01*
X1451831Y15181976D01*
X1420864Y15159477D01*
X1410946Y15152962D01*
X1371193Y15129452D01*
X1356032Y15114291D01*
X1341000Y15101452D01*
X1323643Y15088841D01*
X1295917Y15055325D01*
X1294198Y15053248D01*
X1286208Y15044467D01*
X723095Y14481355D01*
X660783Y14447330D01*
X589967Y14452395D01*
X533132Y14494942D01*
X508321Y14561462D01*
X508000Y14570451D01*
X508000Y24134882D01*
X528002Y24203003D01*
X581658Y24249496D01*
X651932Y24259600D01*
X716512Y24230106D01*
X750743Y24182286D01*
X815266Y24023384D01*
X817965Y24018980D01*
X929035Y23837730D01*
X931987Y23832912D01*
X1078250Y23664062D01*
X1250126Y23521368D01*
X1443000Y23408662D01*
X1447825Y23406820D01*
X1447826Y23406819D01*
X1483556Y23393175D01*
X1651692Y23328970D01*
X1656760Y23327939D01*
X1656763Y23327938D01*
X1764017Y23306117D01*
X1870597Y23284433D01*
X1875772Y23284243D01*
X1875774Y23284243D01*
X2088673Y23276436D01*
X2088677Y23276436D01*
X2093837Y23276247D01*
X2098957Y23276903D01*
X2098959Y23276903D01*
X2310288Y23303975D01*
X2310289Y23303975D01*
X2315416Y23304632D01*
X2320366Y23306117D01*
X2524429Y23367339D01*
X2524434Y23367341D01*
X2529384Y23368826D01*
X2729994Y23467104D01*
X2911860Y23596827D01*
X3070096Y23754511D01*
X3121388Y23825891D01*
X3197435Y23931723D01*
X3200453Y23935923D01*
X3211260Y23957788D01*
X3297136Y24131547D01*
X3297137Y24131549D01*
X3299430Y24136189D01*
X3364370Y24349931D01*
X3393529Y24571410D01*
X3393611Y24574760D01*
X3395074Y24634635D01*
X3395074Y24634639D01*
X3395156Y24638000D01*
X3376852Y24860639D01*
X3322431Y25077298D01*
X3233354Y25282160D01*
X3141209Y25424595D01*
X3114822Y25465383D01*
X3114820Y25465386D01*
X3112014Y25469723D01*
X2961670Y25634949D01*
X2957619Y25638148D01*
X2957615Y25638152D01*
X2790414Y25770200D01*
X2790410Y25770202D01*
X2786359Y25773402D01*
X2590789Y25881362D01*
X2585920Y25883086D01*
X2585916Y25883088D01*
X2385087Y25954205D01*
X2385083Y25954206D01*
X2380212Y25955931D01*
X2375119Y25956838D01*
X2375116Y25956839D01*
X2165373Y25994200D01*
X2165367Y25994201D01*
X2160284Y25995106D01*
X2086452Y25996008D01*
X1942081Y25997772D01*
X1942079Y25997772D01*
X1936911Y25997835D01*
X1716091Y25964045D01*
X1503756Y25894643D01*
X1305607Y25791493D01*
X1301474Y25788390D01*
X1301471Y25788388D01*
X1146374Y25671938D01*
X1126965Y25657365D01*
X972629Y25495862D01*
X969715Y25491590D01*
X969714Y25491589D01*
X957404Y25473543D01*
X846743Y25311320D01*
X752688Y25108695D01*
X751880Y25105780D01*
X709959Y25049256D01*
X643551Y25024148D01*
X574110Y25038928D01*
X523684Y25088905D01*
X508000Y25149785D01*
X508000Y28541139D01*
X528002Y28609260D01*
X581658Y28655753D01*
X651932Y28665857D01*
X716512Y28636363D01*
X734825Y28616705D01*
X818739Y28504739D01*
X935295Y28417385D01*
X1071684Y28366255D01*
X1133866Y28359500D01*
X2930134Y28359500D01*
X2992316Y28366255D01*
X3128705Y28417385D01*
X3245261Y28504739D01*
X3332615Y28621295D01*
X3383745Y28757684D01*
X3390500Y28819866D01*
X3390500Y30616134D01*
X3383745Y30678316D01*
X3332615Y30814705D01*
X3245261Y30931261D01*
X3128705Y31018615D01*
X2992316Y31069745D01*
X2930134Y31076500D01*
X1133866Y31076500D01*
X1071684Y31069745D01*
X935295Y31018615D01*
X818739Y30931261D01*
X813358Y30924081D01*
X734826Y30819296D01*
X677967Y30776781D01*
X607148Y30771755D01*
X544855Y30805815D01*
X510865Y30868146D01*
X508000Y30894861D01*
X508000Y35510672D01*
X509500Y35530057D01*
X511805Y35544858D01*
X511805Y35544861D01*
X513186Y35553730D01*
X511059Y35569999D01*
X510266Y35594567D01*
X524844Y35816985D01*
X526995Y35833326D01*
X575629Y36077824D01*
X579895Y36093743D01*
X660022Y36329790D01*
X666329Y36345017D01*
X776584Y36568592D01*
X784825Y36582865D01*
X923316Y36790133D01*
X933349Y36803210D01*
X957113Y36830307D01*
X1097714Y36990632D01*
X1109368Y37002286D01*
X1260428Y37134762D01*
X1296794Y37166654D01*
X1309867Y37176684D01*
X1517135Y37315175D01*
X1531408Y37323416D01*
X1754983Y37433671D01*
X1770210Y37439978D01*
X2006257Y37520105D01*
X2022176Y37524371D01*
X2266673Y37573005D01*
X2283014Y37575156D01*
X2498268Y37589264D01*
X2521304Y37588239D01*
X2524854Y37588196D01*
X2533730Y37586814D01*
X2565252Y37590936D01*
X2581589Y37592000D01*
X22810672Y37592000D01*
X22830057Y37590500D01*
G37*
%TD.AperFunction*%
%TA.AperFunction,Conductor*%
G36*
X22791171Y21546498D02*
G01*
X22812145Y21529595D01*
X23145595Y21196145D01*
X23179621Y21133833D01*
X23182500Y21107050D01*
X23182500Y20556600D01*
X23182837Y20553354D01*
X23182837Y20553350D01*
X23191434Y20470500D01*
X23193474Y20450834D01*
X23195655Y20444298D01*
X23195655Y20444296D01*
X23233667Y20330360D01*
X23249450Y20283054D01*
X23342522Y20132652D01*
X23347704Y20127479D01*
X23447109Y20028247D01*
X23481188Y19965964D01*
X23476185Y19895144D01*
X23447264Y19850056D01*
X23341695Y19744303D01*
X23339094Y19740084D01*
X23281970Y19699583D01*
X23211047Y19696351D01*
X23149635Y19731976D01*
X23143078Y19739530D01*
X23139478Y19745348D01*
X23014303Y19870305D01*
X22968613Y19898469D01*
X22869968Y19959275D01*
X22869966Y19959276D01*
X22863738Y19963115D01*
X22769190Y19994475D01*
X22702389Y20016632D01*
X22702387Y20016632D01*
X22695861Y20018797D01*
X22689025Y20019497D01*
X22689022Y20019498D01*
X22645969Y20023909D01*
X22591400Y20029500D01*
X21990600Y20029500D01*
X21987354Y20029163D01*
X21987350Y20029163D01*
X21891692Y20019238D01*
X21891688Y20019237D01*
X21884834Y20018526D01*
X21878292Y20016343D01*
X21878290Y20016343D01*
X21779377Y19983343D01*
X21708427Y19980758D01*
X21647343Y20016941D01*
X21615518Y20080405D01*
X21613500Y20102866D01*
X21613500Y20237941D01*
X21614059Y20249797D01*
X21615789Y20257537D01*
X21613562Y20328389D01*
X21613500Y20332347D01*
X21613500Y20361432D01*
X21612946Y20365821D01*
X21612013Y20377663D01*
X21611908Y20381021D01*
X21610562Y20423831D01*
X21604580Y20444421D01*
X21600570Y20463784D01*
X21598875Y20477204D01*
X21598875Y20477205D01*
X21597882Y20485064D01*
X21594966Y20492429D01*
X21594965Y20492433D01*
X21580874Y20528021D01*
X21577035Y20539231D01*
X21564145Y20583600D01*
X21553225Y20602065D01*
X21544534Y20619805D01*
X21536635Y20639756D01*
X21509482Y20677129D01*
X21502967Y20687048D01*
X21483493Y20719977D01*
X21483490Y20719981D01*
X21479453Y20726807D01*
X21464289Y20741971D01*
X21451448Y20757005D01*
X21443501Y20767943D01*
X21438841Y20774357D01*
X21403247Y20803803D01*
X21394468Y20811792D01*
X21160832Y21045428D01*
X21126806Y21107740D01*
X21131871Y21178555D01*
X21174418Y21235391D01*
X21185404Y21242748D01*
X21272603Y21294729D01*
X21337120Y21312500D01*
X21525095Y21312500D01*
X21536951Y21311941D01*
X21536954Y21311941D01*
X21544688Y21310212D01*
X21615520Y21312438D01*
X21619478Y21312500D01*
X21648583Y21312500D01*
X21652983Y21313056D01*
X21664815Y21313988D01*
X21710982Y21315438D01*
X21731572Y21321420D01*
X21750933Y21325430D01*
X21757921Y21326312D01*
X21764355Y21327125D01*
X21764356Y21327125D01*
X21772215Y21328118D01*
X21779580Y21331034D01*
X21779584Y21331035D01*
X21815172Y21345126D01*
X21826382Y21348965D01*
X21870751Y21361855D01*
X21889216Y21372775D01*
X21906956Y21381466D01*
X21926907Y21389365D01*
X21964280Y21416518D01*
X21974199Y21423033D01*
X22007128Y21442507D01*
X22007132Y21442510D01*
X22013958Y21446547D01*
X22029122Y21461711D01*
X22044156Y21474552D01*
X22046768Y21476450D01*
X22061508Y21487159D01*
X22066558Y21493263D01*
X22066564Y21493269D01*
X22089353Y21520816D01*
X22148187Y21560554D01*
X22186437Y21566500D01*
X22723050Y21566500D01*
X22791171Y21546498D01*
G37*
%TD.AperFunction*%
%TD*%
M02*
