%TF.GenerationSoftware,KiCad,Pcbnew,(6.0.1)*%
%TF.CreationDate,2022-02-11T13:32:31+08:00*%
%TF.ProjectId,OpenEMG_SMD_ver2.1,4f70656e-454d-4475-9f53-4d445f766572,rev?*%
%TF.SameCoordinates,PX6d01460PY54c81a0*%
%TF.FileFunction,Soldermask,Bot*%
%TF.FilePolarity,Negative*%
%FSLAX46Y46*%
G04 Gerber Fmt 4.6, Leading zero omitted, Abs format (unit mm)*
G04 Created by KiCad (PCBNEW (6.0.1)) date 2022-02-11 13:32:31*
%MOMM*%
%LPD*%
G01*
G04 APERTURE LIST*
%ADD10C,6.000000*%
%ADD11C,0.700000*%
%ADD12C,4.400000*%
%ADD13R,1.700000X1.700000*%
%ADD14O,1.700000X1.700000*%
G04 APERTURE END LIST*
D10*
%TO.C,H1*%
X12700000Y27940000D03*
%TD*%
D11*
%TO.C,H6*%
X1144000Y2794000D03*
X3960726Y3960726D03*
X2794000Y4444000D03*
X2794000Y1144000D03*
X4444000Y2794000D03*
X1627274Y1627274D03*
X1627274Y3960726D03*
X3960726Y1627274D03*
D12*
X2794000Y2794000D03*
%TD*%
D13*
%TO.C,J1*%
X2032000Y29718000D03*
D14*
X2032000Y27178000D03*
X2032000Y24638000D03*
%TD*%
D11*
%TO.C,H4*%
X20956000Y35306000D03*
X21439274Y36472726D03*
X24256000Y35306000D03*
X21439274Y34139274D03*
D12*
X22606000Y35306000D03*
D11*
X23772726Y34139274D03*
X23772726Y36472726D03*
X22606000Y36956000D03*
X22606000Y33656000D03*
%TD*%
D13*
%TO.C,J3*%
X23241000Y27559000D03*
%TD*%
D10*
%TO.C,H2*%
X12700000Y10160000D03*
%TD*%
D11*
%TO.C,H5*%
X21439274Y1627274D03*
X22606000Y4444000D03*
D12*
X22606000Y2794000D03*
D11*
X21439274Y3960726D03*
X22606000Y1144000D03*
X23772726Y1627274D03*
X20956000Y2794000D03*
X23772726Y3960726D03*
X24256000Y2794000D03*
%TD*%
D13*
%TO.C,J2*%
X23368000Y14732000D03*
D14*
X23368000Y12192000D03*
X23368000Y9652000D03*
%TD*%
D11*
%TO.C,H3*%
X1627274Y36472726D03*
X2794000Y36956000D03*
D12*
X2794000Y35306000D03*
D11*
X3960726Y34139274D03*
X1627274Y34139274D03*
X3960726Y36472726D03*
X4444000Y35306000D03*
X1144000Y35306000D03*
X2794000Y33656000D03*
%TD*%
M02*
