%TF.GenerationSoftware,KiCad,Pcbnew,(6.0.1)*%
%TF.CreationDate,2022-02-11T00:14:37+08:00*%
%TF.ProjectId,OpenEMG_SMD_ver2.1,4f70656e-454d-4475-9f53-4d445f766572,rev?*%
%TF.SameCoordinates,Original*%
%TF.FileFunction,Soldermask,Bot*%
%TF.FilePolarity,Negative*%
%FSLAX46Y46*%
G04 Gerber Fmt 4.6, Leading zero omitted, Abs format (unit mm)*
G04 Created by KiCad (PCBNEW (6.0.1)) date 2022-02-11 00:14:37*
%MOMM*%
%LPD*%
G01*
G04 APERTURE LIST*
%ADD10C,0.700000*%
%ADD11C,4.400000*%
%ADD12R,1.700000X1.700000*%
%ADD13O,1.700000X1.700000*%
%ADD14C,6.000000*%
G04 APERTURE END LIST*
D10*
%TO.C,H6*%
X115444000Y-86106000D03*
X118260726Y-84939274D03*
X117094000Y-84456000D03*
X117094000Y-87756000D03*
X118744000Y-86106000D03*
X115927274Y-87272726D03*
X115927274Y-84939274D03*
X118260726Y-87272726D03*
D11*
X117094000Y-86106000D03*
%TD*%
D12*
%TO.C,J1*%
X116332000Y-59182000D03*
D13*
X116332000Y-61722000D03*
X116332000Y-64262000D03*
%TD*%
D14*
%TO.C,H1*%
X127000000Y-60960000D03*
%TD*%
D10*
%TO.C,H4*%
X135256000Y-53594000D03*
X135739274Y-52427274D03*
X138556000Y-53594000D03*
X135739274Y-54760726D03*
D11*
X136906000Y-53594000D03*
D10*
X138072726Y-54760726D03*
X138072726Y-52427274D03*
X136906000Y-51944000D03*
X136906000Y-55244000D03*
%TD*%
D12*
%TO.C,J3*%
X137541000Y-61341000D03*
%TD*%
D14*
%TO.C,H2*%
X127000000Y-78740000D03*
%TD*%
D10*
%TO.C,H5*%
X135739274Y-87272726D03*
X136906000Y-84456000D03*
D11*
X136906000Y-86106000D03*
D10*
X135739274Y-84939274D03*
X136906000Y-87756000D03*
X138072726Y-87272726D03*
X135256000Y-86106000D03*
X138072726Y-84939274D03*
X138556000Y-86106000D03*
%TD*%
D12*
%TO.C,J2*%
X137668000Y-74168000D03*
D13*
X137668000Y-76708000D03*
X137668000Y-79248000D03*
%TD*%
D10*
%TO.C,H3*%
X115927274Y-52427274D03*
X117094000Y-51944000D03*
D11*
X117094000Y-53594000D03*
D10*
X118260726Y-54760726D03*
X115927274Y-54760726D03*
X118260726Y-52427274D03*
X118744000Y-53594000D03*
X115444000Y-53594000D03*
X117094000Y-55244000D03*
%TD*%
M02*
