%TF.GenerationSoftware,KiCad,Pcbnew,(6.0.1)*%
%TF.CreationDate,2022-02-11T00:15:21+08:00*%
%TF.ProjectId,OpenEMG_SMD_ver2.1,4f70656e-454d-4475-9f53-4d445f766572,rev?*%
%TF.SameCoordinates,PX6d01460PY54c81a0*%
%TF.FileFunction,Plated,1,2,PTH,Drill*%
%TF.FilePolarity,Positive*%
%FSLAX46Y46*%
G04 Gerber Fmt 4.6, Leading zero omitted, Abs format (unit mm)*
G04 Created by KiCad (PCBNEW (6.0.1)) date 2022-02-11 00:15:21*
%MOMM*%
%LPD*%
G01*
G04 APERTURE LIST*
%TA.AperFunction,ViaDrill*%
%ADD10C,0.400000*%
%TD*%
%TA.AperFunction,ComponentDrill*%
%ADD11C,0.400000*%
%TD*%
%TA.AperFunction,ComponentDrill*%
%ADD12C,1.000000*%
%TD*%
%TA.AperFunction,ComponentDrill*%
%ADD13C,2.200000*%
%TD*%
G04 APERTURE END LIST*
D10*
X1778000Y12446000D03*
X3429000Y7493000D03*
X5461000Y21082000D03*
X6477000Y36322000D03*
X10972480Y21386480D03*
X11938000Y16129000D03*
X12827000Y13843000D03*
X12890500Y14795500D03*
X16510000Y18542000D03*
X17526000Y22733000D03*
X19685000Y20574000D03*
X20828000Y21971000D03*
D11*
%TO.C,H3*%
X1144000Y35306000D03*
%TO.C,H6*%
X1144000Y2794000D03*
%TO.C,H3*%
X1627274Y36472726D03*
X1627274Y34139274D03*
%TO.C,H6*%
X1627274Y3960726D03*
X1627274Y1627274D03*
%TO.C,H3*%
X2794000Y36956000D03*
X2794000Y33656000D03*
%TO.C,H6*%
X2794000Y4444000D03*
X2794000Y1144000D03*
%TO.C,H3*%
X3960726Y36472726D03*
X3960726Y34139274D03*
%TO.C,H6*%
X3960726Y3960726D03*
X3960726Y1627274D03*
%TO.C,H3*%
X4444000Y35306000D03*
%TO.C,H6*%
X4444000Y2794000D03*
%TO.C,H4*%
X20956000Y35306000D03*
%TO.C,H5*%
X20956000Y2794000D03*
%TO.C,H4*%
X21439274Y36472726D03*
X21439274Y34139274D03*
%TO.C,H5*%
X21439274Y3960726D03*
X21439274Y1627274D03*
%TO.C,H4*%
X22606000Y36956000D03*
X22606000Y33656000D03*
%TO.C,H5*%
X22606000Y4444000D03*
X22606000Y1144000D03*
%TO.C,H4*%
X23772726Y36472726D03*
X23772726Y34139274D03*
%TO.C,H5*%
X23772726Y3960726D03*
X23772726Y1627274D03*
%TO.C,H4*%
X24256000Y35306000D03*
%TO.C,H5*%
X24256000Y2794000D03*
D12*
%TO.C,J1*%
X2032000Y29718000D03*
X2032000Y27178000D03*
X2032000Y24638000D03*
%TO.C,J3*%
X23241000Y27559000D03*
%TO.C,J2*%
X23368000Y14732000D03*
X23368000Y12192000D03*
X23368000Y9652000D03*
D13*
%TO.C,H3*%
X2794000Y35306000D03*
%TO.C,H6*%
X2794000Y2794000D03*
%TO.C,H4*%
X22606000Y35306000D03*
%TO.C,H5*%
X22606000Y2794000D03*
M02*
