%TF.GenerationSoftware,KiCad,Pcbnew,(5.1.10)-1*%
%TF.CreationDate,2022-01-17T10:12:51+08:00*%
%TF.ProjectId,armband_controller_ver2.0,61726d62-616e-4645-9f63-6f6e74726f6c,rev?*%
%TF.SameCoordinates,PX8a12ae0PY621abf0*%
%TF.FileFunction,Copper,L2,Bot*%
%TF.FilePolarity,Positive*%
%FSLAX46Y46*%
G04 Gerber Fmt 4.6, Leading zero omitted, Abs format (unit mm)*
G04 Created by KiCad (PCBNEW (5.1.10)-1) date 2022-01-17 10:12:51*
%MOMM*%
%LPD*%
G01*
G04 APERTURE LIST*
%TA.AperFunction,ComponentPad*%
%ADD10C,4.400000*%
%TD*%
%TA.AperFunction,ComponentPad*%
%ADD11O,1.600000X1.600000*%
%TD*%
%TA.AperFunction,ComponentPad*%
%ADD12R,1.600000X1.600000*%
%TD*%
%TA.AperFunction,ComponentPad*%
%ADD13O,1.700000X1.700000*%
%TD*%
%TA.AperFunction,ComponentPad*%
%ADD14R,1.700000X1.700000*%
%TD*%
%TA.AperFunction,ViaPad*%
%ADD15C,0.600000*%
%TD*%
%TA.AperFunction,ViaPad*%
%ADD16C,0.800000*%
%TD*%
%TA.AperFunction,Conductor*%
%ADD17C,0.500000*%
%TD*%
%TA.AperFunction,Conductor*%
%ADD18C,0.300000*%
%TD*%
%TA.AperFunction,Conductor*%
%ADD19C,1.000000*%
%TD*%
%TA.AperFunction,Conductor*%
%ADD20C,0.250000*%
%TD*%
%TA.AperFunction,Conductor*%
%ADD21C,2.000000*%
%TD*%
%TA.AperFunction,Conductor*%
%ADD22C,0.254000*%
%TD*%
%TA.AperFunction,Conductor*%
%ADD23C,0.100000*%
%TD*%
G04 APERTURE END LIST*
D10*
%TO.P,H4,1*%
%TO.N,+5V*%
X2540000Y24130000D03*
%TD*%
D11*
%TO.P,SW1,6*%
%TO.N,+5V*%
X46812200Y24028400D03*
%TO.P,SW1,3*%
%TO.N,Net-(R6-Pad1)*%
X39192200Y18948400D03*
%TO.P,SW1,5*%
%TO.N,+5V*%
X46812200Y21488400D03*
%TO.P,SW1,2*%
%TO.N,Net-(R5-Pad1)*%
X39192200Y21488400D03*
%TO.P,SW1,4*%
%TO.N,+5V*%
X46812200Y18948400D03*
D12*
%TO.P,SW1,1*%
%TO.N,Net-(R4-Pad1)*%
X39192200Y24028400D03*
%TD*%
%TO.P,R9,2*%
%TO.N,Net-(J4-Pad13)*%
%TA.AperFunction,SMDPad,CuDef*%
G36*
G01*
X29330600Y18599998D02*
X29330600Y19500002D01*
G75*
G02*
X29580598Y19750000I249998J0D01*
G01*
X30105602Y19750000D01*
G75*
G02*
X30355600Y19500002I0J-249998D01*
G01*
X30355600Y18599998D01*
G75*
G02*
X30105602Y18350000I-249998J0D01*
G01*
X29580598Y18350000D01*
G75*
G02*
X29330600Y18599998I0J249998D01*
G01*
G37*
%TD.AperFunction*%
%TO.P,R9,1*%
%TO.N,GND*%
%TA.AperFunction,SMDPad,CuDef*%
G36*
G01*
X27505600Y18599998D02*
X27505600Y19500002D01*
G75*
G02*
X27755598Y19750000I249998J0D01*
G01*
X28280602Y19750000D01*
G75*
G02*
X28530600Y19500002I0J-249998D01*
G01*
X28530600Y18599998D01*
G75*
G02*
X28280602Y18350000I-249998J0D01*
G01*
X27755598Y18350000D01*
G75*
G02*
X27505600Y18599998I0J249998D01*
G01*
G37*
%TD.AperFunction*%
%TD*%
%TO.P,R8,2*%
%TO.N,Net-(J4-Pad12)*%
%TA.AperFunction,SMDPad,CuDef*%
G36*
G01*
X29330600Y21139998D02*
X29330600Y22040002D01*
G75*
G02*
X29580598Y22290000I249998J0D01*
G01*
X30105602Y22290000D01*
G75*
G02*
X30355600Y22040002I0J-249998D01*
G01*
X30355600Y21139998D01*
G75*
G02*
X30105602Y20890000I-249998J0D01*
G01*
X29580598Y20890000D01*
G75*
G02*
X29330600Y21139998I0J249998D01*
G01*
G37*
%TD.AperFunction*%
%TO.P,R8,1*%
%TO.N,GND*%
%TA.AperFunction,SMDPad,CuDef*%
G36*
G01*
X27505600Y21139998D02*
X27505600Y22040002D01*
G75*
G02*
X27755598Y22290000I249998J0D01*
G01*
X28280602Y22290000D01*
G75*
G02*
X28530600Y22040002I0J-249998D01*
G01*
X28530600Y21139998D01*
G75*
G02*
X28280602Y20890000I-249998J0D01*
G01*
X27755598Y20890000D01*
G75*
G02*
X27505600Y21139998I0J249998D01*
G01*
G37*
%TD.AperFunction*%
%TD*%
%TO.P,R7,2*%
%TO.N,Net-(J4-Pad11)*%
%TA.AperFunction,SMDPad,CuDef*%
G36*
G01*
X29330600Y23679998D02*
X29330600Y24580002D01*
G75*
G02*
X29580598Y24830000I249998J0D01*
G01*
X30105602Y24830000D01*
G75*
G02*
X30355600Y24580002I0J-249998D01*
G01*
X30355600Y23679998D01*
G75*
G02*
X30105602Y23430000I-249998J0D01*
G01*
X29580598Y23430000D01*
G75*
G02*
X29330600Y23679998I0J249998D01*
G01*
G37*
%TD.AperFunction*%
%TO.P,R7,1*%
%TO.N,GND*%
%TA.AperFunction,SMDPad,CuDef*%
G36*
G01*
X27505600Y23679998D02*
X27505600Y24580002D01*
G75*
G02*
X27755598Y24830000I249998J0D01*
G01*
X28280602Y24830000D01*
G75*
G02*
X28530600Y24580002I0J-249998D01*
G01*
X28530600Y23679998D01*
G75*
G02*
X28280602Y23430000I-249998J0D01*
G01*
X27755598Y23430000D01*
G75*
G02*
X27505600Y23679998I0J249998D01*
G01*
G37*
%TD.AperFunction*%
%TD*%
%TO.P,R6,2*%
%TO.N,Net-(J4-Pad13)*%
%TA.AperFunction,SMDPad,CuDef*%
G36*
G01*
X36125998Y17430800D02*
X37026002Y17430800D01*
G75*
G02*
X37276000Y17180802I0J-249998D01*
G01*
X37276000Y16655798D01*
G75*
G02*
X37026002Y16405800I-249998J0D01*
G01*
X36125998Y16405800D01*
G75*
G02*
X35876000Y16655798I0J249998D01*
G01*
X35876000Y17180802D01*
G75*
G02*
X36125998Y17430800I249998J0D01*
G01*
G37*
%TD.AperFunction*%
%TO.P,R6,1*%
%TO.N,Net-(R6-Pad1)*%
%TA.AperFunction,SMDPad,CuDef*%
G36*
G01*
X36125998Y19255800D02*
X37026002Y19255800D01*
G75*
G02*
X37276000Y19005802I0J-249998D01*
G01*
X37276000Y18480798D01*
G75*
G02*
X37026002Y18230800I-249998J0D01*
G01*
X36125998Y18230800D01*
G75*
G02*
X35876000Y18480798I0J249998D01*
G01*
X35876000Y19005802D01*
G75*
G02*
X36125998Y19255800I249998J0D01*
G01*
G37*
%TD.AperFunction*%
%TD*%
%TO.P,R5,2*%
%TO.N,Net-(J4-Pad12)*%
%TA.AperFunction,SMDPad,CuDef*%
G36*
G01*
X36100598Y20961400D02*
X37000602Y20961400D01*
G75*
G02*
X37250600Y20711402I0J-249998D01*
G01*
X37250600Y20186398D01*
G75*
G02*
X37000602Y19936400I-249998J0D01*
G01*
X36100598Y19936400D01*
G75*
G02*
X35850600Y20186398I0J249998D01*
G01*
X35850600Y20711402D01*
G75*
G02*
X36100598Y20961400I249998J0D01*
G01*
G37*
%TD.AperFunction*%
%TO.P,R5,1*%
%TO.N,Net-(R5-Pad1)*%
%TA.AperFunction,SMDPad,CuDef*%
G36*
G01*
X36100598Y22786400D02*
X37000602Y22786400D01*
G75*
G02*
X37250600Y22536402I0J-249998D01*
G01*
X37250600Y22011398D01*
G75*
G02*
X37000602Y21761400I-249998J0D01*
G01*
X36100598Y21761400D01*
G75*
G02*
X35850600Y22011398I0J249998D01*
G01*
X35850600Y22536402D01*
G75*
G02*
X36100598Y22786400I249998J0D01*
G01*
G37*
%TD.AperFunction*%
%TD*%
%TO.P,R4,2*%
%TO.N,Net-(J4-Pad11)*%
%TA.AperFunction,SMDPad,CuDef*%
G36*
G01*
X36075198Y24593600D02*
X36975202Y24593600D01*
G75*
G02*
X37225200Y24343602I0J-249998D01*
G01*
X37225200Y23818598D01*
G75*
G02*
X36975202Y23568600I-249998J0D01*
G01*
X36075198Y23568600D01*
G75*
G02*
X35825200Y23818598I0J249998D01*
G01*
X35825200Y24343602D01*
G75*
G02*
X36075198Y24593600I249998J0D01*
G01*
G37*
%TD.AperFunction*%
%TO.P,R4,1*%
%TO.N,Net-(R4-Pad1)*%
%TA.AperFunction,SMDPad,CuDef*%
G36*
G01*
X36075198Y26418600D02*
X36975202Y26418600D01*
G75*
G02*
X37225200Y26168602I0J-249998D01*
G01*
X37225200Y25643598D01*
G75*
G02*
X36975202Y25393600I-249998J0D01*
G01*
X36075198Y25393600D01*
G75*
G02*
X35825200Y25643598I0J249998D01*
G01*
X35825200Y26168602D01*
G75*
G02*
X36075198Y26418600I249998J0D01*
G01*
G37*
%TD.AperFunction*%
%TD*%
D13*
%TO.P,J7,8*%
%TO.N,/FBOUT3_1*%
X22682200Y21437600D03*
%TO.P,J7,7*%
%TO.N,/FBOUT3_0*%
X22682200Y23977600D03*
%TO.P,J7,6*%
%TO.N,/FBOUT2_1*%
X22682200Y26517600D03*
%TO.P,J7,5*%
%TO.N,/FBOUT2_0*%
X22682200Y29057600D03*
%TO.P,J7,4*%
%TO.N,/FBOUT1_1*%
X22682200Y31597600D03*
%TO.P,J7,3*%
%TO.N,/FBOUT1_0*%
X22682200Y34137600D03*
%TO.P,J7,2*%
%TO.N,/FBOUT0_1*%
X22682200Y36677600D03*
D14*
%TO.P,J7,1*%
%TO.N,/FBOUT0_0*%
X22682200Y39217600D03*
%TD*%
D13*
%TO.P,J6,4*%
%TO.N,Net-(J6-Pad4)*%
X37058600Y29870400D03*
%TO.P,J6,3*%
%TO.N,Net-(J6-Pad3)*%
X37058600Y32410400D03*
%TO.P,J6,2*%
%TO.N,Net-(J6-Pad2)*%
X37058600Y34950400D03*
D14*
%TO.P,J6,1*%
%TO.N,Net-(J6-Pad1)*%
X37058600Y37490400D03*
%TD*%
D13*
%TO.P,J5,4*%
%TO.N,Net-(J5-Pad4)*%
X37007800Y41910000D03*
%TO.P,J5,3*%
%TO.N,Net-(J5-Pad3)*%
X37007800Y44450000D03*
%TO.P,J5,2*%
%TO.N,Net-(J5-Pad2)*%
X37007800Y46990000D03*
D14*
%TO.P,J5,1*%
%TO.N,Net-(J5-Pad1)*%
X37007800Y49530000D03*
%TD*%
D13*
%TO.P,J4,19*%
%TO.N,N/C*%
X33020000Y3810000D03*
%TO.P,J4,18*%
X33020000Y6350000D03*
%TO.P,J4,17*%
X33020000Y8890000D03*
%TO.P,J4,16*%
X33020000Y11430000D03*
%TO.P,J4,15*%
X33020000Y13970000D03*
%TO.P,J4,14*%
X33020000Y16510000D03*
%TO.P,J4,13*%
%TO.N,Net-(J4-Pad13)*%
X33020000Y19050000D03*
%TO.P,J4,12*%
%TO.N,Net-(J4-Pad12)*%
X33020000Y21590000D03*
%TO.P,J4,11*%
%TO.N,Net-(J4-Pad11)*%
X33020000Y24130000D03*
%TO.P,J4,10*%
%TO.N,N/C*%
X33020000Y26670000D03*
%TO.P,J4,9*%
%TO.N,/FBIN0_1*%
X33020000Y29210000D03*
%TO.P,J4,8*%
%TO.N,/FBIN0_0*%
X33020000Y31750000D03*
%TO.P,J4,7*%
%TO.N,GND*%
X33020000Y34290000D03*
%TO.P,J4,6*%
%TO.N,/SDA*%
X33020000Y36830000D03*
%TO.P,J4,5*%
%TO.N,N/C*%
X33020000Y39370000D03*
%TO.P,J4,4*%
X33020000Y41910000D03*
%TO.P,J4,3*%
%TO.N,/SCL*%
X33020000Y44450000D03*
%TO.P,J4,2*%
%TO.N,N/C*%
X33020000Y46990000D03*
D14*
%TO.P,J4,1*%
%TO.N,GND*%
X33020000Y49530000D03*
%TD*%
D13*
%TO.P,J3,19*%
%TO.N,+5V*%
X7620000Y3810000D03*
%TO.P,J3,18*%
%TO.N,N/C*%
X7620000Y6350000D03*
%TO.P,J3,17*%
X7620000Y8890000D03*
%TO.P,J3,16*%
X7620000Y11430000D03*
%TO.P,J3,15*%
X7620000Y13970000D03*
%TO.P,J3,14*%
%TO.N,GND*%
X7620000Y16510000D03*
%TO.P,J3,13*%
%TO.N,N/C*%
X7620000Y19050000D03*
%TO.P,J3,12*%
%TO.N,/FBIN3_1*%
X7620000Y21590000D03*
%TO.P,J3,11*%
%TO.N,/FBIN3_0*%
X7620000Y24130000D03*
%TO.P,J3,10*%
%TO.N,/FBIN2_1*%
X7620000Y26670000D03*
%TO.P,J3,9*%
%TO.N,/FBIN2_0*%
X7620000Y29210000D03*
%TO.P,J3,8*%
%TO.N,/FBIN1_1*%
X7620000Y31750000D03*
%TO.P,J3,7*%
%TO.N,/FBIN1_0*%
X7620000Y34290000D03*
%TO.P,J3,6*%
%TO.N,N/C*%
X7620000Y36830000D03*
%TO.P,J3,5*%
X7620000Y39370000D03*
%TO.P,J3,4*%
X7620000Y41910000D03*
%TO.P,J3,3*%
X7620000Y44450000D03*
%TO.P,J3,2*%
X7620000Y46990000D03*
D14*
%TO.P,J3,1*%
X7620000Y49530000D03*
%TD*%
D13*
%TO.P,J2,3*%
%TO.N,-VDC*%
X39700200Y8534400D03*
%TO.P,J2,2*%
%TO.N,GND*%
X39700200Y11074400D03*
D14*
%TO.P,J2,1*%
%TO.N,+5V*%
X39700200Y13614400D03*
%TD*%
D13*
%TO.P,J1,2*%
%TO.N,GND*%
X3175000Y6400800D03*
D14*
%TO.P,J1,1*%
%TO.N,+5V*%
X3175000Y3860800D03*
%TD*%
D10*
%TO.P,H5,1*%
%TO.N,+5V*%
X2540000Y19050000D03*
%TD*%
%TO.P,H3,1*%
%TO.N,+5V*%
X2540000Y29210000D03*
%TD*%
%TO.P,H2,1*%
%TO.N,GND*%
X46990000Y2540000D03*
%TD*%
%TO.P,H1,1*%
%TO.N,GND*%
X2540000Y49530000D03*
%TD*%
D15*
%TO.N,GND*%
X11252200Y24358600D03*
X11277600Y29616400D03*
X11277600Y35052000D03*
D16*
%TO.N,+5V*%
X11480800Y36728400D03*
X11455400Y39624000D03*
X11430000Y47015400D03*
X11430000Y43180000D03*
D15*
X13512800Y26822400D03*
X14020800Y22783800D03*
X12928600Y31902400D03*
X12217400Y20396200D03*
X12192000Y26162000D03*
X27889200Y42418000D03*
D16*
X25681300Y32158300D03*
D15*
%TO.N,Net-(J5-Pad4)*%
X28473400Y46050200D03*
%TO.N,Net-(J5-Pad3)*%
X28473400Y44653200D03*
%TO.N,Net-(J6-Pad4)*%
X27254200Y41605200D03*
%TO.N,Net-(J6-Pad3)*%
X27279600Y40563800D03*
%TO.N,Net-(J6-Pad2)*%
X25628600Y39420800D03*
%TO.N,Net-(J6-Pad1)*%
X24485600Y40792400D03*
D16*
%TO.N,Net-(R3-Pad2)*%
X9702800Y38150800D03*
X12852400Y38125400D03*
D15*
X9321800Y21844000D03*
X9347200Y27051000D03*
X9575800Y31927800D03*
D16*
X29997400Y32689800D03*
%TD*%
D17*
%TO.N,GND*%
X28018100Y24130000D02*
X28018100Y21590000D01*
X28018100Y21590000D02*
X28018100Y19050000D01*
D18*
X38855799Y10229999D02*
X39700200Y11074400D01*
X28018100Y14655898D02*
X32443999Y10229999D01*
X32443999Y10229999D02*
X38855799Y10229999D01*
X28018100Y19050000D02*
X28018100Y14655898D01*
D19*
X39700200Y11074400D02*
X44043600Y11074400D01*
X45999400Y9118600D02*
X45999400Y4546600D01*
X44043600Y11074400D02*
X45999400Y9118600D01*
D20*
X36074601Y31235399D02*
X33020000Y34290000D01*
X37432603Y31235399D02*
X36074601Y31235399D01*
X38233601Y30434401D02*
X37432603Y31235399D01*
X38233601Y29306399D02*
X38233601Y30434401D01*
X34332622Y25405420D02*
X38233601Y29306399D01*
X29293520Y25405420D02*
X34332622Y25405420D01*
X28018100Y24130000D02*
X29293520Y25405420D01*
D17*
X11277600Y34899600D02*
X11277600Y29616400D01*
X11277600Y24384000D02*
X11252200Y24358600D01*
X11277600Y29616400D02*
X11277600Y24384000D01*
X11252200Y20142200D02*
X7620000Y16510000D01*
X11252200Y24358600D02*
X11252200Y20142200D01*
D19*
%TO.N,+5V*%
X7569200Y3860800D02*
X7620000Y3810000D01*
X3175000Y3860800D02*
X7569200Y3860800D01*
D17*
X39700200Y13614400D02*
X43840400Y13614400D01*
X46812200Y16586200D02*
X46812200Y18948400D01*
X43840400Y13614400D02*
X46812200Y16586200D01*
X46812200Y21488400D02*
X46812200Y18948400D01*
X46812200Y24028400D02*
X46812200Y21488400D01*
D21*
X5225001Y16364999D02*
X2540000Y19050000D01*
X5225001Y5416799D02*
X5225001Y16364999D01*
X3669002Y3860800D02*
X5225001Y5416799D01*
X3175000Y3860800D02*
X3669002Y3860800D01*
X2540000Y19050000D02*
X2540000Y24130000D01*
X2540000Y24130000D02*
X2540000Y29210000D01*
D17*
X12115800Y20497800D02*
X12217400Y20396200D01*
X12115800Y31089600D02*
X12928600Y31902400D01*
X12115800Y25882600D02*
X12115800Y31089600D01*
X12217400Y8407400D02*
X7620000Y3810000D01*
X12217400Y20396200D02*
X12217400Y8407400D01*
X12928600Y35280600D02*
X11480800Y36728400D01*
X12928600Y31902400D02*
X12928600Y35280600D01*
X11480800Y39598600D02*
X11455400Y39624000D01*
X11480800Y36728400D02*
X11480800Y39598600D01*
X11455400Y43154600D02*
X11430000Y43180000D01*
X11455400Y39624000D02*
X11455400Y43154600D01*
X11430000Y43180000D02*
X11430000Y47015400D01*
X14020800Y22783800D02*
X12141200Y22783800D01*
X12115800Y22809200D02*
X12115800Y20497800D01*
X12141200Y22783800D02*
X12115800Y22809200D01*
X12115800Y25882600D02*
X12115800Y22809200D01*
D20*
X14408401Y30422599D02*
X12928600Y31902400D01*
X23945599Y30422599D02*
X14408401Y30422599D01*
X25681300Y32158300D02*
X23945599Y30422599D01*
D17*
X12192000Y42418000D02*
X11430000Y43180000D01*
X27889200Y42418000D02*
X12192000Y42418000D01*
X12598400Y26822400D02*
X12192000Y26416000D01*
X13512800Y26822400D02*
X12598400Y26822400D01*
D20*
%TO.N,Net-(J5-Pad4)*%
X37007800Y42201202D02*
X37007800Y41910000D01*
X33458801Y45750201D02*
X37007800Y42201202D01*
X28773399Y45750201D02*
X33458801Y45750201D01*
X28473400Y46050200D02*
X28773399Y45750201D01*
%TO.N,Net-(J5-Pad3)*%
X37007800Y44741202D02*
X37007800Y44450000D01*
X33584001Y48165001D02*
X37007800Y44741202D01*
X29663199Y48165001D02*
X33584001Y48165001D01*
X27848399Y46350201D02*
X29663199Y48165001D01*
X27848399Y45278201D02*
X27848399Y46350201D01*
X28473400Y44653200D02*
X27848399Y45278201D01*
%TO.N,Net-(J6-Pad4)*%
X36753800Y29870400D02*
X37058600Y29870400D01*
X33509201Y33114999D02*
X36753800Y29870400D01*
X23831801Y40292597D02*
X31009399Y33114999D01*
X23831801Y41063603D02*
X23831801Y40292597D01*
X31009399Y33114999D02*
X33509201Y33114999D01*
X24373398Y41605200D02*
X23831801Y41063603D01*
X27254200Y41605200D02*
X24373398Y41605200D01*
%TO.N,Net-(J6-Pad3)*%
X38233601Y33585401D02*
X37058600Y32410400D01*
X38233601Y38600401D02*
X38233601Y33585401D01*
X36270202Y40563800D02*
X38233601Y38600401D01*
X27279600Y40563800D02*
X36270202Y40563800D01*
%TO.N,Net-(J6-Pad2)*%
X36543999Y35465001D02*
X37058600Y34950400D01*
X29584399Y35465001D02*
X36543999Y35465001D01*
X25628600Y39420800D02*
X29584399Y35465001D01*
%TO.N,Net-(J6-Pad1)*%
X36543999Y38005001D02*
X37058600Y37490400D01*
X28913397Y38005001D02*
X36543999Y38005001D01*
X26125998Y40792400D02*
X28913397Y38005001D01*
X24485600Y40792400D02*
X26125998Y40792400D01*
D17*
%TO.N,Net-(J4-Pad13)*%
X29843100Y19050000D02*
X33020000Y19050000D01*
X36576000Y16918300D02*
X35151700Y16918300D01*
X35151700Y16918300D02*
X33020000Y19050000D01*
%TO.N,Net-(J4-Pad12)*%
X29843100Y21590000D02*
X33020000Y21590000D01*
X34161100Y20448900D02*
X33020000Y21590000D01*
X36550600Y20448900D02*
X34161100Y20448900D01*
%TO.N,Net-(J4-Pad11)*%
X29843100Y24130000D02*
X33020000Y24130000D01*
X33068900Y24081100D02*
X33020000Y24130000D01*
X36525200Y24081100D02*
X33068900Y24081100D01*
%TO.N,Net-(R6-Pad1)*%
X38987100Y18743300D02*
X39192200Y18948400D01*
X36576000Y18743300D02*
X38987100Y18743300D01*
%TO.N,Net-(R3-Pad2)*%
X9575800Y27279600D02*
X9347200Y27051000D01*
X9575800Y31927800D02*
X9575800Y27279600D01*
X9347200Y21869400D02*
X9321800Y21844000D01*
X9347200Y27051000D02*
X9347200Y21869400D01*
X9575800Y38023800D02*
X9702800Y38150800D01*
X9575800Y31927800D02*
X9575800Y38023800D01*
D18*
X27349599Y35337601D02*
X29997400Y32689800D01*
X15640199Y35337601D02*
X27349599Y35337601D01*
X12852400Y38125400D02*
X15640199Y35337601D01*
D17*
%TO.N,Net-(R4-Pad1)*%
X37314500Y25906100D02*
X39192200Y24028400D01*
X36525200Y25906100D02*
X37314500Y25906100D01*
%TO.N,Net-(R5-Pad1)*%
X38406700Y22273900D02*
X39192200Y21488400D01*
X36550600Y22273900D02*
X38406700Y22273900D01*
%TD*%
D22*
%TO.N,+5V*%
X4616504Y32111615D02*
X4877593Y32054819D01*
X5127940Y31961444D01*
X5362445Y31833395D01*
X5576338Y31673276D01*
X5765276Y31484338D01*
X5925395Y31270445D01*
X6053444Y31035940D01*
X6146819Y30785593D01*
X6203615Y30524504D01*
X6223000Y30253470D01*
X6223000Y29717835D01*
X6192068Y29643158D01*
X6135000Y29356260D01*
X6135000Y29063740D01*
X6192068Y28776842D01*
X6223000Y28702165D01*
X6223000Y27177835D01*
X6192068Y27103158D01*
X6135000Y26816260D01*
X6135000Y26523740D01*
X6192068Y26236842D01*
X6223000Y26162165D01*
X6223000Y24637835D01*
X6192068Y24563158D01*
X6135000Y24276260D01*
X6135000Y23983740D01*
X6192068Y23696842D01*
X6223000Y23622165D01*
X6223000Y22097835D01*
X6192068Y22023158D01*
X6135000Y21736260D01*
X6135000Y21443740D01*
X6192068Y21156842D01*
X6223000Y21082165D01*
X6223000Y19557835D01*
X6192068Y19483158D01*
X6135000Y19196260D01*
X6135000Y18903740D01*
X6192068Y18616842D01*
X6223000Y18542165D01*
X6223000Y17017835D01*
X6192068Y16943158D01*
X6135000Y16656260D01*
X6135000Y16363740D01*
X6192068Y16076842D01*
X6223000Y16002165D01*
X6223000Y14477835D01*
X6192068Y14403158D01*
X6135000Y14116260D01*
X6135000Y13823740D01*
X6192068Y13536842D01*
X6223000Y13462165D01*
X6223000Y11937835D01*
X6192068Y11863158D01*
X6135000Y11576260D01*
X6135000Y11283740D01*
X6192068Y10996842D01*
X6223000Y10922165D01*
X6223000Y9397835D01*
X6192068Y9323158D01*
X6135000Y9036260D01*
X6135000Y8743740D01*
X6192068Y8456842D01*
X6223000Y8382165D01*
X6223000Y6985000D01*
X6223392Y6975035D01*
X6231081Y6877343D01*
X6192068Y6783158D01*
X6135000Y6496260D01*
X6135000Y6203740D01*
X6192068Y5916842D01*
X6304010Y5646589D01*
X6466525Y5403368D01*
X6673368Y5196525D01*
X6916589Y5034010D01*
X7186842Y4922068D01*
X7473740Y4865000D01*
X7766260Y4865000D01*
X8053158Y4922068D01*
X8323411Y5034010D01*
X8470568Y5132337D01*
X8471818Y5132037D01*
X8692707Y5040542D01*
X8896549Y4915627D01*
X9078352Y4760352D01*
X9233627Y4578549D01*
X9358542Y4374707D01*
X9450037Y4153818D01*
X9505849Y3921342D01*
X9524608Y3683000D01*
X9505849Y3444658D01*
X9450037Y3212182D01*
X9358542Y2991293D01*
X9233627Y2787451D01*
X9078352Y2605648D01*
X8896549Y2450373D01*
X8692707Y2325458D01*
X8471818Y2233963D01*
X8239342Y2178151D01*
X7996016Y2159000D01*
X2004530Y2159000D01*
X1733496Y2178385D01*
X1472407Y2235181D01*
X1222060Y2328556D01*
X987555Y2456605D01*
X773662Y2616724D01*
X685000Y2705386D01*
X685000Y6547060D01*
X1690000Y6547060D01*
X1690000Y6254540D01*
X1747068Y5967642D01*
X1859010Y5697389D01*
X2021525Y5454168D01*
X2228368Y5247325D01*
X2471589Y5084810D01*
X2741842Y4972868D01*
X3028740Y4915800D01*
X3321260Y4915800D01*
X3608158Y4972868D01*
X3878411Y5084810D01*
X4121632Y5247325D01*
X4328475Y5454168D01*
X4490990Y5697389D01*
X4602932Y5967642D01*
X4660000Y6254540D01*
X4660000Y6547060D01*
X4602932Y6833958D01*
X4490990Y7104211D01*
X4328475Y7347432D01*
X4121632Y7554275D01*
X3878411Y7716790D01*
X3608158Y7828732D01*
X3321260Y7885800D01*
X3028740Y7885800D01*
X2741842Y7828732D01*
X2471589Y7716790D01*
X2228368Y7554275D01*
X2021525Y7347432D01*
X1859010Y7104211D01*
X1747068Y6833958D01*
X1690000Y6547060D01*
X685000Y6547060D01*
X685000Y31584614D01*
X773662Y31673276D01*
X987555Y31833395D01*
X1222060Y31961444D01*
X1472407Y32054819D01*
X1733496Y32111615D01*
X2004530Y32131000D01*
X4345470Y32131000D01*
X4616504Y32111615D01*
%TA.AperFunction,Conductor*%
D23*
G36*
X4616504Y32111615D02*
G01*
X4877593Y32054819D01*
X5127940Y31961444D01*
X5362445Y31833395D01*
X5576338Y31673276D01*
X5765276Y31484338D01*
X5925395Y31270445D01*
X6053444Y31035940D01*
X6146819Y30785593D01*
X6203615Y30524504D01*
X6223000Y30253470D01*
X6223000Y29717835D01*
X6192068Y29643158D01*
X6135000Y29356260D01*
X6135000Y29063740D01*
X6192068Y28776842D01*
X6223000Y28702165D01*
X6223000Y27177835D01*
X6192068Y27103158D01*
X6135000Y26816260D01*
X6135000Y26523740D01*
X6192068Y26236842D01*
X6223000Y26162165D01*
X6223000Y24637835D01*
X6192068Y24563158D01*
X6135000Y24276260D01*
X6135000Y23983740D01*
X6192068Y23696842D01*
X6223000Y23622165D01*
X6223000Y22097835D01*
X6192068Y22023158D01*
X6135000Y21736260D01*
X6135000Y21443740D01*
X6192068Y21156842D01*
X6223000Y21082165D01*
X6223000Y19557835D01*
X6192068Y19483158D01*
X6135000Y19196260D01*
X6135000Y18903740D01*
X6192068Y18616842D01*
X6223000Y18542165D01*
X6223000Y17017835D01*
X6192068Y16943158D01*
X6135000Y16656260D01*
X6135000Y16363740D01*
X6192068Y16076842D01*
X6223000Y16002165D01*
X6223000Y14477835D01*
X6192068Y14403158D01*
X6135000Y14116260D01*
X6135000Y13823740D01*
X6192068Y13536842D01*
X6223000Y13462165D01*
X6223000Y11937835D01*
X6192068Y11863158D01*
X6135000Y11576260D01*
X6135000Y11283740D01*
X6192068Y10996842D01*
X6223000Y10922165D01*
X6223000Y9397835D01*
X6192068Y9323158D01*
X6135000Y9036260D01*
X6135000Y8743740D01*
X6192068Y8456842D01*
X6223000Y8382165D01*
X6223000Y6985000D01*
X6223392Y6975035D01*
X6231081Y6877343D01*
X6192068Y6783158D01*
X6135000Y6496260D01*
X6135000Y6203740D01*
X6192068Y5916842D01*
X6304010Y5646589D01*
X6466525Y5403368D01*
X6673368Y5196525D01*
X6916589Y5034010D01*
X7186842Y4922068D01*
X7473740Y4865000D01*
X7766260Y4865000D01*
X8053158Y4922068D01*
X8323411Y5034010D01*
X8470568Y5132337D01*
X8471818Y5132037D01*
X8692707Y5040542D01*
X8896549Y4915627D01*
X9078352Y4760352D01*
X9233627Y4578549D01*
X9358542Y4374707D01*
X9450037Y4153818D01*
X9505849Y3921342D01*
X9524608Y3683000D01*
X9505849Y3444658D01*
X9450037Y3212182D01*
X9358542Y2991293D01*
X9233627Y2787451D01*
X9078352Y2605648D01*
X8896549Y2450373D01*
X8692707Y2325458D01*
X8471818Y2233963D01*
X8239342Y2178151D01*
X7996016Y2159000D01*
X2004530Y2159000D01*
X1733496Y2178385D01*
X1472407Y2235181D01*
X1222060Y2328556D01*
X987555Y2456605D01*
X773662Y2616724D01*
X685000Y2705386D01*
X685000Y6547060D01*
X1690000Y6547060D01*
X1690000Y6254540D01*
X1747068Y5967642D01*
X1859010Y5697389D01*
X2021525Y5454168D01*
X2228368Y5247325D01*
X2471589Y5084810D01*
X2741842Y4972868D01*
X3028740Y4915800D01*
X3321260Y4915800D01*
X3608158Y4972868D01*
X3878411Y5084810D01*
X4121632Y5247325D01*
X4328475Y5454168D01*
X4490990Y5697389D01*
X4602932Y5967642D01*
X4660000Y6254540D01*
X4660000Y6547060D01*
X4602932Y6833958D01*
X4490990Y7104211D01*
X4328475Y7347432D01*
X4121632Y7554275D01*
X3878411Y7716790D01*
X3608158Y7828732D01*
X3321260Y7885800D01*
X3028740Y7885800D01*
X2741842Y7828732D01*
X2471589Y7716790D01*
X2228368Y7554275D01*
X2021525Y7347432D01*
X1859010Y7104211D01*
X1747068Y6833958D01*
X1690000Y6547060D01*
X685000Y6547060D01*
X685000Y31584614D01*
X773662Y31673276D01*
X987555Y31833395D01*
X1222060Y31961444D01*
X1472407Y32054819D01*
X1733496Y32111615D01*
X2004530Y32131000D01*
X4345470Y32131000D01*
X4616504Y32111615D01*
G37*
%TD.AperFunction*%
%TD*%
D22*
%TO.N,GND*%
X48845001Y685000D02*
X685000Y685000D01*
X685000Y889000D01*
X8541000Y889000D01*
X8550060Y889324D01*
X8834690Y909681D01*
X8852626Y912259D01*
X9131461Y972916D01*
X9148847Y978021D01*
X9416212Y1077743D01*
X9432695Y1085271D01*
X9683147Y1222028D01*
X9698390Y1231824D01*
X9926829Y1402832D01*
X9940524Y1414698D01*
X10142302Y1616476D01*
X10154168Y1630171D01*
X10325176Y1858610D01*
X10334972Y1873853D01*
X10471729Y2124305D01*
X10479257Y2140788D01*
X10578979Y2408153D01*
X10584084Y2425539D01*
X10644741Y2704374D01*
X10647319Y2722310D01*
X10667676Y3006940D01*
X10668000Y3016000D01*
X10668000Y4000500D01*
X10667676Y4009560D01*
X10648932Y4271633D01*
X10646354Y4289569D01*
X10590504Y4546307D01*
X10585399Y4563693D01*
X10493580Y4809869D01*
X10486052Y4826352D01*
X10360133Y5056955D01*
X10350337Y5072198D01*
X10257625Y5196047D01*
X12812449Y7750870D01*
X12846217Y7778583D01*
X12956811Y7913341D01*
X13038989Y8067087D01*
X13089595Y8233910D01*
X13102400Y8363923D01*
X13102400Y8363933D01*
X13106681Y8407399D01*
X13102400Y8450865D01*
X13102400Y20089508D01*
X13116468Y20123471D01*
X13152400Y20304111D01*
X13152400Y20488289D01*
X13116468Y20668929D01*
X13045986Y20839089D01*
X13000800Y20906715D01*
X13000800Y21898800D01*
X13714108Y21898800D01*
X13748071Y21884732D01*
X13928711Y21848800D01*
X14112889Y21848800D01*
X14293529Y21884732D01*
X14463689Y21955214D01*
X14616828Y22057538D01*
X14747062Y22187772D01*
X14849386Y22340911D01*
X14919868Y22511071D01*
X14955800Y22691711D01*
X14955800Y22875889D01*
X14919868Y23056529D01*
X14849386Y23226689D01*
X14747062Y23379828D01*
X14616828Y23510062D01*
X14463689Y23612386D01*
X14293529Y23682868D01*
X14112889Y23718800D01*
X13928711Y23718800D01*
X13748071Y23682868D01*
X13714108Y23668800D01*
X13000800Y23668800D01*
X13000800Y25689499D01*
X13020586Y25719111D01*
X13091068Y25889271D01*
X13100642Y25937400D01*
X13206108Y25937400D01*
X13240071Y25923332D01*
X13420711Y25887400D01*
X13604889Y25887400D01*
X13785529Y25923332D01*
X13955689Y25993814D01*
X14108828Y26096138D01*
X14239062Y26226372D01*
X14341386Y26379511D01*
X14411868Y26549671D01*
X14447800Y26730311D01*
X14447800Y26914489D01*
X14411868Y27095129D01*
X14341386Y27265289D01*
X14239062Y27418428D01*
X14108828Y27548662D01*
X13955689Y27650986D01*
X13785529Y27721468D01*
X13604889Y27757400D01*
X13420711Y27757400D01*
X13240071Y27721468D01*
X13206108Y27707400D01*
X13000800Y27707400D01*
X13000800Y30723022D01*
X13016988Y30739210D01*
X13844602Y29911596D01*
X13868400Y29882598D01*
X13984125Y29787625D01*
X14116154Y29717053D01*
X14259415Y29673596D01*
X14371068Y29662599D01*
X14371076Y29662599D01*
X14408401Y29658923D01*
X14445726Y29662599D01*
X21325447Y29662599D01*
X21254268Y29490758D01*
X21197200Y29203860D01*
X21197200Y28911340D01*
X21254268Y28624442D01*
X21366210Y28354189D01*
X21528725Y28110968D01*
X21735568Y27904125D01*
X21909960Y27787600D01*
X21735568Y27671075D01*
X21528725Y27464232D01*
X21366210Y27221011D01*
X21254268Y26950758D01*
X21197200Y26663860D01*
X21197200Y26371340D01*
X21254268Y26084442D01*
X21366210Y25814189D01*
X21528725Y25570968D01*
X21735568Y25364125D01*
X21909960Y25247600D01*
X21735568Y25131075D01*
X21528725Y24924232D01*
X21366210Y24681011D01*
X21254268Y24410758D01*
X21197200Y24123860D01*
X21197200Y23831340D01*
X21254268Y23544442D01*
X21366210Y23274189D01*
X21528725Y23030968D01*
X21735568Y22824125D01*
X21909960Y22707600D01*
X21735568Y22591075D01*
X21528725Y22384232D01*
X21366210Y22141011D01*
X21254268Y21870758D01*
X21197200Y21583860D01*
X21197200Y21291340D01*
X21254268Y21004442D01*
X21366210Y20734189D01*
X21528725Y20490968D01*
X21735568Y20284125D01*
X21978789Y20121610D01*
X22249042Y20009668D01*
X22535940Y19952600D01*
X22828460Y19952600D01*
X23115358Y20009668D01*
X23385611Y20121610D01*
X23628832Y20284125D01*
X23835675Y20490968D01*
X23998190Y20734189D01*
X24110132Y21004442D01*
X24167200Y21291340D01*
X24167200Y21583860D01*
X24110132Y21870758D01*
X23998190Y22141011D01*
X23835675Y22384232D01*
X23628832Y22591075D01*
X23454440Y22707600D01*
X23628832Y22824125D01*
X23835675Y23030968D01*
X23998190Y23274189D01*
X24110132Y23544442D01*
X24167200Y23831340D01*
X24167200Y24123860D01*
X24110132Y24410758D01*
X23998190Y24681011D01*
X23835675Y24924232D01*
X23628832Y25131075D01*
X23454440Y25247600D01*
X23628832Y25364125D01*
X23835675Y25570968D01*
X23998190Y25814189D01*
X24110132Y26084442D01*
X24167200Y26371340D01*
X24167200Y26663860D01*
X24110132Y26950758D01*
X23998190Y27221011D01*
X23835675Y27464232D01*
X23628832Y27671075D01*
X23454440Y27787600D01*
X23628832Y27904125D01*
X23835675Y28110968D01*
X23998190Y28354189D01*
X24110132Y28624442D01*
X24167200Y28911340D01*
X24167200Y29203860D01*
X24110132Y29490758D01*
X24036758Y29667900D01*
X24094585Y29673596D01*
X24237846Y29717053D01*
X24369875Y29787625D01*
X24485600Y29882598D01*
X24509403Y29911602D01*
X25721102Y31123300D01*
X25783239Y31123300D01*
X25983198Y31163074D01*
X26171556Y31241095D01*
X26341074Y31354363D01*
X26485237Y31498526D01*
X26598505Y31668044D01*
X26676526Y31856402D01*
X26716300Y32056361D01*
X26716300Y32260239D01*
X26676526Y32460198D01*
X26598505Y32648556D01*
X26485237Y32818074D01*
X26341074Y32962237D01*
X26171556Y33075505D01*
X25983198Y33153526D01*
X25783239Y33193300D01*
X25579361Y33193300D01*
X25379402Y33153526D01*
X25191044Y33075505D01*
X25021526Y32962237D01*
X24877363Y32818074D01*
X24764095Y32648556D01*
X24686074Y32460198D01*
X24646300Y32260239D01*
X24646300Y32198102D01*
X24167200Y31719001D01*
X24167200Y31743860D01*
X24110132Y32030758D01*
X23998190Y32301011D01*
X23835675Y32544232D01*
X23628832Y32751075D01*
X23454440Y32867600D01*
X23628832Y32984125D01*
X23835675Y33190968D01*
X23998190Y33434189D01*
X24110132Y33704442D01*
X24167200Y33991340D01*
X24167200Y34283860D01*
X24113744Y34552601D01*
X27024442Y34552601D01*
X28962400Y32614642D01*
X28962400Y32587861D01*
X29002174Y32387902D01*
X29080195Y32199544D01*
X29193463Y32030026D01*
X29337626Y31885863D01*
X29507144Y31772595D01*
X29695502Y31694574D01*
X29895461Y31654800D01*
X30099339Y31654800D01*
X30299298Y31694574D01*
X30487656Y31772595D01*
X30657174Y31885863D01*
X30801337Y32030026D01*
X30914605Y32199544D01*
X30978726Y32354344D01*
X31009398Y32351323D01*
X31046721Y32354999D01*
X31663247Y32354999D01*
X31592068Y32183158D01*
X31535000Y31896260D01*
X31535000Y31603740D01*
X31592068Y31316842D01*
X31704010Y31046589D01*
X31866525Y30803368D01*
X32073368Y30596525D01*
X32247760Y30480000D01*
X32073368Y30363475D01*
X31866525Y30156632D01*
X31704010Y29913411D01*
X31592068Y29643158D01*
X31535000Y29356260D01*
X31535000Y29063740D01*
X31592068Y28776842D01*
X31704010Y28506589D01*
X31866525Y28263368D01*
X32073368Y28056525D01*
X32247760Y27940000D01*
X32073368Y27823475D01*
X31866525Y27616632D01*
X31704010Y27373411D01*
X31592068Y27103158D01*
X31535000Y26816260D01*
X31535000Y26523740D01*
X31592068Y26236842D01*
X31704010Y25966589D01*
X31866525Y25723368D01*
X32073368Y25516525D01*
X32247760Y25400000D01*
X32073368Y25283475D01*
X31866525Y25076632D01*
X31825344Y25015000D01*
X30875214Y25015000D01*
X30844005Y25073387D01*
X30733562Y25207962D01*
X30598987Y25318405D01*
X30445452Y25400472D01*
X30278856Y25451008D01*
X30105602Y25468072D01*
X29580598Y25468072D01*
X29407344Y25451008D01*
X29240748Y25400472D01*
X29087213Y25318405D01*
X28952638Y25207962D01*
X28842195Y25073387D01*
X28760128Y24919852D01*
X28709592Y24753256D01*
X28692528Y24580002D01*
X28692528Y23679998D01*
X28709592Y23506744D01*
X28760128Y23340148D01*
X28842195Y23186613D01*
X28952638Y23052038D01*
X29087213Y22941595D01*
X29239865Y22860000D01*
X29087213Y22778405D01*
X28952638Y22667962D01*
X28842195Y22533387D01*
X28760128Y22379852D01*
X28709592Y22213256D01*
X28692528Y22040002D01*
X28692528Y21139998D01*
X28709592Y20966744D01*
X28760128Y20800148D01*
X28842195Y20646613D01*
X28952638Y20512038D01*
X29087213Y20401595D01*
X29239865Y20320000D01*
X29087213Y20238405D01*
X28952638Y20127962D01*
X28842195Y19993387D01*
X28760128Y19839852D01*
X28709592Y19673256D01*
X28692528Y19500002D01*
X28692528Y18599998D01*
X28709592Y18426744D01*
X28760128Y18260148D01*
X28842195Y18106613D01*
X28952638Y17972038D01*
X29087213Y17861595D01*
X29240748Y17779528D01*
X29407344Y17728992D01*
X29580598Y17711928D01*
X30105602Y17711928D01*
X30278856Y17728992D01*
X30445452Y17779528D01*
X30598987Y17861595D01*
X30733562Y17972038D01*
X30844005Y18106613D01*
X30875214Y18165000D01*
X31825344Y18165000D01*
X31866525Y18103368D01*
X32073368Y17896525D01*
X32247760Y17780000D01*
X32073368Y17663475D01*
X31866525Y17456632D01*
X31704010Y17213411D01*
X31592068Y16943158D01*
X31535000Y16656260D01*
X31535000Y16363740D01*
X31592068Y16076842D01*
X31704010Y15806589D01*
X31866525Y15563368D01*
X32073368Y15356525D01*
X32247760Y15240000D01*
X32073368Y15123475D01*
X31866525Y14916632D01*
X31704010Y14673411D01*
X31592068Y14403158D01*
X31535000Y14116260D01*
X31535000Y13823740D01*
X31592068Y13536842D01*
X31704010Y13266589D01*
X31866525Y13023368D01*
X32073368Y12816525D01*
X32247760Y12700000D01*
X32073368Y12583475D01*
X31866525Y12376632D01*
X31704010Y12133411D01*
X31592068Y11863158D01*
X31535000Y11576260D01*
X31535000Y11283740D01*
X31592068Y10996842D01*
X31704010Y10726589D01*
X31866525Y10483368D01*
X32073368Y10276525D01*
X32247760Y10160000D01*
X32073368Y10043475D01*
X31866525Y9836632D01*
X31704010Y9593411D01*
X31592068Y9323158D01*
X31535000Y9036260D01*
X31535000Y8743740D01*
X31592068Y8456842D01*
X31704010Y8186589D01*
X31866525Y7943368D01*
X32073368Y7736525D01*
X32247760Y7620000D01*
X32073368Y7503475D01*
X31866525Y7296632D01*
X31704010Y7053411D01*
X31592068Y6783158D01*
X31535000Y6496260D01*
X31535000Y6203740D01*
X31592068Y5916842D01*
X31704010Y5646589D01*
X31866525Y5403368D01*
X32073368Y5196525D01*
X32247760Y5080000D01*
X32073368Y4963475D01*
X31866525Y4756632D01*
X31704010Y4513411D01*
X31592068Y4243158D01*
X31535000Y3956260D01*
X31535000Y3663740D01*
X31592068Y3376842D01*
X31704010Y3106589D01*
X31866525Y2863368D01*
X32073368Y2656525D01*
X32316589Y2494010D01*
X32586842Y2382068D01*
X32873740Y2325000D01*
X33166260Y2325000D01*
X33453158Y2382068D01*
X33723411Y2494010D01*
X33966632Y2656525D01*
X34173475Y2863368D01*
X34335990Y3106589D01*
X34447932Y3376842D01*
X34505000Y3663740D01*
X34505000Y3956260D01*
X34447932Y4243158D01*
X34335990Y4513411D01*
X34173475Y4756632D01*
X33966632Y4963475D01*
X33792240Y5080000D01*
X33966632Y5196525D01*
X34173475Y5403368D01*
X34335990Y5646589D01*
X34447932Y5916842D01*
X34505000Y6203740D01*
X34505000Y6496260D01*
X34447932Y6783158D01*
X34335990Y7053411D01*
X34173475Y7296632D01*
X33966632Y7503475D01*
X33792240Y7620000D01*
X33966632Y7736525D01*
X34173475Y7943368D01*
X34335990Y8186589D01*
X34447932Y8456842D01*
X34492452Y8680660D01*
X38215200Y8680660D01*
X38215200Y8388140D01*
X38272268Y8101242D01*
X38384210Y7830989D01*
X38546725Y7587768D01*
X38753568Y7380925D01*
X38996789Y7218410D01*
X39267042Y7106468D01*
X39553940Y7049400D01*
X39846460Y7049400D01*
X40133358Y7106468D01*
X40403611Y7218410D01*
X40646832Y7380925D01*
X40853675Y7587768D01*
X41016190Y7830989D01*
X41128132Y8101242D01*
X41185200Y8388140D01*
X41185200Y8680660D01*
X41128132Y8967558D01*
X41016190Y9237811D01*
X40853675Y9481032D01*
X40646832Y9687875D01*
X40403611Y9850390D01*
X40133358Y9962332D01*
X39846460Y10019400D01*
X39553940Y10019400D01*
X39267042Y9962332D01*
X38996789Y9850390D01*
X38753568Y9687875D01*
X38546725Y9481032D01*
X38384210Y9237811D01*
X38272268Y8967558D01*
X38215200Y8680660D01*
X34492452Y8680660D01*
X34505000Y8743740D01*
X34505000Y9036260D01*
X34447932Y9323158D01*
X34335990Y9593411D01*
X34173475Y9836632D01*
X33966632Y10043475D01*
X33792240Y10160000D01*
X33966632Y10276525D01*
X34173475Y10483368D01*
X34335990Y10726589D01*
X34447932Y10996842D01*
X34505000Y11283740D01*
X34505000Y11576260D01*
X34447932Y11863158D01*
X34335990Y12133411D01*
X34173475Y12376632D01*
X33966632Y12583475D01*
X33792240Y12700000D01*
X33966632Y12816525D01*
X34173475Y13023368D01*
X34335990Y13266589D01*
X34447932Y13536842D01*
X34505000Y13823740D01*
X34505000Y14116260D01*
X34447932Y14403158D01*
X34422565Y14464400D01*
X38212128Y14464400D01*
X38212128Y12764400D01*
X38224388Y12639918D01*
X38260698Y12520220D01*
X38319663Y12409906D01*
X38399015Y12313215D01*
X38495706Y12233863D01*
X38606020Y12174898D01*
X38725718Y12138588D01*
X38850200Y12126328D01*
X40550200Y12126328D01*
X40674682Y12138588D01*
X40794380Y12174898D01*
X40904694Y12233863D01*
X41001385Y12313215D01*
X41080737Y12409906D01*
X41139702Y12520220D01*
X41176012Y12639918D01*
X41184825Y12729400D01*
X43796931Y12729400D01*
X43840400Y12725119D01*
X43883869Y12729400D01*
X43883877Y12729400D01*
X44013890Y12742205D01*
X44180713Y12792811D01*
X44334459Y12874989D01*
X44469217Y12985583D01*
X44496934Y13019356D01*
X47407250Y15929671D01*
X47441017Y15957383D01*
X47498839Y16027838D01*
X47551611Y16092141D01*
X47597979Y16178890D01*
X47633789Y16245887D01*
X47684395Y16412710D01*
X47697200Y16542723D01*
X47697200Y16542731D01*
X47701481Y16586200D01*
X47697200Y16629669D01*
X47697200Y17813879D01*
X47726959Y17833763D01*
X47926837Y18033641D01*
X48083880Y18268673D01*
X48192053Y18529826D01*
X48247200Y18807065D01*
X48247200Y19089735D01*
X48192053Y19366974D01*
X48083880Y19628127D01*
X47926837Y19863159D01*
X47726959Y20063037D01*
X47697200Y20082921D01*
X47697200Y20353879D01*
X47726959Y20373763D01*
X47926837Y20573641D01*
X48083880Y20808673D01*
X48192053Y21069826D01*
X48247200Y21347065D01*
X48247200Y21629735D01*
X48192053Y21906974D01*
X48083880Y22168127D01*
X47926837Y22403159D01*
X47726959Y22603037D01*
X47697200Y22622921D01*
X47697200Y22893879D01*
X47726959Y22913763D01*
X47926837Y23113641D01*
X48083880Y23348673D01*
X48192053Y23609826D01*
X48247200Y23887065D01*
X48247200Y24169735D01*
X48192053Y24446974D01*
X48083880Y24708127D01*
X47926837Y24943159D01*
X47726959Y25143037D01*
X47491927Y25300080D01*
X47230774Y25408253D01*
X46953535Y25463400D01*
X46670865Y25463400D01*
X46393626Y25408253D01*
X46132473Y25300080D01*
X45897441Y25143037D01*
X45697563Y24943159D01*
X45540520Y24708127D01*
X45432347Y24446974D01*
X45377200Y24169735D01*
X45377200Y23887065D01*
X45432347Y23609826D01*
X45540520Y23348673D01*
X45697563Y23113641D01*
X45897441Y22913763D01*
X45927200Y22893878D01*
X45927201Y22622922D01*
X45897441Y22603037D01*
X45697563Y22403159D01*
X45540520Y22168127D01*
X45432347Y21906974D01*
X45377200Y21629735D01*
X45377200Y21347065D01*
X45432347Y21069826D01*
X45540520Y20808673D01*
X45697563Y20573641D01*
X45897441Y20373763D01*
X45927200Y20353878D01*
X45927201Y20082922D01*
X45897441Y20063037D01*
X45697563Y19863159D01*
X45540520Y19628127D01*
X45432347Y19366974D01*
X45377200Y19089735D01*
X45377200Y18807065D01*
X45432347Y18529826D01*
X45540520Y18268673D01*
X45697563Y18033641D01*
X45897441Y17833763D01*
X45927201Y17813878D01*
X45927200Y16952779D01*
X43473822Y14499400D01*
X41184825Y14499400D01*
X41176012Y14588882D01*
X41139702Y14708580D01*
X41080737Y14818894D01*
X41001385Y14915585D01*
X40904694Y14994937D01*
X40794380Y15053902D01*
X40674682Y15090212D01*
X40550200Y15102472D01*
X38850200Y15102472D01*
X38725718Y15090212D01*
X38606020Y15053902D01*
X38495706Y14994937D01*
X38399015Y14915585D01*
X38319663Y14818894D01*
X38260698Y14708580D01*
X38224388Y14588882D01*
X38212128Y14464400D01*
X34422565Y14464400D01*
X34335990Y14673411D01*
X34173475Y14916632D01*
X33966632Y15123475D01*
X33792240Y15240000D01*
X33966632Y15356525D01*
X34173475Y15563368D01*
X34335990Y15806589D01*
X34447932Y16076842D01*
X34496600Y16321509D01*
X34522883Y16289483D01*
X34556651Y16261770D01*
X34556653Y16261768D01*
X34613640Y16215000D01*
X34657641Y16178889D01*
X34811387Y16096711D01*
X34978210Y16046105D01*
X35108223Y16033300D01*
X35108233Y16033300D01*
X35151699Y16029019D01*
X35195166Y16033300D01*
X35493555Y16033300D01*
X35498038Y16027838D01*
X35632613Y15917395D01*
X35786148Y15835328D01*
X35952744Y15784792D01*
X36125998Y15767728D01*
X37026002Y15767728D01*
X37199256Y15784792D01*
X37365852Y15835328D01*
X37519387Y15917395D01*
X37653962Y16027838D01*
X37764405Y16162413D01*
X37846472Y16315948D01*
X37897008Y16482544D01*
X37914072Y16655798D01*
X37914072Y17180802D01*
X37897008Y17354056D01*
X37846472Y17520652D01*
X37764405Y17674187D01*
X37653962Y17808762D01*
X37627109Y17830800D01*
X37653962Y17852838D01*
X37658445Y17858300D01*
X38252904Y17858300D01*
X38277441Y17833763D01*
X38512473Y17676720D01*
X38773626Y17568547D01*
X39050865Y17513400D01*
X39333535Y17513400D01*
X39610774Y17568547D01*
X39871927Y17676720D01*
X40106959Y17833763D01*
X40306837Y18033641D01*
X40463880Y18268673D01*
X40572053Y18529826D01*
X40627200Y18807065D01*
X40627200Y19089735D01*
X40572053Y19366974D01*
X40463880Y19628127D01*
X40306837Y19863159D01*
X40106959Y20063037D01*
X39874441Y20218400D01*
X40106959Y20373763D01*
X40306837Y20573641D01*
X40463880Y20808673D01*
X40572053Y21069826D01*
X40627200Y21347065D01*
X40627200Y21629735D01*
X40572053Y21906974D01*
X40463880Y22168127D01*
X40306837Y22403159D01*
X40108239Y22601757D01*
X40116682Y22602588D01*
X40236380Y22638898D01*
X40346694Y22697863D01*
X40443385Y22777215D01*
X40522737Y22873906D01*
X40581702Y22984220D01*
X40618012Y23103918D01*
X40630272Y23228400D01*
X40630272Y24828400D01*
X40618012Y24952882D01*
X40581702Y25072580D01*
X40522737Y25182894D01*
X40443385Y25279585D01*
X40346694Y25358937D01*
X40236380Y25417902D01*
X40116682Y25454212D01*
X39992200Y25466472D01*
X39005707Y25466472D01*
X37971034Y26501144D01*
X37943317Y26534917D01*
X37808559Y26645511D01*
X37663492Y26723050D01*
X37603162Y26796562D01*
X37468587Y26907005D01*
X37315052Y26989072D01*
X37148456Y27039608D01*
X36975202Y27056672D01*
X36075198Y27056672D01*
X35901944Y27039608D01*
X35735348Y26989072D01*
X35581813Y26907005D01*
X35447238Y26796562D01*
X35336795Y26661987D01*
X35254728Y26508452D01*
X35204192Y26341856D01*
X35187128Y26168602D01*
X35187128Y25643598D01*
X35204192Y25470344D01*
X35254728Y25303748D01*
X35336795Y25150213D01*
X35447238Y25015638D01*
X35474091Y24993600D01*
X35447238Y24971562D01*
X35442755Y24966100D01*
X34247330Y24966100D01*
X34173475Y25076632D01*
X33966632Y25283475D01*
X33792240Y25400000D01*
X33966632Y25516525D01*
X34173475Y25723368D01*
X34335990Y25966589D01*
X34447932Y26236842D01*
X34505000Y26523740D01*
X34505000Y26816260D01*
X34447932Y27103158D01*
X34335990Y27373411D01*
X34173475Y27616632D01*
X33966632Y27823475D01*
X33792240Y27940000D01*
X33966632Y28056525D01*
X34173475Y28263368D01*
X34335990Y28506589D01*
X34447932Y28776842D01*
X34505000Y29063740D01*
X34505000Y29356260D01*
X34447932Y29643158D01*
X34335990Y29913411D01*
X34173475Y30156632D01*
X33966632Y30363475D01*
X33792240Y30480000D01*
X33966632Y30596525D01*
X34173475Y30803368D01*
X34335990Y31046589D01*
X34384850Y31164548D01*
X35573600Y29975798D01*
X35573600Y29724140D01*
X35630668Y29437242D01*
X35742610Y29166989D01*
X35905125Y28923768D01*
X36111968Y28716925D01*
X36355189Y28554410D01*
X36625442Y28442468D01*
X36912340Y28385400D01*
X37204860Y28385400D01*
X37491758Y28442468D01*
X37762011Y28554410D01*
X38005232Y28716925D01*
X38212075Y28923768D01*
X38374590Y29166989D01*
X38486532Y29437242D01*
X38543600Y29724140D01*
X38543600Y30016660D01*
X38486532Y30303558D01*
X38374590Y30573811D01*
X38212075Y30817032D01*
X38005232Y31023875D01*
X37830840Y31140400D01*
X38005232Y31256925D01*
X38212075Y31463768D01*
X38374590Y31706989D01*
X38486532Y31977242D01*
X38543600Y32264140D01*
X38543600Y32556660D01*
X38499810Y32776808D01*
X38744604Y33021602D01*
X38773602Y33045400D01*
X38868575Y33161125D01*
X38939147Y33293154D01*
X38982604Y33436415D01*
X38993601Y33548068D01*
X38993601Y33548077D01*
X38997277Y33585400D01*
X38993601Y33622723D01*
X38993601Y38563079D01*
X38997277Y38600402D01*
X38993601Y38637725D01*
X38993601Y38637734D01*
X38982604Y38749387D01*
X38939147Y38892648D01*
X38868575Y39024677D01*
X38833017Y39068005D01*
X38797400Y39111405D01*
X38797396Y39111409D01*
X38773602Y39140402D01*
X38744610Y39164195D01*
X37429095Y40479708D01*
X37440958Y40482068D01*
X37711211Y40594010D01*
X37954432Y40756525D01*
X38161275Y40963368D01*
X38323790Y41206589D01*
X38435732Y41476842D01*
X38492800Y41763740D01*
X38492800Y42056260D01*
X38435732Y42343158D01*
X38323790Y42613411D01*
X38161275Y42856632D01*
X37954432Y43063475D01*
X37780040Y43180000D01*
X37954432Y43296525D01*
X38161275Y43503368D01*
X38323790Y43746589D01*
X38435732Y44016842D01*
X38492800Y44303740D01*
X38492800Y44596260D01*
X38435732Y44883158D01*
X38323790Y45153411D01*
X38161275Y45396632D01*
X37954432Y45603475D01*
X37780040Y45720000D01*
X37954432Y45836525D01*
X38161275Y46043368D01*
X38323790Y46286589D01*
X38435732Y46556842D01*
X38492800Y46843740D01*
X38492800Y47136260D01*
X38435732Y47423158D01*
X38323790Y47693411D01*
X38161275Y47936632D01*
X38029420Y48068487D01*
X38101980Y48090498D01*
X38212294Y48149463D01*
X38308985Y48228815D01*
X38388337Y48325506D01*
X38447302Y48435820D01*
X38483612Y48555518D01*
X38495872Y48680000D01*
X38495872Y50380000D01*
X38483612Y50504482D01*
X38447302Y50624180D01*
X38388337Y50734494D01*
X38308985Y50831185D01*
X38212294Y50910537D01*
X38101980Y50969502D01*
X37982282Y51005812D01*
X37857800Y51018072D01*
X36157800Y51018072D01*
X36033318Y51005812D01*
X35913620Y50969502D01*
X35803306Y50910537D01*
X35706615Y50831185D01*
X35627263Y50734494D01*
X35568298Y50624180D01*
X35531988Y50504482D01*
X35519728Y50380000D01*
X35519728Y48680000D01*
X35531988Y48555518D01*
X35568298Y48435820D01*
X35627263Y48325506D01*
X35706615Y48228815D01*
X35803306Y48149463D01*
X35913620Y48090498D01*
X35986180Y48068487D01*
X35854325Y47936632D01*
X35691810Y47693411D01*
X35579868Y47423158D01*
X35550133Y47273671D01*
X34147805Y48675998D01*
X34124002Y48705002D01*
X34008277Y48799975D01*
X33876248Y48870547D01*
X33732987Y48914004D01*
X33621334Y48925001D01*
X33621323Y48925001D01*
X33584001Y48928677D01*
X33546679Y48925001D01*
X29700524Y48925001D01*
X29663199Y48928677D01*
X29625874Y48925001D01*
X29625866Y48925001D01*
X29514213Y48914004D01*
X29370952Y48870547D01*
X29238923Y48799975D01*
X29123198Y48705002D01*
X29099400Y48676004D01*
X27337397Y46914000D01*
X27308399Y46890202D01*
X27284601Y46861204D01*
X27284600Y46861203D01*
X27213425Y46774477D01*
X27142853Y46642447D01*
X27134224Y46613999D01*
X27099397Y46499187D01*
X27088400Y46387534D01*
X27084723Y46350201D01*
X27088400Y46312869D01*
X27088399Y45315524D01*
X27084723Y45278201D01*
X27088399Y45240879D01*
X27088399Y45240869D01*
X27099396Y45129216D01*
X27138229Y45001198D01*
X27142853Y44985955D01*
X27213425Y44853925D01*
X27253270Y44805375D01*
X27308398Y44738200D01*
X27337401Y44714398D01*
X27550247Y44501551D01*
X27574332Y44380471D01*
X27644814Y44210311D01*
X27747138Y44057172D01*
X27877372Y43926938D01*
X28030511Y43824614D01*
X28200671Y43754132D01*
X28381311Y43718200D01*
X28565489Y43718200D01*
X28746129Y43754132D01*
X28916289Y43824614D01*
X29069428Y43926938D01*
X29199662Y44057172D01*
X29301986Y44210311D01*
X29372468Y44380471D01*
X29408400Y44561111D01*
X29408400Y44745289D01*
X29372468Y44925929D01*
X29345846Y44990201D01*
X31636406Y44990201D01*
X31592068Y44883158D01*
X31535000Y44596260D01*
X31535000Y44303740D01*
X31592068Y44016842D01*
X31704010Y43746589D01*
X31866525Y43503368D01*
X32073368Y43296525D01*
X32247760Y43180000D01*
X32073368Y43063475D01*
X31866525Y42856632D01*
X31704010Y42613411D01*
X31592068Y42343158D01*
X31535000Y42056260D01*
X31535000Y41763740D01*
X31592068Y41476842D01*
X31655460Y41323800D01*
X28149676Y41323800D01*
X28153268Y41332471D01*
X28189200Y41513111D01*
X28189200Y41530228D01*
X28332089Y41589414D01*
X28485228Y41691738D01*
X28615462Y41821972D01*
X28717786Y41975111D01*
X28788268Y42145271D01*
X28824200Y42325911D01*
X28824200Y42510089D01*
X28788268Y42690729D01*
X28717786Y42860889D01*
X28615462Y43014028D01*
X28485228Y43144262D01*
X28332089Y43246586D01*
X28161929Y43317068D01*
X27981289Y43353000D01*
X27797111Y43353000D01*
X27616471Y43317068D01*
X27582508Y43303000D01*
X12558579Y43303000D01*
X12436535Y43425044D01*
X12425226Y43481898D01*
X12347205Y43670256D01*
X12315000Y43718454D01*
X12315000Y46476946D01*
X12347205Y46525144D01*
X12425226Y46713502D01*
X12465000Y46913461D01*
X12465000Y47117339D01*
X12425226Y47317298D01*
X12347205Y47505656D01*
X12233937Y47675174D01*
X12089774Y47819337D01*
X11920256Y47932605D01*
X11731898Y48010626D01*
X11531939Y48050400D01*
X11328061Y48050400D01*
X11128102Y48010626D01*
X10939744Y47932605D01*
X10770226Y47819337D01*
X10626063Y47675174D01*
X10512795Y47505656D01*
X10434774Y47317298D01*
X10395000Y47117339D01*
X10395000Y46913461D01*
X10434774Y46713502D01*
X10512795Y46525144D01*
X10545001Y46476944D01*
X10545000Y43718455D01*
X10512795Y43670256D01*
X10434774Y43481898D01*
X10395000Y43281939D01*
X10395000Y43078061D01*
X10434774Y42878102D01*
X10512795Y42689744D01*
X10570401Y42603531D01*
X10570400Y40162455D01*
X10538195Y40114256D01*
X10460174Y39925898D01*
X10420400Y39725939D01*
X10420400Y39522061D01*
X10460174Y39322102D01*
X10538195Y39133744D01*
X10595801Y39047531D01*
X10595801Y38677280D01*
X10506737Y38810574D01*
X10362574Y38954737D01*
X10193056Y39068005D01*
X10004698Y39146026D01*
X9804739Y39185800D01*
X9600861Y39185800D01*
X9400902Y39146026D01*
X9212544Y39068005D01*
X9052789Y38961261D01*
X9105000Y39223740D01*
X9105000Y39516260D01*
X9047932Y39803158D01*
X8935990Y40073411D01*
X8773475Y40316632D01*
X8566632Y40523475D01*
X8392240Y40640000D01*
X8566632Y40756525D01*
X8773475Y40963368D01*
X8935990Y41206589D01*
X9047932Y41476842D01*
X9105000Y41763740D01*
X9105000Y42056260D01*
X9047932Y42343158D01*
X8935990Y42613411D01*
X8773475Y42856632D01*
X8566632Y43063475D01*
X8392240Y43180000D01*
X8566632Y43296525D01*
X8773475Y43503368D01*
X8935990Y43746589D01*
X9047932Y44016842D01*
X9105000Y44303740D01*
X9105000Y44596260D01*
X9047932Y44883158D01*
X8935990Y45153411D01*
X8773475Y45396632D01*
X8566632Y45603475D01*
X8392240Y45720000D01*
X8566632Y45836525D01*
X8773475Y46043368D01*
X8935990Y46286589D01*
X9047932Y46556842D01*
X9105000Y46843740D01*
X9105000Y47136260D01*
X9047932Y47423158D01*
X8935990Y47693411D01*
X8773475Y47936632D01*
X8641620Y48068487D01*
X8714180Y48090498D01*
X8824494Y48149463D01*
X8921185Y48228815D01*
X9000537Y48325506D01*
X9059502Y48435820D01*
X9095812Y48555518D01*
X9108072Y48680000D01*
X9108072Y50380000D01*
X9095812Y50504482D01*
X9059502Y50624180D01*
X9000537Y50734494D01*
X8921185Y50831185D01*
X8824494Y50910537D01*
X8714180Y50969502D01*
X8594482Y51005812D01*
X8470000Y51018072D01*
X6770000Y51018072D01*
X6645518Y51005812D01*
X6525820Y50969502D01*
X6415506Y50910537D01*
X6318815Y50831185D01*
X6239463Y50734494D01*
X6180498Y50624180D01*
X6144188Y50504482D01*
X6131928Y50380000D01*
X6131928Y48680000D01*
X6144188Y48555518D01*
X6180498Y48435820D01*
X6239463Y48325506D01*
X6318815Y48228815D01*
X6415506Y48149463D01*
X6525820Y48090498D01*
X6598380Y48068487D01*
X6466525Y47936632D01*
X6304010Y47693411D01*
X6192068Y47423158D01*
X6135000Y47136260D01*
X6135000Y46843740D01*
X6192068Y46556842D01*
X6304010Y46286589D01*
X6466525Y46043368D01*
X6673368Y45836525D01*
X6847760Y45720000D01*
X6673368Y45603475D01*
X6466525Y45396632D01*
X6304010Y45153411D01*
X6192068Y44883158D01*
X6135000Y44596260D01*
X6135000Y44303740D01*
X6192068Y44016842D01*
X6304010Y43746589D01*
X6466525Y43503368D01*
X6673368Y43296525D01*
X6847760Y43180000D01*
X6673368Y43063475D01*
X6466525Y42856632D01*
X6304010Y42613411D01*
X6192068Y42343158D01*
X6135000Y42056260D01*
X6135000Y41763740D01*
X6192068Y41476842D01*
X6304010Y41206589D01*
X6466525Y40963368D01*
X6673368Y40756525D01*
X6847760Y40640000D01*
X6673368Y40523475D01*
X6466525Y40316632D01*
X6304010Y40073411D01*
X6192068Y39803158D01*
X6135000Y39516260D01*
X6135000Y39223740D01*
X6192068Y38936842D01*
X6304010Y38666589D01*
X6466525Y38423368D01*
X6673368Y38216525D01*
X6847760Y38100000D01*
X6673368Y37983475D01*
X6466525Y37776632D01*
X6304010Y37533411D01*
X6192068Y37263158D01*
X6135000Y36976260D01*
X6135000Y36683740D01*
X6192068Y36396842D01*
X6304010Y36126589D01*
X6466525Y35883368D01*
X6673368Y35676525D01*
X6847760Y35560000D01*
X6673368Y35443475D01*
X6466525Y35236632D01*
X6304010Y34993411D01*
X6192068Y34723158D01*
X6135000Y34436260D01*
X6135000Y34143740D01*
X6192068Y33856842D01*
X6304010Y33586589D01*
X6466525Y33343368D01*
X6673368Y33136525D01*
X6847760Y33020000D01*
X6673368Y32903475D01*
X6466525Y32696632D01*
X6454376Y32678450D01*
X6257524Y32875302D01*
X6243829Y32887168D01*
X6015390Y33058176D01*
X6000147Y33067972D01*
X5749695Y33204729D01*
X5733212Y33212257D01*
X5465847Y33311979D01*
X5448461Y33317084D01*
X5169626Y33377741D01*
X5151690Y33380319D01*
X4867060Y33400676D01*
X4858000Y33401000D01*
X2004530Y33401000D01*
X1733496Y33420385D01*
X1472407Y33477181D01*
X1222060Y33570556D01*
X987555Y33698605D01*
X773662Y33858724D01*
X685000Y33947386D01*
X685000Y51385000D01*
X48845000Y51385000D01*
X48845001Y685000D01*
%TA.AperFunction,Conductor*%
D23*
G36*
X48845001Y685000D02*
G01*
X685000Y685000D01*
X685000Y889000D01*
X8541000Y889000D01*
X8550060Y889324D01*
X8834690Y909681D01*
X8852626Y912259D01*
X9131461Y972916D01*
X9148847Y978021D01*
X9416212Y1077743D01*
X9432695Y1085271D01*
X9683147Y1222028D01*
X9698390Y1231824D01*
X9926829Y1402832D01*
X9940524Y1414698D01*
X10142302Y1616476D01*
X10154168Y1630171D01*
X10325176Y1858610D01*
X10334972Y1873853D01*
X10471729Y2124305D01*
X10479257Y2140788D01*
X10578979Y2408153D01*
X10584084Y2425539D01*
X10644741Y2704374D01*
X10647319Y2722310D01*
X10667676Y3006940D01*
X10668000Y3016000D01*
X10668000Y4000500D01*
X10667676Y4009560D01*
X10648932Y4271633D01*
X10646354Y4289569D01*
X10590504Y4546307D01*
X10585399Y4563693D01*
X10493580Y4809869D01*
X10486052Y4826352D01*
X10360133Y5056955D01*
X10350337Y5072198D01*
X10257625Y5196047D01*
X12812449Y7750870D01*
X12846217Y7778583D01*
X12956811Y7913341D01*
X13038989Y8067087D01*
X13089595Y8233910D01*
X13102400Y8363923D01*
X13102400Y8363933D01*
X13106681Y8407399D01*
X13102400Y8450865D01*
X13102400Y20089508D01*
X13116468Y20123471D01*
X13152400Y20304111D01*
X13152400Y20488289D01*
X13116468Y20668929D01*
X13045986Y20839089D01*
X13000800Y20906715D01*
X13000800Y21898800D01*
X13714108Y21898800D01*
X13748071Y21884732D01*
X13928711Y21848800D01*
X14112889Y21848800D01*
X14293529Y21884732D01*
X14463689Y21955214D01*
X14616828Y22057538D01*
X14747062Y22187772D01*
X14849386Y22340911D01*
X14919868Y22511071D01*
X14955800Y22691711D01*
X14955800Y22875889D01*
X14919868Y23056529D01*
X14849386Y23226689D01*
X14747062Y23379828D01*
X14616828Y23510062D01*
X14463689Y23612386D01*
X14293529Y23682868D01*
X14112889Y23718800D01*
X13928711Y23718800D01*
X13748071Y23682868D01*
X13714108Y23668800D01*
X13000800Y23668800D01*
X13000800Y25689499D01*
X13020586Y25719111D01*
X13091068Y25889271D01*
X13100642Y25937400D01*
X13206108Y25937400D01*
X13240071Y25923332D01*
X13420711Y25887400D01*
X13604889Y25887400D01*
X13785529Y25923332D01*
X13955689Y25993814D01*
X14108828Y26096138D01*
X14239062Y26226372D01*
X14341386Y26379511D01*
X14411868Y26549671D01*
X14447800Y26730311D01*
X14447800Y26914489D01*
X14411868Y27095129D01*
X14341386Y27265289D01*
X14239062Y27418428D01*
X14108828Y27548662D01*
X13955689Y27650986D01*
X13785529Y27721468D01*
X13604889Y27757400D01*
X13420711Y27757400D01*
X13240071Y27721468D01*
X13206108Y27707400D01*
X13000800Y27707400D01*
X13000800Y30723022D01*
X13016988Y30739210D01*
X13844602Y29911596D01*
X13868400Y29882598D01*
X13984125Y29787625D01*
X14116154Y29717053D01*
X14259415Y29673596D01*
X14371068Y29662599D01*
X14371076Y29662599D01*
X14408401Y29658923D01*
X14445726Y29662599D01*
X21325447Y29662599D01*
X21254268Y29490758D01*
X21197200Y29203860D01*
X21197200Y28911340D01*
X21254268Y28624442D01*
X21366210Y28354189D01*
X21528725Y28110968D01*
X21735568Y27904125D01*
X21909960Y27787600D01*
X21735568Y27671075D01*
X21528725Y27464232D01*
X21366210Y27221011D01*
X21254268Y26950758D01*
X21197200Y26663860D01*
X21197200Y26371340D01*
X21254268Y26084442D01*
X21366210Y25814189D01*
X21528725Y25570968D01*
X21735568Y25364125D01*
X21909960Y25247600D01*
X21735568Y25131075D01*
X21528725Y24924232D01*
X21366210Y24681011D01*
X21254268Y24410758D01*
X21197200Y24123860D01*
X21197200Y23831340D01*
X21254268Y23544442D01*
X21366210Y23274189D01*
X21528725Y23030968D01*
X21735568Y22824125D01*
X21909960Y22707600D01*
X21735568Y22591075D01*
X21528725Y22384232D01*
X21366210Y22141011D01*
X21254268Y21870758D01*
X21197200Y21583860D01*
X21197200Y21291340D01*
X21254268Y21004442D01*
X21366210Y20734189D01*
X21528725Y20490968D01*
X21735568Y20284125D01*
X21978789Y20121610D01*
X22249042Y20009668D01*
X22535940Y19952600D01*
X22828460Y19952600D01*
X23115358Y20009668D01*
X23385611Y20121610D01*
X23628832Y20284125D01*
X23835675Y20490968D01*
X23998190Y20734189D01*
X24110132Y21004442D01*
X24167200Y21291340D01*
X24167200Y21583860D01*
X24110132Y21870758D01*
X23998190Y22141011D01*
X23835675Y22384232D01*
X23628832Y22591075D01*
X23454440Y22707600D01*
X23628832Y22824125D01*
X23835675Y23030968D01*
X23998190Y23274189D01*
X24110132Y23544442D01*
X24167200Y23831340D01*
X24167200Y24123860D01*
X24110132Y24410758D01*
X23998190Y24681011D01*
X23835675Y24924232D01*
X23628832Y25131075D01*
X23454440Y25247600D01*
X23628832Y25364125D01*
X23835675Y25570968D01*
X23998190Y25814189D01*
X24110132Y26084442D01*
X24167200Y26371340D01*
X24167200Y26663860D01*
X24110132Y26950758D01*
X23998190Y27221011D01*
X23835675Y27464232D01*
X23628832Y27671075D01*
X23454440Y27787600D01*
X23628832Y27904125D01*
X23835675Y28110968D01*
X23998190Y28354189D01*
X24110132Y28624442D01*
X24167200Y28911340D01*
X24167200Y29203860D01*
X24110132Y29490758D01*
X24036758Y29667900D01*
X24094585Y29673596D01*
X24237846Y29717053D01*
X24369875Y29787625D01*
X24485600Y29882598D01*
X24509403Y29911602D01*
X25721102Y31123300D01*
X25783239Y31123300D01*
X25983198Y31163074D01*
X26171556Y31241095D01*
X26341074Y31354363D01*
X26485237Y31498526D01*
X26598505Y31668044D01*
X26676526Y31856402D01*
X26716300Y32056361D01*
X26716300Y32260239D01*
X26676526Y32460198D01*
X26598505Y32648556D01*
X26485237Y32818074D01*
X26341074Y32962237D01*
X26171556Y33075505D01*
X25983198Y33153526D01*
X25783239Y33193300D01*
X25579361Y33193300D01*
X25379402Y33153526D01*
X25191044Y33075505D01*
X25021526Y32962237D01*
X24877363Y32818074D01*
X24764095Y32648556D01*
X24686074Y32460198D01*
X24646300Y32260239D01*
X24646300Y32198102D01*
X24167200Y31719001D01*
X24167200Y31743860D01*
X24110132Y32030758D01*
X23998190Y32301011D01*
X23835675Y32544232D01*
X23628832Y32751075D01*
X23454440Y32867600D01*
X23628832Y32984125D01*
X23835675Y33190968D01*
X23998190Y33434189D01*
X24110132Y33704442D01*
X24167200Y33991340D01*
X24167200Y34283860D01*
X24113744Y34552601D01*
X27024442Y34552601D01*
X28962400Y32614642D01*
X28962400Y32587861D01*
X29002174Y32387902D01*
X29080195Y32199544D01*
X29193463Y32030026D01*
X29337626Y31885863D01*
X29507144Y31772595D01*
X29695502Y31694574D01*
X29895461Y31654800D01*
X30099339Y31654800D01*
X30299298Y31694574D01*
X30487656Y31772595D01*
X30657174Y31885863D01*
X30801337Y32030026D01*
X30914605Y32199544D01*
X30978726Y32354344D01*
X31009398Y32351323D01*
X31046721Y32354999D01*
X31663247Y32354999D01*
X31592068Y32183158D01*
X31535000Y31896260D01*
X31535000Y31603740D01*
X31592068Y31316842D01*
X31704010Y31046589D01*
X31866525Y30803368D01*
X32073368Y30596525D01*
X32247760Y30480000D01*
X32073368Y30363475D01*
X31866525Y30156632D01*
X31704010Y29913411D01*
X31592068Y29643158D01*
X31535000Y29356260D01*
X31535000Y29063740D01*
X31592068Y28776842D01*
X31704010Y28506589D01*
X31866525Y28263368D01*
X32073368Y28056525D01*
X32247760Y27940000D01*
X32073368Y27823475D01*
X31866525Y27616632D01*
X31704010Y27373411D01*
X31592068Y27103158D01*
X31535000Y26816260D01*
X31535000Y26523740D01*
X31592068Y26236842D01*
X31704010Y25966589D01*
X31866525Y25723368D01*
X32073368Y25516525D01*
X32247760Y25400000D01*
X32073368Y25283475D01*
X31866525Y25076632D01*
X31825344Y25015000D01*
X30875214Y25015000D01*
X30844005Y25073387D01*
X30733562Y25207962D01*
X30598987Y25318405D01*
X30445452Y25400472D01*
X30278856Y25451008D01*
X30105602Y25468072D01*
X29580598Y25468072D01*
X29407344Y25451008D01*
X29240748Y25400472D01*
X29087213Y25318405D01*
X28952638Y25207962D01*
X28842195Y25073387D01*
X28760128Y24919852D01*
X28709592Y24753256D01*
X28692528Y24580002D01*
X28692528Y23679998D01*
X28709592Y23506744D01*
X28760128Y23340148D01*
X28842195Y23186613D01*
X28952638Y23052038D01*
X29087213Y22941595D01*
X29239865Y22860000D01*
X29087213Y22778405D01*
X28952638Y22667962D01*
X28842195Y22533387D01*
X28760128Y22379852D01*
X28709592Y22213256D01*
X28692528Y22040002D01*
X28692528Y21139998D01*
X28709592Y20966744D01*
X28760128Y20800148D01*
X28842195Y20646613D01*
X28952638Y20512038D01*
X29087213Y20401595D01*
X29239865Y20320000D01*
X29087213Y20238405D01*
X28952638Y20127962D01*
X28842195Y19993387D01*
X28760128Y19839852D01*
X28709592Y19673256D01*
X28692528Y19500002D01*
X28692528Y18599998D01*
X28709592Y18426744D01*
X28760128Y18260148D01*
X28842195Y18106613D01*
X28952638Y17972038D01*
X29087213Y17861595D01*
X29240748Y17779528D01*
X29407344Y17728992D01*
X29580598Y17711928D01*
X30105602Y17711928D01*
X30278856Y17728992D01*
X30445452Y17779528D01*
X30598987Y17861595D01*
X30733562Y17972038D01*
X30844005Y18106613D01*
X30875214Y18165000D01*
X31825344Y18165000D01*
X31866525Y18103368D01*
X32073368Y17896525D01*
X32247760Y17780000D01*
X32073368Y17663475D01*
X31866525Y17456632D01*
X31704010Y17213411D01*
X31592068Y16943158D01*
X31535000Y16656260D01*
X31535000Y16363740D01*
X31592068Y16076842D01*
X31704010Y15806589D01*
X31866525Y15563368D01*
X32073368Y15356525D01*
X32247760Y15240000D01*
X32073368Y15123475D01*
X31866525Y14916632D01*
X31704010Y14673411D01*
X31592068Y14403158D01*
X31535000Y14116260D01*
X31535000Y13823740D01*
X31592068Y13536842D01*
X31704010Y13266589D01*
X31866525Y13023368D01*
X32073368Y12816525D01*
X32247760Y12700000D01*
X32073368Y12583475D01*
X31866525Y12376632D01*
X31704010Y12133411D01*
X31592068Y11863158D01*
X31535000Y11576260D01*
X31535000Y11283740D01*
X31592068Y10996842D01*
X31704010Y10726589D01*
X31866525Y10483368D01*
X32073368Y10276525D01*
X32247760Y10160000D01*
X32073368Y10043475D01*
X31866525Y9836632D01*
X31704010Y9593411D01*
X31592068Y9323158D01*
X31535000Y9036260D01*
X31535000Y8743740D01*
X31592068Y8456842D01*
X31704010Y8186589D01*
X31866525Y7943368D01*
X32073368Y7736525D01*
X32247760Y7620000D01*
X32073368Y7503475D01*
X31866525Y7296632D01*
X31704010Y7053411D01*
X31592068Y6783158D01*
X31535000Y6496260D01*
X31535000Y6203740D01*
X31592068Y5916842D01*
X31704010Y5646589D01*
X31866525Y5403368D01*
X32073368Y5196525D01*
X32247760Y5080000D01*
X32073368Y4963475D01*
X31866525Y4756632D01*
X31704010Y4513411D01*
X31592068Y4243158D01*
X31535000Y3956260D01*
X31535000Y3663740D01*
X31592068Y3376842D01*
X31704010Y3106589D01*
X31866525Y2863368D01*
X32073368Y2656525D01*
X32316589Y2494010D01*
X32586842Y2382068D01*
X32873740Y2325000D01*
X33166260Y2325000D01*
X33453158Y2382068D01*
X33723411Y2494010D01*
X33966632Y2656525D01*
X34173475Y2863368D01*
X34335990Y3106589D01*
X34447932Y3376842D01*
X34505000Y3663740D01*
X34505000Y3956260D01*
X34447932Y4243158D01*
X34335990Y4513411D01*
X34173475Y4756632D01*
X33966632Y4963475D01*
X33792240Y5080000D01*
X33966632Y5196525D01*
X34173475Y5403368D01*
X34335990Y5646589D01*
X34447932Y5916842D01*
X34505000Y6203740D01*
X34505000Y6496260D01*
X34447932Y6783158D01*
X34335990Y7053411D01*
X34173475Y7296632D01*
X33966632Y7503475D01*
X33792240Y7620000D01*
X33966632Y7736525D01*
X34173475Y7943368D01*
X34335990Y8186589D01*
X34447932Y8456842D01*
X34492452Y8680660D01*
X38215200Y8680660D01*
X38215200Y8388140D01*
X38272268Y8101242D01*
X38384210Y7830989D01*
X38546725Y7587768D01*
X38753568Y7380925D01*
X38996789Y7218410D01*
X39267042Y7106468D01*
X39553940Y7049400D01*
X39846460Y7049400D01*
X40133358Y7106468D01*
X40403611Y7218410D01*
X40646832Y7380925D01*
X40853675Y7587768D01*
X41016190Y7830989D01*
X41128132Y8101242D01*
X41185200Y8388140D01*
X41185200Y8680660D01*
X41128132Y8967558D01*
X41016190Y9237811D01*
X40853675Y9481032D01*
X40646832Y9687875D01*
X40403611Y9850390D01*
X40133358Y9962332D01*
X39846460Y10019400D01*
X39553940Y10019400D01*
X39267042Y9962332D01*
X38996789Y9850390D01*
X38753568Y9687875D01*
X38546725Y9481032D01*
X38384210Y9237811D01*
X38272268Y8967558D01*
X38215200Y8680660D01*
X34492452Y8680660D01*
X34505000Y8743740D01*
X34505000Y9036260D01*
X34447932Y9323158D01*
X34335990Y9593411D01*
X34173475Y9836632D01*
X33966632Y10043475D01*
X33792240Y10160000D01*
X33966632Y10276525D01*
X34173475Y10483368D01*
X34335990Y10726589D01*
X34447932Y10996842D01*
X34505000Y11283740D01*
X34505000Y11576260D01*
X34447932Y11863158D01*
X34335990Y12133411D01*
X34173475Y12376632D01*
X33966632Y12583475D01*
X33792240Y12700000D01*
X33966632Y12816525D01*
X34173475Y13023368D01*
X34335990Y13266589D01*
X34447932Y13536842D01*
X34505000Y13823740D01*
X34505000Y14116260D01*
X34447932Y14403158D01*
X34422565Y14464400D01*
X38212128Y14464400D01*
X38212128Y12764400D01*
X38224388Y12639918D01*
X38260698Y12520220D01*
X38319663Y12409906D01*
X38399015Y12313215D01*
X38495706Y12233863D01*
X38606020Y12174898D01*
X38725718Y12138588D01*
X38850200Y12126328D01*
X40550200Y12126328D01*
X40674682Y12138588D01*
X40794380Y12174898D01*
X40904694Y12233863D01*
X41001385Y12313215D01*
X41080737Y12409906D01*
X41139702Y12520220D01*
X41176012Y12639918D01*
X41184825Y12729400D01*
X43796931Y12729400D01*
X43840400Y12725119D01*
X43883869Y12729400D01*
X43883877Y12729400D01*
X44013890Y12742205D01*
X44180713Y12792811D01*
X44334459Y12874989D01*
X44469217Y12985583D01*
X44496934Y13019356D01*
X47407250Y15929671D01*
X47441017Y15957383D01*
X47498839Y16027838D01*
X47551611Y16092141D01*
X47597979Y16178890D01*
X47633789Y16245887D01*
X47684395Y16412710D01*
X47697200Y16542723D01*
X47697200Y16542731D01*
X47701481Y16586200D01*
X47697200Y16629669D01*
X47697200Y17813879D01*
X47726959Y17833763D01*
X47926837Y18033641D01*
X48083880Y18268673D01*
X48192053Y18529826D01*
X48247200Y18807065D01*
X48247200Y19089735D01*
X48192053Y19366974D01*
X48083880Y19628127D01*
X47926837Y19863159D01*
X47726959Y20063037D01*
X47697200Y20082921D01*
X47697200Y20353879D01*
X47726959Y20373763D01*
X47926837Y20573641D01*
X48083880Y20808673D01*
X48192053Y21069826D01*
X48247200Y21347065D01*
X48247200Y21629735D01*
X48192053Y21906974D01*
X48083880Y22168127D01*
X47926837Y22403159D01*
X47726959Y22603037D01*
X47697200Y22622921D01*
X47697200Y22893879D01*
X47726959Y22913763D01*
X47926837Y23113641D01*
X48083880Y23348673D01*
X48192053Y23609826D01*
X48247200Y23887065D01*
X48247200Y24169735D01*
X48192053Y24446974D01*
X48083880Y24708127D01*
X47926837Y24943159D01*
X47726959Y25143037D01*
X47491927Y25300080D01*
X47230774Y25408253D01*
X46953535Y25463400D01*
X46670865Y25463400D01*
X46393626Y25408253D01*
X46132473Y25300080D01*
X45897441Y25143037D01*
X45697563Y24943159D01*
X45540520Y24708127D01*
X45432347Y24446974D01*
X45377200Y24169735D01*
X45377200Y23887065D01*
X45432347Y23609826D01*
X45540520Y23348673D01*
X45697563Y23113641D01*
X45897441Y22913763D01*
X45927200Y22893878D01*
X45927201Y22622922D01*
X45897441Y22603037D01*
X45697563Y22403159D01*
X45540520Y22168127D01*
X45432347Y21906974D01*
X45377200Y21629735D01*
X45377200Y21347065D01*
X45432347Y21069826D01*
X45540520Y20808673D01*
X45697563Y20573641D01*
X45897441Y20373763D01*
X45927200Y20353878D01*
X45927201Y20082922D01*
X45897441Y20063037D01*
X45697563Y19863159D01*
X45540520Y19628127D01*
X45432347Y19366974D01*
X45377200Y19089735D01*
X45377200Y18807065D01*
X45432347Y18529826D01*
X45540520Y18268673D01*
X45697563Y18033641D01*
X45897441Y17833763D01*
X45927201Y17813878D01*
X45927200Y16952779D01*
X43473822Y14499400D01*
X41184825Y14499400D01*
X41176012Y14588882D01*
X41139702Y14708580D01*
X41080737Y14818894D01*
X41001385Y14915585D01*
X40904694Y14994937D01*
X40794380Y15053902D01*
X40674682Y15090212D01*
X40550200Y15102472D01*
X38850200Y15102472D01*
X38725718Y15090212D01*
X38606020Y15053902D01*
X38495706Y14994937D01*
X38399015Y14915585D01*
X38319663Y14818894D01*
X38260698Y14708580D01*
X38224388Y14588882D01*
X38212128Y14464400D01*
X34422565Y14464400D01*
X34335990Y14673411D01*
X34173475Y14916632D01*
X33966632Y15123475D01*
X33792240Y15240000D01*
X33966632Y15356525D01*
X34173475Y15563368D01*
X34335990Y15806589D01*
X34447932Y16076842D01*
X34496600Y16321509D01*
X34522883Y16289483D01*
X34556651Y16261770D01*
X34556653Y16261768D01*
X34613640Y16215000D01*
X34657641Y16178889D01*
X34811387Y16096711D01*
X34978210Y16046105D01*
X35108223Y16033300D01*
X35108233Y16033300D01*
X35151699Y16029019D01*
X35195166Y16033300D01*
X35493555Y16033300D01*
X35498038Y16027838D01*
X35632613Y15917395D01*
X35786148Y15835328D01*
X35952744Y15784792D01*
X36125998Y15767728D01*
X37026002Y15767728D01*
X37199256Y15784792D01*
X37365852Y15835328D01*
X37519387Y15917395D01*
X37653962Y16027838D01*
X37764405Y16162413D01*
X37846472Y16315948D01*
X37897008Y16482544D01*
X37914072Y16655798D01*
X37914072Y17180802D01*
X37897008Y17354056D01*
X37846472Y17520652D01*
X37764405Y17674187D01*
X37653962Y17808762D01*
X37627109Y17830800D01*
X37653962Y17852838D01*
X37658445Y17858300D01*
X38252904Y17858300D01*
X38277441Y17833763D01*
X38512473Y17676720D01*
X38773626Y17568547D01*
X39050865Y17513400D01*
X39333535Y17513400D01*
X39610774Y17568547D01*
X39871927Y17676720D01*
X40106959Y17833763D01*
X40306837Y18033641D01*
X40463880Y18268673D01*
X40572053Y18529826D01*
X40627200Y18807065D01*
X40627200Y19089735D01*
X40572053Y19366974D01*
X40463880Y19628127D01*
X40306837Y19863159D01*
X40106959Y20063037D01*
X39874441Y20218400D01*
X40106959Y20373763D01*
X40306837Y20573641D01*
X40463880Y20808673D01*
X40572053Y21069826D01*
X40627200Y21347065D01*
X40627200Y21629735D01*
X40572053Y21906974D01*
X40463880Y22168127D01*
X40306837Y22403159D01*
X40108239Y22601757D01*
X40116682Y22602588D01*
X40236380Y22638898D01*
X40346694Y22697863D01*
X40443385Y22777215D01*
X40522737Y22873906D01*
X40581702Y22984220D01*
X40618012Y23103918D01*
X40630272Y23228400D01*
X40630272Y24828400D01*
X40618012Y24952882D01*
X40581702Y25072580D01*
X40522737Y25182894D01*
X40443385Y25279585D01*
X40346694Y25358937D01*
X40236380Y25417902D01*
X40116682Y25454212D01*
X39992200Y25466472D01*
X39005707Y25466472D01*
X37971034Y26501144D01*
X37943317Y26534917D01*
X37808559Y26645511D01*
X37663492Y26723050D01*
X37603162Y26796562D01*
X37468587Y26907005D01*
X37315052Y26989072D01*
X37148456Y27039608D01*
X36975202Y27056672D01*
X36075198Y27056672D01*
X35901944Y27039608D01*
X35735348Y26989072D01*
X35581813Y26907005D01*
X35447238Y26796562D01*
X35336795Y26661987D01*
X35254728Y26508452D01*
X35204192Y26341856D01*
X35187128Y26168602D01*
X35187128Y25643598D01*
X35204192Y25470344D01*
X35254728Y25303748D01*
X35336795Y25150213D01*
X35447238Y25015638D01*
X35474091Y24993600D01*
X35447238Y24971562D01*
X35442755Y24966100D01*
X34247330Y24966100D01*
X34173475Y25076632D01*
X33966632Y25283475D01*
X33792240Y25400000D01*
X33966632Y25516525D01*
X34173475Y25723368D01*
X34335990Y25966589D01*
X34447932Y26236842D01*
X34505000Y26523740D01*
X34505000Y26816260D01*
X34447932Y27103158D01*
X34335990Y27373411D01*
X34173475Y27616632D01*
X33966632Y27823475D01*
X33792240Y27940000D01*
X33966632Y28056525D01*
X34173475Y28263368D01*
X34335990Y28506589D01*
X34447932Y28776842D01*
X34505000Y29063740D01*
X34505000Y29356260D01*
X34447932Y29643158D01*
X34335990Y29913411D01*
X34173475Y30156632D01*
X33966632Y30363475D01*
X33792240Y30480000D01*
X33966632Y30596525D01*
X34173475Y30803368D01*
X34335990Y31046589D01*
X34384850Y31164548D01*
X35573600Y29975798D01*
X35573600Y29724140D01*
X35630668Y29437242D01*
X35742610Y29166989D01*
X35905125Y28923768D01*
X36111968Y28716925D01*
X36355189Y28554410D01*
X36625442Y28442468D01*
X36912340Y28385400D01*
X37204860Y28385400D01*
X37491758Y28442468D01*
X37762011Y28554410D01*
X38005232Y28716925D01*
X38212075Y28923768D01*
X38374590Y29166989D01*
X38486532Y29437242D01*
X38543600Y29724140D01*
X38543600Y30016660D01*
X38486532Y30303558D01*
X38374590Y30573811D01*
X38212075Y30817032D01*
X38005232Y31023875D01*
X37830840Y31140400D01*
X38005232Y31256925D01*
X38212075Y31463768D01*
X38374590Y31706989D01*
X38486532Y31977242D01*
X38543600Y32264140D01*
X38543600Y32556660D01*
X38499810Y32776808D01*
X38744604Y33021602D01*
X38773602Y33045400D01*
X38868575Y33161125D01*
X38939147Y33293154D01*
X38982604Y33436415D01*
X38993601Y33548068D01*
X38993601Y33548077D01*
X38997277Y33585400D01*
X38993601Y33622723D01*
X38993601Y38563079D01*
X38997277Y38600402D01*
X38993601Y38637725D01*
X38993601Y38637734D01*
X38982604Y38749387D01*
X38939147Y38892648D01*
X38868575Y39024677D01*
X38833017Y39068005D01*
X38797400Y39111405D01*
X38797396Y39111409D01*
X38773602Y39140402D01*
X38744610Y39164195D01*
X37429095Y40479708D01*
X37440958Y40482068D01*
X37711211Y40594010D01*
X37954432Y40756525D01*
X38161275Y40963368D01*
X38323790Y41206589D01*
X38435732Y41476842D01*
X38492800Y41763740D01*
X38492800Y42056260D01*
X38435732Y42343158D01*
X38323790Y42613411D01*
X38161275Y42856632D01*
X37954432Y43063475D01*
X37780040Y43180000D01*
X37954432Y43296525D01*
X38161275Y43503368D01*
X38323790Y43746589D01*
X38435732Y44016842D01*
X38492800Y44303740D01*
X38492800Y44596260D01*
X38435732Y44883158D01*
X38323790Y45153411D01*
X38161275Y45396632D01*
X37954432Y45603475D01*
X37780040Y45720000D01*
X37954432Y45836525D01*
X38161275Y46043368D01*
X38323790Y46286589D01*
X38435732Y46556842D01*
X38492800Y46843740D01*
X38492800Y47136260D01*
X38435732Y47423158D01*
X38323790Y47693411D01*
X38161275Y47936632D01*
X38029420Y48068487D01*
X38101980Y48090498D01*
X38212294Y48149463D01*
X38308985Y48228815D01*
X38388337Y48325506D01*
X38447302Y48435820D01*
X38483612Y48555518D01*
X38495872Y48680000D01*
X38495872Y50380000D01*
X38483612Y50504482D01*
X38447302Y50624180D01*
X38388337Y50734494D01*
X38308985Y50831185D01*
X38212294Y50910537D01*
X38101980Y50969502D01*
X37982282Y51005812D01*
X37857800Y51018072D01*
X36157800Y51018072D01*
X36033318Y51005812D01*
X35913620Y50969502D01*
X35803306Y50910537D01*
X35706615Y50831185D01*
X35627263Y50734494D01*
X35568298Y50624180D01*
X35531988Y50504482D01*
X35519728Y50380000D01*
X35519728Y48680000D01*
X35531988Y48555518D01*
X35568298Y48435820D01*
X35627263Y48325506D01*
X35706615Y48228815D01*
X35803306Y48149463D01*
X35913620Y48090498D01*
X35986180Y48068487D01*
X35854325Y47936632D01*
X35691810Y47693411D01*
X35579868Y47423158D01*
X35550133Y47273671D01*
X34147805Y48675998D01*
X34124002Y48705002D01*
X34008277Y48799975D01*
X33876248Y48870547D01*
X33732987Y48914004D01*
X33621334Y48925001D01*
X33621323Y48925001D01*
X33584001Y48928677D01*
X33546679Y48925001D01*
X29700524Y48925001D01*
X29663199Y48928677D01*
X29625874Y48925001D01*
X29625866Y48925001D01*
X29514213Y48914004D01*
X29370952Y48870547D01*
X29238923Y48799975D01*
X29123198Y48705002D01*
X29099400Y48676004D01*
X27337397Y46914000D01*
X27308399Y46890202D01*
X27284601Y46861204D01*
X27284600Y46861203D01*
X27213425Y46774477D01*
X27142853Y46642447D01*
X27134224Y46613999D01*
X27099397Y46499187D01*
X27088400Y46387534D01*
X27084723Y46350201D01*
X27088400Y46312869D01*
X27088399Y45315524D01*
X27084723Y45278201D01*
X27088399Y45240879D01*
X27088399Y45240869D01*
X27099396Y45129216D01*
X27138229Y45001198D01*
X27142853Y44985955D01*
X27213425Y44853925D01*
X27253270Y44805375D01*
X27308398Y44738200D01*
X27337401Y44714398D01*
X27550247Y44501551D01*
X27574332Y44380471D01*
X27644814Y44210311D01*
X27747138Y44057172D01*
X27877372Y43926938D01*
X28030511Y43824614D01*
X28200671Y43754132D01*
X28381311Y43718200D01*
X28565489Y43718200D01*
X28746129Y43754132D01*
X28916289Y43824614D01*
X29069428Y43926938D01*
X29199662Y44057172D01*
X29301986Y44210311D01*
X29372468Y44380471D01*
X29408400Y44561111D01*
X29408400Y44745289D01*
X29372468Y44925929D01*
X29345846Y44990201D01*
X31636406Y44990201D01*
X31592068Y44883158D01*
X31535000Y44596260D01*
X31535000Y44303740D01*
X31592068Y44016842D01*
X31704010Y43746589D01*
X31866525Y43503368D01*
X32073368Y43296525D01*
X32247760Y43180000D01*
X32073368Y43063475D01*
X31866525Y42856632D01*
X31704010Y42613411D01*
X31592068Y42343158D01*
X31535000Y42056260D01*
X31535000Y41763740D01*
X31592068Y41476842D01*
X31655460Y41323800D01*
X28149676Y41323800D01*
X28153268Y41332471D01*
X28189200Y41513111D01*
X28189200Y41530228D01*
X28332089Y41589414D01*
X28485228Y41691738D01*
X28615462Y41821972D01*
X28717786Y41975111D01*
X28788268Y42145271D01*
X28824200Y42325911D01*
X28824200Y42510089D01*
X28788268Y42690729D01*
X28717786Y42860889D01*
X28615462Y43014028D01*
X28485228Y43144262D01*
X28332089Y43246586D01*
X28161929Y43317068D01*
X27981289Y43353000D01*
X27797111Y43353000D01*
X27616471Y43317068D01*
X27582508Y43303000D01*
X12558579Y43303000D01*
X12436535Y43425044D01*
X12425226Y43481898D01*
X12347205Y43670256D01*
X12315000Y43718454D01*
X12315000Y46476946D01*
X12347205Y46525144D01*
X12425226Y46713502D01*
X12465000Y46913461D01*
X12465000Y47117339D01*
X12425226Y47317298D01*
X12347205Y47505656D01*
X12233937Y47675174D01*
X12089774Y47819337D01*
X11920256Y47932605D01*
X11731898Y48010626D01*
X11531939Y48050400D01*
X11328061Y48050400D01*
X11128102Y48010626D01*
X10939744Y47932605D01*
X10770226Y47819337D01*
X10626063Y47675174D01*
X10512795Y47505656D01*
X10434774Y47317298D01*
X10395000Y47117339D01*
X10395000Y46913461D01*
X10434774Y46713502D01*
X10512795Y46525144D01*
X10545001Y46476944D01*
X10545000Y43718455D01*
X10512795Y43670256D01*
X10434774Y43481898D01*
X10395000Y43281939D01*
X10395000Y43078061D01*
X10434774Y42878102D01*
X10512795Y42689744D01*
X10570401Y42603531D01*
X10570400Y40162455D01*
X10538195Y40114256D01*
X10460174Y39925898D01*
X10420400Y39725939D01*
X10420400Y39522061D01*
X10460174Y39322102D01*
X10538195Y39133744D01*
X10595801Y39047531D01*
X10595801Y38677280D01*
X10506737Y38810574D01*
X10362574Y38954737D01*
X10193056Y39068005D01*
X10004698Y39146026D01*
X9804739Y39185800D01*
X9600861Y39185800D01*
X9400902Y39146026D01*
X9212544Y39068005D01*
X9052789Y38961261D01*
X9105000Y39223740D01*
X9105000Y39516260D01*
X9047932Y39803158D01*
X8935990Y40073411D01*
X8773475Y40316632D01*
X8566632Y40523475D01*
X8392240Y40640000D01*
X8566632Y40756525D01*
X8773475Y40963368D01*
X8935990Y41206589D01*
X9047932Y41476842D01*
X9105000Y41763740D01*
X9105000Y42056260D01*
X9047932Y42343158D01*
X8935990Y42613411D01*
X8773475Y42856632D01*
X8566632Y43063475D01*
X8392240Y43180000D01*
X8566632Y43296525D01*
X8773475Y43503368D01*
X8935990Y43746589D01*
X9047932Y44016842D01*
X9105000Y44303740D01*
X9105000Y44596260D01*
X9047932Y44883158D01*
X8935990Y45153411D01*
X8773475Y45396632D01*
X8566632Y45603475D01*
X8392240Y45720000D01*
X8566632Y45836525D01*
X8773475Y46043368D01*
X8935990Y46286589D01*
X9047932Y46556842D01*
X9105000Y46843740D01*
X9105000Y47136260D01*
X9047932Y47423158D01*
X8935990Y47693411D01*
X8773475Y47936632D01*
X8641620Y48068487D01*
X8714180Y48090498D01*
X8824494Y48149463D01*
X8921185Y48228815D01*
X9000537Y48325506D01*
X9059502Y48435820D01*
X9095812Y48555518D01*
X9108072Y48680000D01*
X9108072Y50380000D01*
X9095812Y50504482D01*
X9059502Y50624180D01*
X9000537Y50734494D01*
X8921185Y50831185D01*
X8824494Y50910537D01*
X8714180Y50969502D01*
X8594482Y51005812D01*
X8470000Y51018072D01*
X6770000Y51018072D01*
X6645518Y51005812D01*
X6525820Y50969502D01*
X6415506Y50910537D01*
X6318815Y50831185D01*
X6239463Y50734494D01*
X6180498Y50624180D01*
X6144188Y50504482D01*
X6131928Y50380000D01*
X6131928Y48680000D01*
X6144188Y48555518D01*
X6180498Y48435820D01*
X6239463Y48325506D01*
X6318815Y48228815D01*
X6415506Y48149463D01*
X6525820Y48090498D01*
X6598380Y48068487D01*
X6466525Y47936632D01*
X6304010Y47693411D01*
X6192068Y47423158D01*
X6135000Y47136260D01*
X6135000Y46843740D01*
X6192068Y46556842D01*
X6304010Y46286589D01*
X6466525Y46043368D01*
X6673368Y45836525D01*
X6847760Y45720000D01*
X6673368Y45603475D01*
X6466525Y45396632D01*
X6304010Y45153411D01*
X6192068Y44883158D01*
X6135000Y44596260D01*
X6135000Y44303740D01*
X6192068Y44016842D01*
X6304010Y43746589D01*
X6466525Y43503368D01*
X6673368Y43296525D01*
X6847760Y43180000D01*
X6673368Y43063475D01*
X6466525Y42856632D01*
X6304010Y42613411D01*
X6192068Y42343158D01*
X6135000Y42056260D01*
X6135000Y41763740D01*
X6192068Y41476842D01*
X6304010Y41206589D01*
X6466525Y40963368D01*
X6673368Y40756525D01*
X6847760Y40640000D01*
X6673368Y40523475D01*
X6466525Y40316632D01*
X6304010Y40073411D01*
X6192068Y39803158D01*
X6135000Y39516260D01*
X6135000Y39223740D01*
X6192068Y38936842D01*
X6304010Y38666589D01*
X6466525Y38423368D01*
X6673368Y38216525D01*
X6847760Y38100000D01*
X6673368Y37983475D01*
X6466525Y37776632D01*
X6304010Y37533411D01*
X6192068Y37263158D01*
X6135000Y36976260D01*
X6135000Y36683740D01*
X6192068Y36396842D01*
X6304010Y36126589D01*
X6466525Y35883368D01*
X6673368Y35676525D01*
X6847760Y35560000D01*
X6673368Y35443475D01*
X6466525Y35236632D01*
X6304010Y34993411D01*
X6192068Y34723158D01*
X6135000Y34436260D01*
X6135000Y34143740D01*
X6192068Y33856842D01*
X6304010Y33586589D01*
X6466525Y33343368D01*
X6673368Y33136525D01*
X6847760Y33020000D01*
X6673368Y32903475D01*
X6466525Y32696632D01*
X6454376Y32678450D01*
X6257524Y32875302D01*
X6243829Y32887168D01*
X6015390Y33058176D01*
X6000147Y33067972D01*
X5749695Y33204729D01*
X5733212Y33212257D01*
X5465847Y33311979D01*
X5448461Y33317084D01*
X5169626Y33377741D01*
X5151690Y33380319D01*
X4867060Y33400676D01*
X4858000Y33401000D01*
X2004530Y33401000D01*
X1733496Y33420385D01*
X1472407Y33477181D01*
X1222060Y33570556D01*
X987555Y33698605D01*
X773662Y33858724D01*
X685000Y33947386D01*
X685000Y51385000D01*
X48845000Y51385000D01*
X48845001Y685000D01*
G37*
%TD.AperFunction*%
D22*
X10485574Y36426502D02*
X10563595Y36238144D01*
X10676863Y36068626D01*
X10821026Y35924463D01*
X10990544Y35811195D01*
X11178902Y35733174D01*
X11235757Y35721865D01*
X12043601Y34914020D01*
X12043600Y32268979D01*
X11520751Y31746129D01*
X11486984Y31718417D01*
X11459271Y31684649D01*
X11459268Y31684646D01*
X11376390Y31583659D01*
X11294212Y31429913D01*
X11243605Y31263090D01*
X11226519Y31089600D01*
X11230801Y31046121D01*
X11230800Y25926077D01*
X11230800Y25926076D01*
X11230801Y22852686D01*
X11230800Y22852676D01*
X11230800Y22852669D01*
X11226519Y22809200D01*
X11230800Y22765731D01*
X11230801Y20541279D01*
X11226519Y20497800D01*
X11243605Y20324310D01*
X11294212Y20157487D01*
X11332400Y20086041D01*
X11332401Y8773980D01*
X9096652Y6538230D01*
X9047932Y6783158D01*
X8935990Y7053411D01*
X8773475Y7296632D01*
X8566632Y7503475D01*
X8392240Y7620000D01*
X8566632Y7736525D01*
X8773475Y7943368D01*
X8935990Y8186589D01*
X9047932Y8456842D01*
X9105000Y8743740D01*
X9105000Y9036260D01*
X9047932Y9323158D01*
X8935990Y9593411D01*
X8773475Y9836632D01*
X8566632Y10043475D01*
X8392240Y10160000D01*
X8566632Y10276525D01*
X8773475Y10483368D01*
X8935990Y10726589D01*
X9047932Y10996842D01*
X9105000Y11283740D01*
X9105000Y11576260D01*
X9047932Y11863158D01*
X8935990Y12133411D01*
X8773475Y12376632D01*
X8566632Y12583475D01*
X8392240Y12700000D01*
X8566632Y12816525D01*
X8773475Y13023368D01*
X8935990Y13266589D01*
X9047932Y13536842D01*
X9105000Y13823740D01*
X9105000Y14116260D01*
X9047932Y14403158D01*
X8935990Y14673411D01*
X8773475Y14916632D01*
X8566632Y15123475D01*
X8323411Y15285990D01*
X8053158Y15397932D01*
X7766260Y15455000D01*
X7473740Y15455000D01*
X7186842Y15397932D01*
X6985000Y15314327D01*
X6985000Y17705673D01*
X7186842Y17622068D01*
X7473740Y17565000D01*
X7766260Y17565000D01*
X8053158Y17622068D01*
X8323411Y17734010D01*
X8566632Y17896525D01*
X8773475Y18103368D01*
X8935990Y18346589D01*
X9047932Y18616842D01*
X9105000Y18903740D01*
X9105000Y19196260D01*
X9047932Y19483158D01*
X8935990Y19753411D01*
X8773475Y19996632D01*
X8566632Y20203475D01*
X8392240Y20320000D01*
X8566632Y20436525D01*
X8773475Y20643368D01*
X8935990Y20886589D01*
X8973177Y20976368D01*
X9049071Y20944932D01*
X9229711Y20909000D01*
X9413889Y20909000D01*
X9594529Y20944932D01*
X9764689Y21015414D01*
X9917828Y21117738D01*
X10048062Y21247972D01*
X10150386Y21401111D01*
X10220868Y21571271D01*
X10256800Y21751911D01*
X10256800Y21936089D01*
X10232200Y22059760D01*
X10232200Y26684393D01*
X10315211Y26785541D01*
X10397389Y26939287D01*
X10447995Y27106110D01*
X10460800Y27236123D01*
X10460800Y27236133D01*
X10465081Y27279599D01*
X10460800Y27323065D01*
X10460800Y31621108D01*
X10474868Y31655071D01*
X10510800Y31835711D01*
X10510800Y32019889D01*
X10474868Y32200529D01*
X10460800Y32234492D01*
X10460800Y36551050D01*
X10485574Y36426502D01*
%TA.AperFunction,Conductor*%
D23*
G36*
X10485574Y36426502D02*
G01*
X10563595Y36238144D01*
X10676863Y36068626D01*
X10821026Y35924463D01*
X10990544Y35811195D01*
X11178902Y35733174D01*
X11235757Y35721865D01*
X12043601Y34914020D01*
X12043600Y32268979D01*
X11520751Y31746129D01*
X11486984Y31718417D01*
X11459271Y31684649D01*
X11459268Y31684646D01*
X11376390Y31583659D01*
X11294212Y31429913D01*
X11243605Y31263090D01*
X11226519Y31089600D01*
X11230801Y31046121D01*
X11230800Y25926077D01*
X11230800Y25926076D01*
X11230801Y22852686D01*
X11230800Y22852676D01*
X11230800Y22852669D01*
X11226519Y22809200D01*
X11230800Y22765731D01*
X11230801Y20541279D01*
X11226519Y20497800D01*
X11243605Y20324310D01*
X11294212Y20157487D01*
X11332400Y20086041D01*
X11332401Y8773980D01*
X9096652Y6538230D01*
X9047932Y6783158D01*
X8935990Y7053411D01*
X8773475Y7296632D01*
X8566632Y7503475D01*
X8392240Y7620000D01*
X8566632Y7736525D01*
X8773475Y7943368D01*
X8935990Y8186589D01*
X9047932Y8456842D01*
X9105000Y8743740D01*
X9105000Y9036260D01*
X9047932Y9323158D01*
X8935990Y9593411D01*
X8773475Y9836632D01*
X8566632Y10043475D01*
X8392240Y10160000D01*
X8566632Y10276525D01*
X8773475Y10483368D01*
X8935990Y10726589D01*
X9047932Y10996842D01*
X9105000Y11283740D01*
X9105000Y11576260D01*
X9047932Y11863158D01*
X8935990Y12133411D01*
X8773475Y12376632D01*
X8566632Y12583475D01*
X8392240Y12700000D01*
X8566632Y12816525D01*
X8773475Y13023368D01*
X8935990Y13266589D01*
X9047932Y13536842D01*
X9105000Y13823740D01*
X9105000Y14116260D01*
X9047932Y14403158D01*
X8935990Y14673411D01*
X8773475Y14916632D01*
X8566632Y15123475D01*
X8323411Y15285990D01*
X8053158Y15397932D01*
X7766260Y15455000D01*
X7473740Y15455000D01*
X7186842Y15397932D01*
X6985000Y15314327D01*
X6985000Y17705673D01*
X7186842Y17622068D01*
X7473740Y17565000D01*
X7766260Y17565000D01*
X8053158Y17622068D01*
X8323411Y17734010D01*
X8566632Y17896525D01*
X8773475Y18103368D01*
X8935990Y18346589D01*
X9047932Y18616842D01*
X9105000Y18903740D01*
X9105000Y19196260D01*
X9047932Y19483158D01*
X8935990Y19753411D01*
X8773475Y19996632D01*
X8566632Y20203475D01*
X8392240Y20320000D01*
X8566632Y20436525D01*
X8773475Y20643368D01*
X8935990Y20886589D01*
X8973177Y20976368D01*
X9049071Y20944932D01*
X9229711Y20909000D01*
X9413889Y20909000D01*
X9594529Y20944932D01*
X9764689Y21015414D01*
X9917828Y21117738D01*
X10048062Y21247972D01*
X10150386Y21401111D01*
X10220868Y21571271D01*
X10256800Y21751911D01*
X10256800Y21936089D01*
X10232200Y22059760D01*
X10232200Y26684393D01*
X10315211Y26785541D01*
X10397389Y26939287D01*
X10447995Y27106110D01*
X10460800Y27236123D01*
X10460800Y27236133D01*
X10465081Y27279599D01*
X10460800Y27323065D01*
X10460800Y31621108D01*
X10474868Y31655071D01*
X10510800Y31835711D01*
X10510800Y32019889D01*
X10474868Y32200529D01*
X10460800Y32234492D01*
X10460800Y36551050D01*
X10485574Y36426502D01*
G37*
%TD.AperFunction*%
D22*
X35630668Y34517242D02*
X35742610Y34246989D01*
X35905125Y34003768D01*
X36111968Y33796925D01*
X36286360Y33680400D01*
X36111968Y33563875D01*
X35905125Y33357032D01*
X35742610Y33113811D01*
X35630668Y32843558D01*
X35573600Y32556660D01*
X35573600Y32264140D01*
X35608050Y32090952D01*
X34073005Y33625996D01*
X34049202Y33655000D01*
X33933477Y33749973D01*
X33801448Y33820545D01*
X33658187Y33864002D01*
X33546534Y33874999D01*
X33546523Y33874999D01*
X33509201Y33878675D01*
X33471879Y33874999D01*
X31324202Y33874999D01*
X30494200Y34705001D01*
X35593320Y34705001D01*
X35630668Y34517242D01*
%TA.AperFunction,Conductor*%
D23*
G36*
X35630668Y34517242D02*
G01*
X35742610Y34246989D01*
X35905125Y34003768D01*
X36111968Y33796925D01*
X36286360Y33680400D01*
X36111968Y33563875D01*
X35905125Y33357032D01*
X35742610Y33113811D01*
X35630668Y32843558D01*
X35573600Y32556660D01*
X35573600Y32264140D01*
X35608050Y32090952D01*
X34073005Y33625996D01*
X34049202Y33655000D01*
X33933477Y33749973D01*
X33801448Y33820545D01*
X33658187Y33864002D01*
X33546534Y33874999D01*
X33546523Y33874999D01*
X33509201Y33878675D01*
X33471879Y33874999D01*
X31324202Y33874999D01*
X30494200Y34705001D01*
X35593320Y34705001D01*
X35630668Y34517242D01*
G37*
%TD.AperFunction*%
%TD*%
M02*
