%TF.GenerationSoftware,KiCad,Pcbnew,(5.1.10)-1*%
%TF.CreationDate,2022-01-17T10:12:51+08:00*%
%TF.ProjectId,armband_controller_ver2.0,61726d62-616e-4645-9f63-6f6e74726f6c,rev?*%
%TF.SameCoordinates,PX8a12ae0PY621abf0*%
%TF.FileFunction,Paste,Top*%
%TF.FilePolarity,Positive*%
%FSLAX46Y46*%
G04 Gerber Fmt 4.6, Leading zero omitted, Abs format (unit mm)*
G04 Created by KiCad (PCBNEW (5.1.10)-1) date 2022-01-17 10:12:51*
%MOMM*%
%LPD*%
G01*
G04 APERTURE LIST*
%ADD10R,0.750000X0.650000*%
%ADD11R,0.500000X0.250000*%
%ADD12R,1.100000X0.250000*%
%ADD13R,2.500000X1.800000*%
G04 APERTURE END LIST*
D10*
%TO.C,U7*%
X11252200Y22002800D03*
X11252200Y22802800D03*
D11*
X10302200Y22652800D03*
X10302200Y23152800D03*
X12202200Y23152800D03*
X12202200Y22152800D03*
X12202200Y21652800D03*
X10302200Y21652800D03*
X10302200Y22152800D03*
X12202200Y22652800D03*
%TD*%
D10*
%TO.C,U6*%
X11303000Y27159000D03*
X11303000Y27959000D03*
D11*
X10353000Y27809000D03*
X10353000Y28309000D03*
X12253000Y28309000D03*
X12253000Y27309000D03*
X12253000Y26809000D03*
X10353000Y26809000D03*
X10353000Y27309000D03*
X12253000Y27809000D03*
%TD*%
D10*
%TO.C,U5*%
X11277600Y33178800D03*
X11277600Y33978800D03*
D11*
X10327600Y33828800D03*
X10327600Y34328800D03*
X12227600Y34328800D03*
X12227600Y33328800D03*
X12227600Y32828800D03*
X10327600Y32828800D03*
X10327600Y33328800D03*
X12227600Y33828800D03*
%TD*%
D10*
%TO.C,U4*%
X27787600Y30905400D03*
X27787600Y30105400D03*
D11*
X28737600Y30255400D03*
X28737600Y29755400D03*
X26837600Y29755400D03*
X26837600Y30755400D03*
X26837600Y31255400D03*
X28737600Y31255400D03*
X28737600Y30755400D03*
X26837600Y30255400D03*
%TD*%
D12*
%TO.C,U3*%
X29988400Y42300400D03*
X29988400Y41800400D03*
X29988400Y41300400D03*
X29988400Y40800400D03*
X29988400Y40300400D03*
X25688400Y40300400D03*
X25688400Y40800400D03*
X25688400Y41300400D03*
X25688400Y41800400D03*
X25688400Y42300400D03*
%TD*%
%TO.C,U2*%
X29937600Y47558200D03*
X29937600Y47058200D03*
X29937600Y46558200D03*
X29937600Y46058200D03*
X29937600Y45558200D03*
X25637600Y45558200D03*
X25637600Y46058200D03*
X25637600Y46558200D03*
X25637600Y47058200D03*
X25637600Y47558200D03*
%TD*%
%TO.C,U1*%
G36*
G01*
X28448600Y16652300D02*
X28448600Y16977300D01*
G75*
G02*
X28611100Y17139800I162500J0D01*
G01*
X30261100Y17139800D01*
G75*
G02*
X30423600Y16977300I0J-162500D01*
G01*
X30423600Y16652300D01*
G75*
G02*
X30261100Y16489800I-162500J0D01*
G01*
X28611100Y16489800D01*
G75*
G02*
X28448600Y16652300I0J162500D01*
G01*
G37*
G36*
G01*
X28448600Y15382300D02*
X28448600Y15707300D01*
G75*
G02*
X28611100Y15869800I162500J0D01*
G01*
X30261100Y15869800D01*
G75*
G02*
X30423600Y15707300I0J-162500D01*
G01*
X30423600Y15382300D01*
G75*
G02*
X30261100Y15219800I-162500J0D01*
G01*
X28611100Y15219800D01*
G75*
G02*
X28448600Y15382300I0J162500D01*
G01*
G37*
G36*
G01*
X28448600Y14112300D02*
X28448600Y14437300D01*
G75*
G02*
X28611100Y14599800I162500J0D01*
G01*
X30261100Y14599800D01*
G75*
G02*
X30423600Y14437300I0J-162500D01*
G01*
X30423600Y14112300D01*
G75*
G02*
X30261100Y13949800I-162500J0D01*
G01*
X28611100Y13949800D01*
G75*
G02*
X28448600Y14112300I0J162500D01*
G01*
G37*
G36*
G01*
X28448600Y12842300D02*
X28448600Y13167300D01*
G75*
G02*
X28611100Y13329800I162500J0D01*
G01*
X30261100Y13329800D01*
G75*
G02*
X30423600Y13167300I0J-162500D01*
G01*
X30423600Y12842300D01*
G75*
G02*
X30261100Y12679800I-162500J0D01*
G01*
X28611100Y12679800D01*
G75*
G02*
X28448600Y12842300I0J162500D01*
G01*
G37*
G36*
G01*
X23373600Y12842300D02*
X23373600Y13167300D01*
G75*
G02*
X23536100Y13329800I162500J0D01*
G01*
X25186100Y13329800D01*
G75*
G02*
X25348600Y13167300I0J-162500D01*
G01*
X25348600Y12842300D01*
G75*
G02*
X25186100Y12679800I-162500J0D01*
G01*
X23536100Y12679800D01*
G75*
G02*
X23373600Y12842300I0J162500D01*
G01*
G37*
G36*
G01*
X23373600Y14112300D02*
X23373600Y14437300D01*
G75*
G02*
X23536100Y14599800I162500J0D01*
G01*
X25186100Y14599800D01*
G75*
G02*
X25348600Y14437300I0J-162500D01*
G01*
X25348600Y14112300D01*
G75*
G02*
X25186100Y13949800I-162500J0D01*
G01*
X23536100Y13949800D01*
G75*
G02*
X23373600Y14112300I0J162500D01*
G01*
G37*
G36*
G01*
X23373600Y15382300D02*
X23373600Y15707300D01*
G75*
G02*
X23536100Y15869800I162500J0D01*
G01*
X25186100Y15869800D01*
G75*
G02*
X25348600Y15707300I0J-162500D01*
G01*
X25348600Y15382300D01*
G75*
G02*
X25186100Y15219800I-162500J0D01*
G01*
X23536100Y15219800D01*
G75*
G02*
X23373600Y15382300I0J162500D01*
G01*
G37*
G36*
G01*
X23373600Y16652300D02*
X23373600Y16977300D01*
G75*
G02*
X23536100Y17139800I162500J0D01*
G01*
X25186100Y17139800D01*
G75*
G02*
X25348600Y16977300I0J-162500D01*
G01*
X25348600Y16652300D01*
G75*
G02*
X25186100Y16489800I-162500J0D01*
G01*
X23536100Y16489800D01*
G75*
G02*
X23373600Y16652300I0J162500D01*
G01*
G37*
%TD*%
%TO.C,R3*%
G36*
G01*
X26993800Y33839998D02*
X26993800Y34740002D01*
G75*
G02*
X27243798Y34990000I249998J0D01*
G01*
X27768802Y34990000D01*
G75*
G02*
X28018800Y34740002I0J-249998D01*
G01*
X28018800Y33839998D01*
G75*
G02*
X27768802Y33590000I-249998J0D01*
G01*
X27243798Y33590000D01*
G75*
G02*
X26993800Y33839998I0J249998D01*
G01*
G37*
G36*
G01*
X25168800Y33839998D02*
X25168800Y34740002D01*
G75*
G02*
X25418798Y34990000I249998J0D01*
G01*
X25943802Y34990000D01*
G75*
G02*
X26193800Y34740002I0J-249998D01*
G01*
X26193800Y33839998D01*
G75*
G02*
X25943802Y33590000I-249998J0D01*
G01*
X25418798Y33590000D01*
G75*
G02*
X25168800Y33839998I0J249998D01*
G01*
G37*
%TD*%
%TO.C,R2*%
G36*
G01*
X30295002Y37788800D02*
X29394998Y37788800D01*
G75*
G02*
X29145000Y38038798I0J249998D01*
G01*
X29145000Y38563802D01*
G75*
G02*
X29394998Y38813800I249998J0D01*
G01*
X30295002Y38813800D01*
G75*
G02*
X30545000Y38563802I0J-249998D01*
G01*
X30545000Y38038798D01*
G75*
G02*
X30295002Y37788800I-249998J0D01*
G01*
G37*
G36*
G01*
X30295002Y35963800D02*
X29394998Y35963800D01*
G75*
G02*
X29145000Y36213798I0J249998D01*
G01*
X29145000Y36738802D01*
G75*
G02*
X29394998Y36988800I249998J0D01*
G01*
X30295002Y36988800D01*
G75*
G02*
X30545000Y36738802I0J-249998D01*
G01*
X30545000Y36213798D01*
G75*
G02*
X30295002Y35963800I-249998J0D01*
G01*
G37*
%TD*%
%TO.C,R1*%
G36*
G01*
X26307202Y37763400D02*
X25407198Y37763400D01*
G75*
G02*
X25157200Y38013398I0J249998D01*
G01*
X25157200Y38538402D01*
G75*
G02*
X25407198Y38788400I249998J0D01*
G01*
X26307202Y38788400D01*
G75*
G02*
X26557200Y38538402I0J-249998D01*
G01*
X26557200Y38013398D01*
G75*
G02*
X26307202Y37763400I-249998J0D01*
G01*
G37*
G36*
G01*
X26307202Y35938400D02*
X25407198Y35938400D01*
G75*
G02*
X25157200Y36188398I0J249998D01*
G01*
X25157200Y36713402D01*
G75*
G02*
X25407198Y36963400I249998J0D01*
G01*
X26307202Y36963400D01*
G75*
G02*
X26557200Y36713402I0J-249998D01*
G01*
X26557200Y36188398D01*
G75*
G02*
X26307202Y35938400I-249998J0D01*
G01*
G37*
%TD*%
D13*
%TO.C,D8*%
X19297400Y20497800D03*
X15297400Y20497800D03*
%TD*%
%TO.C,D7*%
X19272000Y24333200D03*
X15272000Y24333200D03*
%TD*%
%TO.C,D6*%
X19272000Y28143200D03*
X15272000Y28143200D03*
%TD*%
%TO.C,D5*%
X19272000Y31953200D03*
X15272000Y31953200D03*
%TD*%
%TO.C,D4*%
X19246600Y35788600D03*
X15246600Y35788600D03*
%TD*%
%TO.C,D3*%
X19221200Y39598600D03*
X15221200Y39598600D03*
%TD*%
%TO.C,D2*%
X19221200Y43307000D03*
X15221200Y43307000D03*
%TD*%
%TO.C,D1*%
X19221200Y47015400D03*
X15221200Y47015400D03*
%TD*%
%TO.C,C3*%
G36*
G01*
X26983600Y5933400D02*
X28083600Y5933400D01*
G75*
G02*
X28333600Y5683400I0J-250000D01*
G01*
X28333600Y2683400D01*
G75*
G02*
X28083600Y2433400I-250000J0D01*
G01*
X26983600Y2433400D01*
G75*
G02*
X26733600Y2683400I0J250000D01*
G01*
X26733600Y5683400D01*
G75*
G02*
X26983600Y5933400I250000J0D01*
G01*
G37*
G36*
G01*
X26983600Y11333400D02*
X28083600Y11333400D01*
G75*
G02*
X28333600Y11083400I0J-250000D01*
G01*
X28333600Y8083400D01*
G75*
G02*
X28083600Y7833400I-250000J0D01*
G01*
X26983600Y7833400D01*
G75*
G02*
X26733600Y8083400I0J250000D01*
G01*
X26733600Y11083400D01*
G75*
G02*
X26983600Y11333400I250000J0D01*
G01*
G37*
%TD*%
%TO.C,C2*%
G36*
G01*
X19770000Y5933400D02*
X20870000Y5933400D01*
G75*
G02*
X21120000Y5683400I0J-250000D01*
G01*
X21120000Y2683400D01*
G75*
G02*
X20870000Y2433400I-250000J0D01*
G01*
X19770000Y2433400D01*
G75*
G02*
X19520000Y2683400I0J250000D01*
G01*
X19520000Y5683400D01*
G75*
G02*
X19770000Y5933400I250000J0D01*
G01*
G37*
G36*
G01*
X19770000Y11333400D02*
X20870000Y11333400D01*
G75*
G02*
X21120000Y11083400I0J-250000D01*
G01*
X21120000Y8083400D01*
G75*
G02*
X20870000Y7833400I-250000J0D01*
G01*
X19770000Y7833400D01*
G75*
G02*
X19520000Y8083400I0J250000D01*
G01*
X19520000Y11083400D01*
G75*
G02*
X19770000Y11333400I250000J0D01*
G01*
G37*
%TD*%
%TO.C,C1*%
G36*
G01*
X13656400Y7833400D02*
X12556400Y7833400D01*
G75*
G02*
X12306400Y8083400I0J250000D01*
G01*
X12306400Y11083400D01*
G75*
G02*
X12556400Y11333400I250000J0D01*
G01*
X13656400Y11333400D01*
G75*
G02*
X13906400Y11083400I0J-250000D01*
G01*
X13906400Y8083400D01*
G75*
G02*
X13656400Y7833400I-250000J0D01*
G01*
G37*
G36*
G01*
X13656400Y2433400D02*
X12556400Y2433400D01*
G75*
G02*
X12306400Y2683400I0J250000D01*
G01*
X12306400Y5683400D01*
G75*
G02*
X12556400Y5933400I250000J0D01*
G01*
X13656400Y5933400D01*
G75*
G02*
X13906400Y5683400I0J-250000D01*
G01*
X13906400Y2683400D01*
G75*
G02*
X13656400Y2433400I-250000J0D01*
G01*
G37*
%TD*%
M02*
