M48
; DRILL file {KiCad (5.1.10)-1} date 01/17/22 10:12:57
; FORMAT={-:-/ absolute / metric / decimal}
; #@! TF.CreationDate,2022-01-17T10:12:57+08:00
; #@! TF.GenerationSoftware,Kicad,Pcbnew,(5.1.10)-1
; #@! TF.FileFunction,Plated,1,2,PTH
FMAT,2
METRIC
T1C0.400
T2C0.800
T3C1.000
T4C2.200
%
G90
G05
T1
X9.322Y21.844
X9.347Y27.051
X9.576Y31.928
X9.703Y38.151
X11.252Y24.359
X11.278Y35.052
X11.278Y29.616
X11.43Y47.015
X11.43Y43.18
X11.455Y39.624
X11.481Y36.728
X12.192Y26.162
X12.217Y20.396
X12.852Y38.125
X12.929Y31.902
X13.513Y26.822
X14.021Y22.784
X24.486Y40.792
X25.629Y39.421
X25.681Y32.158
X27.254Y41.605
X27.28Y40.564
X27.889Y42.418
X28.473Y46.05
X28.473Y44.653
X29.997Y32.69
T2
X39.192Y24.028
X39.192Y21.488
X39.192Y18.948
X46.812Y24.028
X46.812Y21.488
X46.812Y18.948
T3
X3.175Y6.401
X3.175Y3.861
X7.62Y49.53
X7.62Y46.99
X7.62Y44.45
X7.62Y41.91
X7.62Y39.37
X7.62Y36.83
X7.62Y34.29
X7.62Y31.75
X7.62Y29.21
X7.62Y26.67
X7.62Y24.13
X7.62Y21.59
X7.62Y19.05
X7.62Y16.51
X7.62Y13.97
X7.62Y11.43
X7.62Y8.89
X7.62Y6.35
X7.62Y3.81
X22.682Y39.218
X22.682Y36.678
X22.682Y34.138
X22.682Y31.598
X22.682Y29.058
X22.682Y26.518
X22.682Y23.978
X22.682Y21.438
X33.02Y49.53
X33.02Y46.99
X33.02Y44.45
X33.02Y41.91
X33.02Y39.37
X33.02Y36.83
X33.02Y34.29
X33.02Y31.75
X33.02Y29.21
X33.02Y26.67
X33.02Y24.13
X33.02Y21.59
X33.02Y19.05
X33.02Y16.51
X33.02Y13.97
X33.02Y11.43
X33.02Y8.89
X33.02Y6.35
X33.02Y3.81
X37.008Y49.53
X37.008Y46.99
X37.008Y44.45
X37.008Y41.91
X37.059Y37.49
X37.059Y34.95
X37.059Y32.41
X37.059Y29.87
X39.7Y13.614
X39.7Y11.074
X39.7Y8.534
T4
X2.54Y49.53
X2.54Y29.21
X2.54Y24.13
X2.54Y19.05
X46.99Y2.54
T0
M30
